<?xml version="1.0" encoding="utf-8"?>
<!-- Generator: Adobe Illustrator 16.0.0, SVG Export Plug-In . SVG Version: 6.00 Build 0)  -->
<!DOCTYPE svg PUBLIC "-//W3C//DTD SVG 1.1//EN" "http://www.w3.org/Graphics/SVG/1.1/DTD/svg11.dtd">
<svg version="1.1" id="mistura_x5F_cor" xmlns="http://www.w3.org/2000/svg" xmlns:xlink="http://www.w3.org/1999/xlink" x="0px"
	 y="0px" width="368.62px" height="78.742px" viewBox="0 0 368.62 78.742" enable-background="new 0 0 368.62 78.742"
	 xml:space="preserve">
<g>
	<g>
		<path fill="#EF7D00" d="M300.074,23.082c22.209,2.366,33.977,13.851,33.977,36.062c0,13.319-8.108,19.599-17.259,19.599
			c-8.615,0-15.418-6.006-15.418-13.579c0-6.276,2.106-9.678,6.022-12.298c3.397-2.337,6.779-2.59,6.779-6.784
			c0-4.953-4.958-8.89-14.102-10.187V23.082z"/>
		<path fill="#EF7D00" d="M335.01,23.979c3.02,5.862,6.843,8.399,10.188,7.411c2.834-0.835,2.211-3.137,2.996-5.887
			c0.852-3.139,2.656-5.228,6.899-6.468c5.113-1.509,10.763,1.852,12.785,7.627c2.142,6.111-0.195,12.782-9.204,15.43
			c-15.006,4.413-25.518-1.18-32.325-15.563L335.01,23.979z"/>
	</g>
	<g>
		<path fill="#FFFFFF" d="M23.68,28.296c-9.031,0-15.352,2.308-15.352,4.014v41.64c0,1.506-0.702,2.608-2.408,2.608
			c-2.208,0-5.92-0.501-5.92-1.604v-44.65c0-3.812,10.033-9.131,24.984-9.131c4.214,0,7.726,1.906,9.532,4.114
			c4.916-2.408,11.539-4.114,20.067-4.114c12.342,0,12.844,8.63,12.844,18.463v34.314c0,1.506-0.603,2.608-2.309,2.608
			c-2.308,0-6.02-0.501-6.02-1.604v-32.71c0-7.826-0.3-13.947-5.819-13.947c-9.03,0-15.352,2.308-15.352,4.014v41.64
			c0,1.506-0.702,2.608-2.408,2.608c-2.207,0-5.92-0.501-5.92-1.604V38.731C29.6,32.712,28.396,28.296,23.68,28.296z"/>
		<path fill="#FFFFFF" d="M76.556,1.606C76.556,0.502,80.269,0,82.577,0c1.706,0,2.308,1.104,2.308,2.609v7.325
			c0,1.505-0.602,2.608-2.308,2.608c-2.308,0-6.021-0.501-6.021-1.604V1.606z M97.226,72.545c0.301,1.205-0.301,1.807-1.605,2.308
			c-3.01,1.104-6.021,1.705-8.83,1.705c-5.82,0-10.235-3.31-10.235-12.943V22.778c0-1.205,3.712-1.706,6.021-1.706
			c1.706,0,2.308,1.204,2.308,2.608v36.422c0,7.525,1.505,9.934,7.425,8.229c0.401-0.1,0.903-0.1,2.309-0.501
			C95.621,67.528,96.724,70.639,97.226,72.545z"/>
		<path fill="#FFFFFF" d="M117.393,69.134c6.02,0,11.94-1.104,11.94-5.819c0-4.517-8.128-9.732-12.743-12.843
			c-6.121-3.812-13.345-8.028-13.345-16.255c0-11.038,10.836-13.245,20.068-13.245c3.812,0,7.827,0.702,11.438,1.605
			c1.305,0.301,2.007,1.003,1.807,2.308c-0.402,1.906-1.405,5.117-2.409,4.917c-5.018-1.104-8.127-1.405-11.64-1.405
			c-5.116,0-10.535,1.104-10.535,5.619c0,3.612,4.515,6.522,9.23,9.633c9.332,6.119,17.058,11.939,17.058,19.062
			c0,10.136-9.934,13.847-20.068,13.847c-5.619,0-11.137-1.203-15.854-2.808c-1.204-0.502-2.006-1.205-1.605-2.409
			c0.502-1.906,1.706-5.017,2.809-4.716C107.86,67.93,112.476,69.134,117.393,69.134z"/>
		<path fill="#FFFFFF" d="M160.636,76.459c-1.104,0-2.308,0-3.211-0.101c-6.522-1.004-8.93-5.519-8.93-16.957V29.6h-7.023
			c-0.903,0-1.807-0.2-1.906-1.304c-0.2-0.703-0.101-1.505,0-2.208c0.1-1.103,0.301-3.711,1.204-3.711h7.726V8.53
			c0-1.004,2.91-1.205,4.215-1.405c0.802-0.1,1.605-0.201,2.508-0.1c1.305,0.2,1.605,1.203,1.605,2.408v12.943h10.435
			c1.003,0,1.907,0.2,2.007,1.304c0.101,0.803,0.101,1.505-0.1,2.107c-0.1,1.104-0.3,3.812-1.104,3.812h-11.238v30.705
			c0,4.014,0.302,6.822,1.807,7.927c1.204,1.003,3.511,1.003,7.625-0.401c0.201,0,0.703-0.202,1.003-0.202
			c0.402,0,0.703,0.302,1.003,0.703c1.003,1.405,1.405,4.014,1.505,4.917c0,0.903-0.702,1.304-1.605,1.604
			C165.553,75.856,162.945,76.358,160.636,76.459z"/>
		<path fill="#FFFFFF" d="M174.984,23.681c0-1.705,2.709-2.509,4.716-2.509s3.712,0.804,3.712,1.706v32.61
			c0,7.826,0.301,13.946,5.92,13.946c9.03,0,16.355-2.308,16.355-4.014v-41.74c0-1.705,2.71-2.509,4.615-2.509
			c2.007,0,3.812,0.804,3.812,1.706v44.551c0,3.812-11.238,9.129-26.188,9.129c-12.342,0-12.943-8.628-12.943-18.461V23.681z"/>
		<path fill="#FFFFFF" d="M245.018,28.396c-4.815,0-10.134,1.203-12.542,4.214v41.339c0,1.506-0.602,2.608-2.308,2.608
			c-2.308,0-6.021-0.501-6.021-1.604v-44.65c1.505-6.321,11.339-9.131,20.168-9.131c3.212,0,7.826,0.401,8.63,1.505
			c0.502,1.505-0.102,2.81-0.502,3.411c-0.502,0.804-1.205,3.011-2.108,2.811C248.832,28.698,246.924,28.396,245.018,28.396z"/>
		<path fill="#FFFFFF" d="M292.78,70.036c0,5.52-22.576,6.521-26.088,6.521c-10.234,0-12.643-6.02-12.643-15.65
			c0-8.229,1.205-15.955,12.543-15.955c6.522,0,12.741,0.804,17.759,2.81c-0.1-14.549-2.107-19.466-11.639-19.466
			c-1.807,0-3.412,0.2-6.521,0.702l-4.216,0.703c-1.103,0.101-2.006-2.91-2.407-4.816c-0.3-1.404,0.502-2.106,1.706-2.408
			l3.01-0.602c2.608-0.401,5.619-0.703,9.432-0.703c12.744,0,19.064,7.425,19.064,19.666V70.036z M284.351,67.328V55.187
			c-1.605-1.304-7.225-3.01-15.25-3.01c-4.717,0-6.422,2.508-6.523,7.926c0,5.52,1.004,9.332,5.619,9.332
			C276.024,69.435,281.642,68.231,284.351,67.328z"/>
	</g>
</g>
</svg>
