<?xml version="1.0" standalone="no"?>
<!DOCTYPE svg PUBLIC "-//W3C//DTD SVG 1.1//EN" "http://www.w3.org/Graphics/SVG/1.1/DTD/svg11.dtd" >
<svg xmlns="http://www.w3.org/2000/svg">
<metadata></metadata>
<defs>
<font id="RonniaRegular" horiz-adv-x="1243" >
<font-face units-per-em="2048" ascent="1638" descent="-410" />
<missing-glyph horiz-adv-x="409" />
<glyph unicode="&#xfb01;" horiz-adv-x="1114" d="M8 928v162h166q0 61 4 92q15 140 114 218.5t273 78.5q146 0 275 -39l-21 -164q-100 35 -211 35q-110 0 -165.5 -39.5t-55.5 -132.5v-49h576v-1090h-215v928h-361v-928h-213v928h-166z" />
<glyph unicode="&#xfb02;" horiz-adv-x="1316" d="M8 928v162h166q0 54 2 81q11 145 113 227.5t301 82.5q107 0 218.5 -18t188.5 -44v-1108q0 -81 23.5 -117t79.5 -36q63 0 153 41l27 -170q-104 -49 -231 -49q-151 0 -211 77.5t-60 225.5v1009q-99 21 -180 21q-111 0 -161 -41t-50 -142v-40h240v-162h-240v-928h-213v928 h-166z" />
<glyph unicode="&#xfb03;" horiz-adv-x="1714" d="M8 928v162h166q0 99 18 172t59.5 127.5t112 82t171.5 27.5q116 0 217 -33l-15 -163q-92 30 -184 30q-49 0 -79 -9.5t-43.5 -23.5t-24.5 -38q-19 -39 -19 -172h385q0 61 4 92q15 140 114 218.5t273 78.5q146 0 275 -39l-21 -164q-100 35 -211 35q-110 0 -165.5 -39.5 t-55.5 -132.5v-49h576v-1090h-215v928h-361v-928h-213v928h-385v-928h-213v928h-166z" />
<glyph unicode="&#xfb04;" horiz-adv-x="1941" d="M8 928v162h166q0 203 82 306t279 103q116 0 217 -33l-15 -163q-92 30 -184 30q-71 0 -100.5 -17t-46.5 -54q-19 -39 -19 -172h412q0 54 2 81q11 145 112.5 227.5t300.5 82.5q107 0 219 -18t189 -44v-1108q0 -81 23 -117t79 -36q64 0 154 41l27 -170q-104 -49 -232 -49 q-151 0 -210.5 77.5t-59.5 225.5v1009q-99 21 -180 21q-111 0 -161 -41t-50 -142v-40h239v-162h-239v-928h-213v928h-412v-928h-213v928h-166z" />
<glyph horiz-adv-x="0" />
<glyph horiz-adv-x="0" />
<glyph horiz-adv-x="2048" />
<glyph unicode="&#xd;" horiz-adv-x="890" />
<glyph unicode=" "  horiz-adv-x="409" />
<glyph unicode="&#x09;" horiz-adv-x="409" />
<glyph unicode="&#xa0;" horiz-adv-x="409" />
<glyph unicode="!" horiz-adv-x="524" d="M139 115q0 54 34 92.5t89 38.5q57 0 90 -36.5t33 -92.5q0 -57 -32 -94t-89 -37t-91 36t-34 93zM141 1473h240l-31 -1055h-174z" />
<glyph unicode="&#x22;" horiz-adv-x="731" d="M106 1446h199l-24 -531h-148zM434 1446h199l-25 -531h-147z" />
<glyph unicode="#" horiz-adv-x="1413" d="M72 383l55 158h227l88 293h-227l51 161h230l108 361h178l-106 -361h248l108 361h178l-106 -361h239l-53 -161h-239l-90 -293h245l-55 -158h-244l-112 -383h-183l115 383h-246l-112 -383h-183l115 383h-229zM535 541h247l90 293h-249z" />
<glyph unicode="$" horiz-adv-x="1071" d="M80 109q35 76 78 178q66 -57 156.5 -92t177.5 -35q100 0 163.5 55.5t63.5 146.5q0 94 -55 151.5t-158 96.5q-68 26 -116.5 49.5t-103.5 61.5t-89 80t-57 103t-23 134q0 161 93 260t232 121v185h191v-183q78 -12 140 -46t100 -81t59.5 -96.5t28.5 -101.5 q-151 -45 -187 -54q-25 105 -85.5 156t-143.5 51q-88 0 -148.5 -46t-60.5 -140q0 -92 63.5 -153t178.5 -107q60 -24 107.5 -48t97.5 -61t83 -78t54.5 -98.5t21.5 -124.5q0 -154 -78.5 -259t-226.5 -140v-201h-191v191h-2q-109 6 -214.5 43.5t-149.5 81.5z" />
<glyph unicode="%" horiz-adv-x="1775" d="M102 1053q0 108 25.5 191t71 132t101.5 73t122 24q143 0 223 -101t80 -317q0 -209 -83 -317.5t-226 -108.5q-148 0 -231 108.5t-83 315.5zM283 1044q0 -126 34.5 -196t98.5 -70q62 0 96.5 70.5t34.5 202.5t-32.5 204t-94.5 72q-66 0 -101.5 -74.5t-35.5 -208.5zM444 0 l693 1473h202l-694 -1473h-201zM1051 395q0 211 90 315.5t227 104.5q144 0 224.5 -100.5t80.5 -315.5q0 -211 -83 -319.5t-226 -108.5q-147 0 -230 108.5t-83 315.5zM1231 387q0 -126 34.5 -196t98.5 -70q62 0 96.5 70.5t34.5 203.5q0 131 -32.5 203t-96.5 72t-99.5 -74.5 t-35.5 -208.5z" />
<glyph unicode="&#x26;" horiz-adv-x="1421" d="M102 397q0 165 91 278.5t245 174.5q-143 159 -143 303q0 143 100 232.5t287 89.5q165 0 266 -79t101 -216q0 -126 -91 -242l-155 94q45 72 45 129q0 68 -47.5 105t-120.5 37q-84 0 -128 -41t-44 -105q0 -50 24 -96t72 -105q328 -409 787 -874l-140 -133 q-129 115 -225 229q-104 -105 -212 -155t-243 -50q-119 0 -211.5 35.5t-147.5 96t-82.5 134.5t-27.5 158zM332 410q0 -115 69 -187.5t195 -72.5q87 0 161.5 37t145.5 118q-173 178 -354 402q-100 -32 -158.5 -111t-58.5 -186z" />
<glyph unicode="'" horiz-adv-x="405" d="M106 1446h199l-24 -531h-148z" />
<glyph unicode="(" horiz-adv-x="651" d="M152 674q0 417 258 928l184 -74q-117 -259 -173 -450t-56 -410q0 -98 13 -192t29.5 -163t52.5 -163.5t61 -150t77 -165.5l-184 -86q-128 227 -195 449.5t-67 476.5z" />
<glyph unicode=")" horiz-adv-x="651" d="M53 1513l185 86q129 -228 195.5 -449t66.5 -476q0 -417 -258 -928l-185 74q118 265 174 453.5t56 406.5q0 155 -34 304.5t-69 235t-118 264.5q-8 19 -13 29z" />
<glyph unicode="*" horiz-adv-x="827" d="M41 1290q0 40 24 66t58 26q36 0 80 -26l139 -86l-33 -92l-170 26q-42 7 -70 28.5t-28 57.5zM150 932q0 42 47 86l122 121l80 -58l-59 -151q-30 -82 -102 -82q-38 0 -63 24t-25 60zM328 1516q0 42 21 68t63 26q43 0 65.5 -23.5t22.5 -64.5q0 -15 -4 -39l-35 -170h-96 l-33 157q-4 24 -4 46zM438 1081l80 58l123 -115q49 -49 49 -88q0 -37 -26 -61.5t-62 -24.5q-69 0 -102 80zM485 1270l140 86q44 26 80 26q34 0 57.5 -25.5t23.5 -66.5q0 -36 -28 -57.5t-70 -28.5l-170 -26z" />
<glyph unicode="+" horiz-adv-x="1105" d="M82 555v182h373v373h190v-373h379v-182h-379v-395h-190v395h-373z" />
<glyph unicode="," horiz-adv-x="489" d="M72 -346l73 541q7 48 37.5 73t71.5 25q52 0 87.5 -28.5t35.5 -74.5q0 -26 -8 -47l-181 -516z" />
<glyph unicode="-" horiz-adv-x="827" d="M109 543v174h616v-174h-616z" />
<glyph unicode="." horiz-adv-x="520" d="M123 121q0 59 37 101t100 42q65 0 101 -39t36 -102q0 -62 -38.5 -102.5t-102.5 -40.5q-62 0 -97.5 38.5t-35.5 102.5z" />
<glyph unicode="/" horiz-adv-x="874" d="M20 -129l654 1726l186 -65l-657 -1731z" />
<glyph unicode="0" horiz-adv-x="1097" d="M74 707q0 191 35 332.5t100.5 225.5t152 124.5t195.5 40.5q230 0 348.5 -170t118.5 -547q0 -199 -31.5 -341.5t-94 -228t-149.5 -124.5t-204 -39q-245 0 -358 170t-113 557zM295 686q0 -282 59 -406t195 -124q89 0 144 51.5t84.5 174.5t29.5 327q0 291 -60.5 415.5 t-193.5 124.5q-140 0 -199 -127t-59 -436z" />
<glyph unicode="1" horiz-adv-x="888" d="M117 0v162h241v1077h-221v164h438v-1241h242v-162h-700z" />
<glyph unicode="2" horiz-adv-x="1060" d="M59 0v137q176 168 290 290.5t233 277.5q81 104 111 177t30 154q0 96 -55 149.5t-144 53.5q-191 0 -286 -192l-172 88q54 131 176 214t290 83q185 0 301.5 -101.5t116.5 -283.5q0 -189 -147 -383q-99 -133 -202.5 -246.5t-242.5 -247.5h617v-170h-916z" />
<glyph unicode="3" horiz-adv-x="1042" d="M16 100l84 176q70 -54 156.5 -85t171.5 -31q120 0 182 71.5t62 190.5q0 111 -51 168q-45 51 -104.5 65.5t-209.5 14.5v155q117 0 162 6q95 11 137.5 75.5t42.5 148.5q0 87 -52 140.5t-151 53.5q-80 0 -149.5 -44t-112.5 -122l-157 95q57 115 170.5 183.5t277.5 68.5 q187 0 301.5 -94.5t114.5 -256.5q0 -113 -59 -204t-152 -125q229 -72 229 -334q0 -194 -131 -315t-358 -121q-120 0 -226 32.5t-178 87.5z" />
<glyph unicode="4" horiz-adv-x="1116" d="M68 344v141l573 918h244v-893h182v-174h-184v-336h-215v344h-600zM270 510h400v653z" />
<glyph unicode="5" horiz-adv-x="1083" d="M76 104l84 183q159 -121 334 -121q133 0 203.5 92.5t70.5 243.5q0 125 -57.5 211t-167.5 86q-74 0 -134.5 -32t-123.5 -95l-176 57v674h794v-178h-606v-355q129 111 291 111q135 0 227.5 -62.5t134 -164.5t41.5 -236q0 -152 -54.5 -272t-168.5 -193t-272 -73 q-130 0 -240 35t-180 89z" />
<glyph unicode="6" horiz-adv-x="1118" d="M100 629q0 204 40 359.5t112.5 251.5t169.5 144t217 48q131 0 219 -54t154 -157l-135 -117q-50 79 -108 117.5t-142 38.5q-129 0 -206.5 -119t-92.5 -320q50 48 127 80.5t170 32.5q101 0 181 -35.5t129 -96.5t74 -139.5t25 -168.5q0 -229 -123 -371.5t-331 -142.5 q-241 0 -360.5 165.5t-119.5 483.5zM324 563q0 -65 6.5 -121t23.5 -112t43.5 -95t70.5 -63.5t101 -24.5q118 0 185 94.5t67 241.5q0 131 -59.5 208t-183.5 77q-77 0 -145 -32t-107 -83q-2 -47 -2 -90z" />
<glyph unicode="7" horiz-adv-x="1003" d="M41 1206v180h930v-135l-443 -843q-31 -58 -42 -104.5t-11 -113.5v-190h-221v184q0 145 55 250l408 772h-676z" />
<glyph unicode="8" horiz-adv-x="1103" d="M82 416q0 98 45.5 188.5t126.5 145.5q-129 108 -129 290q0 179 121.5 284.5t310.5 105.5q201 0 310.5 -99.5t109.5 -281.5q0 -177 -129 -316q178 -91 178 -315q0 -200 -124 -319t-351 -119q-230 0 -349.5 117t-119.5 319zM307 416q0 -128 64 -198.5t186 -70.5 q116 0 181 72t65 199q0 121 -56 171.5t-180 61.5l-155 15q-52 -35 -78.5 -102.5t-26.5 -147.5zM342 1047q0 -217 190 -234l144 -12q36 32 61 101t25 147q0 101 -58.5 158t-152.5 57q-91 0 -150 -55t-59 -162z" />
<glyph unicode="9" horiz-adv-x="1112" d="M88 918q0 229 127.5 370.5t343.5 141.5q221 0 337 -161t116 -468q0 -410 -135 -615.5t-367 -205.5q-139 0 -244.5 49t-167.5 127l115 143q127 -145 285 -145q134 0 208 118.5t85 325.5q-44 -55 -123 -92t-170 -37q-100 0 -179.5 36.5t-129 99t-75.5 142.5t-26 171z M299 926q0 -134 59.5 -213.5t184.5 -79.5q75 0 144.5 37t107.5 92l4 98q0 80 -12.5 148t-40 127.5t-78.5 94t-121 34.5q-119 0 -183.5 -94.5t-64.5 -243.5z" />
<glyph unicode=":" horiz-adv-x="520" d="M123 121q0 59 37 101t100 42q65 0 101 -39t36 -102q0 -62 -38.5 -102.5t-102.5 -40.5q-62 0 -97.5 38.5t-35.5 102.5zM123 928q0 59 37 101t100 42q65 0 101 -39t36 -102q0 -62 -38.5 -103t-102.5 -41q-62 0 -97.5 39t-35.5 103z" />
<glyph unicode=";" horiz-adv-x="536" d="M72 -346l73 541q7 48 37.5 73t71.5 25q52 0 87.5 -28.5t35.5 -74.5q0 -26 -8 -47l-181 -516zM150 928q0 59 37 101t100 42q65 0 101 -39t36 -102q0 -62 -38.5 -103t-102.5 -41q-62 0 -97.5 39t-35.5 103z" />
<glyph unicode="&#x3c;" horiz-adv-x="1105" d="M76 557v139l878 383l76 -166l-674 -282l664 -289l-70 -174z" />
<glyph unicode="=" horiz-adv-x="1105" d="M80 344v180h944v-180h-944zM80 735v180h944v-180h-944z" />
<glyph unicode="&#x3e;" horiz-adv-x="1105" d="M76 913l76 166l876 -383v-139l-874 -389l-68 174l664 289z" />
<glyph unicode="?" horiz-adv-x="849" d="M102 1448q40 11 107.5 19t116.5 8q216 0 329 -98t113 -285q0 -152 -99 -261.5t-290 -154.5v-266h-213v395q190 20 284.5 94t94.5 184q0 215 -242 215q-74 0 -172 -20zM147 115q0 54 34 92.5t89 38.5q57 0 91 -36.5t34 -92.5q0 -57 -33 -94t-90 -37t-91 36t-34 93z" />
<glyph unicode="@" horiz-adv-x="1556" d="M102 350q0 175 60.5 325.5t165 253.5t248 161.5t307.5 58.5q283 0 493 -111v-985q-184 -69 -366 -69q-204 0 -311 91.5t-107 272.5q0 178 108.5 268.5t288.5 90.5q91 0 180 -29v242q-119 53 -288 53q-160 0 -285.5 -74t-198.5 -214.5t-73 -326.5q0 -275 159.5 -445.5 t427.5 -170.5q182 0 318 65l55 -172q-152 -73 -395 -73q-154 0 -283.5 42.5t-221.5 116.5t-156 174t-95 215t-31 240zM805 354q0 -106 51.5 -160.5t149.5 -54.5q90 0 163 23v381q-85 18 -135 18q-229 0 -229 -207z" />
<glyph unicode="A" d="M20 0l451 1473h285l467 -1473h-226l-127 399h-508l-120 -399h-222zM408 571h413l-211 725z" />
<glyph unicode="B" horiz-adv-x="1241" d="M180 0v1473h463q214 0 336.5 -89t122.5 -264q0 -120 -58 -214t-151 -130q128 -27 200 -119.5t72 -216.5q0 -211 -136.5 -325.5t-385.5 -114.5h-463zM399 172h254q140 0 208.5 74t68.5 192q0 110 -68.5 176t-199.5 66h-263v-508zM399 846h213q127 0 196 68t69 173 q0 114 -67 162.5t-210 48.5h-201v-452z" />
<glyph unicode="C" horiz-adv-x="1187" d="M109 727q0 89 7 167.5t24 158.5t44.5 145.5t71 123t99.5 97t134.5 62t172.5 22.5q98 0 176 -23t127.5 -59t86 -88.5t55 -101.5t30.5 -109q-81 -18 -213 -51q-15 58 -34 99.5t-49 77.5t-75.5 54.5t-106.5 18.5t-109 -20.5t-80.5 -52.5t-56.5 -82.5t-37 -100t-20.5 -115.5 t-9.5 -118.5t-2 -118.5q0 -269 89 -409t290 -140q177 0 352 106l43 -188q-71 -45 -182 -78t-246 -33q-98 0 -180 22.5t-141.5 61.5t-105 96t-74.5 121.5t-47 142t-25.5 153t-7.5 159.5z" />
<glyph unicode="D" horiz-adv-x="1318" d="M180 0v1473h459q103 0 186.5 -20t156.5 -68t122.5 -123.5t77.5 -191.5t28 -267q0 -158 -22.5 -284t-65 -212.5t-98 -147.5t-127 -95t-145.5 -49t-160 -15h-412zM403 176h201q190 0 281.5 139.5t91.5 452.5q0 283 -84.5 406.5t-259.5 123.5h-230v-1122z" />
<glyph unicode="E" horiz-adv-x="1122" d="M180 0v1473h848v-183h-625v-440h543v-180h-543v-488h652v-182h-875z" />
<glyph unicode="F" horiz-adv-x="1093" d="M180 0v1473h881v-183h-658v-440h549v-182h-549v-668h-223z" />
<glyph unicode="G" horiz-adv-x="1280" d="M109 762q0 165 32 297t98.5 233t177 156t257.5 55q215 0 326.5 -97t148.5 -284l-205 -49q-19 64 -39 105.5t-51 76t-76 50.5t-108 16q-156 0 -242 -134t-86 -417q0 -116 9 -203.5t34.5 -169t68 -133.5t112 -83t163.5 -31q128 0 223 45v366h-288v172h505v-661 q-211 -101 -442 -101q-321 0 -469.5 189t-148.5 602z" />
<glyph unicode="H" horiz-adv-x="1433" d="M180 0v1473h223v-619h627v619h223v-1473h-223v668h-627v-668h-223z" />
<glyph unicode="I" horiz-adv-x="583" d="M180 0v1473h223v-1473h-223z" />
<glyph unicode="J" horiz-adv-x="882" d="M41 45q12 40 59 184q108 -57 230 -57q112 0 145 84q21 54 21 176v1041h223v-1047q0 -134 -12 -193q-27 -127 -121.5 -192.5t-233.5 -65.5q-93 0 -175.5 20.5t-135.5 49.5z" />
<glyph unicode="K" horiz-adv-x="1210" d="M180 0v1473h221v-625h197l334 625h229l-383 -697l422 -776h-244l-360 666h-195v-666h-221z" />
<glyph unicode="L" horiz-adv-x="1089" d="M180 0v1473h223v-1289h633v-184h-856z" />
<glyph unicode="M" horiz-adv-x="1648" d="M135 0l78 1473h260l361 -1051l360 1051h246l73 -1473h-208l-52 1102l-338 -959h-170l-344 963l-55 -1106h-211z" />
<glyph unicode="N" horiz-adv-x="1423" d="M180 0v1473h215l629 -1082v1082h219v-1473h-203l-643 1090v-1090h-217z" />
<glyph unicode="O" horiz-adv-x="1363" d="M109 758q0 364 156.5 554.5t432.5 190.5q284 0 420.5 -181t136.5 -552q0 -179 -29 -317.5t-79.5 -228.5t-125 -147.5t-158 -81.5t-185.5 -24q-99 0 -180 22t-155 78t-124.5 143.5t-80 225.5t-29.5 318zM342 758q0 -214 42.5 -350.5t115.5 -194t180 -57.5q61 0 109 15.5 t93 57t75 108.5t47.5 176.5t17.5 254.5q0 156 -24 265.5t-70 169.5t-103.5 86t-132.5 26q-60 0 -110.5 -17t-95.5 -58t-76.5 -103.5t-49.5 -159t-18 -219.5z" />
<glyph unicode="P" horiz-adv-x="1241" d="M180 0v1473h506q226 0 352.5 -107.5t126.5 -306.5q0 -228 -137.5 -364t-368.5 -136h-256v-559h-223zM403 735h234q147 0 223 78t76 225q0 137 -70.5 197.5t-210.5 60.5h-252v-561z" />
<glyph unicode="Q" horiz-adv-x="1361" d="M109 758q0 363 156 554t429 191q285 0 423 -181t138 -552q0 -332 -118 -513.5t-318 -205.5v-6q212 -53 436 -74l-47 -188q-358 50 -637 156q-86 32 -153 74t-126.5 108.5t-98.5 153t-61.5 208.5t-22.5 275zM342 758q0 -316 88 -463.5t248 -147.5q60 0 108.5 16.5t93.5 59 t75 111.5t47.5 179t17.5 255q0 126 -16 221.5t-44 157t-70.5 100t-91 54.5t-108.5 16q-75 0 -135.5 -29t-109.5 -91.5t-76 -174t-27 -264.5z" />
<glyph unicode="R" horiz-adv-x="1269" d="M180 0v1473h486q231 0 362 -96t131 -294q0 -275 -246 -405l275 -678h-238l-245 623h-302v-623h-223zM403 801h256q121 0 198 64.5t77 185.5q0 137 -68.5 192t-214.5 55h-248v-497z" />
<glyph unicode="S" horiz-adv-x="1103" d="M76 102l82 201q176 -139 364 -139q118 0 189 56.5t71 166.5q0 61 -17 103.5t-60 74.5t-93 53t-139 50q-50 16 -84 28.5t-77.5 32.5t-72.5 41t-59.5 52.5t-48.5 67.5t-29.5 84.5t-11.5 106.5q0 190 131.5 306t335.5 116q89 0 163 -21t124 -55t86.5 -79.5t56 -91.5 t27.5 -95l-201 -59q-27 97 -94 153t-168 56q-97 0 -162 -53t-65 -156q0 -34 8.5 -62.5t20 -50t35 -40.5t43.5 -31.5t55.5 -27t59.5 -22.5t68 -22q72 -23 126.5 -46.5t109 -60.5t89 -81.5t56 -108.5t21.5 -143q0 -205 -138.5 -320t-359.5 -115q-145 0 -259 41t-183 90z" />
<glyph unicode="T" horiz-adv-x="1161" d="M31 1290v183h1099v-183h-438v-1290h-223v1290h-438z" />
<glyph unicode="U" horiz-adv-x="1361" d="M168 516v957h223v-938q0 -154 25 -218q58 -151 264 -151q56 0 99 9t73.5 24t52 41.5t34.5 55.5t20 73t9.5 86t2.5 102v916h223v-959q0 -168 -33 -266q-45 -128 -164.5 -199.5t-318.5 -71.5q-362 0 -463 236q-47 104 -47 303z" />
<glyph unicode="V" horiz-adv-x="1273" d="M45 1473h229l363 -1260l373 1260h219l-459 -1473h-274z" />
<glyph unicode="W" horiz-adv-x="1714" d="M92 1473h223q137 -1141 142 -1141l319 1003h172q309 -1003 312 -1003l141 1141h221l-207 -1473h-229l-328 1010l-334 -1010h-225z" />
<glyph unicode="X" horiz-adv-x="1202" d="M20 0l451 745l-412 728h260l287 -539l309 539h259l-443 -728l428 -745h-248l-317 561l-315 -561h-259z" />
<glyph unicode="Y" horiz-adv-x="1202" d="M10 1473h248l350 -670l342 670h242l-473 -877v-596h-225v590z" />
<glyph unicode="Z" horiz-adv-x="1171" d="M68 0v158l770 1138h-729v177h993v-173l-760 -1120h733v-180h-1007z" />
<glyph unicode="[" horiz-adv-x="620" d="M156 -260v1859h450v-141h-248v-1577h248v-141h-450z" />
<glyph unicode="\" horiz-adv-x="874" d="M14 1532l187 65l653 -1726l-182 -70z" />
<glyph unicode="]" horiz-adv-x="622" d="M14 -119h250v1577h-250v141h453v-1859h-453v141z" />
<glyph unicode="^" horiz-adv-x="1196" d="M125 643l371 770h157l369 -770l-193 -31l-258 564l-258 -562z" />
<glyph unicode="_" horiz-adv-x="1024" d="M-14 -172h1052v-158h-1052v158z" />
<glyph unicode="`" horiz-adv-x="663" d="M88 1421l90 160l400 -264l-68 -121z" />
<glyph unicode="a" horiz-adv-x="1060" d="M84 319q0 189 109 283t311 94q90 0 180 -20v57q0 107 -55 157t-174 50q-132 0 -260 -41l-19 168q56 16 148.5 29.5t160.5 13.5q99 0 170 -18.5t117 -52.5t73 -92t37.5 -128.5t10.5 -169.5v-397q0 -52 14.5 -74t44.5 -22q23 0 60 12l14 -162q-80 -26 -154 -26 q-69 0 -106.5 28.5t-54.5 102.5q-135 -131 -310 -131q-155 0 -236 95.5t-81 243.5zM303 336q0 -84 41 -136.5t119 -52.5q59 0 119 30t102 75v280q-82 23 -143 23q-118 0 -178 -51.5t-60 -167.5z" />
<glyph unicode="b" horiz-adv-x="1099" d="M143 72v1401h215v-478q168 113 299 113q158 0 249 -118t91 -361q0 -148 -27 -264t-84 -203.5t-152 -134.5t-224 -47q-102 0 -199.5 26t-167.5 66zM358 193q80 -43 166 -43q248 0 248 428q0 193 -46 270.5t-136 77.5q-93 0 -232 -92v-641z" />
<glyph unicode="c" horiz-adv-x="942" d="M98 539q0 93 12.5 173t44.5 155t81 127.5t126.5 84t176.5 31.5q85 0 151 -24.5t107.5 -68t66.5 -95t37 -113.5l-180 -64q-23 87 -66.5 137t-124.5 50q-208 0 -208 -385q0 -391 266 -391q130 0 270 75l19 -184q-148 -72 -314 -72q-78 0 -143.5 17.5t-113 48t-84 74 t-59.5 92t-38 106t-21 112.5t-6 114z" />
<glyph unicode="d" horiz-adv-x="1110" d="M98 532q0 88 14 169t45.5 156.5t77.5 131t116.5 88.5t156.5 33q117 0 233 -78v441h217v-1473h-196l-6 102q-114 -122 -275 -122q-175 0 -279 139.5t-104 412.5zM324 526q0 -179 57.5 -274.5t157.5 -95.5q108 0 204 100v600q-108 82 -194 82q-225 0 -225 -412z" />
<glyph unicode="e" horiz-adv-x="997" d="M98 555q0 144 32.5 252.5t91.5 173.5t135.5 97t170.5 32q200 0 293.5 -130t93.5 -382v-88h-598q3 -170 73.5 -261t201.5 -91q142 0 291 80l14 -185q-58 -32 -146.5 -55t-181.5 -23q-471 0 -471 580zM319 653h388q0 145 -47.5 218t-135.5 73q-67 0 -115 -42.5t-69 -106.5 t-21 -142z" />
<glyph unicode="f" horiz-adv-x="655" d="M8 928v162h166q0 203 82 306t279 103q116 0 217 -33l-15 -163q-92 30 -184 30q-71 0 -100.5 -17t-46.5 -54q-19 -39 -19 -172h268v-162h-268v-928h-213v928h-166z" />
<glyph unicode="g" horiz-adv-x="1101" d="M98 532q0 87 14 168t45 156.5t77 131t115 89t153 33.5q131 0 250 -92l8 72h198v-1070q0 -84 -10.5 -151t-39.5 -129.5t-75.5 -104.5t-122 -67t-175.5 -25q-103 0 -205 24.5t-164 57.5l35 191q60 -37 151 -63.5t172 -26.5q125 0 175.5 80t50.5 227v67q-112 -116 -269 -116 q-176 0 -279.5 137.5t-103.5 410.5zM324 526q0 -179 57 -272.5t158 -93.5q110 0 204 102v592q-111 82 -196 82q-223 0 -223 -410z" />
<glyph unicode="h" horiz-adv-x="1146" d="M152 0v1473h217v-494q153 131 327 131q251 0 291 -223q6 -37 6 -135v-752h-215v723q0 69 -4 92q-9 58 -45.5 83.5t-105.5 25.5q-121 0 -254 -119v-805h-217z" />
<glyph unicode="i" horiz-adv-x="520" d="M129 1370q0 61 36 95t93 34q62 0 95.5 -33t33.5 -96t-36 -97t-93 -34q-58 0 -93.5 35.5t-35.5 95.5zM152 0v1090h215v-1090h-215z" />
<glyph unicode="j" horiz-adv-x="520" d="M-166 -406l33 185q108 -55 180 -55q57 0 81 36t24 131v1199h217v-1213q0 -334 -303 -334q-135 0 -232 51zM129 1370q0 61 36 95t93 34q62 0 95.5 -33t33.5 -96t-36 -97t-93 -34q-58 0 -93.5 35.5t-35.5 95.5z" />
<glyph unicode="k" horiz-adv-x="1067" d="M152 0v1473h217v-775h145l256 392l221 -23l-293 -440l349 -627h-244l-287 510h-147v-510h-217z" />
<glyph unicode="l" horiz-adv-x="681" d="M143 283v1190h219v-1162q0 -81 23.5 -117t79.5 -36q63 0 153 41l27 -170q-104 -49 -231 -49q-151 0 -211 77.5t-60 225.5z" />
<glyph unicode="m" horiz-adv-x="1732" d="M152 0v1090h200l6 -117q159 137 336 137q186 0 250 -131q163 131 336 131q253 0 293 -223q8 -49 8 -135v-752h-217v723q0 57 -6 92q-12 58 -47 83.5t-99 25.5q-113 0 -231 -103q4 -35 4 -110v-711h-215v723q0 57 -6 92q-10 58 -43 83.5t-92 25.5q-72 0 -140 -34t-120 -85 v-805h-217z" />
<glyph unicode="n" horiz-adv-x="1146" d="M152 0v1090h200l6 -117q160 137 336 137q253 0 293 -223q6 -37 6 -135v-752h-215v723q0 69 -4 92q-9 58 -45.5 83.5t-105.5 25.5q-121 0 -254 -119v-805h-217z" />
<glyph unicode="o" horiz-adv-x="1085" d="M98 539q0 120 27.5 221.5t82.5 180.5t144.5 124t204.5 45q98 0 174 -30.5t123.5 -80.5t78 -123t42.5 -150t12 -169q0 -89 -14.5 -171t-49 -158t-86 -131.5t-129.5 -88.5t-176 -33t-175 33t-125 87t-79 129t-43 152t-12 163zM322 537q0 -385 217 -385q225 0 225 397 q0 60 -4.5 109t-18 102.5t-36 90t-62 60t-92.5 23.5q-55 0 -97.5 -25.5t-67 -65t-39.5 -94.5t-20 -105.5t-5 -106.5z" />
<glyph unicode="p" horiz-adv-x="1103" d="M152 -428v1518h202l8 -103q173 123 308 123q153 0 244.5 -122t91.5 -359q0 -110 -13 -204.5t-43.5 -177t-76 -140t-113.5 -90.5t-154 -33q-141 0 -239 61v-473h-215zM369 219q83 -65 196 -65q49 0 87 23.5t61.5 62.5t39 95t21.5 116.5t6 130.5q0 131 -23.5 208.5 t-61 104.5t-95.5 27q-103 0 -231 -93v-610z" />
<glyph unicode="q" horiz-adv-x="1110" d="M98 532q0 88 14 169t45 156.5t77 131t115.5 88.5t154.5 33q131 0 250 -92l6 72h198v-1518h-208v526q-123 -118 -269 -118q-175 0 -279 139.5t-104 412.5zM324 526q0 -179 57.5 -274.5t157.5 -95.5q108 0 204 100v598q-108 82 -194 82q-225 0 -225 -410z" />
<glyph unicode="r" horiz-adv-x="856" d="M152 0v1090h194l8 -117q49 57 123.5 97t153.5 40q80 0 132.5 -39.5t92.5 -120.5l-158 -112q-28 48 -52.5 69t-59.5 21q-53 0 -104 -32t-113 -97v-799h-217z" />
<glyph unicode="s" horiz-adv-x="913" d="M70 92l59 182q49 -45 140.5 -86t164.5 -41q180 0 180 140q0 22 -6.5 41.5t-16 34t-28 28t-32.5 22.5t-41.5 20t-44 16.5t-48.5 16.5q-3 1 -5 1.5t-5 1.5l-6 2q-31 10 -47.5 16t-45.5 17.5t-45.5 21t-40.5 25t-37.5 31t-30 37.5t-24.5 46.5t-14 55.5t-6 67 q0 101 52.5 175.5t137 110.5t187.5 36q86 0 155 -23t112 -61.5t69 -81.5t37 -90l-168 -63q-25 74 -78.5 111.5t-120.5 37.5q-74 0 -121 -33.5t-47 -101.5q0 -32 13 -57.5t30 -42t50.5 -32.5t58.5 -24.5t69 -21.5l21 -6q48 -14 83.5 -28.5t76 -40t66.5 -57t43.5 -79.5 t17.5 -107q0 -146 -104 -240t-292 -94q-109 0 -214 37.5t-154 79.5z" />
<glyph unicode="t" horiz-adv-x="712" d="M33 928v162h141v180l217 106v-286h258v-162h-258v-582q0 -38 1 -59.5t6.5 -49.5t16.5 -43t32 -25.5t51 -10.5q59 0 143 41l25 -170q-43 -22 -106 -38t-120 -16q-266 0 -266 291v662h-141z" />
<glyph unicode="u" horiz-adv-x="1140" d="M145 338v725l217 27v-723q0 -108 31.5 -155.5t120.5 -47.5q122 0 258 119v807h217v-1090h-201l-6 115q-163 -135 -336 -135q-256 0 -292 223q-9 55 -9 135z" />
<glyph unicode="v" horiz-adv-x="1019" d="M39 1067l227 20l252 -903l250 906l215 -23l-334 -1067h-270z" />
<glyph unicode="w" horiz-adv-x="1441" d="M59 1067l217 23q152 -842 154 -842l215 811h174l193 -811l157 842l213 -25l-229 -1065h-246l-182 756l-211 -756h-235z" />
<glyph unicode="x" horiz-adv-x="1011" d="M27 0l354 539l-338 528l244 23l223 -381l238 381l229 -23l-350 -526l348 -541h-240l-229 367l-232 -367h-247z" />
<glyph unicode="y" horiz-adv-x="1019" d="M-147 -379l57 184q137 -75 235 -75q49 0 87 19t69.5 62t55.5 94t55 132l-383 1030l231 23l270 -818q38 106 111 351t131 467l215 -23q-157 -570 -350 -1036q-34 -80 -60 -136t-60.5 -116.5t-69.5 -99.5t-78.5 -72t-95.5 -48.5t-113 -15.5q-89 0 -171 23t-136 55z" />
<glyph unicode="z" horiz-adv-x="933" d="M70 0v145l534 783h-506v162h772v-127l-546 -799h530v-164h-784z" />
<glyph unicode="{" horiz-adv-x="684" d="M92 610v144q52 1 86.5 23.5t50 62t20.5 76.5t5 88v245q0 92 8 160q13 88 73.5 141.5t162.5 53.5q97 0 166 -29l-25 -145q-41 18 -86 18q-58 0 -79 -38.5t-21 -111.5v-366q0 -183 -150 -250q150 -61 150 -252v-391q0 -78 19.5 -117t80.5 -39q40 0 86 17l25 -144 q-72 -30 -166 -30q-102 0 -163 53t-73 141q-8 63 -8 150v288q0 40 -3 70.5t-12.5 66t-26.5 59t-47.5 39.5t-72.5 17z" />
<glyph unicode="|" horiz-adv-x="464" d="M147 -242v1813h191v-1813h-191z" />
<glyph unicode="}" horiz-adv-x="684" d="M20 -244l25 144q46 -17 86 -17q61 0 80.5 39t19.5 117v391q0 191 150 252q-150 67 -150 250v366q0 73 -21 111.5t-79 38.5q-45 0 -86 -18l-25 145q69 29 168 29q101 0 161.5 -53.5t72.5 -141.5q8 -68 8 -160v-245q0 -51 5 -88t20.5 -76.5t50 -62t86.5 -23.5v-144 q-42 -1 -72.5 -17t-47.5 -39.5t-26.5 -59t-12.5 -66t-3 -70.5v-288q0 -87 -8 -150q-12 -88 -72.5 -141t-161.5 -53q-96 0 -168 30z" />
<glyph unicode="~" horiz-adv-x="1302" d="M45 549q52 72 90 110q104 107 234 107q83 0 223 -64l139 -65q92 -41 150 -41q55 0 98.5 32.5t101.5 110.5l127 -110q-118 -215 -311 -215q-111 0 -252 67l-133 62q-72 35 -135 35q-100 0 -201 -142z" />
<glyph unicode="&#xa1;" horiz-adv-x="524" d="M139 967q0 57 33 94t90 37q55 0 89 -36t34 -93q0 -54 -34 -92.5t-89 -38.5q-57 0 -90 36.5t-33 92.5zM143 -389l35 1055h170l35 -1055h-240z" />
<glyph unicode="&#xa2;" horiz-adv-x="952" d="M96 655q0 481 326 553v174h190v-168q232 -35 287 -294l-180 -64q-23 87 -66.5 136.5t-124.5 49.5q-52 0 -90.5 -22t-61 -56.5t-35.5 -84.5t-17.5 -97t-4.5 -104q0 -68 4.5 -121t17.5 -107.5t35.5 -90t61 -58t90.5 -22.5q81 0 124.5 49.5t66.5 136.5l180 -64 q-22 -112 -91.5 -192t-191.5 -103v-182h-190v185q-93 18 -160 70.5t-102.5 129.5t-51.5 161.5t-16 184.5z" />
<glyph unicode="&#xa3;" horiz-adv-x="1097" d="M111 625v149h120q-3 10 -18.5 54t-19.5 58t-13 46.5t-11.5 56.5t-2.5 51q0 177 114 283.5t310 106.5q186 0 288.5 -89t147.5 -260l-188 -59q-36 129 -99 182t-153 53q-91 0 -149 -59t-58 -158q0 -25 3 -48.5t12 -53t14.5 -46.5t21.5 -58t23 -60h364v-147h-319 q34 -96 34 -201q0 -161 -104 -262h600v-164h-893l-18 139q104 29 156.5 108t52.5 169q0 87 -43 209h-172z" />
<glyph unicode="&#xa4;" d="M121 338l135 131q-51 73 -69.5 129t-18.5 133q0 73 19 132t69 132l-135 131l96 93l139 -132q73 46 129.5 64t135.5 18q77 0 134.5 -18.5t129.5 -65.5l137 134l98 -93l-135 -131q52 -74 71 -131.5t19 -132.5q0 -76 -19 -133t-71 -129l135 -131l-98 -94l-137 129 q-69 -44 -127.5 -62t-136.5 -18q-79 0 -136.5 18t-128.5 64l-139 -131zM342 731q0 -125 81 -207t200 -82q114 0 195 82.5t81 206.5q0 129 -80 209t-196 80q-120 0 -200.5 -81t-80.5 -208z" />
<glyph unicode="&#xa5;" horiz-adv-x="1097" d="M10 1403h246l299 -598l289 598h241l-364 -660h266v-153h-321v-148h321v-153h-321v-289h-224v289h-315v153h315v148h-315v153h256z" />
<glyph unicode="&#xa6;" horiz-adv-x="458" d="M143 -242v801h191v-801h-191zM143 840v731h191v-731h-191z" />
<glyph unicode="&#xa7;" horiz-adv-x="1173" d="M61 -72l162 92q35 -98 101 -154t153 -56q158 0 158 120q0 46 -13.5 93.5t-31.5 87t-57.5 98t-70.5 99.5t-91 118q-63 81 -103 139t-80 130.5t-58.5 145t-18.5 148.5q0 105 37.5 197.5t104.5 161t167 108t219 39.5q103 0 186 -29.5t134 -78.5t80.5 -99t43.5 -104l-168 -84 q-33 101 -98 158t-153 57q-65 0 -102.5 -34.5t-37.5 -90.5q0 -25 11 -55t22.5 -53t42.5 -65.5t47 -62.5l60 -75q60 -74 94.5 -118t86 -121t79.5 -137.5t49.5 -140t21.5 -155.5q0 -255 -147 -416.5t-371 -161.5q-86 0 -159.5 20t-122 50.5t-86.5 72t-58.5 79.5t-32.5 77z M279 997q0 -87 44.5 -182t111.5 -184t136.5 -179t129.5 -199.5t81 -213.5q15 -92 15 -111q0 -20 -2 -30q31 45 56.5 128t25.5 152q0 83 -29 168t-75 158.5t-102 146.5t-112 143.5t-102.5 138.5t-76 142.5t-30.5 143.5l-4 8q-67 -93 -67 -230z" />
<glyph unicode="&#xa8;" horiz-adv-x="890" d="M154 1358q0 55 30 86t82 31q115 0 115 -117q0 -56 -31.5 -87.5t-83.5 -31.5t-82 31.5t-30 87.5zM528 1358q0 54 31 85.5t82 31.5q57 0 87 -30t30 -87q0 -56 -32.5 -87.5t-84.5 -31.5q-53 0 -83 32t-30 87z" />
<glyph unicode="&#xa9;" horiz-adv-x="1802" d="M113 723q0 219 98.5 395t276.5 276.5t403 100.5q173 0 323 -58.5t254 -160t163 -241.5t59 -300q0 -169 -58.5 -313t-162.5 -246t-253 -159.5t-325 -57.5q-179 0 -326 57.5t-245.5 159t-152.5 242t-54 305.5zM270 723q0 -185 80 -329.5t221.5 -224t319.5 -79.5 q187 0 332.5 77t228 221.5t82.5 334.5q0 185 -83 330.5t-229.5 226t-330.5 80.5q-187 0 -328.5 -81t-217 -225t-75.5 -331zM485 727q0 237 116.5 361t299.5 124q116 0 199 -57.5t133 -142.5l-113 -86q-95 141 -221 141q-128 0 -187 -88.5t-59 -245.5t66.5 -251.5 t187.5 -94.5q73 0 125.5 29.5t112.5 89.5l88 -111q-150 -147 -332 -147q-90 0 -163 29.5t-119 77t-77 111.5t-44 128.5t-13 132.5z" />
<glyph unicode="&#xaa;" horiz-adv-x="763" d="M41 918q0 266 305 266q52 0 117 -10v34q0 70 -35 99.5t-111 29.5q-84 0 -198 -32l-13 133q107 35 240 35q111 0 177.5 -35t90.5 -113q23 -71 23 -211v-256q0 -45 37 -45q13 0 37 8l12 -127q-63 -22 -123 -22q-44 0 -76.5 21.5t-48.5 58.5q-92 -76 -203 -76 q-114 0 -172.5 68t-58.5 174zM219 930q0 -54 26.5 -86.5t78.5 -32.5q36 0 74 16t65 41v191q-54 12 -86 12q-158 0 -158 -141z" />
<glyph unicode="&#xab;" horiz-adv-x="1165" d="M61 573l428 435l127 -129l-301 -301l312 -306l-133 -131zM524 573l428 435l129 -129l-303 -301l312 -306l-132 -131z" />
<glyph unicode="&#xac;" horiz-adv-x="1105" d="M90 633v178h926v-492h-182v314h-744z" />
<glyph unicode="&#xad;" horiz-adv-x="827" d="M109 543v174h616v-174h-616z" />
<glyph unicode="&#xae;" horiz-adv-x="1802" d="M113 723q0 219 98.5 395t276.5 276.5t403 100.5q173 0 323 -58.5t254 -160t163 -241.5t59 -300q0 -169 -58.5 -313t-162.5 -246t-253 -159.5t-325 -57.5q-179 0 -326 57.5t-245.5 159t-152.5 242t-54 305.5zM270 723q0 -185 80 -329.5t221.5 -224t319.5 -79.5 q187 0 332.5 77t228 221.5t82.5 334.5q0 185 -83 330.5t-229.5 226t-330.5 80.5q-187 0 -328.5 -81t-217 -225t-75.5 -331zM614 283v907h314q311 0 311 -252q0 -91 -46.5 -155.5t-117.5 -96.5l178 -403h-151l-162 376h-190v-376h-136zM750 774h145q100 0 150.5 37t50.5 121 q0 81 -45.5 111t-149.5 30h-151v-299z" />
<glyph unicode="&#xaf;" horiz-adv-x="808" d="M100 1274v166h611v-166h-611z" />
<glyph unicode="&#xb0;" horiz-adv-x="641" d="M80 1202q0 105 70 177.5t174 72.5q110 0 176.5 -70.5t66.5 -169.5q0 -111 -71 -185.5t-179 -74.5q-110 0 -173.5 71.5t-63.5 178.5zM209 1202q0 -57 30.5 -94t84.5 -37t84 37.5t30 93.5q0 59 -29 93t-85 34q-58 0 -86.5 -34t-28.5 -93z" />
<glyph unicode="&#xb1;" horiz-adv-x="1105" d="M80 0v180h373v395h-373v183h373v372h190v-372h379v-183h-379v-395h381v-180h-944z" />
<glyph unicode="&#xb2;" horiz-adv-x="819" d="M90 1483q44 90 128.5 149.5t199.5 59.5q126 0 209.5 -69t83.5 -189q0 -98 -58 -193q-90 -139 -270 -276h344v-150h-600v131q109 80 163 127t130 131q60 65 82 114.5t22 102.5q0 49 -31 81t-85 32q-57 0 -100 -28.5t-83 -98.5z" />
<glyph unicode="&#xb3;" horiz-adv-x="819" d="M104 885l66 139q104 -82 213 -82q73 0 113.5 34t40.5 97q0 119 -136 119h-112v131h106q54 0 92.5 35t38.5 86q0 102 -116 102q-98 0 -168 -108l-127 73q101 181 313 181q123 0 198.5 -59t75.5 -167q0 -67 -36.5 -122t-94.5 -82q144 -43 144 -189q0 -126 -89 -201 t-241 -75q-168 0 -281 88z" />
<glyph unicode="&#xb4;" horiz-adv-x="663" d="M115 1317l401 264l88 -160l-424 -225z" />
<glyph unicode="&#xb5;" horiz-adv-x="1226" d="M156 -414v1504h211v-707q0 -116 53 -180t160 -64q115 0 178 74t63 193v684h213v-873q0 -49 14.5 -72.5t49.5 -23.5q23 0 53 10l14 -131q-57 -29 -135 -29q-79 0 -125 43t-55 117q-90 -156 -277 -156q-78 0 -133 32.5t-80 78.5v-500h-204z" />
<glyph unicode="&#xb6;" horiz-adv-x="1181" d="M123 1010q0 96 30.5 174.5t81.5 131.5t119.5 89t142 52t152.5 16h430l-10 -183h-154v-1208q0 -134 -12 -193q-27 -126 -129 -192t-250 -66q-99 0 -197.5 20t-150.5 46l60 188q129 -57 266 -57q138 0 170 84q20 52 20 176v457h-57q-251 0 -381.5 122.5t-130.5 342.5z" />
<glyph unicode="&#xb7;" horiz-adv-x="636" d="M180 715q0 59 37 101t100 42q65 0 102.5 -39t37.5 -102q0 -62 -39 -103t-103 -41q-63 0 -99 39t-36 103z" />
<glyph unicode="&#xb8;" horiz-adv-x="690" d="M164 -508l8 119q36 -10 86 -10q60 0 97.5 24t37.5 74q0 86 -88 86q-28 0 -96 -14v114q71 19 141 19q95 0 147 -50.5t52 -127.5q0 -65 -25.5 -115t-67.5 -78t-90.5 -41.5t-101.5 -13.5q-48 0 -100 14z" />
<glyph unicode="&#xb9;" horiz-adv-x="819" d="M154 817v133h161v592h-149v135h334v-727h166v-133h-512z" />
<glyph unicode="&#xba;" horiz-adv-x="790" d="M61 1073q0 114 35.5 202.5t115.5 144t196 55.5q327 0 327 -388q0 -80 -19 -150.5t-58 -130.5t-107.5 -95t-159.5 -35q-75 0 -133.5 23.5t-94.5 61.5t-59.5 90.5t-33 107t-9.5 114.5zM242 1069q0 -258 153 -258q160 0 160 270q0 256 -152 256q-48 0 -81.5 -24.5t-50 -66.5 t-23 -84.5t-6.5 -92.5z" />
<glyph unicode="&#xbb;" horiz-adv-x="1167" d="M76 272l311 306l-301 301l129 129l428 -435l-434 -432zM541 272l311 306l-301 301l127 129l428 -435l-434 -432z" />
<glyph unicode="&#xbc;" horiz-adv-x="1816" d="M100 612v133h162v592h-149v136h333v-728h166v-133h-512zM465 0l692 1473h203l-694 -1473h-201zM1014 190v113l368 557h213v-541h119v-129h-119v-190h-174v190h-407zM1174 319h249v390z" />
<glyph unicode="&#xbd;" horiz-adv-x="1816" d="M59 612v133h162v592h-149v136h334v-728h165v-133h-512zM418 0l692 1473h203l-695 -1473h-200zM1051 668q44 90 128 149.5t199 59.5q126 0 209.5 -69t83.5 -190q0 -98 -57 -192q-89 -137 -271 -276h345v-150h-601v131q109 80 163 127t130 131q60 66 82.5 115t22.5 102 q0 49 -31.5 81t-85.5 32q-57 0 -99.5 -28.5t-82.5 -98.5z" />
<glyph unicode="&#xbe;" horiz-adv-x="1816" d="M82 680l65 139q104 -82 213 -82q73 0 113.5 34t40.5 97q0 119 -135 119h-113v131h107q54 0 92.5 35t38.5 86q0 102 -117 102q-98 0 -168 -108l-127 74q101 180 314 180q124 0 199 -59t75 -166q0 -67 -37 -122.5t-94 -82.5q143 -43 143 -189q0 -126 -89 -201t-241 -75 q-167 0 -280 88zM483 0l693 1473h202l-694 -1473h-201zM1024 190v113l369 557h213v-541h118v-129h-118v-190h-174v190h-408zM1184 319h250v390z" />
<glyph unicode="&#xbf;" horiz-adv-x="849" d="M82 -8q0 152 99 261.5t290 154.5v266h213v-395q-190 -20 -284.5 -94t-94.5 -185q0 -215 242 -215q74 0 172 20l29 -170q-98 -26 -224 -26q-216 0 -329 98t-113 285zM455 967q0 57 33 94t90 37q56 0 90 -35.5t34 -93.5q0 -55 -33.5 -93t-88.5 -38q-57 0 -91 36.5t-34 92.5 z" />
<glyph unicode="&#xc0;" d="M20 0l451 1473h285l467 -1473h-226l-127 399h-508l-120 -399h-222zM336 1683l53 172l432 -155l-43 -129zM408 571h413l-211 725z" />
<glyph unicode="&#xc1;" d="M20 0l451 1473h285l467 -1473h-226l-127 399h-508l-120 -399h-222zM408 571h413l-211 725zM414 1700l432 155l53 -172l-442 -112z" />
<glyph unicode="&#xc2;" d="M20 0l451 1473h285l467 -1473h-226l-127 399h-508l-120 -399h-222zM317 1642l207 197h193l198 -205l-94 -80l-205 144l-206 -144zM408 571h413l-211 725z" />
<glyph unicode="&#xc3;" d="M20 0l451 1473h285l467 -1473h-226l-127 399h-508l-120 -399h-222zM328 1749q29 29 85.5 52.5t106.5 23.5q41 0 116.5 -28t121.5 -28q69 0 131 41l14 -157q-61 -41 -145 -41q-47 0 -128.5 23.5t-109.5 23.5q-76 0 -155 -57zM408 571h413l-211 725z" />
<glyph unicode="&#xc4;" d="M20 0l451 1473h285l467 -1473h-226l-127 399h-508l-120 -399h-222zM315 1720q0 54 31.5 85.5t81.5 31.5q57 0 87 -30t30 -87q0 -56 -32.5 -87t-84.5 -31t-82.5 31.5t-30.5 86.5zM408 571h413l-211 725zM692 1720q0 54 31 85.5t82 31.5q56 0 85.5 -30t29.5 -87 q0 -56 -31.5 -87t-83.5 -31q-53 0 -83 31.5t-30 86.5z" />
<glyph unicode="&#xc5;" d="M20 0l447 1462q-74 65 -74 178q0 95 64.5 161.5t158.5 66.5q102 0 163 -63.5t61 -153.5q0 -120 -82 -189l465 -1462h-226l-127 399h-508l-120 -399h-222zM408 571h413l-211 725zM510 1640q0 -53 28.5 -87.5t77.5 -34.5q51 0 80 34.5t29 87.5q0 54 -28.5 87.5t-80.5 33.5 q-53 0 -79.5 -33t-26.5 -88z" />
<glyph unicode="&#xc6;" horiz-adv-x="1769" d="M20 0l660 1473h997v-183h-624v-440h542v-176h-542v-492h649v-182h-873v408h-409l-178 -408h-222zM492 586h335v747z" />
<glyph unicode="&#xc7;" horiz-adv-x="1187" d="M109 727q0 89 7 167.5t24 158.5t44.5 145.5t71 123t99.5 97t134.5 62t172.5 22.5q98 0 176 -23t127.5 -59t86 -88.5t55 -101.5t30.5 -109q-81 -18 -213 -51q-15 58 -34 99.5t-49 77.5t-75.5 54.5t-106.5 18.5t-109 -20.5t-80.5 -52.5t-56.5 -82.5t-37 -100t-20.5 -115.5 t-9.5 -118.5t-2 -118.5q0 -269 89 -409t290 -140q177 0 352 106l43 -188q-71 -45 -182 -78t-246 -33q-98 0 -180 22.5t-141.5 61.5t-105 96t-74.5 121.5t-47 142t-25.5 153t-7.5 159.5zM479 -508l8 119q36 -10 86 -10q60 0 98 24t38 74q0 86 -88 86q-29 0 -97 -14v114 q71 19 142 19q94 0 146 -50.5t52 -127.5q0 -53 -17 -95.5t-44.5 -70.5t-65 -47t-76.5 -27t-81 -8q-49 0 -101 14z" />
<glyph unicode="&#xc8;" horiz-adv-x="1122" d="M180 0v1473h848v-183h-625v-440h543v-180h-543v-488h652v-182h-875zM322 1683l53 172l432 -155l-43 -129z" />
<glyph unicode="&#xc9;" horiz-adv-x="1122" d="M180 0v1473h848v-183h-625v-440h543v-180h-543v-488h652v-182h-875zM403 1700l433 155l53 -172l-443 -112z" />
<glyph unicode="&#xca;" horiz-adv-x="1122" d="M180 0v1473h848v-183h-625v-440h543v-180h-543v-488h652v-182h-875zM317 1642l207 197h193l198 -205l-94 -80l-205 144l-206 -144z" />
<glyph unicode="&#xcb;" horiz-adv-x="1122" d="M180 0v1473h848v-183h-625v-440h543v-180h-543v-488h652v-182h-875zM315 1720q0 54 31.5 85.5t81.5 31.5q57 0 87 -30t30 -87q0 -56 -32.5 -87t-84.5 -31t-82.5 31.5t-30.5 86.5zM692 1720q0 54 31 85.5t82 31.5q56 0 85.5 -30t29.5 -87q0 -56 -31.5 -87t-83.5 -31 q-53 0 -83 31.5t-30 86.5z" />
<glyph unicode="&#xcc;" horiz-adv-x="581" d="M-6 1683l53 172l432 -155l-43 -129zM180 0v1473h223v-1473h-223z" />
<glyph unicode="&#xcd;" horiz-adv-x="581" d="M96 1700l432 155l54 -172l-443 -112zM180 0v1473h223v-1473h-223z" />
<glyph unicode="&#xce;" horiz-adv-x="581" d="M-10 1642l207 197h192l199 -205l-94 -80l-205 144l-207 -144zM180 0v1473h223v-1473h-223z" />
<glyph unicode="&#xcf;" horiz-adv-x="581" d="M-14 1720q0 55 31 86t81 31q57 0 87 -30t30 -87q0 -56 -32.5 -87t-84.5 -31q-51 0 -81.5 31.5t-30.5 86.5zM180 0v1473h223v-1473h-223zM362 1720q0 54 31 85.5t82 31.5q56 0 85.5 -30t29.5 -87q0 -56 -31.5 -87t-83.5 -31q-53 0 -83 31.5t-30 86.5z" />
<glyph unicode="&#xd0;" horiz-adv-x="1357" d="M66 649v176h155v648h459q103 0 186.5 -20t156.5 -68t122.5 -123.5t77.5 -191.5t28 -267q0 -158 -22.5 -284t-65 -212.5t-98 -147.5t-127 -95t-145.5 -49t-160 -15h-412v649h-155zM444 176h113q78 0 117 2q174 11 259 150.5t85 439.5q0 283 -84.5 406.5t-259.5 123.5h-230 v-473h283v-176h-283v-473z" />
<glyph unicode="&#xd1;" horiz-adv-x="1423" d="M180 0v1473h215l629 -1082v1082h219v-1473h-203l-643 1090v-1090h-217zM428 1749q29 29 86 52.5t107 23.5q41 0 116 -28t121 -28q69 0 131 41l15 -157q-61 -41 -146 -41q-47 0 -128 23.5t-109 23.5q-77 0 -156 -57z" />
<glyph unicode="&#xd2;" horiz-adv-x="1363" d="M109 758q0 364 156.5 554.5t432.5 190.5q284 0 420.5 -181t136.5 -552q0 -179 -29 -317.5t-79.5 -228.5t-125 -147.5t-158 -81.5t-185.5 -24q-99 0 -180 22t-155 78t-124.5 143.5t-80 225.5t-29.5 318zM342 758q0 -214 42.5 -350.5t115.5 -194t180 -57.5q61 0 109 15.5 t93 57t75 108.5t47.5 176.5t17.5 254.5q0 156 -24 265.5t-70 169.5t-103.5 86t-132.5 26q-60 0 -110.5 -17t-95.5 -58t-76.5 -103.5t-49.5 -159t-18 -219.5zM449 1681l53 172l432 -155l-43 -129z" />
<glyph unicode="&#xd3;" horiz-adv-x="1363" d="M109 758q0 364 156.5 554.5t432.5 190.5q284 0 420.5 -181t136.5 -552q0 -179 -29 -317.5t-79.5 -228.5t-125 -147.5t-158 -81.5t-185.5 -24q-99 0 -180 22t-155 78t-124.5 143.5t-80 225.5t-29.5 318zM342 758q0 -214 42.5 -350.5t115.5 -194t180 -57.5q61 0 109 15.5 t93 57t75 108.5t47.5 176.5t17.5 254.5q0 156 -24 265.5t-70 169.5t-103.5 86t-132.5 26q-60 0 -110.5 -17t-95.5 -58t-76.5 -103.5t-49.5 -159t-18 -219.5zM510 1700l432 155l53 -172l-442 -112z" />
<glyph unicode="&#xd4;" horiz-adv-x="1363" d="M109 758q0 364 156.5 554.5t432.5 190.5q284 0 420.5 -181t136.5 -552q0 -179 -29 -317.5t-79.5 -228.5t-125 -147.5t-158 -81.5t-185.5 -24q-99 0 -180 22t-155 78t-124.5 143.5t-80 225.5t-29.5 318zM342 758q0 -214 42.5 -350.5t115.5 -194t180 -57.5q61 0 109 15.5 t93 57t75 108.5t47.5 176.5t17.5 254.5q0 156 -24 265.5t-70 169.5t-103.5 86t-132.5 26q-60 0 -110.5 -17t-95.5 -58t-76.5 -103.5t-49.5 -159t-18 -219.5zM399 1642l207 197h193l198 -205l-94 -80l-205 144l-206 -144z" />
<glyph unicode="&#xd5;" horiz-adv-x="1363" d="M109 758q0 364 156.5 554.5t432.5 190.5q284 0 420.5 -181t136.5 -552q0 -179 -29 -317.5t-79.5 -228.5t-125 -147.5t-158 -81.5t-185.5 -24q-99 0 -180 22t-155 78t-124.5 143.5t-80 225.5t-29.5 318zM342 758q0 -214 42.5 -350.5t115.5 -194t180 -57.5q61 0 109 15.5 t93 57t75 108.5t47.5 176.5t17.5 254.5q0 156 -24 265.5t-70 169.5t-103.5 86t-132.5 26q-60 0 -110.5 -17t-95.5 -58t-76.5 -103.5t-49.5 -159t-18 -219.5zM403 1751q29 29 86 52.5t107 23.5q41 0 116.5 -27.5t121.5 -27.5q70 0 131 40l14 -157q-61 -41 -145 -41 q-47 0 -128.5 23.5t-109.5 23.5q-77 0 -156 -57z" />
<glyph unicode="&#xd6;" horiz-adv-x="1363" d="M109 758q0 364 156.5 554.5t432.5 190.5q284 0 420.5 -181t136.5 -552q0 -179 -29 -317.5t-79.5 -228.5t-125 -147.5t-158 -81.5t-185.5 -24q-99 0 -180 22t-155 78t-124.5 143.5t-80 225.5t-29.5 318zM342 758q0 -214 42.5 -350.5t115.5 -194t180 -57.5q61 0 109 15.5 t93 57t75 108.5t47.5 176.5t17.5 254.5q0 156 -24 265.5t-70 169.5t-103.5 86t-132.5 26q-60 0 -110.5 -17t-95.5 -58t-76.5 -103.5t-49.5 -159t-18 -219.5zM395 1720q0 54 31.5 85.5t81.5 31.5q57 0 87 -30t30 -87q0 -56 -32.5 -87t-84.5 -31t-82.5 31.5t-30.5 86.5z M772 1720q0 54 31 85.5t82 31.5q56 0 85 -30t29 -87q0 -56 -31 -87t-83 -31q-53 0 -83 31.5t-30 86.5z" />
<glyph unicode="&#xd7;" horiz-adv-x="1105" d="M45 291l354 354l-350 359l146 135l358 -367l367 363l135 -134l-348 -354l354 -356l-137 -133l-373 364l-373 -364z" />
<glyph unicode="&#xd8;" horiz-adv-x="1363" d="M109 758q0 364 156.5 554.5t432.5 190.5q131 0 224 -37l84 179l155 -72l-92 -197q186 -177 186 -606q0 -179 -29 -317.5t-79.5 -228.5t-125 -147.5t-158 -81.5t-185.5 -24q-139 0 -246 45l-96 -204l-156 71l109 234q-180 193 -180 641zM342 758q0 -279 57 -416l437 942 q-58 31 -144 31q-60 0 -110.5 -17t-95.5 -58t-76.5 -103.5t-49.5 -159t-18 -219.5zM518 201q65 -45 162 -45q61 0 109 15.5t93 57t75 108.5t47.5 176.5t17.5 254.5q0 256 -59 383z" />
<glyph unicode="&#xd9;" horiz-adv-x="1361" d="M168 516v957h223v-938q0 -154 25 -218q58 -151 264 -151q56 0 99 9t73.5 24t52 41.5t34.5 55.5t20 73t9.5 86t2.5 102v916h223v-959q0 -168 -33 -266q-45 -128 -164.5 -199.5t-318.5 -71.5q-362 0 -463 236q-47 104 -47 303zM401 1683l54 172l432 -155l-43 -129z" />
<glyph unicode="&#xda;" horiz-adv-x="1361" d="M168 516v957h223v-938q0 -154 25 -218q58 -151 264 -151q56 0 99 9t73.5 24t52 41.5t34.5 55.5t20 73t9.5 86t2.5 102v916h223v-959q0 -168 -33 -266q-45 -128 -164.5 -199.5t-318.5 -71.5q-362 0 -463 236q-47 104 -47 303zM500 1700l432 155l53 -172l-442 -112z" />
<glyph unicode="&#xdb;" horiz-adv-x="1361" d="M168 516v957h223v-938q0 -154 25 -218q58 -151 264 -151q56 0 99 9t73.5 24t52 41.5t34.5 55.5t20 73t9.5 86t2.5 102v916h223v-959q0 -168 -33 -266q-45 -128 -164.5 -199.5t-318.5 -71.5q-362 0 -463 236q-47 104 -47 303zM397 1642l207 197h193l198 -205l-94 -80 l-205 144l-207 -144z" />
<glyph unicode="&#xdc;" horiz-adv-x="1361" d="M168 516v957h223v-938q0 -154 25 -218q58 -151 264 -151q56 0 99 9t73.5 24t52 41.5t34.5 55.5t20 73t9.5 86t2.5 102v916h223v-959q0 -168 -33 -266q-45 -128 -164.5 -199.5t-318.5 -71.5q-362 0 -463 236q-47 104 -47 303zM383 1722q0 54 31.5 85.5t81.5 31.5 q116 0 116 -117q0 -56 -32 -87t-84 -31t-82.5 31.5t-30.5 86.5zM760 1722q0 55 31 86t81 31q56 0 85.5 -30t29.5 -87q0 -56 -31.5 -87t-83.5 -31q-53 0 -82.5 31.5t-29.5 86.5z" />
<glyph unicode="&#xdd;" horiz-adv-x="1202" d="M10 1473h248l350 -670l342 670h242l-473 -877v-596h-225v590zM426 1700l432 155l53 -172l-442 -112z" />
<glyph unicode="&#xde;" horiz-adv-x="1241" d="M180 0v1475h223v-228h271q230 0 360.5 -105.5t130.5 -310.5q0 -223 -136.5 -354t-369.5 -131h-256v-346h-223zM403 522h234q147 0 223 75.5t76 217.5q0 140 -75 198t-218 58h-240v-549z" />
<glyph unicode="&#xdf;" horiz-adv-x="1212" d="M143 0v1087q0 100 35.5 176.5t99 123.5t145.5 70.5t179 23.5q108 0 188 -26t126.5 -66.5t74 -102.5t36.5 -122.5t9 -137.5v-123h-78q-92 0 -142 -23t-50 -83q0 -40 26.5 -67.5t79.5 -59.5q9 -5 33.5 -18.5t36 -20t35 -21t36 -25t32.5 -28t30.5 -33.5t24 -38.5t20.5 -45.5 t12 -52.5t5 -61.5q0 -151 -102.5 -248.5t-274.5 -97.5q-88 0 -164 21t-117 48l51 176q41 -29 99 -50t116 -21q75 0 128 36t53 121q0 66 -39.5 106.5t-118.5 84.5q-98 55 -134 87q-81 74 -81 185q0 67 25.5 120t68 84.5t87.5 49.5t93 25v47q0 104 -57 159.5t-170 55.5 q-115 0 -179.5 -60t-64.5 -161v-1094h-213z" />
<glyph unicode="&#xe0;" horiz-adv-x="1060" d="M84 319q0 189 109 283t311 94q90 0 180 -20v57q0 107 -55 157t-174 50q-132 0 -260 -41l-19 168q56 16 148.5 29.5t160.5 13.5q99 0 170 -18.5t117 -52.5t73 -92t37.5 -128.5t10.5 -169.5v-397q0 -52 14.5 -74t44.5 -22q23 0 60 12l14 -162q-80 -26 -154 -26 q-69 0 -106.5 28.5t-54.5 102.5q-135 -131 -310 -131q-155 0 -236 95.5t-81 243.5zM240 1421l90 160l399 -264l-67 -121zM303 336q0 -84 41 -136.5t119 -52.5q59 0 119 30t102 75v280q-82 23 -143 23q-118 0 -178 -51.5t-60 -167.5z" />
<glyph unicode="&#xe1;" horiz-adv-x="1060" d="M84 319q0 189 109 283t311 94q90 0 180 -20v57q0 107 -55 157t-174 50q-132 0 -260 -41l-19 168q56 16 148.5 29.5t160.5 13.5q99 0 170 -18.5t117 -52.5t73 -92t37.5 -128.5t10.5 -169.5v-397q0 -52 14.5 -74t44.5 -22q23 0 60 12l14 -162q-80 -26 -154 -26 q-69 0 -106.5 28.5t-54.5 102.5q-135 -131 -310 -131q-155 0 -236 95.5t-81 243.5zM303 336q0 -84 41 -136.5t119 -52.5q59 0 119 30t102 75v280q-82 23 -143 23q-118 0 -178 -51.5t-60 -167.5zM344 1311l401 264l89 -160l-424 -225z" />
<glyph unicode="&#xe2;" horiz-adv-x="1060" d="M84 319q0 189 109 283t311 94q90 0 180 -20v57q0 107 -55 157t-174 50q-132 0 -260 -41l-19 168q56 16 148.5 29.5t160.5 13.5q99 0 170 -18.5t117 -52.5t73 -92t37.5 -128.5t10.5 -169.5v-397q0 -52 14.5 -74t44.5 -22q23 0 60 12l14 -162q-80 -26 -154 -26 q-69 0 -106.5 28.5t-54.5 102.5q-135 -131 -310 -131q-155 0 -236 95.5t-81 243.5zM213 1286l213 264h190l201 -266l-104 -90l-197 209l-197 -207zM303 336q0 -84 41 -136.5t119 -52.5q59 0 119 30t102 75v280q-82 23 -143 23q-118 0 -178 -51.5t-60 -167.5z" />
<glyph unicode="&#xe3;" horiz-adv-x="1060" d="M84 319q0 189 109 283t311 94q90 0 180 -20v57q0 107 -55 157t-174 50q-132 0 -260 -41l-19 168q56 16 148.5 29.5t160.5 13.5q99 0 170 -18.5t117 -52.5t73 -92t37.5 -128.5t10.5 -169.5v-397q0 -52 14.5 -74t44.5 -22q23 0 60 12l14 -162q-80 -26 -154 -26 q-69 0 -106.5 28.5t-54.5 102.5q-135 -131 -310 -131q-155 0 -236 95.5t-81 243.5zM236 1393q30 28 86 51.5t104 23.5q41 0 117.5 -28.5t122.5 -28.5q67 0 129 43l16 -160q-58 -39 -147 -39q-47 0 -127.5 22.5t-110.5 22.5q-76 0 -156 -55zM303 336q0 -84 41 -136.5 t119 -52.5q59 0 119 30t102 75v280q-82 23 -143 23q-118 0 -178 -51.5t-60 -167.5z" />
<glyph unicode="&#xe4;" horiz-adv-x="1060" d="M84 319q0 189 109 283t311 94q90 0 180 -20v57q0 107 -55 157t-174 50q-132 0 -260 -41l-19 168q56 16 148.5 29.5t160.5 13.5q99 0 170 -18.5t117 -52.5t73 -92t37.5 -128.5t10.5 -169.5v-397q0 -52 14.5 -74t44.5 -22q23 0 60 12l14 -162q-80 -26 -154 -26 q-69 0 -106.5 28.5t-54.5 102.5q-135 -131 -310 -131q-155 0 -236 95.5t-81 243.5zM215 1358q0 55 30.5 86t82.5 31q114 0 114 -117q0 -56 -31 -87.5t-83 -31.5q-53 0 -83 32t-30 87zM303 336q0 -84 41 -136.5t119 -52.5q59 0 119 30t102 75v280q-82 23 -143 23 q-118 0 -178 -51.5t-60 -167.5zM590 1358q0 55 31 86t81 31q57 0 87 -30t30 -87q0 -56 -32.5 -87.5t-84.5 -31.5t-82 31.5t-30 87.5z" />
<glyph unicode="&#xe5;" horiz-adv-x="1060" d="M84 319q0 189 109 283t311 94q90 0 180 -20v57q0 107 -55 157t-174 50q-132 0 -260 -41l-19 168q56 16 148.5 29.5t160.5 13.5q99 0 170 -18.5t117 -52.5t73 -92t37.5 -128.5t10.5 -169.5v-397q0 -52 14.5 -74t44.5 -22q23 0 60 12l14 -162q-80 -26 -154 -26 q-69 0 -106.5 28.5t-54.5 102.5q-135 -131 -310 -131q-155 0 -236 95.5t-81 243.5zM293 1417q0 96 64.5 162t160.5 66q103 0 164 -63.5t61 -154.5q0 -102 -64.5 -170.5t-164.5 -68.5q-103 0 -162 65.5t-59 163.5zM303 336q0 -84 41 -136.5t119 -52.5q59 0 119 30t102 75v280 q-82 23 -143 23q-118 0 -178 -51.5t-60 -167.5zM412 1417q0 -53 28.5 -88t77.5 -35q50 0 79.5 35t29.5 88q0 54 -29 87.5t-80 33.5q-53 0 -79.5 -33t-26.5 -88z" />
<glyph unicode="&#xe6;" horiz-adv-x="1587" d="M84 319q0 189 109 283t311 94q90 0 180 -20v57q0 108 -55 157.5t-174 49.5q-132 0 -260 -41q-2 26 -17 164q60 18 154 31.5t178 13.5q229 0 299 -154q51 74 129 115t174 41q377 0 377 -498v-88h-598q6 -364 274 -364q144 0 291 82l14 -187q-59 -31 -146.5 -53t-180.5 -22 q-237 0 -352 155q-70 -67 -163 -111t-200 -44q-90 0 -158 26.5t-107.5 73.5t-59 107t-19.5 132zM303 336q0 -84 43.5 -136.5t128.5 -52.5q66 0 129.5 31t112.5 88q-37 107 -37 266q-86 21 -139 21q-238 0 -238 -217zM893 668h387q0 276 -182 276q-100 0 -152.5 -80 t-52.5 -196z" />
<glyph unicode="&#xe7;" horiz-adv-x="942" d="M98 539q0 93 12.5 173t44.5 155t81 127.5t126.5 84t176.5 31.5q85 0 151 -24.5t107.5 -68t66.5 -95t37 -113.5l-180 -64q-23 87 -66.5 137t-124.5 50q-208 0 -208 -385q0 -391 266 -391q130 0 270 75l19 -184q-148 -72 -314 -72q-78 0 -143.5 17.5t-113 48t-84 74 t-59.5 92t-38 106t-21 112.5t-6 114zM348 -506l8 119q36 -10 86 -10q60 0 98 24t38 74q0 86 -89 86q-28 0 -96 -14v114q71 19 142 19q94 0 146 -50.5t52 -127.5q0 -53 -17 -95.5t-44.5 -70.5t-65 -47t-76.5 -27t-81 -8q-49 0 -101 14z" />
<glyph unicode="&#xe8;" horiz-adv-x="997" d="M98 555q0 144 32.5 252.5t91.5 173.5t135.5 97t170.5 32q200 0 293.5 -130t93.5 -382v-88h-598q3 -170 73.5 -261t201.5 -91q142 0 291 80l14 -185q-58 -32 -146.5 -55t-181.5 -23q-471 0 -471 580zM248 1419l90 160l399 -264l-67 -121zM319 653h388q0 145 -47.5 218 t-135.5 73q-67 0 -115 -42.5t-69 -106.5t-21 -142z" />
<glyph unicode="&#xe9;" horiz-adv-x="997" d="M98 555q0 144 32.5 252.5t91.5 173.5t135.5 97t170.5 32q200 0 293.5 -130t93.5 -382v-88h-598q3 -170 73.5 -261t201.5 -91q142 0 291 80l14 -185q-58 -32 -146.5 -55t-181.5 -23q-471 0 -471 580zM319 653h388q0 145 -47.5 218t-135.5 73q-67 0 -115 -42.5t-69 -106.5 t-21 -142zM344 1317l401 264l89 -160l-424 -225z" />
<glyph unicode="&#xea;" horiz-adv-x="997" d="M98 555q0 144 32.5 252.5t91.5 173.5t135.5 97t170.5 32q200 0 293.5 -130t93.5 -382v-88h-598q3 -170 73.5 -261t201.5 -91q142 0 291 80l14 -185q-58 -32 -146.5 -55t-181.5 -23q-471 0 -471 580zM223 1286l213 264h191l200 -266l-104 -90l-197 209l-196 -207zM319 653 h388q0 145 -47.5 218t-135.5 73q-67 0 -115 -42.5t-69 -106.5t-21 -142z" />
<glyph unicode="&#xeb;" horiz-adv-x="997" d="M98 555q0 144 32.5 252.5t91.5 173.5t135.5 97t170.5 32q200 0 293.5 -130t93.5 -382v-88h-598q3 -170 73.5 -261t201.5 -91q142 0 291 80l14 -185q-58 -32 -146.5 -55t-181.5 -23q-471 0 -471 580zM223 1358q0 55 30.5 86t82.5 31q115 0 115 -117q0 -56 -31.5 -87.5 t-83.5 -31.5q-53 0 -83 32t-30 87zM319 653h388q0 145 -47.5 218t-135.5 73q-67 0 -115 -42.5t-69 -106.5t-21 -142zM598 1358q0 54 31 85.5t82 31.5q116 0 116 -117q0 -56 -32 -87.5t-84 -31.5q-53 0 -83 32t-30 87z" />
<glyph unicode="&#xec;" horiz-adv-x="520" d="M-39 1421l90 160l400 -264l-68 -121zM152 0v1090h215v-1090h-215z" />
<glyph unicode="&#xed;" horiz-adv-x="520" d="M70 1317l401 264l88 -160l-424 -225zM152 0v1090h215v-1090h-215z" />
<glyph unicode="&#xee;" horiz-adv-x="520" d="M-45 1286l213 264h190l201 -266l-104 -90l-197 209l-197 -207zM152 0v1090h215v-1090h-215z" />
<glyph unicode="&#xef;" horiz-adv-x="520" d="M-43 1358q0 55 30.5 86t82.5 31q114 0 114 -117q0 -56 -31 -87.5t-83 -31.5q-53 0 -83 32t-30 87zM152 0v1090h215v-1090h-215zM332 1358q0 55 31 86t81 31q57 0 87 -30t30 -87q0 -56 -32.5 -87.5t-84.5 -31.5t-82 31.5t-30 87.5z" />
<glyph unicode="&#xf0;" horiz-adv-x="1067" d="M86 514q0 151 49.5 270.5t148 191t230.5 71.5q109 0 193 -52q-26 74 -68.5 141t-91.5 107l-156 -108l-100 104l139 102q-65 39 -209 72l35 123q166 -15 324 -104l170 124l110 -116l-147 -109q129 -128 194.5 -325t65.5 -414q0 -109 -15 -200t-49 -169t-85.5 -131.5 t-129 -84t-176.5 -30.5q-95 0 -170.5 30t-123.5 80.5t-80 120.5t-45 145.5t-13 160.5zM309 512q0 -62 5.5 -113t21 -98.5t39.5 -79.5t63 -51.5t90 -19.5q224 0 228 360q0 200 -33 313q-64 58 -176 58q-69 0 -118 -34.5t-74 -92.5t-35.5 -117.5t-10.5 -124.5z" />
<glyph unicode="&#xf1;" horiz-adv-x="1146" d="M152 0v1090h200l6 -117q160 137 336 137q253 0 293 -223q6 -37 6 -135v-752h-215v723q0 69 -4 92q-9 58 -45.5 83.5t-105.5 25.5q-121 0 -254 -119v-805h-217zM313 1393q30 28 86.5 51.5t104.5 23.5q41 0 117 -28.5t122 -28.5q67 0 129 43l17 -160q-58 -39 -148 -39 q-47 0 -127 22.5t-110 22.5q-76 0 -156 -55z" />
<glyph unicode="&#xf2;" horiz-adv-x="1085" d="M98 539q0 120 27.5 221.5t82.5 180.5t144.5 124t204.5 45q98 0 174 -30.5t123.5 -80.5t78 -123t42.5 -150t12 -169q0 -89 -14.5 -171t-49 -158t-86 -131.5t-129.5 -88.5t-176 -33t-175 33t-125 87t-79 129t-43 152t-12 163zM283 1421l90 160l399 -264l-67 -121zM322 537 q0 -385 217 -385q225 0 225 397q0 60 -4.5 109t-18 102.5t-36 90t-62 60t-92.5 23.5q-55 0 -97.5 -25.5t-67 -65t-39.5 -94.5t-20 -105.5t-5 -106.5z" />
<glyph unicode="&#xf3;" horiz-adv-x="1085" d="M98 539q0 120 27.5 221.5t82.5 180.5t144.5 124t204.5 45q98 0 174 -30.5t123.5 -80.5t78 -123t42.5 -150t12 -169q0 -89 -14.5 -171t-49 -158t-86 -131.5t-129.5 -88.5t-176 -33t-175 33t-125 87t-79 129t-43 152t-12 163zM322 537q0 -385 217 -385q225 0 225 397 q0 60 -4.5 109t-18 102.5t-36 90t-62 60t-92.5 23.5q-55 0 -97.5 -25.5t-67 -65t-39.5 -94.5t-20 -105.5t-5 -106.5zM393 1317l402 264l88 -160l-424 -225z" />
<glyph unicode="&#xf4;" horiz-adv-x="1085" d="M98 539q0 120 27.5 221.5t82.5 180.5t144.5 124t204.5 45q98 0 174 -30.5t123.5 -80.5t78 -123t42.5 -150t12 -169q0 -89 -14.5 -171t-49 -158t-86 -131.5t-129.5 -88.5t-176 -33t-175 33t-125 87t-79 129t-43 152t-12 163zM260 1286l213 264h191l200 -266l-104 -90 l-197 209l-196 -207zM322 537q0 -385 217 -385q225 0 225 397q0 60 -4.5 109t-18 102.5t-36 90t-62 60t-92.5 23.5q-55 0 -97.5 -25.5t-67 -65t-39.5 -94.5t-20 -105.5t-5 -106.5z" />
<glyph unicode="&#xf5;" horiz-adv-x="1085" d="M98 539q0 120 27.5 221.5t82.5 180.5t144.5 124t204.5 45q98 0 174 -30.5t123.5 -80.5t78 -123t42.5 -150t12 -169q0 -89 -14.5 -171t-49 -158t-86 -131.5t-129.5 -88.5t-176 -33t-175 33t-125 87t-79 129t-43 152t-12 163zM272 1393q30 28 86.5 51.5t104.5 23.5 q41 0 117 -28.5t122 -28.5q67 0 129 43l17 -160q-58 -39 -148 -39q-47 0 -127 22.5t-110 22.5q-76 0 -156 -55zM322 537q0 -385 217 -385q225 0 225 397q0 60 -4.5 109t-18 102.5t-36 90t-62 60t-92.5 23.5q-55 0 -97.5 -25.5t-67 -65t-39.5 -94.5t-20 -105.5t-5 -106.5z " />
<glyph unicode="&#xf6;" horiz-adv-x="1085" d="M98 539q0 120 27.5 221.5t82.5 180.5t144.5 124t204.5 45q98 0 174 -30.5t123.5 -80.5t78 -123t42.5 -150t12 -169q0 -89 -14.5 -171t-49 -158t-86 -131.5t-129.5 -88.5t-176 -33t-175 33t-125 87t-79 129t-43 152t-12 163zM258 1358q0 55 30.5 86t82.5 31 q114 0 114 -117q0 -56 -31 -87.5t-83 -31.5q-53 0 -83 32t-30 87zM322 537q0 -385 217 -385q225 0 225 397q0 60 -4.5 109t-18 102.5t-36 90t-62 60t-92.5 23.5q-55 0 -97.5 -25.5t-67 -65t-39.5 -94.5t-20 -105.5t-5 -106.5zM633 1358q0 55 31 86t81 31q57 0 87 -30t30 -87 q0 -56 -32.5 -87.5t-84.5 -31.5t-82 31.5t-30 87.5z" />
<glyph unicode="&#xf7;" horiz-adv-x="1105" d="M80 555v180h944v-180h-944zM420 297q0 54 33 92.5t90 38.5q59 0 92 -35.5t33 -93.5q0 -57 -34 -94t-93 -37q-57 0 -89 35.5t-32 93.5zM420 987q0 54 33 92.5t90 38.5q59 0 92 -35.5t33 -93.5q0 -56 -34.5 -93.5t-92.5 -37.5q-57 0 -89 35.5t-32 93.5z" />
<glyph unicode="&#xf8;" horiz-adv-x="1085" d="M98 539q0 120 27.5 221.5t82.5 180.5t144.5 124t204.5 45q94 0 178 -33l86 158l144 -76l-97 -176q119 -141 119 -426q0 -89 -14.5 -171t-49 -158t-86 -131.5t-129.5 -88.5t-176 -33q-105 0 -192 41l-92 -168l-144 76l107 197q-113 147 -113 418zM322 537q0 -120 16 -193 l305 567q-41 23 -92 23q-55 0 -97.5 -25.5t-67 -65t-39.5 -94.5t-20 -105.5t-5 -106.5zM430 182q44 -30 109 -30q225 0 225 397q0 120 -21 207z" />
<glyph unicode="&#xf9;" horiz-adv-x="1140" d="M145 338v725l217 27v-723q0 -108 31.5 -155.5t120.5 -47.5q122 0 258 119v807h217v-1090h-201l-6 115q-163 -135 -336 -135q-256 0 -292 223q-9 55 -9 135zM303 1421l90 160l400 -264l-68 -121z" />
<glyph unicode="&#xfa;" horiz-adv-x="1140" d="M145 338v725l217 27v-723q0 -108 31.5 -155.5t120.5 -47.5q122 0 258 119v807h217v-1090h-201l-6 115q-163 -135 -336 -135q-256 0 -292 223q-9 55 -9 135zM416 1317l401 264l88 -160l-424 -225z" />
<glyph unicode="&#xfb;" horiz-adv-x="1140" d="M145 338v725l217 27v-723q0 -108 31.5 -155.5t120.5 -47.5q122 0 258 119v807h217v-1090h-201l-6 115q-163 -135 -336 -135q-256 0 -292 223q-9 55 -9 135zM279 1286l213 264h190l201 -266l-105 -90l-196 209l-197 -207z" />
<glyph unicode="&#xfc;" horiz-adv-x="1140" d="M145 338v725l217 27v-723q0 -108 31.5 -155.5t120.5 -47.5q122 0 258 119v807h217v-1090h-201l-6 115q-163 -135 -336 -135q-256 0 -292 223q-9 55 -9 135zM289 1358q0 55 30 86t82 31q115 0 115 -117q0 -56 -31.5 -87.5t-83.5 -31.5t-82 31.5t-30 87.5zM664 1358 q0 55 31 86t81 31q57 0 87 -30t30 -87q0 -56 -32.5 -87.5t-84.5 -31.5t-82 31.5t-30 87.5z" />
<glyph unicode="&#xfd;" horiz-adv-x="1019" d="M-147 -379l57 184q137 -75 235 -75q49 0 87 19t69.5 62t55.5 94t55 132l-383 1030l231 23l270 -818q38 106 111 351t131 467l215 -23q-157 -570 -350 -1036q-34 -80 -60 -136t-60.5 -116.5t-69.5 -99.5t-78.5 -72t-95.5 -48.5t-113 -15.5q-89 0 -171 23t-136 55z M379 1317l401 264l88 -160l-424 -225z" />
<glyph unicode="&#xfe;" horiz-adv-x="1103" d="M152 -428v1903h213v-490q165 123 305 123q155 0 245.5 -118.5t90.5 -360.5q0 -140 -22.5 -254t-69.5 -203.5t-127.5 -138.5t-188.5 -49q-68 0 -131 16.5t-100 44.5v-473h-215zM369 219q83 -65 196 -65q59 0 102.5 34.5t67 96.5t34.5 135.5t11 161.5q0 131 -23.5 208.5 t-61 104.5t-95.5 27q-95 0 -231 -93v-610z" />
<glyph unicode="&#xff;" horiz-adv-x="1019" d="M-147 -379l57 184q137 -75 235 -75q49 0 87 19t69.5 62t55.5 94t55 132l-383 1030l231 23l270 -818q38 106 111 351t131 467l215 -23q-157 -570 -350 -1036q-34 -80 -60 -136t-60.5 -116.5t-69.5 -99.5t-78.5 -72t-95.5 -48.5t-113 -15.5q-89 0 -171 23t-136 55z M219 1358q0 55 30.5 86t82.5 31q114 0 114 -117q0 -56 -31 -87.5t-83 -31.5q-53 0 -83 32t-30 87zM594 1358q0 54 31 85.5t82 31.5q116 0 116 -117q0 -56 -32 -87.5t-84 -31.5q-53 0 -83 32t-30 87z" />
<glyph unicode="&#x152;" horiz-adv-x="1812" d="M109 758q0 365 146 551t417 186q90 0 178 -20h870v-183h-635q107 -140 119 -442h434v-176h-436q-11 -323 -137 -492h680v-182h-920q-76 -20 -170 -20q-98 0 -176 21.5t-149 75.5t-118.5 140.5t-75 223.5t-27.5 317zM342 758q0 -319 78.5 -458.5t236.5 -139.5q61 0 107 15 t87.5 55.5t68 108t42 175.5t15.5 254q0 157 -20.5 265t-62 168t-95.5 85t-129 25q-59 0 -107 -16.5t-90 -56.5t-70.5 -102.5t-44.5 -158t-16 -219.5z" />
<glyph unicode="&#x153;" horiz-adv-x="1669" d="M98 541q0 119 27.5 220.5t81.5 180t141 123.5t199 45q222 0 321 -186q114 184 324 184q379 0 379 -512v-88h-598q3 -171 72.5 -260.5t201.5 -89.5q142 0 291 80l14 -185q-59 -31 -146 -53.5t-177 -22.5q-136 0 -228.5 56.5t-138.5 150.5q-45 -93 -131 -148.5t-209 -55.5 q-96 0 -171 33.5t-122 87.5t-77 129t-42 151t-12 160zM322 537q0 -381 217 -381q225 0 225 397q0 381 -213 381q-55 0 -97.5 -25.5t-67 -65t-39.5 -94.5t-20 -105.5t-5 -106.5zM975 651h387q0 144 -47 217.5t-135 73.5q-99 0 -152 -85.5t-53 -205.5z" />
<glyph unicode="&#x178;" horiz-adv-x="1222" d="M20 1473h248l350 -670l343 670h241l-473 -877v-596h-225v590zM322 1720q0 55 31 86t81 31q57 0 87 -30t30 -87q0 -56 -32.5 -87t-84.5 -31q-51 0 -81.5 31.5t-30.5 86.5zM698 1720q0 54 31 85.5t82 31.5q56 0 85.5 -30t29.5 -87q0 -56 -31.5 -87t-83.5 -31 q-53 0 -83 31.5t-30 86.5z" />
<glyph unicode="&#x2c6;" horiz-adv-x="800" d="M104 1286l213 264h191l201 -266l-105 -90l-196 209l-197 -207z" />
<glyph unicode="&#x2dc;" horiz-adv-x="864" d="M176 1393q30 28 86.5 51.5t104.5 23.5q41 0 117 -28.5t122 -28.5q67 0 129 43l17 -160q-58 -39 -148 -39q-47 0 -127 22.5t-110 22.5q-76 0 -156 -55z" />
<glyph unicode="&#x2000;" horiz-adv-x="934" />
<glyph unicode="&#x2001;" horiz-adv-x="1868" />
<glyph unicode="&#x2002;" horiz-adv-x="934" />
<glyph unicode="&#x2003;" horiz-adv-x="1868" />
<glyph unicode="&#x2004;" horiz-adv-x="622" />
<glyph unicode="&#x2005;" horiz-adv-x="467" />
<glyph unicode="&#x2006;" horiz-adv-x="311" />
<glyph unicode="&#x2007;" horiz-adv-x="311" />
<glyph unicode="&#x2008;" horiz-adv-x="233" />
<glyph unicode="&#x2009;" horiz-adv-x="373" />
<glyph unicode="&#x200a;" horiz-adv-x="103" />
<glyph unicode="&#x2010;" horiz-adv-x="827" d="M109 543v174h616v-174h-616z" />
<glyph unicode="&#x2011;" horiz-adv-x="827" d="M109 543v174h616v-174h-616z" />
<glyph unicode="&#x2012;" horiz-adv-x="827" d="M109 543v174h616v-174h-616z" />
<glyph unicode="&#x2013;" horiz-adv-x="1024" d="M0 504v174h1024v-174h-1024z" />
<glyph unicode="&#x2014;" horiz-adv-x="2048" d="M0 504v174h2048v-174h-2048z" />
<glyph unicode="&#x2018;" horiz-adv-x="423" d="M98 1180l97 403l116 -12l-8 -426q-2 -52 -28.5 -81.5t-75.5 -29.5q-58 0 -87 41t-14 105z" />
<glyph unicode="&#x2019;" horiz-adv-x="421" d="M113 1047l6 423q0 52 27.5 82.5t76.5 30.5q58 0 87 -40.5t14 -104.5l-97 -406z" />
<glyph unicode="&#x201a;" horiz-adv-x="421" d="M113 -295l6 424q0 52 27.5 82.5t76.5 30.5q58 0 87 -41t14 -105l-97 -405z" />
<glyph unicode="&#x201c;" horiz-adv-x="759" d="M98 1180l97 403l116 -12l-8 -426q-2 -52 -28.5 -81.5t-75.5 -29.5q-58 0 -87 41t-14 105zM434 1180l96 403l117 -12l-8 -426q-2 -52 -28.5 -81.5t-75.5 -29.5q-58 0 -87 41t-14 105z" />
<glyph unicode="&#x201d;" horiz-adv-x="757" d="M113 1047l6 423q0 52 27.5 82.5t76.5 30.5q58 0 87 -40.5t14 -104.5l-97 -406zM449 1047l6 423q0 52 27.5 82.5t76.5 30.5q58 0 86.5 -40.5t13.5 -104.5l-96 -406z" />
<glyph unicode="&#x201e;" horiz-adv-x="765" d="M113 -295l6 424q0 52 27.5 82.5t76.5 30.5q58 0 87 -41t14 -105l-97 -405zM457 -295l6 424q0 52 27.5 82.5t76.5 30.5q58 0 87 -41t14 -105l-97 -405z" />
<glyph unicode="&#x2022;" horiz-adv-x="909" d="M180 729q0 130 78 211.5t197 81.5q120 0 197 -81.5t77 -211.5t-76.5 -210.5t-197.5 -80.5t-198 79t-77 212z" />
<glyph unicode="&#x2026;" horiz-adv-x="1617" d="M145 121q0 59 37.5 101t100.5 42q65 0 101 -39t36 -102q0 -62 -38.5 -102.5t-102.5 -40.5q-62 0 -98 38.5t-36 102.5zM694 121q0 59 37 101t100 42q65 0 101.5 -39t36.5 -102q0 -62 -38.5 -102.5t-103.5 -40.5q-62 0 -97.5 38.5t-35.5 102.5zM1235 121q0 59 37 101 t100 42q65 0 102 -39t37 -102q0 -62 -38.5 -102.5t-102.5 -40.5t-99.5 38.5t-35.5 102.5z" />
<glyph unicode="&#x202f;" horiz-adv-x="373" />
<glyph unicode="&#x2039;" horiz-adv-x="702" d="M61 573l428 435l129 -129l-303 -301l312 -306l-131 -131z" />
<glyph unicode="&#x203a;" horiz-adv-x="702" d="M76 272l311 306l-303 301l129 129l428 -435l-434 -432z" />
<glyph unicode="&#x205f;" horiz-adv-x="467" />
<glyph unicode="&#x20ac;" horiz-adv-x="1110" d="M66 489v148h737v-148h-379q19 -158 78 -241.5t180 -83.5q82 0 133.5 32t114.5 128l147 -111q-88 -135 -182 -184t-219 -49q-97 0 -174.5 29.5t-128 77t-86.5 115.5t-54 137.5t-26 149.5h-141zM66 748v147h137q6 92 24.5 172.5t55.5 154.5t90 127t132 84t177 31 q86 0 154 -25.5t109 -62t72.5 -94t46.5 -105t28 -110.5l-193 -47q-25 129 -75.5 194.5t-147.5 65.5q-55 0 -98 -21.5t-70.5 -56.5t-47.5 -86.5t-30 -104t-16 -116.5h389v-147h-737z" />
<glyph unicode="&#x2122;" horiz-adv-x="1697" d="M33 1335v138h659v-138h-254v-682h-162v682h-243zM762 653l59 820h172l195 -586l196 586h166l49 -820h-149l-33 537l-160 -467h-143l-164 467l-39 -537h-149z" />
<glyph unicode="&#xe000;" horiz-adv-x="1085" d="M0 0v1085h1085v-1085h-1085z" />
</font>
</defs>
</svg>
