<?xml version="1.0" standalone="no"?>
<!DOCTYPE svg PUBLIC "-//W3C//DTD SVG 1.1//EN" "http://www.w3.org/Graphics/SVG/1.1/DTD/svg11.dtd" >
<svg xmlns="http://www.w3.org/2000/svg">
<metadata></metadata>
<defs>
<font id="RonniaLightRegular" horiz-adv-x="1071" >
<font-face units-per-em="2048" ascent="1638" descent="-410" />
<missing-glyph horiz-adv-x="471" />
<glyph unicode="&#xfb01;" horiz-adv-x="1048" d="M12 971v110h174v74q0 149 83.5 234.5t254.5 85.5q147 0 256 -39l-18 -119q-109 39 -230 39q-125 0 -169 -56t-44 -178v-41h553v-1081h-135v971h-418v-971h-133v971h-174z" />
<glyph unicode="&#xfb02;" horiz-adv-x="1249" d="M12 971v110h174v76q0 148 87 233t270 85q176 0 370 -54v-1142q0 -96 26.5 -138.5t96.5 -42.5q75 0 166 43l17 -114q-38 -20 -97 -33.5t-110 -13.5q-132 0 -184 70t-52 208v1071q-113 27 -231 27q-131 0 -178.5 -56.5t-47.5 -177.5v-41h279v-110h-279v-971h-133v971h-174z " />
<glyph unicode="&#xfb03;" horiz-adv-x="1638" d="M12 971v110h174v97q0 150 82 235.5t248 85.5q94 0 184 -24l-10 -117q-94 24 -174 24q-102 0 -149.5 -50.5t-47.5 -170.5v-80h457v74q0 149 83.5 234.5t254.5 85.5q147 0 256 -39l-18 -119q-109 39 -230 39q-125 0 -169 -56t-44 -178v-41h553v-1081h-135v971h-418v-971 h-133v971h-457v-971h-133v971h-174z" />
<glyph unicode="&#xfb04;" horiz-adv-x="1837" d="M12 971v110h174v97q0 150 82 235.5t248 85.5q94 0 184 -24l-10 -117q-94 24 -174 24q-102 0 -149.5 -50.5t-47.5 -170.5v-80h455v76q0 149 86.5 233.5t269.5 84.5q177 0 371 -54v-1142q0 -96 26.5 -138.5t96.5 -42.5q75 0 166 43l16 -114q-38 -20 -97 -33.5t-110 -13.5 q-132 0 -183.5 70t-51.5 208v1071q-113 27 -231 27q-131 0 -178.5 -56.5t-47.5 -177.5v-41h279v-110h-279v-971h-133v971h-455v-971h-133v971h-174z" />
<glyph horiz-adv-x="0" />
<glyph horiz-adv-x="0" />
<glyph horiz-adv-x="2048" />
<glyph unicode="&#xd;" horiz-adv-x="890" />
<glyph unicode=" "  horiz-adv-x="471" />
<glyph unicode="&#x09;" horiz-adv-x="471" />
<glyph unicode="&#xa0;" horiz-adv-x="471" />
<glyph unicode="!" horiz-adv-x="466" d="M137 92q0 42 27 72.5t69 30.5q43 0 70 -30t27 -73q0 -45 -26.5 -74.5t-70.5 -29.5q-42 0 -69 29.5t-27 74.5zM152 1473h161l-28 -1072h-105z" />
<glyph unicode="&#x22;" horiz-adv-x="696" d="M133 1430h150l-21 -531h-106zM424 1430h149l-20 -531h-107z" />
<glyph unicode="#" horiz-adv-x="1394" d="M86 397l41 113h235l107 352h-236l37 117h238l113 375h131l-109 -375h287l112 375h134l-111 -375h248l-39 -117h-250l-106 -352h251l-41 -113h-251l-117 -397h-137l118 397h-284l-117 -397h-137l119 397h-236zM498 510h286l107 352h-289z" />
<glyph unicode="$" horiz-adv-x="1030" d="M82 94l43 125q64 -53 150.5 -89t179.5 -36h4v578q-57 25 -100 48.5t-90 59t-77 74t-49.5 93.5t-19.5 118q0 154 94.5 249t241.5 111v179h110v-177q80 -8 145 -40.5t104 -78.5t61 -96t28 -100l-119 -35q-23 95 -80.5 151t-138.5 70v-530q55 -26 96.5 -51t86 -61t73.5 -75 t47.5 -92t18.5 -114q0 -156 -84 -258.5t-238 -130.5v-191h-110v185h-8q-120 0 -214.5 34t-154.5 80zM260 1077q0 -171 199 -266v487q-89 -11 -144 -66t-55 -155zM569 104q82 23 132.5 86t50.5 156q0 189 -183 281v-523z" />
<glyph unicode="%" horiz-adv-x="1654" d="M123 1063q0 209 82 309.5t207 100.5q272 0 272 -408q0 -207 -74.5 -311.5t-203.5 -104.5q-134 0 -208.5 103.5t-74.5 310.5zM246 1053q0 -139 43 -216t119 -77q73 0 115 77.5t42 225.5q0 145 -41 223t-114 78q-77 0 -120.5 -80t-43.5 -231zM379 0l774 1473h141 l-776 -1473h-139zM971 385q0 209 82 309.5t207 100.5q272 0 272 -408q0 -207 -75 -311.5t-204 -104.5q-134 0 -208 103.5t-74 310.5zM1094 375q0 -139 43 -216t118 -77q73 0 115.5 77.5t42.5 225.5q0 144 -41.5 222.5t-114.5 78.5q-77 0 -120 -80t-43 -231z" />
<glyph unicode="&#x26;" horiz-adv-x="1398" d="M133 389q0 160 92 279t258 178q-159 165 -159 323q0 134 95.5 219t264.5 85q147 0 241.5 -75t94.5 -204q0 -123 -90 -229l-96 65q57 86 57 150q0 83 -60.5 128.5t-152.5 45.5q-105 0 -160 -49.5t-55 -126.5q0 -59 26 -111.5t74 -114.5q336 -435 795 -903l-88 -84 q-122 116 -226 238q-108 -121 -220 -177.5t-249 -56.5q-110 0 -197 35.5t-139 95.5t-79 134t-27 155zM276 397q0 -136 81.5 -222.5t232.5 -86.5q103 0 193 48.5t180 150.5q-242 261 -410 469q-127 -32 -202 -130t-75 -229z" />
<glyph unicode="'" horiz-adv-x="405" d="M133 1430h150l-21 -531h-106z" />
<glyph unicode="(" horiz-adv-x="622" d="M186 664q0 222 63 440t185 469l115 -45q-117 -264 -171 -453.5t-54 -417.5q0 -98 12 -189.5t26.5 -156t49 -156t56 -140t71.5 -156.5l18 -39l-117 -53q-128 232 -191 436t-63 461z" />
<glyph unicode=")" horiz-adv-x="622" d="M66 1518l116 53q128 -232 191 -436t63 -461q0 -222 -63 -440.5t-185 -469.5l-114 46q58 131 92.5 220t68.5 199.5t49 220t15 230.5q0 82 -6 154t-23.5 146.5t-30 122.5t-46.5 129.5t-49.5 116t-60.5 132.5q-11 24 -17 37z" />
<glyph unicode="*" horiz-adv-x="727" d="M37 1307q0 34 18.5 54.5t46.5 20.5q27 0 70 -24l131 -80l-24 -70l-158 27q-41 6 -62.5 25t-21.5 47zM133 977q0 -28 21.5 -47t52.5 -19q48 0 80 68l65 141l-63 47l-113 -114q-43 -43 -43 -76zM307 1456q-10 51 10 80t60 29q41 0 57.5 -31t5.5 -84l-30 -150h-74zM389 1120 l64 47l112 -114q43 -43 43 -76q0 -28 -21 -47t-52 -19q-48 0 -80 68zM442 1278l136 80q34 24 65 24q30 0 48 -21.5t18 -51.5q0 -62 -91 -78l-151 -27z" />
<glyph unicode="+" d="M76 592v121h389v385h129v-385h401v-121h-401v-410h-129v410h-389z" />
<glyph unicode="," horiz-adv-x="436" d="M61 -354l89 536q6 35 28.5 53.5t52.5 18.5q44 0 73 -32t13 -81l-172 -516z" />
<glyph unicode="-" horiz-adv-x="851" d="M121 575v121h616v-121h-616z" />
<glyph unicode="." horiz-adv-x="468" d="M123 94q0 48 29.5 82.5t80.5 34.5q53 0 83 -31.5t30 -83.5q0 -51 -31 -83.5t-84 -32.5q-52 0 -80 31t-28 83z" />
<glyph unicode="/" horiz-adv-x="825" d="M31 -145l653 1726l121 -45l-658 -1729z" />
<glyph unicode="0" d="M88 707q0 192 33 333.5t95 225.5t144 124t185 40q142 0 237 -69t148 -230t53 -418q0 -200 -29.5 -342t-89 -227.5t-141.5 -124.5t-193 -39q-156 0 -251 70t-143 230t-48 427zM229 684q0 -306 72 -444t234 -138q160 0 235.5 140t75.5 467q0 318 -73.5 457t-233.5 139 q-166 0 -238 -142.5t-72 -478.5z" />
<glyph unicode="1" horiz-adv-x="841" d="M123 0v111h250v1179h-228v113h365v-1292h250v-111h-637z" />
<glyph unicode="2" horiz-adv-x="1015" d="M86 0v104q180 174 297.5 300.5t237.5 283.5q88 114 120.5 195.5t32.5 169.5q0 115 -69 184.5t-185 69.5q-106 0 -184 -54t-137 -166l-109 56q45 123 162 206t274 83q173 0 282.5 -98.5t109.5 -274.5q0 -191 -142 -383q-112 -151 -228 -278t-269 -275h665v-123h-858z" />
<glyph unicode="3" horiz-adv-x="1011" d="M57 104l62 121q62 -56 148 -90.5t182 -34.5q140 0 224.5 87t84.5 229q0 67 -21.5 120t-58 85.5t-78.5 51t-88 23.5q-63 6 -158 6v117q97 0 144 4q111 11 176 78.5t65 175.5q0 62 -22 108.5t-61 72.5t-86 38.5t-103 12.5q-97 0 -172 -48t-121 -137l-106 56 q52 114 161.5 182t264.5 68q173 0 279 -92t106 -251q0 -115 -61 -203t-163 -122q244 -75 244 -352q0 -192 -124 -311t-335 -119q-109 0 -214 34.5t-169 89.5z" />
<glyph unicode="4" d="M76 356v119l579 928h176v-926h191v-129h-193v-348h-133v356h-620zM221 477h475v774z" />
<glyph unicode="5" horiz-adv-x="1038" d="M102 109l56 127q74 -66 151.5 -98t173.5 -32q105 0 178.5 54.5t107.5 143t34 202.5q0 157 -67.5 255.5t-198.5 98.5q-85 0 -157 -38.5t-147 -114.5l-122 41v655h743v-127h-610v-416q74 66 144 94.5t159 28.5q103 0 181 -37t125 -102.5t70 -148.5t23 -183 q0 -150 -53.5 -269.5t-161.5 -191t-254 -71.5q-113 0 -214.5 37t-160.5 92z" />
<glyph unicode="6" horiz-adv-x="1081" d="M109 625q0 205 37.5 361.5t106 252.5t159.5 144.5t202 48.5q119 0 204 -55t151 -167l-103 -75q-56 91 -119 133.5t-153 42.5q-98 0 -172 -67.5t-115 -183.5t-51 -272q55 60 139.5 98t184.5 38q102 0 182 -36t128.5 -97.5t73.5 -139t25 -166.5q0 -224 -117 -364.5 t-307 -140.5q-229 0 -342.5 164.5t-113.5 480.5zM256 580q0 -90 13.5 -168.5t44.5 -152t92 -116.5t147 -43q141 0 221 105.5t80 269.5q0 148 -72.5 237t-220.5 89q-95 0 -177 -42t-128 -108v-71z" />
<glyph unicode="7" horiz-adv-x="968" d="M41 1257v129h887v-92l-453 -886q-34 -66 -46.5 -116.5t-12.5 -119.5v-172h-144v166q0 145 54 248l434 843h-719z" />
<glyph unicode="8" d="M90 410q0 100 45.5 190.5t126.5 151.5q-127 118 -127 301q0 173 114 275t290 102q187 0 289 -97t102 -276q0 -173 -131 -326q91 -53 135.5 -128t44.5 -189q0 -200 -117.5 -317t-329.5 -117q-214 0 -328 115.5t-114 314.5zM233 406q0 -146 79 -226t227 -80q141 0 220 82 t79 226q0 71 -17.5 119.5t-54.5 79t-88 46t-125 21.5l-180 16q-68 -41 -104 -117.5t-36 -166.5zM272 1059q0 -122 56.5 -190t179.5 -78l174 -15q46 34 79.5 115t33.5 170q0 116 -73 181t-190 65q-112 0 -186 -63.5t-74 -184.5z" />
<glyph unicode="9" d="M100 924q0 229 121.5 367.5t325.5 138.5q203 0 311.5 -156.5t108.5 -458.5q0 -418 -126 -626.5t-358 -208.5q-128 0 -223.5 55t-150.5 155l100 82q55 -89 120.5 -130.5t157.5 -41.5q104 0 178.5 69.5t114 187.5t49.5 278q-48 -68 -135 -113t-184 -45q-100 0 -179.5 35.5 t-129 97.5t-75.5 142t-26 172zM236 936q0 -73 16 -133t49 -107t90 -73.5t133 -26.5q93 0 177.5 50t129.5 124v82q0 87 -15 163t-47.5 144t-94 108t-146.5 40q-141 0 -216.5 -103t-75.5 -268z" />
<glyph unicode=":" horiz-adv-x="468" d="M123 94q0 48 29.5 82.5t80.5 34.5q53 0 83 -31.5t30 -83.5q0 -51 -31 -83.5t-84 -32.5q-52 0 -80 31t-28 83zM123 940q0 48 29.5 82.5t80.5 34.5q53 0 83 -31.5t30 -83.5q0 -51 -31 -84t-84 -33q-51 0 -79.5 31.5t-28.5 83.5z" />
<glyph unicode=";" horiz-adv-x="452" d="M61 -354l89 536q6 35 28.5 53.5t52.5 18.5q44 0 73 -32t13 -81l-172 -516zM158 940q0 48 29.5 82.5t80.5 34.5q53 0 83 -31.5t30 -83.5q0 -51 -31 -84t-84 -33q-51 0 -79.5 31.5t-28.5 83.5z" />
<glyph unicode="&#x3c;" d="M68 565v101l886 376l50 -108l-764 -313l747 -320l-37 -117z" />
<glyph unicode="=" d="M76 393v121h919v-121h-919zM76 745v121h919v-121h-919z" />
<glyph unicode="&#x3e;" d="M47 934l49 108l887 -376v-101l-883 -381l-37 117l748 320z" />
<glyph unicode="?" horiz-adv-x="792" d="M123 1452q28 8 87.5 14.5t100.5 6.5q199 0 304.5 -93.5t105.5 -271.5q0 -155 -105.5 -266t-298.5 -152v-301h-133v395q107 12 187 44t124.5 76.5t65.5 94t21 103.5q0 124 -73.5 187t-209.5 63q-75 0 -154 -17zM150 92q0 42 27 72.5t69 30.5q43 0 69.5 -30t26.5 -73 q0 -45 -26.5 -74.5t-69.5 -29.5q-42 0 -69 29.5t-27 74.5z" />
<glyph unicode="@" horiz-adv-x="1552" d="M133 346q0 166 57 310.5t155 247t235.5 161.5t293.5 59q287 0 476 -108v-967q-187 -69 -346 -69q-189 0 -288.5 92.5t-99.5 261.5q0 178 107 267t295 89q96 0 199 -28v278q-135 66 -351 66q-123 0 -231 -46.5t-186.5 -130.5t-124 -207t-45.5 -270q0 -292 170.5 -473.5 t445.5 -181.5q185 0 315 70l45 -113q-146 -78 -374 -78q-175 0 -318 61t-236 166t-143.5 244.5t-50.5 298.5zM758 342q0 -254 252 -254q122 0 207 35v436q-109 25 -179 25q-280 0 -280 -242z" />
<glyph unicode="A" horiz-adv-x="1241" d="M51 0l457 1473h209l473 -1473h-141l-142 440h-577l-140 -440h-139zM365 569h503l-258 807z" />
<glyph unicode="B" horiz-adv-x="1226" d="M203 0v1473h426q213 0 330.5 -86.5t117.5 -251.5q0 -129 -65.5 -225t-161.5 -136q135 -29 210 -121t75 -219q0 -207 -132.5 -320.5t-363.5 -113.5h-436zM340 125h319q165 0 245.5 84.5t80.5 218.5q0 126 -81 201.5t-236 75.5h-328v-580zM340 823h272q153 0 235.5 80.5 t82.5 204.5q0 128 -78.5 184t-247.5 56h-264v-525z" />
<glyph unicode="C" horiz-adv-x="1150" d="M127 727q0 90 6 167.5t21 158.5t40 145.5t65.5 123t93.5 97.5t128 61.5t166 22.5q92 0 165 -22t119 -55.5t79.5 -83.5t50.5 -95.5t29 -101.5l-140 -35q-14 48 -28 82.5t-38.5 72t-55 60.5t-78 38t-107.5 15q-71 0 -128 -22.5t-94.5 -58t-65 -92t-42.5 -111t-24 -129 t-11 -133t-2 -134.5q0 -143 22 -249.5t69.5 -186t128 -120t192.5 -40.5q194 0 359 111l34 -131q-56 -41 -165 -76t-242 -35q-96 0 -174.5 22.5t-134.5 60.5t-98.5 95t-68.5 120t-42.5 142t-22.5 154t-6 162z" />
<glyph unicode="D" horiz-adv-x="1286" d="M203 0v1473h430q98 0 177.5 -20t148.5 -67.5t115.5 -123t73 -191t26.5 -266.5q0 -189 -31.5 -332.5t-84 -232t-130 -143.5t-159.5 -76t-183 -21h-383zM344 127h262q141 1 232.5 65t139.5 207t48 371q0 306 -97 443t-294 137h-291v-1223z" />
<glyph unicode="E" horiz-adv-x="1091" d="M203 0v1473h790v-127h-649v-517h565v-127h-565v-573h676v-129h-817z" />
<glyph unicode="F" horiz-adv-x="1056" d="M203 0v1473h823v-127h-682v-517h571v-127h-571v-702h-141z" />
<glyph unicode="G" horiz-adv-x="1243" d="M127 764q0 165 30 296.5t92 232.5t166.5 155.5t246.5 54.5q202 0 307.5 -90t140.5 -268l-131 -33q-21 68 -42.5 111.5t-57.5 81.5t-90.5 55.5t-131.5 17.5q-181 0 -283 -148t-102 -458q0 -127 10.5 -223t40 -185t78.5 -146t129 -90.5t189 -33.5q157 0 274 60v434h-344 v119h481v-641q-207 -95 -415 -95q-309 0 -448.5 189t-139.5 604z" />
<glyph unicode="H" horiz-adv-x="1427" d="M203 0v1473h141v-639h739v639h142v-1473h-142v707h-739v-707h-141z" />
<glyph unicode="I" horiz-adv-x="546" d="M203 0v1473h141v-1473h-141z" />
<glyph unicode="J" horiz-adv-x="845" d="M31 43l43 129q113 -68 254 -68q85 0 128.5 39t55.5 125q8 55 8 154v1051h142v-1057q0 -134 -13 -193q-24 -123 -110.5 -185.5t-216.5 -62.5q-83 0 -162.5 20t-128.5 48z" />
<glyph unicode="K" horiz-adv-x="1157" d="M203 0v1475h141v-646h266l348 644h148l-379 -697l410 -776h-160l-373 702h-260v-702h-141z" />
<glyph unicode="L" horiz-adv-x="1062" d="M203 0v1473h141v-1344h657v-129h-798z" />
<glyph unicode="M" horiz-adv-x="1632" d="M164 0l67 1473h187l403 -1111l408 1111h172l67 -1473h-137l-53 1229l-406 -1082h-106l-412 1086l-55 -1233h-135z" />
<glyph unicode="N" horiz-adv-x="1419" d="M203 0v1475h147l729 -1215v1215h138v-1475h-138l-739 1225v-1225h-137z" />
<glyph unicode="O" horiz-adv-x="1339" d="M127 760q0 367 147.5 555t411.5 188q270 0 398 -177.5t128 -553.5q0 -182 -28 -322t-76.5 -229.5t-119 -146.5t-149 -80t-173.5 -23q-91 0 -166.5 21t-146.5 76t-119.5 142t-77.5 227t-29 323zM274 760q0 -664 392 -664q71 0 127.5 17t109 63t87 120t55 194t20.5 280 q0 172 -28 292.5t-81 188t-120 96.5t-156 29q-69 0 -128 -19.5t-111 -65t-88.5 -115t-57.5 -175.5t-21 -241z" />
<glyph unicode="P" horiz-adv-x="1234" d="M203 0v1473h487q216 0 334.5 -100t118.5 -292q0 -222 -131.5 -352.5t-347.5 -130.5h-320v-598h-141zM344 723h307q168 0 257 87.5t89 250.5q0 156 -81 220.5t-248 64.5h-324v-623z" />
<glyph unicode="Q" horiz-adv-x="1337" d="M127 760q0 367 147.5 555t411.5 188q270 0 398 -177.5t128 -553.5q0 -372 -125.5 -560.5t-355.5 -207.5q230 -62 486 -86l-33 -121q-162 22 -330 62.5t-293 87.5q-81 31 -144 71t-119 105t-92.5 150.5t-57.5 208.5t-21 278zM274 760q0 -666 392 -666q71 0 127.5 17.5 t109 63.5t87 120.5t55 194.5t20.5 280q0 172 -28 292.5t-81 188t-120 96.5t-156 29q-69 0 -128 -19.5t-111 -65t-88.5 -115t-57.5 -175.5t-21 -241z" />
<glyph unicode="R" horiz-adv-x="1247" d="M203 0v1473h456q219 0 343 -92t124 -283q0 -279 -252 -402l261 -696h-154l-244 651h-395v-651h-139zM342 778h313q143 0 234.5 74t91.5 211q0 156 -80.5 221.5t-249.5 65.5h-309v-572z" />
<glyph unicode="S" horiz-adv-x="1097" d="M88 117l66 131q162 -146 366 -146q62 0 115 15.5t96 47t67.5 85.5t24.5 125q0 153 -100 230q-59 45 -208 96q-11 4 -42 14q-46 15 -75.5 26.5t-70 31t-66.5 39t-55 50t-45 65t-27 82.5t-11 105q0 178 125 283.5t315 105.5q82 0 151.5 -21t116 -54.5t80.5 -78t51.5 -89 t22.5 -89.5l-129 -36q-27 115 -106.5 173t-192.5 58q-54 0 -103 -14.5t-89.5 -43.5t-64.5 -79t-24 -115q0 -54 17.5 -96.5t36.5 -67.5t68 -51.5t75.5 -36.5t95.5 -33q7 -3 11 -4q150 -51 210 -85q145 -84 177 -241q10 -49 10 -108q0 -193 -119 -306.5t-342 -113.5 q-147 0 -259.5 46t-168.5 100z" />
<glyph unicode="T" horiz-adv-x="1118" d="M31 1346v127h1056v-127h-458v-1346h-142v1346h-456z" />
<glyph unicode="U" horiz-adv-x="1366" d="M197 508v965h141v-961q0 -173 33 -250q68 -153 309 -153q134 0 210 38.5t109 118.5q29 76 29 279v928h141v-967q0 -172 -24 -254q-42 -129 -158 -203t-307 -74q-178 0 -294 62.5t-159 183.5q-30 83 -30 287z" />
<glyph unicode="V" horiz-adv-x="1177" d="M31 1473h143l410 -1336l424 1336h139l-469 -1473h-195z" />
<glyph unicode="W" horiz-adv-x="1705" d="M123 1473h147l154 -1250l381 1108h106l371 -1108l156 1250h145l-192 -1473h-164l-371 1075l-381 -1075h-160z" />
<glyph unicode="X" horiz-adv-x="1136" d="M31 0l450 748l-403 725h168l327 -607l355 607h168l-437 -719l428 -754h-159l-361 625l-372 -625h-164z" />
<glyph unicode="Y" horiz-adv-x="1153" d="M31 1473h157l398 -730l385 730h151l-467 -861v-612h-145v606z" />
<glyph unicode="Z" horiz-adv-x="1105" d="M61 0v127l826 1221h-785v125h942v-138l-817 -1208h789v-127h-955z" />
<glyph unicode="[" horiz-adv-x="575" d="M176 -242v1813h379v-96h-254v-1620h254v-97h-379z" />
<glyph unicode="\" horiz-adv-x="825" d="M20 1536l121 45l654 -1726l-117 -48z" />
<glyph unicode="]" horiz-adv-x="575" d="M20 -145h254v1620h-254v96h379v-1813h-379v97z" />
<glyph unicode="^" horiz-adv-x="1196" d="M180 664l359 749h120l359 -749l-135 -21l-287 619l-287 -619z" />
<glyph unicode="_" horiz-adv-x="1024" d="M-14 -172h1052v-111h-1052v111z" />
<glyph unicode="`" horiz-adv-x="485" d="M6 1440l80 123l393 -283l-55 -84z" />
<glyph unicode="a" horiz-adv-x="1042" d="M92 313q0 190 110 281.5t306 91.5q98 0 188 -20v77q0 128 -55.5 185t-191.5 57q-130 0 -252 -39l-15 121q137 37 310 37q170 0 254.5 -81.5t84.5 -254.5v-580q0 -49 18 -69.5t58 -20.5q30 0 88 21l13 -113q-84 -26 -136 -26q-71 0 -114 38t-49 93q-147 -131 -312 -131 q-150 0 -227.5 94t-77.5 239zM238 317q0 -94 48.5 -155.5t141.5 -61.5q70 0 141 33t127 86l2 340q-94 23 -168 23q-147 0 -219.5 -62t-72.5 -203z" />
<glyph unicode="b" horiz-adv-x="1075" d="M176 72v1401h135v-510q55 39 96 63.5t107.5 50t122.5 25.5q152 0 239 -119t87 -354q0 -148 -25 -264t-77 -203.5t-140.5 -134.5t-208.5 -47q-184 0 -336 92zM311 147q89 -51 203 -51q83 0 143.5 39.5t93 109t47.5 151t15 179.5q0 94 -10.5 164.5t-28 115t-45 71t-58 37 t-69.5 10.5q-112 0 -291 -125v-701z" />
<glyph unicode="c" horiz-adv-x="907" d="M113 532q0 572 403 572q66 0 120 -17t90 -44t63.5 -65.5t42.5 -76.5t24 -82l-119 -47q-58 211 -229 211q-254 0 -254 -451q0 -207 73 -322.5t222 -115.5q81 0 142 19t134 59l17 -123q-140 -74 -299 -74q-102 0 -179.5 34t-124 87.5t-76 129t-40 149t-10.5 157.5z" />
<glyph unicode="d" horiz-adv-x="1079" d="M113 524q0 85 12.5 164.5t42 156t74 133.5t113.5 91.5t155 34.5q74 0 130 -23.5t126 -70.5v463h137v-1473h-129v113q-137 -133 -291 -133q-170 0 -270 137t-100 407zM256 516q0 -198 69.5 -307t182.5 -109q142 0 260 140v634q-66 51 -124 79t-122 28q-56 0 -101.5 -23 t-84 -74.5t-59.5 -145t-21 -222.5z" />
<glyph unicode="e" horiz-adv-x="980" d="M113 551q0 284 108.5 418.5t298.5 134.5q186 0 272.5 -127.5t86.5 -378.5v-72h-625q0 -430 307 -430q141 0 289 78l12 -123q-55 -31 -139.5 -53.5t-177.5 -22.5q-432 0 -432 576zM256 635h481q0 172 -59 261t-166 89q-65 0 -115.5 -31t-80.5 -82t-45 -111.5t-15 -125.5z " />
<glyph unicode="f" horiz-adv-x="589" d="M12 971v110h174v97q0 150 82 235.5t248 85.5q94 0 184 -24l-10 -117q-94 24 -174 24q-102 0 -149.5 -50.5t-47.5 -170.5v-80h279v-110h-279v-971h-133v971h-174z" />
<glyph unicode="g" horiz-adv-x="1079" d="M113 524q0 85 12.5 164.5t42 156t74 133.5t113.5 91.5t155 34.5q74 0 130 -23.5t126 -70.5v71h137v-1050q0 -88 -8.5 -154.5t-34 -130.5t-68 -104.5t-114.5 -65.5t-170 -25q-97 0 -191 26t-149 58l25 129q56 -35 149 -64.5t180 -29.5q64 0 111 21.5t73.5 54.5t42 85 t20.5 102t5 116v64q-137 -133 -291 -133q-170 0 -270 137t-100 407zM256 516q0 -198 69.5 -307t182.5 -109q142 0 260 140v634q-66 51 -124 79t-122 28q-56 0 -101.5 -23t-84 -74.5t-59.5 -145t-21 -222.5z" />
<glyph unicode="h" horiz-adv-x="1134" d="M176 0v1473h137v-527q76 70 168 114t187 44q243 0 284 -213q6 -35 6 -133v-758h-135v739q0 71 -6 111q-12 67 -56.5 98t-131.5 31q-150 0 -316 -158v-821h-137z" />
<glyph unicode="i" horiz-adv-x="487" d="M154 1360q0 42 24.5 66t63.5 24q90 0 90 -92q0 -45 -24.5 -70.5t-65.5 -25.5q-40 0 -64 27t-24 71zM176 0v1081h135v-1081h-135z" />
<glyph unicode="j" horiz-adv-x="487" d="M-133 -401l24 127q84 -54 175 -54q61 0 85.5 43t24.5 152v1214h137v-1233q0 -146 -60 -221.5t-194 -75.5q-108 0 -192 48zM154 1360q0 42 24.5 66t63.5 24q90 0 90 -92q0 -45 -24.5 -70.5t-65.5 -25.5q-40 0 -64 27t-24 71z" />
<glyph unicode="k" horiz-adv-x="991" d="M176 0v1473h137v-809h187l274 417l135 -14l-297 -446l349 -621h-156l-305 539h-187v-539h-137z" />
<glyph unicode="l" horiz-adv-x="636" d="M164 258v1215h137v-1194q0 -96 26.5 -138.5t96.5 -42.5q75 0 166 43l16 -114q-38 -20 -97 -33.5t-110 -13.5q-132 0 -183.5 70t-51.5 208z" />
<glyph unicode="m" horiz-adv-x="1722" d="M176 0v1081h137v-133q178 156 355 156q191 0 250 -143q164 143 337 143q121 0 192.5 -54t90.5 -159q8 -47 8 -133v-758h-135v739q0 125 -38.5 182.5t-147.5 57.5q-143 0 -285 -135q4 -33 4 -109v-735h-135v739q0 75 -8 111q-10 66 -50 97.5t-112 31.5q-170 0 -326 -160 v-819h-137z" />
<glyph unicode="n" horiz-adv-x="1134" d="M176 0v1081h137v-135q76 70 168 114t187 44q243 0 284 -213q6 -35 6 -133v-758h-135v739q0 71 -6 111q-12 67 -56.5 98t-131.5 31q-150 0 -316 -158v-821h-137z" />
<glyph unicode="o" horiz-adv-x="1050" d="M113 535q0 119 25.5 220t76 180t134 124t192.5 45q92 0 162 -30.5t114 -81t71.5 -122.5t38.5 -148.5t11 -166.5q0 -86 -13.5 -166.5t-45 -156.5t-78.5 -132.5t-120.5 -90.5t-164.5 -34q-94 0 -166 34t-116 88t-72 130t-38.5 150.5t-10.5 157.5zM254 530q0 -87 12.5 -160 t41.5 -137.5t83 -101.5t129 -37q65 0 115.5 28t80.5 72.5t49 106t25.5 121t6.5 125.5q0 436 -262 436q-57 0 -102.5 -21.5t-75.5 -59.5t-51 -83.5t-32 -99t-15.5 -99t-4.5 -90.5z" />
<glyph unicode="p" horiz-adv-x="1075" d="M176 -428v1509h135v-116q55 39 96 63.5t107.5 50t122.5 25.5q152 0 239 -120t87 -355q0 -140 -21.5 -252.5t-68 -204t-129.5 -142t-197 -50.5q-64 0 -127.5 19.5t-106.5 47.5v-475h-137zM311 186q110 -86 248 -86q71 0 123 42t79 114t39.5 150.5t12.5 168.5 q0 117 -15 197.5t-44.5 123.5t-66 61t-85.5 18q-112 0 -291 -125v-664z" />
<glyph unicode="q" horiz-adv-x="1079" d="M113 524q0 85 12.5 164.5t42 156t74 133.5t113.5 91.5t155 34.5q74 0 130 -23.5t126 -70.5v71h137v-1509h-133v541q-137 -133 -287 -133q-170 0 -270 137t-100 407zM256 516q0 -197 69.5 -306.5t182.5 -109.5q142 0 260 140v634q-66 51 -124 79t-122 28q-56 0 -101.5 -23 t-84 -74.5t-59.5 -145t-21 -222.5z" />
<glyph unicode="r" horiz-adv-x="784" d="M176 0v1081h129v-120q131 143 262 143q148 0 207 -168l-112 -62q-26 53 -52 77t-78 24q-96 0 -219 -141v-834h-137z" />
<glyph unicode="s" horiz-adv-x="874" d="M82 90l37 127q45 -41 130.5 -82t164.5 -41q100 0 161.5 44.5t61.5 131.5q0 47 -18.5 82t-49.5 57t-71.5 39t-85.5 31t-89.5 30t-85 39.5t-71.5 55.5t-49.5 82.5t-18.5 116.5q0 139 100.5 220t245.5 81q78 0 141 -22.5t102.5 -60t63 -79.5t31.5 -88l-110 -45 q-25 86 -87 130t-143 44q-54 0 -98.5 -16t-75 -57t-30.5 -101q0 -52 23 -90.5t61 -60t86.5 -41t98.5 -33.5t98.5 -37.5t86.5 -53t61 -81t23 -119.5q0 -140 -94.5 -229t-269.5 -89q-97 0 -193 38t-137 77z" />
<glyph unicode="t" horiz-adv-x="663" d="M45 971v110h139v176l135 78v-254h283v-110h-283v-668q0 -42 1.5 -67.5t8 -56t18.5 -46.5t34.5 -27.5t54.5 -11.5q62 0 154 45l14 -114q-102 -50 -192 -50q-121 0 -174.5 69t-53.5 200v727h-139z" />
<glyph unicode="u" horiz-adv-x="1120" d="M160 324v739l135 18v-739q0 -78 8 -111q21 -131 180 -131q87 0 162.5 40.5t159.5 119.5v821h139v-1081h-139v133q-176 -153 -354 -153q-246 0 -283 210q-8 47 -8 134z" />
<glyph unicode="v" horiz-adv-x="940" d="M37 1067l143 14l293 -944l297 944l133 -14l-344 -1067h-180z" />
<glyph unicode="w" horiz-adv-x="1374" d="M61 1067l136 14l178 -921l262 901h127l221 -901l193 921l135 -16l-232 -1065h-172l-217 854l-250 -854h-166z" />
<glyph unicode="x" horiz-adv-x="913" d="M20 0l359 535l-342 532l158 14l266 -438l274 438l148 -14l-346 -535l344 -532h-158l-268 420l-271 -420h-164z" />
<glyph unicode="y" horiz-adv-x="933" d="M-174 -375l39 125q135 -78 237 -78q45 0 82 16t64.5 41.5t54.5 72.5t47.5 94t48.5 120l-376 1051l147 14l309 -901q39 94 123.5 362t159.5 539l135 -14q-162 -605 -352 -1057q-34 -80 -59.5 -135t-58 -111.5t-64.5 -92t-72 -65t-87.5 -42.5t-103.5 -13q-151 0 -274 74z " />
<glyph unicode="z" horiz-adv-x="843" d="M61 0v102l572 869h-543v110h713v-84l-586 -884h567v-113h-723z" />
<glyph unicode="{" horiz-adv-x="694" d="M135 618v111q166 15 166 252v393q0 88 52 145.5t149 57.5q69 0 139 -23l-18 -102q-44 18 -93 18q-24 0 -42 -6t-29 -19.5t-17.5 -27t-9.5 -37.5t-3.5 -41t-0.5 -47v-366q0 -186 -154 -250q83 -33 118.5 -95t35.5 -161v-391q0 -34 0.5 -47.5t3 -40.5t8.5 -38.5t17 -26.5 t29.5 -20.5t43.5 -5.5q47 0 93 19l18 -102q-70 -23 -139 -23q-97 0 -149 57.5t-52 145.5v415q0 116 -36 181t-130 75z" />
<glyph unicode="|" horiz-adv-x="419" d="M164 -242v1813h121v-1813h-121z" />
<glyph unicode="}" horiz-adv-x="694" d="M53 -233l19 102q46 -19 92 -19q25 0 43.5 5.5t29.5 20.5t17 26.5t8.5 38.5t3 40.5t0.5 47.5v391q0 99 35.5 161t118.5 95q-154 64 -154 250v366q0 30 -0.5 47t-3.5 41t-9.5 37.5t-17.5 27t-29 19.5t-42 6q-49 0 -92 -18l-19 102q70 23 140 23q97 0 148.5 -57.5 t51.5 -145.5v-393q0 -237 166 -252v-111q-94 -10 -130 -75t-36 -181v-415q0 -88 -51.5 -145.5t-148.5 -57.5q-70 0 -140 23z" />
<glyph unicode="~" horiz-adv-x="1302" d="M96 545q32 43 52.5 67.5t57 58t78.5 50t89 16.5q105 0 245 -65l127 -60q4 -2 19.5 -9t20.5 -9t18.5 -7.5t20 -7.5t18.5 -6.5t20 -6t19.5 -3.5t21.5 -3t21 -1q96 0 196 141l82 -75q-112 -193 -272 -193q-106 0 -248 66l-125 59q-107 51 -178 51q-103 0 -195 -139z" />
<glyph unicode="&#xa1;" horiz-adv-x="466" d="M137 987q0 45 26.5 75t69.5 30q42 0 69.5 -30t27.5 -75q0 -42 -27.5 -72t-69.5 -30q-43 0 -69.5 29.5t-26.5 72.5zM154 -393l28 1071h105l28 -1071h-161z" />
<glyph unicode="&#xa2;" horiz-adv-x="985" d="M184 670q0 81 8 148.5t28.5 132.5t53 112t85.5 80t122 43v229h111v-227q64 -6 110.5 -27.5t74.5 -57.5t43.5 -71t27.5 -82l-117 -30q-21 68 -50.5 105.5t-90.5 47.5v-790q63 10 99.5 47.5t64.5 111.5l108 -32q-65 -216 -274 -236v-287h-113v283q-64 9 -113.5 35.5 t-80.5 67t-51 84.5t-29.5 102t-13 105t-3.5 106zM317 645q0 -67 6 -118.5t21.5 -104t49 -87.5t83.5 -48v780q-44 -13 -75 -47.5t-47 -74t-25 -98t-11 -100.5t-2 -102z" />
<glyph unicode="&#xa3;" d="M115 98q107 30 160 116.5t53 186.5q0 96 -52 244h-155v103h121q-7 21 -26.5 76.5t-27.5 80.5t-16 66.5t-8 77.5q0 173 105.5 277t285.5 104q178 0 275.5 -88t142.5 -267l-125 -33q-40 151 -116 214t-185 63q-116 0 -183 -73t-67 -189q0 -30 4 -58t13.5 -60.5t17.5 -54.5 t25 -66t26 -70h369v-101h-338q41 -117 41 -231q0 -194 -121 -301h635v-115h-840z" />
<glyph unicode="&#xa4;" horiz-adv-x="1243" d="M139 338l140 133q-56 76 -76.5 132.5t-20.5 135.5q0 74 21 133t76 136l-140 133l72 67l137 -131q77 53 134.5 72.5t138.5 19.5q80 0 139 -20t135 -74l135 133l72 -67l-137 -133q55 -75 75.5 -134t20.5 -135q0 -79 -20 -136t-76 -132l137 -133l-72 -70l-135 129 q-76 -52 -134.5 -71t-139.5 -19t-139.5 19.5t-133.5 72.5l-137 -131zM311 739q0 -134 90.5 -224.5t221.5 -90.5q127 0 218 91t91 224q0 137 -90 225.5t-219 88.5q-132 0 -222 -89.5t-90 -224.5z" />
<glyph unicode="&#xa5;" d="M37 1403h156l348 -668l336 668h153l-377 -717h320v-98h-363v-193h363v-100h-363v-295h-139v295h-354v100h354v193h-354v98h307z" />
<glyph unicode="&#xa6;" horiz-adv-x="409" d="M158 -242v785h121v-785h-121zM158 856v715h121v-715h-121z" />
<glyph unicode="&#xa7;" horiz-adv-x="1148" d="M72 -53l118 35q64 -238 273 -238q194 0 194 141q0 76 -30 157.5t-77.5 156t-105 151t-115 155.5t-105 157t-77.5 167t-30 175q0 130 61 241t179 180.5t268 69.5q82 0 151.5 -21t116 -54.5t80.5 -78t51.5 -89t22.5 -89.5l-129 -37q-28 118 -104 184t-185 66 q-81 0 -123.5 -41.5t-42.5 -107.5q0 -44 29 -102.5t75.5 -121.5t103 -134t113 -150t103 -159t75.5 -172t29 -179q0 -170 -68.5 -304t-180.5 -205t-244 -71q-354 0 -426 318zM244 999q0 -74 30.5 -153.5t78.5 -153t106 -149.5t115.5 -155t104 -157.5t74 -168t23.5 -175.5 q90 142 90 308q0 83 -29.5 169t-77 161t-104.5 150t-114 147.5t-104.5 142.5t-77 146t-29.5 146v11q-86 -107 -86 -269z" />
<glyph unicode="&#xa8;" horiz-adv-x="825" d="M180 1341q0 41 22.5 65t59.5 24q84 0 84 -89q0 -41 -23.5 -65.5t-60.5 -24.5q-38 0 -60 25t-22 65zM508 1341q0 41 23 65t59 24q84 0 84 -89q0 -41 -23 -65.5t-61 -24.5t-60 25t-22 65z" />
<glyph unicode="&#xa9;" horiz-adv-x="1802" d="M113 723q0 219 98.5 395t276.5 276.5t403 100.5q173 0 323 -58.5t254 -160t163 -241.5t59 -300q0 -225 -101.5 -402t-283.5 -275.5t-414 -98.5q-178 0 -325 57.5t-246 159t-153 242t-54 305.5zM248 723q0 -192 82.5 -340.5t228.5 -229.5t332 -81q193 0 343.5 78.5 t236 227t85.5 345.5q0 191 -86 341t-237.5 232t-341.5 82q-293 0 -468 -180.5t-175 -474.5zM500 723q0 221 116.5 354t292.5 133q110 0 194.5 -54t129.5 -132l-94 -72q-96 140 -232 140q-70 0 -122 -30.5t-81.5 -83t-44 -115t-14.5 -134.5q0 -162 70.5 -264.5t199.5 -102.5 q80 0 133 28.5t111 86.5l72 -90q-142 -139 -322 -139q-89 0 -161.5 31t-117.5 79.5t-75 112.5t-42.5 126.5t-12.5 125.5z" />
<glyph unicode="&#xaa;" horiz-adv-x="733" d="M41 915q0 263 307 263q54 0 109 -9v50q0 79 -34.5 114t-117.5 35q-78 0 -190 -33l-11 105q118 33 232 33q126 0 187 -59t61 -185v-402q0 -49 53 -49q23 0 65 17l11 -101q-57 -22 -113 -22q-94 0 -131 84q-101 -82 -201 -82q-113 0 -170 68t-57 173zM170 920 q0 -59 31 -99.5t90 -40.5q91 0 168 64v235q-64 11 -99 11q-95 0 -142.5 -40.5t-47.5 -129.5z" />
<glyph unicode="&#xab;" horiz-adv-x="1099" d="M92 567l412 410l88 -84l-322 -322l330 -323l-92 -86zM489 567l412 410l88 -84l-321 -322l329 -323l-92 -86z" />
<glyph unicode="&#xac;" d="M76 694v117h919v-430h-129v313h-790z" />
<glyph unicode="&#xad;" horiz-adv-x="851" d="M121 575v121h616v-121h-616z" />
<glyph unicode="&#xae;" horiz-adv-x="1802" d="M113 723q0 219 98.5 395t276.5 276.5t403 100.5q173 0 323 -58.5t254 -160t163 -241.5t59 -300q0 -169 -58 -313t-162 -246t-253.5 -159.5t-325.5 -57.5q-239 0 -416.5 99t-269.5 271.5t-92 393.5zM248 723q0 -144 48 -266t132.5 -207.5t204 -133.5t258.5 -48 q193 0 343.5 79.5t236 229t85.5 346.5q0 191 -86 341.5t-237.5 233t-341.5 82.5q-194 0 -340.5 -83t-224.5 -232t-78 -342zM614 276v920h314q309 0 309 -252q0 -90 -47 -155.5t-115 -96.5l178 -416h-127l-165 390h-232v-390h-115zM729 764h174q213 0 213 174q0 88 -49.5 122 t-165.5 34h-172v-330z" />
<glyph unicode="&#xaf;" horiz-adv-x="702" d="M61 1276v123h576v-123h-576z" />
<glyph unicode="&#xb0;" horiz-adv-x="651" d="M92 1188q0 102 67.5 172t166.5 70q105 0 169 -68t64 -164q0 -107 -67 -178.5t-170 -71.5q-107 0 -168.5 69t-61.5 171zM201 1188q0 -62 33 -100.5t92 -38.5q58 0 92.5 39.5t34.5 99.5q0 64 -33 100.5t-94 36.5q-63 0 -94 -36.5t-31 -100.5z" />
<glyph unicode="&#xb1;" d="M76 0h919v113h-919v-113zM76 543v121h387v372h129v-372h403v-121h-403v-359h-129v359h-387z" />
<glyph unicode="&#xb2;" horiz-adv-x="819" d="M104 1479q43 88 125.5 149.5t190.5 61.5q119 0 194.5 -67t75.5 -187q0 -144 -115 -277q-64 -72 -115 -118.5t-116 -94.5h367v-115h-572v95q105 76 163 125.5t144 142.5q105 110 105 233q0 70 -40.5 107t-102.5 37q-115 0 -197 -146z" />
<glyph unicode="&#xb3;" horiz-adv-x="819" d="M98 899l54 109q109 -88 223 -88q80 0 127 41t47 114q0 133 -152 133h-112v111h110q62 0 102 41t40 102q0 117 -138 117q-109 0 -186 -123l-107 47q54 93 127 140t181 47q116 0 185 -56.5t69 -158.5q0 -66 -34 -122.5t-89 -84.5q67 -23 101 -67t34 -118q0 -128 -85 -201 t-226 -73q-75 0 -150 25t-121 65z" />
<glyph unicode="&#xb4;" horiz-adv-x="485" d="M49 1280l393 283l80 -123l-418 -244z" />
<glyph unicode="&#xb5;" horiz-adv-x="1210" d="M182 -428v1509h131v-698q0 -134 64.5 -211.5t195.5 -77.5q143 0 220 88.5t77 237.5v661h134v-905q0 -54 15 -79t54 -25q13 0 53 10l13 -92q-44 -23 -101 -23q-165 0 -168 176q-21 -34 -43.5 -59t-59 -53t-89.5 -43t-119 -15q-91 0 -152.5 35.5t-93.5 85.5v-522h-131z" />
<glyph unicode="&#xb6;" horiz-adv-x="1218" d="M139 1010q0 96 30.5 174.5t81.5 131.5t120 89t142.5 52t152.5 16h430l-11 -125h-153v-1239q0 -88 -8.5 -154.5t-34 -130.5t-68 -104.5t-114.5 -65.5t-170 -25q-97 0 -191 26t-149 58l24 129q56 -35 149.5 -64.5t180.5 -29.5q64 0 110 21.5t71.5 54t40 86t18.5 101.5 t4 116v418h-144q-251 0 -381.5 122.5t-130.5 342.5zM293 1010q0 -338 354 -338h148v674h-158q-151 0 -247.5 -84t-96.5 -252z" />
<glyph unicode="&#xb7;" horiz-adv-x="632" d="M205 688q0 48 29.5 82.5t80.5 34.5q53 0 83 -31.5t30 -83.5q0 -51 -31 -84t-84 -33q-51 0 -79.5 31.5t-28.5 83.5z" />
<glyph unicode="&#xb8;" horiz-adv-x="526" d="M96 -393q31 -8 80 -8q68 0 115 28t47 88q0 88 -98 88q-43 0 -105 -16v100q71 19 133 19q90 0 140.5 -48t50.5 -122q0 -63 -24.5 -111.5t-66 -76t-89 -41t-99.5 -13.5q-39 0 -78 8z" />
<glyph unicode="&#xb9;" horiz-adv-x="819" d="M176 838v106h162v633h-148v106h285v-739h166v-106h-465z" />
<glyph unicode="&#xba;" horiz-adv-x="768" d="M72 1071q0 85 20 156.5t59 127t102.5 87t145.5 31.5q70 0 124 -21t88.5 -56.5t56 -86.5t30.5 -105.5t9 -118.5q0 -79 -18 -149.5t-55 -130.5t-101.5 -95.5t-149.5 -35.5q-71 0 -126.5 23.5t-89.5 61.5t-56 91t-30.5 107t-8.5 114zM197 1067q0 -58 9 -106.5t29.5 -92 t58.5 -68t91 -24.5q47 0 82.5 19t57 48.5t35 71t18 81t4.5 83.5q0 41 -3.5 76.5t-15.5 76.5t-32 70t-55 48.5t-81 19.5q-59 0 -101 -30.5t-61.5 -80.5t-27.5 -96.5t-8 -95.5z" />
<glyph unicode="&#xbb;" horiz-adv-x="1099" d="M102 248l330 323l-321 322l88 84l411 -410l-415 -405zM500 248l329 323l-321 322l88 84l412 -410l-416 -405z" />
<glyph unicode="&#xbc;" horiz-adv-x="1685" d="M88 633v106h162v633h-148v107h285v-740h166v-106h-465zM381 0l774 1473h141l-776 -1473h-139zM920 190v105l372 547h170v-545h123v-104h-125v-193h-131v190h-409zM1047 297h282v426z" />
<glyph unicode="&#xbd;" horiz-adv-x="1685" d="M45 633v106h162v633h-148v107h285v-740h166v-106h-465zM324 0l774 1473h141l-776 -1473h-139zM969 647q43 88 125 149.5t190 61.5q119 0 194.5 -67t75.5 -187q0 -144 -114 -276q-106 -120 -232 -213h367v-115h-571v94q105 76 163 125.5t144 142.5q104 109 104 234 q0 70 -40.5 106.5t-102.5 36.5q-116 0 -197 -145z" />
<glyph unicode="&#xbe;" horiz-adv-x="1685" d="M86 694l53 109q109 -88 223 -88q80 0 127.5 41t47.5 114q0 134 -152 134h-113v110h111q62 0 101.5 41t39.5 102q0 117 -137 117q-109 0 -186 -123l-107 47q54 93 126.5 140t180.5 47q116 0 185 -56.5t69 -158.5q0 -66 -34 -122.5t-89 -84.5q67 -23 101.5 -66.5 t34.5 -117.5q0 -128 -85.5 -201.5t-226.5 -73.5q-75 0 -149.5 25t-120.5 65zM428 0l774 1473h141l-776 -1473h-139zM961 190v105l372 547h170v-545h123v-104h-125v-193h-131v190h-409zM1087 297h283v426z" />
<glyph unicode="&#xbf;" horiz-adv-x="792" d="M72 -29q0 156 105 266.5t298 151.5v301h133v-395q-107 -12 -186.5 -44t-124 -76.5t-65.5 -94t-21 -103.5q0 -124 73.5 -186.5t209.5 -62.5q79 0 153 16l23 -117q-27 -7 -87 -13.5t-102 -6.5q-199 0 -304 93t-105 271zM451 987q0 45 26.5 75t69.5 30q42 0 69 -30t27 -75 q0 -42 -27 -72t-69 -30q-43 0 -69.5 29.5t-26.5 72.5z" />
<glyph unicode="&#xc0;" horiz-adv-x="1241" d="M51 0l457 1473h209l473 -1473h-141l-142 440h-577l-140 -440h-139zM322 1677l40 135l429 -149l-31 -92zM365 569h503l-258 807z" />
<glyph unicode="&#xc1;" horiz-adv-x="1241" d="M51 0l457 1473h209l473 -1473h-141l-142 440h-577l-140 -440h-139zM365 569h503l-258 807zM438 1663l428 149l41 -135l-438 -106z" />
<glyph unicode="&#xc2;" horiz-adv-x="1241" d="M51 0l457 1473h209l473 -1473h-141l-142 440h-577l-140 -440h-139zM342 1624l199 184h149l197 -192l-68 -60l-207 146l-204 -146zM365 569h503l-258 807z" />
<glyph unicode="&#xc3;" horiz-adv-x="1241" d="M51 0l457 1473h209l473 -1473h-141l-142 440h-577l-140 -440h-139zM340 1712q30 30 84 54t104 24q38 0 107 -27.5t113 -27.5q62 0 126 45l15 -119q-59 -43 -146 -43q-48 0 -122.5 22.5t-100.5 22.5q-66 0 -145 -57zM365 569h503l-258 807z" />
<glyph unicode="&#xc4;" horiz-adv-x="1241" d="M51 0l457 1473h209l473 -1473h-141l-142 440h-577l-140 -440h-139zM365 569h503l-258 807zM369 1694q0 41 22.5 64.5t59.5 23.5q84 0 84 -88q0 -41 -23.5 -65.5t-60.5 -24.5q-38 0 -60 25t-22 65zM696 1694q0 40 23 64t59 24q84 0 84 -88q0 -41 -23 -65.5t-61 -24.5 t-60 25t-22 65z" />
<glyph unicode="&#xc5;" horiz-adv-x="1200" d="M31 0l454 1468q-94 57 -94 185q0 87 58.5 147t144.5 60q92 0 147.5 -58.5t55.5 -140.5q0 -61 -27 -110.5t-74 -77.5l473 -1473h-141l-141 440h-578l-139 -440h-139zM344 569h504l-258 807zM481 1653q0 -56 30 -91.5t83 -35.5t84 36t31 91q0 57 -30.5 91t-84.5 34 q-56 0 -84.5 -34t-28.5 -91z" />
<glyph unicode="&#xc6;" horiz-adv-x="1712" d="M41 0l690 1473h883v-127h-649v-517h565v-120h-565v-582h675v-127h-817v440h-432l-211 -440h-139zM444 569h379v801z" />
<glyph unicode="&#xc7;" horiz-adv-x="1150" d="M127 727q0 90 6 167.5t21 158.5t40 145.5t65.5 123t93.5 97.5t128 61.5t166 22.5q92 0 165 -22t119 -55.5t79.5 -83.5t50.5 -95.5t29 -101.5l-140 -35q-14 48 -28 82.5t-38.5 72t-55 60.5t-78 38t-107.5 15q-71 0 -128 -22.5t-94.5 -58t-65 -92t-42.5 -111t-24 -129 t-11 -133t-2 -134.5q0 -143 22 -249.5t69.5 -186t128 -120t192.5 -40.5q194 0 359 111l34 -131q-56 -41 -165 -76t-242 -35q-96 0 -174.5 22.5t-134.5 60.5t-98.5 95t-68.5 120t-42.5 142t-22.5 154t-6 162zM467 -393q31 -8 80 -8q68 0 115 28t47 88q0 88 -99 88 q-42 0 -104 -16v100q71 19 133 19q90 0 140 -47.5t50 -122.5q0 -63 -24.5 -111.5t-65.5 -76t-88.5 -41t-99.5 -13.5q-39 0 -78 8z" />
<glyph unicode="&#xc8;" horiz-adv-x="1091" d="M203 0v1473h790v-127h-649v-517h565v-127h-565v-573h676v-129h-817zM315 1677l41 135l428 -149l-30 -92z" />
<glyph unicode="&#xc9;" horiz-adv-x="1091" d="M203 0v1473h790v-127h-649v-517h565v-127h-565v-573h676v-129h-817zM414 1663l428 149l41 -135l-439 -106z" />
<glyph unicode="&#xca;" horiz-adv-x="1091" d="M203 0v1473h790v-127h-649v-517h565v-127h-565v-573h676v-129h-817zM340 1624l199 184h149l197 -192l-68 -60l-207 146l-204 -146z" />
<glyph unicode="&#xcb;" horiz-adv-x="1091" d="M203 0v1473h790v-127h-649v-517h565v-127h-565v-573h676v-129h-817zM369 1694q0 41 22.5 64.5t59.5 23.5q84 0 84 -88q0 -41 -23.5 -65.5t-60.5 -24.5q-38 0 -60 25t-22 65zM696 1694q0 40 23 64t59 24q84 0 84 -88q0 -41 -23 -65.5t-61 -24.5t-60 25t-22 65z" />
<glyph unicode="&#xcc;" horiz-adv-x="546" d="M-43 1677l41 135l428 -149l-31 -92zM203 0v1473h141v-1473h-141z" />
<glyph unicode="&#xcd;" horiz-adv-x="546" d="M111 1663l428 149l41 -135l-439 -106zM203 0v1473h141v-1473h-141z" />
<glyph unicode="&#xce;" horiz-adv-x="546" d="M-4 1624l199 184h149l197 -192l-68 -60l-207 146l-205 -146zM203 0v1473h141v-1473h-141z" />
<glyph unicode="&#xcf;" horiz-adv-x="546" d="M23 1694q0 41 22 64.5t59 23.5q84 0 84 -88q0 -41 -23.5 -65.5t-60.5 -24.5q-38 0 -59.5 25t-21.5 65zM203 0v1473h141v-1473h-141zM350 1694q0 40 23 64t59 24q84 0 84 -88q0 -41 -23 -65.5t-61 -24.5t-60 25t-22 65z" />
<glyph unicode="&#xd0;" horiz-adv-x="1325" d="M74 676v123h168v674h430q98 0 177.5 -20t148.5 -67.5t115 -123t72.5 -191t26.5 -266.5q0 -189 -31.5 -332.5t-84 -232t-129.5 -143.5t-159 -76t-183 -21h-383v676h-168zM383 127h262q141 1 232.5 65t139.5 207t48 371q0 306 -97 443t-294 137h-291v-551h344v-123h-344 v-549z" />
<glyph unicode="&#xd1;" horiz-adv-x="1419" d="M203 0v1475h147l729 -1215v1215h138v-1475h-138l-739 1225v-1225h-137zM428 1712q30 30 84 54t104 24q38 0 107 -27.5t113 -27.5q63 0 127 45l14 -119q-59 -43 -146 -43q-48 0 -122.5 22.5t-100.5 22.5q-66 0 -145 -57z" />
<glyph unicode="&#xd2;" horiz-adv-x="1339" d="M127 760q0 367 147.5 555t411.5 188q270 0 398 -177.5t128 -553.5q0 -182 -28 -322t-76.5 -229.5t-119 -146.5t-149 -80t-173.5 -23q-91 0 -166.5 21t-146.5 76t-119.5 142t-77.5 227t-29 323zM274 760q0 -664 392 -664q71 0 127.5 17t109 63t87 120t55 194t20.5 280 q0 172 -28 292.5t-81 188t-120 96.5t-156 29q-69 0 -128 -19.5t-111 -65t-88.5 -115t-57.5 -175.5t-21 -241zM434 1677l41 135l428 -149l-31 -92z" />
<glyph unicode="&#xd3;" horiz-adv-x="1339" d="M127 760q0 367 147.5 555t411.5 188q270 0 398 -177.5t128 -553.5q0 -182 -28 -322t-76.5 -229.5t-119 -146.5t-149 -80t-173.5 -23q-91 0 -166.5 21t-146.5 76t-119.5 142t-77.5 227t-29 323zM274 760q0 -664 392 -664q71 0 127.5 17t109 63t87 120t55 194t20.5 280 q0 172 -28 292.5t-81 188t-120 96.5t-156 29q-69 0 -128 -19.5t-111 -65t-88.5 -115t-57.5 -175.5t-21 -241zM500 1663l428 149l41 -135l-439 -106z" />
<glyph unicode="&#xd4;" horiz-adv-x="1339" d="M127 760q0 367 147.5 555t411.5 188q270 0 398 -177.5t128 -553.5q0 -182 -28 -322t-76.5 -229.5t-119 -146.5t-149 -80t-173.5 -23q-91 0 -166.5 21t-146.5 76t-119.5 142t-77.5 227t-29 323zM274 760q0 -664 392 -664q71 0 127.5 17t109 63t87 120t55 194t20.5 280 q0 172 -28 292.5t-81 188t-120 96.5t-156 29q-69 0 -128 -19.5t-111 -65t-88.5 -115t-57.5 -175.5t-21 -241zM418 1624l198 184h150l197 -192l-68 -60l-207 146l-205 -146z" />
<glyph unicode="&#xd5;" horiz-adv-x="1339" d="M127 760q0 367 147.5 555t411.5 188q270 0 398 -177.5t128 -553.5q0 -182 -28 -322t-76.5 -229.5t-119 -146.5t-149 -80t-173.5 -23q-91 0 -166.5 21t-146.5 76t-119.5 142t-77.5 227t-29 323zM274 760q0 -664 392 -664q71 0 127.5 17t109 63t87 120t55 194t20.5 280 q0 172 -28 292.5t-81 188t-120 96.5t-156 29q-69 0 -128 -19.5t-111 -65t-88.5 -115t-57.5 -175.5t-21 -241zM416 1712q30 30 84 54t104 24q38 0 106.5 -27.5t112.5 -27.5q63 0 127 45l15 -119q-59 -43 -146 -43q-48 0 -122.5 22.5t-100.5 22.5q-66 0 -145 -57z" />
<glyph unicode="&#xd6;" horiz-adv-x="1339" d="M127 760q0 367 147.5 555t411.5 188q270 0 398 -177.5t128 -553.5q0 -182 -28 -322t-76.5 -229.5t-119 -146.5t-149 -80t-173.5 -23q-91 0 -166.5 21t-146.5 76t-119.5 142t-77.5 227t-29 323zM274 760q0 -664 392 -664q71 0 127.5 17t109 63t87 120t55 194t20.5 280 q0 172 -28 292.5t-81 188t-120 96.5t-156 29q-69 0 -128 -19.5t-111 -65t-88.5 -115t-57.5 -175.5t-21 -241zM446 1694q0 41 22.5 64.5t59.5 23.5q84 0 84 -88q0 -41 -23.5 -65.5t-60.5 -24.5q-38 0 -60 25t-22 65zM774 1694q0 40 23 64t59 24q84 0 84 -88q0 -41 -23 -65.5 t-61 -24.5t-60 25t-22 65z" />
<glyph unicode="&#xd7;" d="M57 279l369 366l-363 371l99 92l373 -381l380 377l91 -90l-361 -367l367 -368l-92 -91l-385 377l-388 -377z" />
<glyph unicode="&#xd8;" horiz-adv-x="1296" d="M127 760q0 369 138.5 552t400.5 183q165 0 270 -63l100 213l109 -58l-115 -237q139 -169 139 -578q0 -183 -26 -321.5t-71 -227t-112.5 -144t-143.5 -77.5t-171 -22q-137 0 -242 51l-112 -236l-103 58l117 249q-178 178 -178 658zM274 760q0 -361 99 -514l501 1057 q-79 65 -215 65q-69 0 -126 -18.5t-106 -63t-82 -113t-52 -173.5t-19 -240zM461 154q73 -50 184 -50q71 0 125.5 16.5t104 60.5t81 117.5t50 192t18.5 279.5q0 277 -68 422z" />
<glyph unicode="&#xd9;" horiz-adv-x="1366" d="M197 508v965h141v-961q0 -173 33 -250q68 -153 309 -153q134 0 210 38.5t109 118.5q29 76 29 279v928h141v-967q0 -172 -24 -254q-42 -129 -158 -203t-307 -74q-178 0 -294 62.5t-159 183.5q-30 83 -30 287zM393 1677l41 135l428 -149l-31 -92z" />
<glyph unicode="&#xda;" horiz-adv-x="1366" d="M197 508v965h141v-961q0 -173 33 -250q68 -153 309 -153q134 0 210 38.5t109 118.5q29 76 29 279v928h141v-967q0 -172 -24 -254q-42 -129 -158 -203t-307 -74q-178 0 -294 62.5t-159 183.5q-30 83 -30 287zM518 1665l428 150l41 -136l-438 -106z" />
<glyph unicode="&#xdb;" horiz-adv-x="1366" d="M197 508v965h141v-961q0 -173 33 -250q68 -153 309 -153q134 0 210 38.5t109 118.5q29 76 29 279v928h141v-967q0 -172 -24 -254q-42 -129 -158 -203t-307 -74q-178 0 -294 62.5t-159 183.5q-30 83 -30 287zM434 1624l199 184h149l197 -192l-68 -60l-206 146l-205 -146z " />
<glyph unicode="&#xdc;" horiz-adv-x="1366" d="M197 508v965h141v-961q0 -173 33 -250q68 -153 309 -153q134 0 210 38.5t109 118.5q29 76 29 279v928h141v-967q0 -172 -24 -254q-42 -129 -158 -203t-307 -74q-178 0 -294 62.5t-159 183.5q-30 83 -30 287zM444 1696q0 41 22.5 64.5t59.5 23.5q84 0 84 -88 q0 -41 -23.5 -65.5t-60.5 -24.5q-38 0 -60 25t-22 65zM772 1696q0 40 23 64t59 24q84 0 84 -88q0 -41 -23 -65.5t-61 -24.5t-60 25t-22 65z" />
<glyph unicode="&#xdd;" horiz-adv-x="1153" d="M31 1473h157l398 -730l385 730h151l-467 -861v-612h-145v606zM426 1663l428 149l41 -135l-438 -106z" />
<glyph unicode="&#xde;" horiz-adv-x="1234" d="M203 0v1473h141v-228h328q219 0 345 -102.5t126 -302.5q0 -214 -130 -341.5t-349 -127.5h-320v-371h-141zM344 496h307q168 0 257 85.5t89 241.5q0 161 -89 228t-259 67h-305v-622z" />
<glyph unicode="&#xdf;" horiz-adv-x="1163" d="M176 0v1112q0 93 31 164t87 114t127.5 64t158.5 21q76 0 136 -14t101.5 -36.5t72 -58.5t48 -73.5t27.5 -88.5t13 -95.5t3 -102.5v-66h-90q-114 0 -165.5 -42t-51.5 -124q0 -35 10.5 -63t33.5 -50.5t44.5 -37t56.5 -33.5q105 -56 138 -80q114 -85 114 -223t-93.5 -222.5 t-250.5 -84.5q-92 0 -167 24.5t-107 52.5l36 123q108 -86 238 -86q92 0 150.5 43t58.5 131q0 76 -40.5 120t-117.5 83q-104 52 -142 81q-97 78 -97 212q0 137 87 205.5t228 74.5v48q0 274 -283 274q-134 0 -198 -68t-64 -192v-1106h-133z" />
<glyph unicode="&#xe0;" horiz-adv-x="1042" d="M92 313q0 190 110 281.5t306 91.5q98 0 188 -20v77q0 128 -55.5 185t-191.5 57q-130 0 -252 -39l-15 121q137 37 310 37q170 0 254.5 -81.5t84.5 -254.5v-580q0 -49 18 -69.5t58 -20.5q30 0 88 21l13 -113q-84 -26 -136 -26q-71 0 -114 38t-49 93q-147 -131 -312 -131 q-150 0 -227.5 94t-77.5 239zM174 1440l80 123l393 -283l-55 -84zM238 317q0 -94 48.5 -155.5t141.5 -61.5q70 0 141 33t127 86l2 340q-94 23 -168 23q-147 0 -219.5 -62t-72.5 -203z" />
<glyph unicode="&#xe1;" horiz-adv-x="1042" d="M92 313q0 190 110 281.5t306 91.5q98 0 188 -20v77q0 128 -55.5 185t-191.5 57q-130 0 -252 -39l-15 121q137 37 310 37q170 0 254.5 -81.5t84.5 -254.5v-580q0 -49 18 -69.5t58 -20.5q30 0 88 21l13 -113q-84 -26 -136 -26q-71 0 -114 38t-49 93q-147 -131 -312 -131 q-150 0 -227.5 94t-77.5 239zM238 317q0 -94 48.5 -155.5t141.5 -61.5q70 0 141 33t127 86l2 340q-94 23 -168 23q-147 0 -219.5 -62t-72.5 -203zM346 1270l393 282l80 -122l-418 -244z" />
<glyph unicode="&#xe2;" horiz-adv-x="1042" d="M92 313q0 190 110 281.5t306 91.5q98 0 188 -20v77q0 128 -55.5 185t-191.5 57q-130 0 -252 -39l-15 121q137 37 310 37q170 0 254.5 -81.5t84.5 -254.5v-580q0 -49 18 -69.5t58 -20.5q30 0 88 21l13 -113q-84 -26 -136 -26q-71 0 -114 38t-49 93q-147 -131 -312 -131 q-150 0 -227.5 94t-77.5 239zM227 1253l201 271h150l190 -271l-82 -59l-186 223l-185 -221zM238 317q0 -94 48.5 -155.5t141.5 -61.5q70 0 141 33t127 86l2 340q-94 23 -168 23q-147 0 -219.5 -62t-72.5 -203z" />
<glyph unicode="&#xe3;" horiz-adv-x="1042" d="M92 313q0 190 110 281.5t306 91.5q98 0 188 -20v77q0 128 -55.5 185t-191.5 57q-130 0 -252 -39l-15 121q137 37 310 37q170 0 254.5 -81.5t84.5 -254.5v-580q0 -49 18 -69.5t58 -20.5q30 0 88 21l13 -113q-84 -26 -136 -26q-71 0 -114 38t-49 93q-147 -131 -312 -131 q-150 0 -227.5 94t-77.5 239zM227 1350q30 30 84.5 53.5t104.5 23.5q38 0 106.5 -27.5t112.5 -27.5q63 0 127 45l14 -119q-59 -43 -145 -43q-48 0 -122.5 22.5t-100.5 22.5q-67 0 -146 -57zM238 317q0 -94 48.5 -155.5t141.5 -61.5q70 0 141 33t127 86l2 340q-94 23 -168 23 q-147 0 -219.5 -62t-72.5 -203z" />
<glyph unicode="&#xe4;" horiz-adv-x="1042" d="M92 313q0 190 110 281.5t306 91.5q98 0 188 -20v77q0 128 -55.5 185t-191.5 57q-130 0 -252 -39l-15 121q137 37 310 37q170 0 254.5 -81.5t84.5 -254.5v-580q0 -49 18 -69.5t58 -20.5q30 0 88 21l13 -113q-84 -26 -136 -26q-71 0 -114 38t-49 93q-147 -131 -312 -131 q-150 0 -227.5 94t-77.5 239zM238 317q0 -94 48.5 -155.5t141.5 -61.5q70 0 141 33t127 86l2 340q-94 23 -168 23q-147 0 -219.5 -62t-72.5 -203zM248 1341q0 41 22.5 65t59.5 24q84 0 84 -89q0 -41 -23.5 -65.5t-60.5 -24.5q-38 0 -60 25t-22 65zM575 1341q0 41 23 65 t59 24q84 0 84 -89q0 -41 -23 -65.5t-61 -24.5t-60 25t-22 65z" />
<glyph unicode="&#xe5;" horiz-adv-x="1042" d="M92 313q0 190 110 281.5t306 91.5q98 0 188 -20v77q0 128 -55.5 185t-191.5 57q-130 0 -252 -39l-15 121q137 37 310 37q170 0 254.5 -81.5t84.5 -254.5v-580q0 -49 18 -69.5t58 -20.5q30 0 88 21l13 -113q-84 -26 -136 -26q-71 0 -114 38t-49 93q-147 -131 -312 -131 q-150 0 -227.5 94t-77.5 239zM238 317q0 -94 48.5 -155.5t141.5 -61.5q70 0 141 33t127 86l2 340q-94 23 -168 23q-147 0 -219.5 -62t-72.5 -203zM283 1397q0 87 58 147t144 60q92 0 147.5 -58.5t55.5 -140.5q0 -93 -58.5 -155t-148.5 -62q-92 0 -145 59.5t-53 149.5z M373 1397q0 -56 29.5 -91.5t82.5 -35.5t84 36t31 91q0 57 -30.5 91t-84.5 34q-56 0 -84 -34t-28 -91z" />
<glyph unicode="&#xe6;" horiz-adv-x="1558" d="M92 313q0 190 110 281.5t306 91.5q98 0 188 -20v77q0 128 -55.5 185t-191.5 57q-130 0 -252 -39l-13 115q152 41 308 41q227 0 294 -166q53 80 134.5 124t177.5 44q358 0 358 -486v-71h-625q0 -223 74 -335t234 -112q140 0 288 78l13 -123q-54 -30 -139.5 -52.5 t-178.5 -22.5q-235 0 -342 165q-66 -67 -162 -116t-206 -49q-163 0 -241.5 93t-78.5 240zM238 317q0 -96 48 -156.5t152 -60.5q78 0 155 38t138 108q-41 119 -41 315q-96 21 -160 21q-147 0 -219.5 -62t-72.5 -203zM834 655h481q0 165 -58.5 247.5t-166.5 82.5 q-65 0 -115.5 -28.5t-80.5 -76.5t-45 -105.5t-15 -119.5z" />
<glyph unicode="&#xe7;" horiz-adv-x="907" d="M113 532q0 572 403 572q66 0 120 -17t90 -44t63.5 -65.5t42.5 -76.5t24 -82l-119 -47q-58 211 -229 211q-254 0 -254 -451q0 -207 73 -322.5t222 -115.5q81 0 142 19t134 59l17 -123q-140 -74 -299 -74q-102 0 -179.5 34t-124 87.5t-76 129t-40 149t-10.5 157.5z M328 -391q31 -8 80 -8q68 0 114.5 28t46.5 88q0 88 -98 88q-42 0 -104 -16v100q71 19 133 19q90 0 140 -47.5t50 -122.5q0 -63 -24.5 -111.5t-65.5 -76t-88.5 -41t-99.5 -13.5q-39 0 -78 8z" />
<glyph unicode="&#xe8;" horiz-adv-x="980" d="M113 551q0 284 108.5 418.5t298.5 134.5q186 0 272.5 -127.5t86.5 -378.5v-72h-625q0 -430 307 -430q141 0 289 78l12 -123q-55 -31 -139.5 -53.5t-177.5 -22.5q-432 0 -432 576zM213 1436l80 123l393 -283l-55 -84zM256 635h481q0 172 -59 261t-166 89q-65 0 -115.5 -31 t-80.5 -82t-45 -111.5t-15 -125.5z" />
<glyph unicode="&#xe9;" horiz-adv-x="980" d="M113 551q0 284 108.5 418.5t298.5 134.5q186 0 272.5 -127.5t86.5 -378.5v-72h-625q0 -430 307 -430q141 0 289 78l12 -123q-55 -31 -139.5 -53.5t-177.5 -22.5q-432 0 -432 576zM256 635h481q0 172 -59 261t-166 89q-65 0 -115.5 -31t-80.5 -82t-45 -111.5t-15 -125.5z M348 1280l393 283l80 -123l-418 -244z" />
<glyph unicode="&#xea;" horiz-adv-x="980" d="M113 551q0 284 108.5 418.5t298.5 134.5q186 0 272.5 -127.5t86.5 -378.5v-72h-625q0 -430 307 -430q141 0 289 78l12 -123q-55 -31 -139.5 -53.5t-177.5 -22.5q-432 0 -432 576zM240 1253l200 271h150l190 -271l-82 -59l-186 223l-184 -221zM256 635h481q0 172 -59 261 t-166 89q-65 0 -115.5 -31t-80.5 -82t-45 -111.5t-15 -125.5z" />
<glyph unicode="&#xeb;" horiz-adv-x="980" d="M113 551q0 284 108.5 418.5t298.5 134.5q186 0 272.5 -127.5t86.5 -378.5v-72h-625q0 -430 307 -430q141 0 289 78l12 -123q-55 -31 -139.5 -53.5t-177.5 -22.5q-432 0 -432 576zM256 635h481q0 172 -59 261t-166 89q-65 0 -115.5 -31t-80.5 -82t-45 -111.5t-15 -125.5z M258 1341q0 41 22.5 65t59.5 24q84 0 84 -89q0 -41 -23.5 -65.5t-60.5 -24.5q-38 0 -60 25t-22 65zM586 1341q0 41 23 65t59 24q84 0 84 -89q0 -41 -23 -65.5t-61 -24.5t-60 25t-22 65z" />
<glyph unicode="&#xec;" horiz-adv-x="489" d="M-72 1440l80 123l393 -283l-55 -84zM176 0v1081h137v-1081h-137z" />
<glyph unicode="&#xed;" horiz-adv-x="489" d="M94 1280l393 283l80 -123l-417 -244zM176 0v1081h137v-1081h-137z" />
<glyph unicode="&#xee;" horiz-adv-x="489" d="M-33 1253l201 271h149l191 -271l-82 -59l-186 223l-185 -221zM176 0v1081h137v-1081h-137z" />
<glyph unicode="&#xef;" horiz-adv-x="489" d="M-4 1341q0 41 22.5 65t59.5 24q84 0 84 -89q0 -41 -23.5 -65.5t-60.5 -24.5q-38 0 -60 25t-22 65zM176 0v1081h137v-1081h-137zM324 1341q0 41 23 65t59 24q83 0 83 -89q0 -41 -22.5 -65.5t-60.5 -24.5t-60 25t-22 65z" />
<glyph unicode="&#xf0;" horiz-adv-x="1046" d="M109 514q0 113 26.5 211.5t77.5 174.5t132.5 119.5t184.5 43.5q112 0 197 -51q-63 167 -182 274l-207 -129l-62 88l168 109q-87 50 -231 82l20 112q181 -23 336 -114l189 118l67 -90l-161 -102q75 -71 129 -165t84 -198.5t43.5 -207t13.5 -211.5q0 -598 -422 -598 q-94 0 -166 31.5t-116 82t-72 122t-38.5 143.5t-10.5 155zM250 510q0 -412 266 -412q66 0 116 25.5t80 66t48.5 98.5t25.5 115t7 123q0 227 -45 342q-74 74 -209 74q-70 0 -123.5 -30t-84 -74.5t-49.5 -105.5t-25.5 -113.5t-6.5 -108.5z" />
<glyph unicode="&#xf1;" horiz-adv-x="1134" d="M176 0v1081h137v-135q76 70 168 114t187 44q243 0 284 -213q6 -35 6 -133v-758h-135v739q0 71 -6 111q-12 67 -56.5 98t-131.5 31q-150 0 -316 -158v-821h-137zM336 1350q30 30 84 53.5t104 23.5q38 0 106.5 -27.5t112.5 -27.5q63 0 127 45l15 -119q-59 -43 -146 -43 q-48 0 -122.5 22.5t-100.5 22.5q-66 0 -145 -57z" />
<glyph unicode="&#xf2;" horiz-adv-x="1050" d="M113 535q0 119 25.5 220t76 180t134 124t192.5 45q92 0 162 -30.5t114 -81t71.5 -122.5t38.5 -148.5t11 -166.5q0 -86 -13.5 -166.5t-45 -156.5t-78.5 -132.5t-120.5 -90.5t-164.5 -34q-94 0 -166 34t-116 88t-72 130t-38.5 150.5t-10.5 157.5zM227 1440l80 123l393 -283 l-55 -84zM254 530q0 -87 12.5 -160t41.5 -137.5t83 -101.5t129 -37q65 0 115.5 28t80.5 72.5t49 106t25.5 121t6.5 125.5q0 436 -262 436q-57 0 -102.5 -21.5t-75.5 -59.5t-51 -83.5t-32 -99t-15.5 -99t-4.5 -90.5z" />
<glyph unicode="&#xf3;" horiz-adv-x="1050" d="M113 535q0 119 25.5 220t76 180t134 124t192.5 45q92 0 162 -30.5t114 -81t71.5 -122.5t38.5 -148.5t11 -166.5q0 -86 -13.5 -166.5t-45 -156.5t-78.5 -132.5t-120.5 -90.5t-164.5 -34q-94 0 -166 34t-116 88t-72 130t-38.5 150.5t-10.5 157.5zM254 530q0 -87 12.5 -160 t41.5 -137.5t83 -101.5t129 -37q65 0 115.5 28t80.5 72.5t49 106t25.5 121t6.5 125.5q0 436 -262 436q-57 0 -102.5 -21.5t-75.5 -59.5t-51 -83.5t-32 -99t-15.5 -99t-4.5 -90.5zM397 1280l394 283l79 -123l-417 -244z" />
<glyph unicode="&#xf4;" horiz-adv-x="1050" d="M113 535q0 119 25.5 220t76 180t134 124t192.5 45q92 0 162 -30.5t114 -81t71.5 -122.5t38.5 -148.5t11 -166.5q0 -86 -13.5 -166.5t-45 -156.5t-78.5 -132.5t-120.5 -90.5t-164.5 -34q-94 0 -166 34t-116 88t-72 130t-38.5 150.5t-10.5 157.5zM254 530q0 -87 12.5 -160 t41.5 -137.5t83 -101.5t129 -37q65 0 115.5 28t80.5 72.5t49 106t25.5 121t6.5 125.5q0 436 -262 436q-57 0 -102.5 -21.5t-75.5 -59.5t-51 -83.5t-32 -99t-15.5 -99t-4.5 -90.5zM279 1253l200 271h150l190 -271l-82 -59l-186 223l-184 -221z" />
<glyph unicode="&#xf5;" horiz-adv-x="1050" d="M113 535q0 119 25.5 220t76 180t134 124t192.5 45q92 0 162 -30.5t114 -81t71.5 -122.5t38.5 -148.5t11 -166.5q0 -86 -13.5 -166.5t-45 -156.5t-78.5 -132.5t-120.5 -90.5t-164.5 -34q-94 0 -166 34t-116 88t-72 130t-38.5 150.5t-10.5 157.5zM254 530q0 -87 12.5 -160 t41.5 -137.5t83 -101.5t129 -37q65 0 115.5 28t80.5 72.5t49 106t25.5 121t6.5 125.5q0 436 -262 436q-57 0 -102.5 -21.5t-75.5 -59.5t-51 -83.5t-32 -99t-15.5 -99t-4.5 -90.5zM274 1350q30 30 84.5 53.5t104.5 23.5q38 0 106.5 -27.5t112.5 -27.5q63 0 127 45l14 -119 q-59 -43 -145 -43q-48 0 -122.5 22.5t-100.5 22.5q-67 0 -146 -57z" />
<glyph unicode="&#xf6;" horiz-adv-x="1050" d="M113 535q0 119 25.5 220t76 180t134 124t192.5 45q92 0 162 -30.5t114 -81t71.5 -122.5t38.5 -148.5t11 -166.5q0 -86 -13.5 -166.5t-45 -156.5t-78.5 -132.5t-120.5 -90.5t-164.5 -34q-94 0 -166 34t-116 88t-72 130t-38.5 150.5t-10.5 157.5zM254 530q0 -87 12.5 -160 t41.5 -137.5t83 -101.5t129 -37q65 0 115.5 28t80.5 72.5t49 106t25.5 121t6.5 125.5q0 436 -262 436q-57 0 -102.5 -21.5t-75.5 -59.5t-51 -83.5t-32 -99t-15.5 -99t-4.5 -90.5zM301 1341q0 41 22.5 65t59.5 24q84 0 84 -89q0 -41 -23.5 -65.5t-60.5 -24.5q-38 0 -60 25 t-22 65zM629 1341q0 41 23 65t59 24q84 0 84 -89q0 -41 -23 -65.5t-61 -24.5t-60 25t-22 65z" />
<glyph unicode="&#xf7;" d="M76 592h919v121h-919v-121zM418 342q0 46 27.5 78.5t76.5 32.5q50 0 78.5 -30.5t28.5 -78.5q0 -47 -29.5 -79t-79.5 -32q-48 0 -75 30t-27 79zM418 946q0 46 27.5 78.5t76.5 32.5q50 0 78.5 -30.5t28.5 -78.5q0 -47 -29.5 -78.5t-79.5 -31.5q-48 0 -75 29.5t-27 78.5z " />
<glyph unicode="&#xf8;" horiz-adv-x="1050" d="M113 535q0 119 25.5 220t76 180t134 124t192.5 45t190 -43l72 149l102 -51l-84 -172q117 -138 117 -432q0 -86 -13.5 -166t-45 -155.5t-78.5 -131t-120.5 -89t-164.5 -33.5q-93 0 -168 32l-82 -168l-96 47l88 185q-145 140 -145 459zM254 530q0 -212 68 -321l350 731 q-56 43 -137 43q-57 0 -102.5 -21.5t-75.5 -59.5t-51 -83.5t-32 -99t-15.5 -99t-4.5 -90.5zM403 127q53 -29 117 -29q65 0 115.5 27.5t80.5 71.5t49 105t25.5 120t6.5 125q0 180 -49 291z" />
<glyph unicode="&#xf9;" horiz-adv-x="1120" d="M160 324v739l135 18v-739q0 -78 8 -111q21 -131 180 -131q87 0 162.5 40.5t159.5 119.5v821h139v-1081h-139v133q-176 -153 -354 -153q-246 0 -283 210q-8 47 -8 134zM270 1440l80 123l393 -283l-55 -84z" />
<glyph unicode="&#xfa;" horiz-adv-x="1120" d="M160 324v739l135 18v-739q0 -78 8 -111q21 -131 180 -131q87 0 162.5 40.5t159.5 119.5v821h139v-1081h-139v133q-176 -153 -354 -153q-246 0 -283 210q-8 47 -8 134zM428 1280l393 283l80 -123l-418 -244z" />
<glyph unicode="&#xfb;" horiz-adv-x="1120" d="M160 324v739l135 18v-739q0 -78 8 -111q21 -131 180 -131q87 0 162.5 40.5t159.5 119.5v821h139v-1081h-139v133q-176 -153 -354 -153q-246 0 -283 210q-8 47 -8 134zM313 1253l201 271h150l190 -271l-82 -59l-186 223l-185 -221z" />
<glyph unicode="&#xfc;" horiz-adv-x="1120" d="M160 324v739l135 18v-739q0 -78 8 -111q21 -131 180 -131q87 0 162.5 40.5t159.5 119.5v821h139v-1081h-139v133q-176 -153 -354 -153q-246 0 -283 210q-8 47 -8 134zM330 1341q0 41 22.5 65t59.5 24q84 0 84 -89q0 -41 -23.5 -65.5t-60.5 -24.5q-38 0 -60 25t-22 65z M657 1341q0 41 23 65t59 24q84 0 84 -89q0 -41 -23 -65.5t-61 -24.5t-60 25t-22 65z" />
<glyph unicode="&#xfd;" horiz-adv-x="933" d="M-174 -375l39 125q135 -78 237 -78q45 0 82 16t64.5 41.5t54.5 72.5t47.5 94t48.5 120l-376 1051l147 14l309 -901q39 94 123.5 362t159.5 539l135 -14q-162 -605 -352 -1057q-34 -80 -59.5 -135t-58 -111.5t-64.5 -92t-72 -65t-87.5 -42.5t-103.5 -13q-151 0 -274 74z M356 1280l394 283l79 -123l-417 -244z" />
<glyph unicode="&#xfe;" horiz-adv-x="1083" d="M176 -428v1903h135v-512q55 39 96 63.5t107.5 50t122.5 25.5q152 0 239 -119t87 -354q0 -139 -22.5 -252.5t-70 -204.5t-129.5 -141.5t-194 -50.5q-64 0 -127.5 19.5t-106.5 47.5v-475h-137zM311 186q110 -86 248 -86q69 0 120.5 42t79.5 113.5t41 151t13 168.5 q0 94 -10.5 164.5t-28 115t-45 71t-58 37t-69.5 10.5q-112 0 -291 -125v-662z" />
<glyph unicode="&#xff;" horiz-adv-x="933" d="M-174 -375l39 125q135 -78 237 -78q45 0 82 16t64.5 41.5t54.5 72.5t47.5 94t48.5 120l-376 1051l147 14l309 -901q39 94 123.5 362t159.5 539l135 -14q-162 -605 -352 -1057q-34 -80 -59.5 -135t-58 -111.5t-64.5 -92t-72 -65t-87.5 -42.5t-103.5 -13q-151 0 -274 74z M217 1341q0 41 22.5 65t59.5 24q84 0 84 -89q0 -41 -23.5 -65.5t-60.5 -24.5q-38 0 -60 25t-22 65zM545 1341q0 41 23 65t59 24q84 0 84 -89q0 -41 -23 -65.5t-61 -24.5t-60 25t-22 65z" />
<glyph unicode="&#x152;" horiz-adv-x="1783" d="M154 760q0 369 138 552t400 183q96 0 176 -22h818v-127h-637q73 -82 106.5 -207.5t38.5 -309.5h408v-120h-408q-8 -391 -170 -582h688v-127h-878q-73 -20 -162 -20q-91 0 -164.5 20.5t-141.5 73.5t-113 139t-72 224.5t-27 322.5zM301 760q0 -237 44 -384t124 -209.5 t203 -62.5q71 0 125.5 16.5t104 60.5t81 117.5t50 192t18.5 279.5q0 173 -24.5 291.5t-74 184.5t-113.5 94t-153 28q-69 0 -126 -18.5t-106 -63t-82 -113t-52 -173.5t-19 -240z" />
<glyph unicode="&#x153;" horiz-adv-x="1654" d="M113 535q0 119 25.5 220t76 180t134 124t192.5 45q228 0 323 -213q116 209 330 209q186 0 272 -127.5t86 -378.5v-72h-624q0 -426 307 -426q141 0 289 78l12 -123q-55 -31 -139.5 -53.5t-177.5 -22.5q-141 0 -231.5 65t-133.5 173q-44 -106 -129.5 -169.5t-208.5 -63.5 q-94 0 -166 33.5t-116 87t-72 128.5t-38.5 149t-10.5 157zM254 530q0 -87 12.5 -159.5t41.5 -136t83 -100t129 -36.5q65 0 115.5 27.5t80.5 71.5t49 105t25.5 120t6.5 125q0 436 -262 436q-57 0 -102.5 -21.5t-75.5 -59.5t-51 -83.5t-32 -99t-15.5 -99t-4.5 -90.5zM930 631 h481q0 172 -59 261t-166 89q-65 0 -115.5 -31t-80.5 -82t-45 -111.5t-15 -125.5z" />
<glyph unicode="&#x178;" horiz-adv-x="1153" d="M31 1473h157l398 -730l385 730h151l-467 -861v-612h-145v606zM338 1694q0 41 22.5 64.5t59.5 23.5q84 0 84 -88q0 -41 -23.5 -65.5t-60.5 -24.5q-38 0 -60 25t-22 65zM666 1694q0 40 23 64t59 24q83 0 83 -88q0 -41 -22.5 -65.5t-60.5 -24.5t-60 25t-22 65z" />
<glyph unicode="&#x2c6;" horiz-adv-x="690" d="M84 1253l201 271h149l191 -271l-82 -59l-187 223l-184 -221z" />
<glyph unicode="&#x2dc;" horiz-adv-x="786" d="M166 1350q30 30 84 53.5t104 23.5q38 0 106.5 -27.5t112.5 -27.5q63 0 127 45l15 -119q-59 -43 -146 -43q-48 0 -122.5 22.5t-100.5 22.5q-66 0 -145 -57z" />
<glyph unicode="&#x2000;" horiz-adv-x="930" />
<glyph unicode="&#x2001;" horiz-adv-x="1860" />
<glyph unicode="&#x2002;" horiz-adv-x="930" />
<glyph unicode="&#x2003;" horiz-adv-x="1860" />
<glyph unicode="&#x2004;" horiz-adv-x="620" />
<glyph unicode="&#x2005;" horiz-adv-x="465" />
<glyph unicode="&#x2006;" horiz-adv-x="310" />
<glyph unicode="&#x2007;" horiz-adv-x="310" />
<glyph unicode="&#x2008;" horiz-adv-x="232" />
<glyph unicode="&#x2009;" horiz-adv-x="372" />
<glyph unicode="&#x200a;" horiz-adv-x="103" />
<glyph unicode="&#x2010;" horiz-adv-x="851" d="M121 575v121h616v-121h-616z" />
<glyph unicode="&#x2011;" horiz-adv-x="851" d="M121 575v121h616v-121h-616z" />
<glyph unicode="&#x2012;" horiz-adv-x="851" d="M121 575v121h616v-121h-616z" />
<glyph unicode="&#x2013;" horiz-adv-x="1024" d="M0 545v121h1024v-121h-1024z" />
<glyph unicode="&#x2014;" horiz-adv-x="2048" d="M0 545v121h2048v-121h-2048z" />
<glyph unicode="&#x2018;" horiz-adv-x="391" d="M131 1180l90 395l82 -12l-22 -418q-1 -36 -23 -56t-53 -20q-42 0 -64 30t-10 81z" />
<glyph unicode="&#x2019;" horiz-adv-x="380" d="M133 1079l23 418q3 37 23.5 56.5t51.5 19.5q42 0 64 -30t10 -81l-90 -395z" />
<glyph unicode="&#x201a;" horiz-adv-x="391" d="M123 -289l22 418q3 37 24.5 57.5t51.5 20.5q42 0 64 -30.5t10 -82.5l-90 -395z" />
<glyph unicode="&#x201c;" horiz-adv-x="686" d="M131 1180l90 395l82 -12l-22 -418q-1 -36 -23 -56t-53 -20q-42 0 -64 30t-10 81zM426 1180l90 395l82 -12l-23 -418q-1 -37 -22.5 -56.5t-52.5 -19.5q-42 0 -64 30t-10 81z" />
<glyph unicode="&#x201d;" horiz-adv-x="675" d="M133 1079l23 418q3 37 23.5 56.5t51.5 19.5q42 0 64 -30t10 -81l-90 -395zM428 1079l23 418q3 37 23.5 56.5t51.5 19.5q42 0 64 -30t10 -81l-90 -395z" />
<glyph unicode="&#x201e;" horiz-adv-x="679" d="M123 -289l22 418q3 37 24.5 57.5t51.5 20.5q42 0 64 -30.5t10 -82.5l-90 -395zM412 -289l22 418q3 37 24.5 57.5t51.5 20.5q42 0 64 -30.5t10 -82.5l-90 -395z" />
<glyph unicode="&#x2022;" horiz-adv-x="958" d="M205 729q0 130 77.5 211.5t196.5 81.5q121 0 198 -81.5t77 -211.5t-77 -210.5t-198 -80.5t-197.5 79t-76.5 212z" />
<glyph unicode="&#x2026;" horiz-adv-x="1605" d="M172 94q0 47 30 82t81 35q53 0 82.5 -31.5t29.5 -83.5q0 -51 -30.5 -83.5t-83.5 -32.5q-52 0 -80.5 31t-28.5 83zM723 94q0 47 30 82t81 35q53 0 82.5 -31.5t29.5 -83.5q0 -51 -31 -83.5t-84 -32.5q-52 0 -80 31t-28 83zM1268 94q0 48 29.5 82.5t80.5 34.5q53 0 83 -31.5 t30 -83.5q0 -51 -31 -83.5t-84 -32.5q-52 0 -80 31t-28 83z" />
<glyph unicode="&#x202f;" horiz-adv-x="372" />
<glyph unicode="&#x2039;" horiz-adv-x="702" d="M92 567l412 410l88 -84l-322 -322l330 -323l-92 -86z" />
<glyph unicode="&#x203a;" horiz-adv-x="702" d="M102 248l330 323l-321 322l88 84l411 -410l-415 -405z" />
<glyph unicode="&#x205f;" horiz-adv-x="465" />
<glyph unicode="&#x20ac;" d="M49 522v96h701v-96h-408q34 -420 326 -420q99 0 154.5 33t117.5 127l94 -76q-79 -121 -166.5 -163.5t-208.5 -42.5q-99 0 -176.5 32t-126.5 83t-83 125t-50.5 145t-25.5 157h-148zM49 743v97h144q42 590 471 590q82 0 146.5 -23t104 -56.5t69 -85t43.5 -95t26 -99.5 l-125 -33q-27 132 -88 200.5t-183 68.5q-73 0 -128.5 -26t-89.5 -67t-56.5 -104t-32 -126t-14.5 -144h414v-97h-701z" />
<glyph unicode="&#x2122;" horiz-adv-x="1667" d="M35 1366v109h635v-109h-264v-698h-125v698h-246zM741 668l60 807h137l211 -615l213 615h131l49 -807h-117l-34 577l-181 -514h-127l-184 514l-43 -577h-115z" />
<glyph unicode="&#xe000;" horiz-adv-x="1085" d="M0 0v1085h1085v-1085h-1085z" />
</font>
</defs>
</svg>
