<?xml version="1.0" standalone="no"?>
<!DOCTYPE svg PUBLIC "-//W3C//DTD SVG 1.1//EN" "http://www.w3.org/Graphics/SVG/1.1/DTD/svg11.dtd" >
<svg xmlns="http://www.w3.org/2000/svg">
<metadata>
This is a custom SVG webfont generated by Font Squirrel.
Copyright   : Copyright c 2008 by Jeremy Dooley All rights reserved
Designer    : httpwwwinsignedesigncom
Foundry     : Jeremy Dooley
Foundry URL : httpwwwinsignedesigncom
</metadata>
<defs>
<font id="SommetRoundedLight" horiz-adv-x="1042" >
<font-face units-per-em="2048" ascent="1290" descent="-758" />
<missing-glyph horiz-adv-x="409" />
<glyph unicode=" "  horiz-adv-x="409" />
<glyph unicode="&#x09;" horiz-adv-x="409" />
<glyph unicode="&#xa0;" horiz-adv-x="409" />
<glyph unicode="!" horiz-adv-x="399" d="M145 33v141q0 10 22.5 18.5t53.5 8.5q35 0 35 -54v-88q0 -53 -35 -53q-31 0 -53.5 8.5t-22.5 18.5zM145 403v1061q0 10 22.5 18.5t53.5 8.5q35 0 35 -53v-1008q0 -53 -35 -53q-31 0 -53.5 8t-22.5 18z" />
<glyph unicode="&#x22;" horiz-adv-x="546" d="M102 1096v426q0 10 22.5 18t53.5 8q35 0 35 -53v-373q0 -53 -35 -53q-31 0 -53.5 8.5t-22.5 18.5zM334 1096v426q0 10 22.5 18t53.5 8q35 0 34 -53v-373q0 -53 -34 -53q-31 0 -53.5 8.5t-22.5 18.5z" />
<glyph unicode="#" horiz-adv-x="1257" d="M133 494q0 51 19 51h264l73 424h-237q-35 0 -35 24q0 51 19 51h266l71 416q8 31 23 31h8q18 -2 32.5 -12.5t12.5 -16.5l-71 -418h258l71 416q8 31 23 31h8q18 -2 32.5 -12.5t12.5 -16.5l-72 -418h209q35 0 35 -24q0 -51 -18 -51h-240l-72 -424h211q35 0 35 -25 q0 -51 -18 -51h-242l-78 -463q-2 -12 -4 -17t-8 -10.5t-16 -3.5q-23 4 -36.5 12.5t-11.5 16.5l80 465h-260l-78 -463q-2 -12 -4 -17t-8 -10.5t-16 -3.5q-23 4 -36 12.5t-11 16.5l79 465h-235q-35 0 -35 25zM492 545h258l73 424h-260z" />
<glyph unicode="$" horiz-adv-x="1044" d="M70 72q2 23 14 45q10 18 18 18q37 0 167 -30.5t210 -30.5q141 0 230.5 56t89.5 161q0 115 -86 221q-51 68 -156.5 153t-186.5 148.5t-145.5 163.5t-64.5 211q0 135 93 208.5t245 94.5v256q0 10 18 16q25 8 49 9q31 0 31 -48v-227q88 0 197.5 -20.5t103.5 -51.5 q-8 -33 -14 -45q-10 -18 -19 -16q-29 0 -115.5 18.5t-138.5 18.5q-141 0 -234 -47t-93 -153.5t92 -215.5q35 -45 127 -121t172 -142.5t153.5 -172t92.5 -215.5q2 -14 2 -39q0 -129 -89.5 -205t-236.5 -100v-201q0 -47 -31 -47q-27 0 -47 8t-20 17v213q-18 -2 -54 -3 q-117 0 -248.5 32t-125.5 63z" />
<glyph unicode="%" horiz-adv-x="1789" d="M111 1006v245q0 266 262 267q264 0 264 -267v-245q0 -264 -264 -265q-262 1 -262 265zM205 1063q0 -115 33.5 -170t134 -55t133.5 55t33 170v133q0 115 -33 169t-133 54q-102 0 -135 -53t-33 -170v-133zM416 -33l57 105l809 1476q4 6 16 6q18 0 44 -10t26 -28 q0 -14 -10 -35l-846 -1540q-18 -33 -35 -33q-2 0 -6 2q-16 0 -30.5 14.5t-19.5 26.5t-5 16zM1153 238v245q0 266 262 267q264 0 264 -267v-245q0 -264 -264 -265q-262 1 -262 265zM1247 295q0 -115 34 -170t134.5 -55t134 55t33.5 170v131q0 117 -33.5 171t-134 54 t-134.5 -54t-34 -171v-131z" />
<glyph unicode="&#x26;" horiz-adv-x="1497" d="M133 408q0 248 424 514q-145 162 -184 274q-16 49 -17 96q0 147 97.5 235.5t244.5 88.5q143 0 243.5 -84t100.5 -223q0 -55 -23.5 -106.5t-79.5 -107t-88 -81t-112 -82.5l-24 -19l411 -491l160 168q25 25 39 24q20 0 43 -34q18 -33 18 -39t-2 -9l-184 -200l211 -262 q20 -29 21 -39q0 -23 -35 -41q-27 -14 -45 -15q-6 0 -11 5l-233 270q-244 -276 -494 -277q-238 0 -359.5 113t-121.5 322zM252 412q0 -145 84 -241.5t270 -96.5q80 0 166 44t139.5 89t130.5 123l-426 514q-195 -137 -260 -209q-104 -110 -104 -223zM475 1315 q0 -111 178 -324q156 109 212.5 176.5t56.5 143.5q0 102 -63.5 159.5t-164.5 57.5q-92 0 -155.5 -59.5t-63.5 -153.5z" />
<glyph unicode="'" horiz-adv-x="294" d="M102 1096v426q0 10 22.5 18t53.5 8q35 0 35 -53v-373q0 -53 -35 -53q-31 0 -53.5 8.5t-22.5 18.5z" />
<glyph unicode="(" horiz-adv-x="555" d="M137 655q0 272 83 524.5t231 405.5l34 -39q-102 -172 -159.5 -415.5t-57.5 -491.5q0 -573 217 -907q-20 -20 -32 -39q-150 160 -233 419.5t-83 542.5z" />
<glyph unicode=")" horiz-adv-x="555" d="M70 -268q104 168 160.5 410.5t56.5 496.5q0 248 -57.5 490.5t-159.5 414.5q20 20 34 41q147 -154 230.5 -406.5t83.5 -523.5q0 -281 -84 -541.5t-232 -420.5q-20 21 -32 39z" />
<glyph unicode="*" horiz-adv-x="1103" d="M227 1237q0 12 10.5 41t22.5 29q6 0 35 -13q53 -27 231 -92l-14 166l-6 84q0 25 6 30t31 5q47 0 53 -8q4 -8 4 -27l-6 -84l-14 -166l231 92q25 12 35 13q12 0 22.5 -29t10.5 -41q0 -8 -15.5 -15.5t-54.5 -18.5t-41 -11l-166 -47l164 -197q18 -23 18 -28q0 -10 -17 -21.5 t-34.5 -18t-19.5 -6.5q-10 0 -29 31l-131 203q-12 -18 -34.5 -55t-39 -63.5t-36 -55.5t-32 -44.5t-18.5 -15.5q-2 0 -19.5 6.5t-34.5 17.5t-17 22q0 6 18 28l164 197l-166 47q-8 2 -26.5 7t-31 9t-25.5 8.5t-20.5 9.5t-7.5 11z" />
<glyph unicode="+" horiz-adv-x="1267" d="M143 500v96h443v446h98v-446h434v-96h-434v-449h-98v449h-443z" />
<glyph unicode="," horiz-adv-x="401" d="M78 -168q0 8 4 25l68 282q2 10 28.5 18.5t57.5 8.5q39 0 38 -35q0 -6 -4 -18l-127 -254q-18 -43 -51 -43q-14 0 -14 16z" />
<glyph unicode="-" horiz-adv-x="700" d="M109 578q0 33 9 55t19 22h414q53 0 53 -37q0 -31 -9 -53t-20 -22h-413q-53 0 -53 35z" />
<glyph unicode="." horiz-adv-x="315" d="M102 2v141q0 10 22.5 18.5t53.5 8.5q35 0 35 -53v-88q0 -53 -35 -54q-31 0 -53.5 8.5t-22.5 18.5z" />
<glyph unicode="/" horiz-adv-x="897" d="M74 -94l620 1661q16 43 51 24q51 -27 52 -35q2 -2 0 -6l-623 -1656q-16 -47 -45 -35q-27 10 -43 24.5t-12 22.5z" />
<glyph unicode="0" horiz-adv-x="1304" d="M123 567v359q0 281 134 436.5t396 155.5t395.5 -156t133.5 -436v-359q0 -283 -132 -438.5t-396.5 -155.5t-397.5 155.5t-133 438.5zM256 639q0 -567 397 -567q395 0 396 567v213q0 260 -93.5 417.5t-302.5 157.5q-211 0 -304 -157.5t-93 -417.5v-213z" />
<glyph unicode="1" horiz-adv-x="858" d="M193 1298q0 16 26 39l189 162q20 20 108 21q33 0 33 -29v-1477q-4 -39 -35 -39t-57.5 8.5t-26.5 18.5v1376l-154 -135q-2 -2 -10 -2q-18 0 -45.5 14t-27.5 43z" />
<glyph unicode="2" horiz-adv-x="1069" d="M82 35q0 51 41 98q315 371 476 585t196.5 289.5t35.5 139.5q0 125 -88 199.5t-254 74.5q-106 0 -253 -24q-23 -4 -35 63v11q0 5 3 9.5t5 6.5t8 4l9 3q3 1 10.5 2t9.5 1q139 23 239 23q129 0 232.5 -34t176.5 -123t73 -226q0 -68 -43 -153t-204 -295t-484 -591h700 q47 0 47 -30q0 -68 -22 -68h-826q-53 0 -53 35z" />
<glyph unicode="3" horiz-adv-x="1040" d="M61 33q0 16 12.5 40.5t28.5 24.5q94 -25 222 -24q461 0 460 286v58q0 143 -106.5 218t-271.5 75h-56q-8 0 -20.5 21.5t-12.5 47.5q0 29 37 29h23q168 0 274.5 71.5t106.5 217.5v30q0 299 -406 299q-49 0 -215 -22q-4 0 -12 7t-14.5 23.5t-6.5 34.5q0 29 89.5 40.5 t148.5 11.5q266 0 407.5 -88t141.5 -306v-30q0 -109 -64.5 -207t-150.5 -125q100 -29 171 -130t71 -218v-58q0 -106 -48.5 -185t-132.5 -121t-179 -61.5t-206 -19.5q-88 0 -189.5 15.5t-101.5 44.5z" />
<glyph unicode="4" horiz-adv-x="1095" d="M4 393q0 45 16 70l717 1018q35 49 84 49q35 0 35 -53v-1020h162q45 0 45 -31q0 -27 -8 -47.5t-17 -20.5h-182v-329q0 -53 -35 -54q-31 0 -57.5 8.5t-26.5 18.5v356h-680q-53 0 -53 35zM117 457h620v882z" />
<glyph unicode="5" horiz-adv-x="1144" d="M88 53q0 31 12 49q10 18 21 19q25 -4 111.5 -19.5t145 -21.5t118.5 -6q176 0 284.5 87t108.5 281q0 203 -77 301.5t-269 98.5q-102 0 -185 -49q-6 -4 -18 -13.5t-22.5 -13.5t-24.5 -4h-57q-25 0 -33 6t-2 29l92 596q6 53 14 71q8 20 25.5 23.5t77.5 3.5h516q45 0 45 -31 q0 -20 -2 -28q-10 -39 -23 -39h-536l-86 -527q88 74 249 74q227 0 338 -115.5t111 -363.5v-8q0 -131 -42 -227.5t-117 -149.5t-166 -78t-203 -25q-72 0 -195 15.5t-178 38.5q-33 12 -33 26z" />
<glyph unicode="6" horiz-adv-x="1191" d="M102 453v8q0 338 186.5 605t491.5 411q33 16 47.5 -8.5t14.5 -55.5q0 -14 -23 -22q-346 -190 -518 -531q133 80 289 80q262 0 381 -106.5t119 -372.5v-8q0 -262 -117 -371t-369 -109h-14q-254 0 -371 109t-117 371zM236 446q0 -109 11 -172t48 -112t107.5 -68.5 t187.5 -19.5h14q115 0 184.5 19.5t106.5 68.5t49 111.5t12 169t-12 173t-48 122t-107.5 80t-184.5 24.5h-14q-219 0 -286.5 -91.5t-67.5 -304.5z" />
<glyph unicode="7" horiz-adv-x="1030" d="M43 1460q0 31 45 31h875q53 0 53 -37t-27 -82l-698 -1374q-20 -45 -53 -29q-29 14 -46.5 34t-11.5 34l692 1356h-804q-8 0 -16.5 20t-8.5 47z" />
<glyph unicode="8" horiz-adv-x="1261" d="M123 408v8q0 147 55 249.5t150 145.5q-70 16 -112 107.5t-42 207.5v9q0 227 99.5 305t334.5 78h45q233 0 332.5 -78t99.5 -305v-9q0 -117 -40.5 -208t-110.5 -107q94 -43 149.5 -145.5t55.5 -249.5v-8q0 -256 -113 -345.5t-373 -89.5h-45q-260 0 -372.5 89.5 t-112.5 345.5zM256 397q0 -141 24.5 -204.5t97.5 -91t230 -27.5h45q225 0 289 60.5t64 262.5q0 207 -66 282t-287 75h-45q-117 0 -185.5 -17.5t-106 -64.5t-49 -108t-11.5 -167zM297 1133q0 -176 58.5 -228.5t250.5 -52.5h49q193 0 251.5 52t58.5 229q0 186 -55.5 235 t-256.5 49h-45q-201 0 -256 -49t-55 -235z" />
<glyph unicode="9" horiz-adv-x="1191" d="M102 1004v8q0 262 117 370.5t369 108.5h14q258 0 373 -106.5t115 -372.5v-8q0 -338 -186.5 -605.5t-491.5 -410.5q-33 -14 -47.5 7t-14.5 56q0 14 23 23q346 190 518 530q-133 -80 -289 -80q-262 0 -381 107t-119 373zM236 1021.5q0 -106.5 12 -173t48 -121.5 t107.5 -79.5t184.5 -24.5h14q219 0 286.5 91t67.5 304q0 109 -11 172t-48 112.5t-107.5 69t-187.5 19.5h-14q-115 0 -184.5 -19.5t-106.5 -69t-49 -112t-12 -169z" />
<glyph unicode=":" horiz-adv-x="563" d="M227 27v141q0 10 22.5 18.5t53.5 8.5q35 0 35 -54v-88q0 -53 -35 -53q-31 0 -53.5 8.5t-22.5 18.5zM227 940v141q0 10 22.5 18.5t53.5 8.5q35 0 35 -53v-88q0 -53 -35 -54q-31 0 -53.5 8.5t-22.5 18.5z" />
<glyph unicode=";" horiz-adv-x="575" d="M154 -168q0 8 4 25l67 282q2 10 29 18.5t57 8.5q39 0 39 -35q0 -6 -4 -18l-127 -254q-18 -43 -51 -43q-14 0 -14 16zM227 940v141q0 10 22.5 18.5t53.5 8.5q35 0 35 -53v-88q0 -53 -35 -54q-31 0 -53.5 8.5t-22.5 18.5z" />
<glyph unicode="&#x3c;" horiz-adv-x="1087" d="M14 516v51l940 416v-96l-778 -344l778 -344v-95z" />
<glyph unicode="=" horiz-adv-x="1263" d="M139 309v92h985v-92h-985zM141 707v92h983v-92h-983z" />
<glyph unicode="&#x3e;" horiz-adv-x="1089" d="M133 104v95l778 344l-778 344v96l940 -416v-51z" />
<glyph unicode="?" horiz-adv-x="1007" d="M147 1464q-2 18 7.5 24.5t29.5 10.5q80 18 201 19q209 0 322.5 -84t113.5 -297q0 -47 -12 -88q-18 -59 -61 -121t-91.5 -113t-94.5 -105.5t-75.5 -122t-29.5 -138.5q0 -6 1 -26t1 -32t-3 -26.5t-10.5 -21.5t-19.5 -7q-25 0 -53 8q-23 6 -23 16q0 121 8.5 182.5 t42.5 123.5q25 43 104 132t131 173t52 164q0 154 -74.5 223t-228.5 69q-63 0 -205 -22q-23 -4 -33 59zM350 16v142q0 10 22.5 18t53.5 8q35 0 35 -53v-88q0 -53 -35 -53q-31 0 -53.5 8t-22.5 18z" />
<glyph unicode="@" horiz-adv-x="1732" d="M123 702q0 332 236.5 559.5t541.5 227.5q303 0 506 -187.5t203 -459.5q0 -229 -112 -392t-300 -163q-53 0 -104.5 39t-63.5 116q-49 -82 -126 -118.5t-146 -36.5q-113 0 -185.5 76.5t-72.5 187.5q0 199 113.5 342t306.5 143q123 0 188.5 -68.5t65.5 -162.5 q0 -53 -25 -161.5t-25 -168.5q0 -51 28 -82t71 -31q115 0 205 125t90 344q0 250 -179.5 417t-437.5 167q-195 0 -355.5 -106.5t-246.5 -269t-86 -337.5q0 -303 205 -500.5t487 -197.5q141 0 245.5 32t205.5 122q25 25 37 10q33 -41 24 -49q-215 -190 -516 -191 q-334 0 -556 220t-222 554zM578 584q0 -98 53 -161t160 -63q125 0 214 142.5t89 263.5q0 201 -201 201q-133 0 -224 -122t-91 -261z" />
<glyph unicode="A" horiz-adv-x="1130" d="M51 10q0 4 3 15.5t3 15.5l445 1432q4 10 31.5 18t58.5 8q25 0 35 -31l446 -1427q0 -4 3 -15.5t3 -15.5q0 -35 -61 -35q-57 0 -76 68l-131 461h-492l-131 -461q-18 -68 -75 -68q-62 0 -62 35zM350 602h430l-215 770z" />
<glyph unicode="B" horiz-adv-x="1286" d="M154 29v1390q0 35 12 44.5t63 9.5h500q223 0 313.5 -92.5t92.5 -286.5q0 -117 -51.5 -215.5t-135.5 -122.5q96 -16 154.5 -117.5t60.5 -224.5v-19q0 -207 -91 -301t-343 -94h-493q-27 0 -54.5 8.5t-27.5 20.5zM272 98h463q164 0 233.5 63.5t71.5 217.5v35 q-2 152 -68.5 219t-219.5 67h-480v-602zM272 799h457q154 0 218.5 68.5t64.5 222.5q-2 154 -65.5 219t-217.5 65h-457v-575z" />
<glyph unicode="C" d="M123 516v440q0 297 132 419t419 122h18q106 0 197.5 -12t91.5 -39q0 -18 -6 -36.5t-14.5 -28t-12.5 -9.5q-123 29 -256 29q-121 0 -201.5 -21.5t-128 -55.5t-72 -104.5t-30.5 -142t-6 -194.5v-293q0 -119 6 -189.5t29.5 -142.5t68.5 -106.5t123 -57t193 -22.5 q154 0 274 28q4 0 12.5 -9t14.5 -27.5t6 -36.5q0 -27 -91 -39.5t-198 -12.5h-18q-287 0 -419 122t-132 419z" />
<glyph unicode="D" horiz-adv-x="1282" d="M154 29v1390q0 20 6 32.5t21.5 17t25.5 5.5q5 1 13.5 0.5t20.5 -0.5q24 -1 31 -1h336q289 0 420 -122t131 -421v-387q0 -299 -131 -421t-420 -122h-372q-27 0 -54.5 8.5t-27.5 20.5zM272 98h336q115 0 193 21.5t123 57.5t68.5 106.5t29.5 141.5t6 189v244q0 119 -6 189.5 t-29.5 141.5t-68.5 106.5t-123 57t-193 21.5h-336v-1276z" />
<glyph unicode="E" horiz-adv-x="1099" d="M154 29v1390q0 53 34 54h762q45 0 45 -31q0 -27 -8 -47.5t-16 -20.5h-699v-575h637q45 0 45 -31q0 -27 -8 -47.5t-16 -20.5h-658v-602h678q45 0 45 -30q0 -27 -8 -47.5t-16 -20.5h-735q-27 0 -54.5 8.5t-27.5 20.5z" />
<glyph unicode="F" horiz-adv-x="1019" d="M154 2v1432q0 27 14 33t57 6h725q45 0 45 -31q0 -27 -8 -47.5t-16 -20.5h-699v-575h598q45 0 45 -31q0 -27 -8 -47.5t-16 -20.5h-619v-671q0 -53 -34 -54q-31 0 -57.5 8.5t-26.5 18.5z" />
<glyph unicode="G" horiz-adv-x="1222" d="M123 516v440q0 297 132 419t419 122h18q141 0 252 -24q37 -8 37 -27t-6 -37t-14.5 -27.5t-12.5 -9.5q-123 29 -256 29h-18q-115 0 -193 -22.5t-123 -57.5t-68.5 -106.5t-29.5 -142.5t-6 -189v-293q0 -119 6 -189.5t29.5 -142.5t68.5 -106.5t123 -57t193 -22.5h18 q125 0 289 55v428q0 53 35 53q31 0 57.5 -8t26.5 -18v-463q0 -51 -25 -66q-141 -74 -383 -78h-18q-287 0 -419 122t-132 419z" />
<glyph unicode="H" horiz-adv-x="1345" d="M154 2v1471q0 10 26.5 18t57.5 8q35 0 34 -53v-629h801v656q0 10 26.5 18t57.5 8q35 0 35 -53v-1417q0 -53 -35 -54q-31 0 -57.5 8.5t-26.5 18.5v717h-801v-690q0 -53 -34 -54q-31 0 -57.5 8.5t-26.5 18.5z" />
<glyph unicode="I" horiz-adv-x="425" d="M154 2v1471q0 10 26.5 18t57.5 8q35 0 34 -53v-1417q0 -53 -34 -54q-31 0 -57.5 8.5t-26.5 18.5z" />
<glyph unicode="J" horiz-adv-x="434" d="M-182 -471q6 25 17 41t20 14q92 -23 143 -22q53 0 86 20q47 31 62.5 114t15.5 255v1522q0 8 26 18q33 8 58 8q35 0 35 -53v-1555q0 -227 -60.5 -329.5t-193.5 -102.5q-78 0 -177 31q-34 9 -34 30q1 4 2 9z" />
<glyph unicode="K" horiz-adv-x="1206" d="M154 2v1471q0 10 26.5 18t57.5 8q35 0 34 -53v-780l703 811q18 23 74 22q49 0 49 -22.5t-43 -71.5l-527 -610l566 -713q47 -59 47 -82q0 -25 -54 -25q-63 0 -83 25l-555 700l-177 -204v-467q0 -53 -34 -54q-31 0 -57.5 8.5t-26.5 18.5z" />
<glyph unicode="L" horiz-adv-x="1075" d="M154 27v1446q0 10 26.5 18t57.5 8q35 0 34 -53v-1348h729q45 0 46 -30q0 -27 -8.5 -47.5t-16.5 -20.5h-784q-31 0 -57.5 8.5t-26.5 18.5z" />
<glyph unicode="M" horiz-adv-x="2039" d="M127 12q0 6 4 27l307 1438q6 27 90 26q29 0 35 -26l457 -1334l457 1330q6 27 90 26q29 0 35 -26l305 -1434q4 -20 4 -27q0 -37 -68 -37q-45 0 -49 21l-262 1317l-445 -1307q-10 -31 -38 -31q-35 0 -65 10.5t-34 20.5l-442 1311l-264 -1321q-6 -20 -49 -21q-68 0 -68 37z " />
<glyph unicode="N" horiz-adv-x="1476" d="M150 2v1444q0 53 34 53q63 0 84 -26l940 -1272v1245q0 53 35 53q31 0 57.5 -8t26.5 -18v-1444q0 -53 -35 -54q-63 0 -84 25l-940 1270v-1241q0 -53 -35 -54q-31 0 -57 8.5t-26 18.5z" />
<glyph unicode="O" horiz-adv-x="1363" d="M123 516v440q0 297 132 419t419 122h16q287 0 419 -122t132 -419v-440q0 -297 -132 -419t-419 -122h-16q-287 0 -419 122t-132 419zM254 590q0 -100 4 -161.5t17.5 -127t41 -102.5t74.5 -69t117 -45t166 -13h16q115 0 193 22.5t123 57t68.5 106.5t29.5 142.5t6 189.5v293 q0 119 -6 189.5t-29.5 142t-68.5 106.5t-123 57.5t-193 22.5h-16q-96 0 -166 -13.5t-117 -45t-74.5 -68.5t-41 -102.5t-17.5 -127t-4 -161.5v-293z" />
<glyph unicode="P" horiz-adv-x="1181" d="M154 2v1417q0 53 34 54h433q256 0 367.5 -86.5t111.5 -331.5q0 -244 -111.5 -331t-367.5 -87h-349v-608q0 -53 -34 -54q-31 0 -57.5 8.5t-26.5 18.5zM272 735h349q223 0 285.5 60.5t62.5 259t-62.5 259t-285.5 60.5h-349v-639z" />
<glyph unicode="Q" horiz-adv-x="1363" d="M123 516v440q0 297 132 419t419 122h16q287 0 419 -122t132 -419v-440q0 -281 -123 -404.5t-385 -134.5q2 -195 31 -268.5t125 -73.5q63 0 147 23q23 6 33 -8.5t16 -42.5q2 -12 -6 -18.5t-26 -12.5q-109 -29 -179 -29q-137 0 -192 100.5t-59 327.5q-260 14 -380 137 t-120 404zM254 590q0 -100 4 -161.5t17.5 -127t41 -102.5t74.5 -69t117 -45t166 -13h16q115 0 193 22.5t123 57t68.5 106.5t29.5 142.5t6 189.5v293q0 119 -6 189.5t-29.5 142t-68.5 106.5t-123 57.5t-193 22.5h-16q-96 0 -166 -13.5t-117 -45t-74.5 -68.5t-41 -102.5 t-17.5 -127t-4 -161.5v-293z" />
<glyph unicode="R" horiz-adv-x="1202" d="M154 2v1417q0 53 34 54h433q256 0 367.5 -86.5t111.5 -331.5q0 -205 -79 -295t-255 -119l328 -600q15 -25 14 -40q0 -25 -39 -26q-66 0 -96 58l-338 604h-363v-608q0 -53 -34 -54q-31 0 -57.5 8.5t-26.5 18.5zM272 735h349q223 0 285.5 60.5t62.5 259t-62.5 259 t-285.5 60.5h-349v-639z" />
<glyph unicode="S" horiz-adv-x="997" d="M81 117q13 23 30 16q160 -59 362 -59q223 0 295 123q25 41 25 94q0 135 -117 256q-45 49 -124 114.5t-141.5 120t-125 120t-97 138t-34.5 148.5q0 109 67.5 181.5t162.5 100t214 27.5q33 0 81 -5t98 -13.5t84 -22.5t30 -31q-2 -12 -10 -32q-6 -16 -13 -23q-6 -8 -24 -4 q-158 35 -240 35q-141 0 -234.5 -47t-93.5 -153.5t93 -215.5q29 -33 129 -120t186 -164.5t158.5 -190.5t72.5 -215q0 -162 -137 -240t-340 -78q-162 0 -344 64q-31 11 -31 27q0 19 18 49z" />
<glyph unicode="T" horiz-adv-x="1093" d="M0 1405q0 68 25 68h1022q47 0 47 -31q0 -27 -8.5 -47.5t-16.5 -20.5h-463v-1345q0 -53 -35 -54q-31 0 -57.5 8.5t-26.5 18.5v1372h-440q-47 0 -47 31z" />
<glyph unicode="U" horiz-adv-x="1404" d="M143 516v957q0 10 27 18t57 8q35 0 35 -53v-856q0 -117 7 -189.5t32 -142.5t72 -106.5t126 -58t195 -21.5h17q143 0 231 29.5t131 101t56.5 155.5t13.5 232v883q0 10 26.5 18t57.5 8q35 0 35 -53v-930q0 -297 -132.5 -419t-418.5 -122h-17q-287 0 -419 122t-132 419z" />
<glyph unicode="V" horiz-adv-x="1159" d="M57 1473q0 27 27 26q49 0 72 -10q31 -14 39 -41l389 -1342l381 1342q14 51 110 51q27 0 27 -26q0 -14 -4 -31l-441 -1415q-12 -51 -47 -52q-41 0 -70.5 12.5t-33.5 28.5l-445 1426q-4 17 -4 31z" />
<glyph unicode="W" horiz-adv-x="1742" d="M53 1473q0 27 27 26q49 0 72 -10q31 -14 38 -41l385 -1342l386 1342q14 51 110 51q27 0 27 -26q0 -14 -4 -31l-160 -510l237 -826l385 1342q16 51 111 51q27 0 27 -26q0 -14 -4 -31l-441 -1415q-12 -51 -47 -52q-41 0 -70.5 12.5t-33.5 28.5l-226 719l-219 -708 q-12 -51 -47 -52q-41 0 -70.5 12.5t-33.5 28.5l-445 1426q-4 17 -4 31z" />
<glyph unicode="X" horiz-adv-x="1097" d="M62 1490q7 9 36 9q41 0 57.5 -10t32.5 -41l361 -639l362 639q16 31 33 41t57 10q29 0 36 -9q2 -3 2 -8q0 -13 -13 -40l-391 -699l391 -710q12 -21 12 -34q0 -23 -37 -24q-41 0 -57 10.5t-33 41.5l-362 651l-363 -651q-16 -31 -32.5 -41.5t-57.5 -10.5q-36 0 -36 24 q0 13 12 34l389 710l-387 699q-13 28 -14 40q0 5 2 8z" />
<glyph unicode="Y" horiz-adv-x="1116" d="M68 1442q-10 20 -10 33q0 24 34 24q43 0 61.5 -11t34.5 -40l371 -758l367 758q16 29 35.5 40t62.5 11q35 0 35 -24q0 -13 -10 -33l-431 -848v-565q0 -53 -34 -54q-31 0 -57.5 8.5t-26.5 18.5v592z" />
<glyph unicode="Z" horiz-adv-x="1173" d="M57 35q0 47 25 82l905 1257h-807q-8 0 -16 20.5t-8 47.5q0 31 45 31h862q53 0 53 -37q0 -45 -24 -78l-891 -1258h854q47 0 47 -32q0 -29 -8.5 -48.5t-18.5 -19.5h-993q-25 0 -25 35z" />
<glyph unicode="[" horiz-adv-x="528" d="M164 -342v1890q0 41 31 41h194q41 0 41 -26q0 -23 -8 -41.5t-14 -18.5h-134v-1784h115q41 0 41 -26q0 -23 -8 -41.5t-14 -18.5h-168q-20 0 -48 8.5t-28 16.5z" />
<glyph unicode="\" horiz-adv-x="786" d="M31 1608q-6 18 19.5 33.5t51.5 15.5q20 0 29 -23l619 -1665q4 -8 -12.5 -22.5t-43.5 -24.5q-29 -12 -45 35z" />
<glyph unicode="]" horiz-adv-x="651" d="M221 -307q0 27 41 26h115v1784h-133q-6 0 -14.5 18.5t-8.5 41.5q0 27 41 26h195q31 0 30 -41v-1890q0 -8 -27.5 -16.5t-47.5 -8.5h-168q-6 0 -14.5 18.5t-8.5 41.5z" />
<glyph unicode="^" horiz-adv-x="1224" d="M162 821l450 580l451 -580l-62 -37l-389 502l-389 -502z" />
<glyph unicode="_" horiz-adv-x="1079" d="M35 -125q0 29 8 50.5t18 21.5h926q25 0 33 -4q14 -8 14 -29q0 -29 -8 -49.5t-18 -20.5h-924q-27 0 -35 4q-14 9 -14 27z" />
<glyph unicode="`" horiz-adv-x="409" d="M-63 1624q0 25 34 39q23 10 58 10q18 0 24 -6l168 -237q14 -20 15 -33q0 -14 -29 -15q-16 0 -43 27l-213 186q-14 25 -14 29z" />
<glyph unicode="a" horiz-adv-x="974" d="M92 281q0 70 7 117.5t30 96t71 73t124 24.5q252 0 405 -70q0 299 -54 397.5t-233 98.5q-47 0 -139 -14l-72 -13h-2q-20 0 -30 60q-2 18 7 24t30 10l40 9q86 14 197 14q180 0 274.5 -103.5t94.5 -289.5v-633q0 -53 -205 -81t-311 -28q-133 0 -183.5 77t-50.5 231zM207 299 q0 -117 31.5 -176.5t117.5 -59.5q137 0 237.5 19.5t135.5 44.5v291q-35 33 -136 58.5t-239 25.5q-147 0 -147 -203z" />
<glyph unicode="b" horiz-adv-x="1024" d="M154 133v1389q0 10 22.5 18t52.5 8q35 0 35 -53v-485q154 98 406 98q66 0 110.5 -22.5t68 -52t35 -88t13.5 -100.5t2 -120v-365q0 -78 -2 -120.5t-14.5 -102t-36 -89.5t-68.5 -52.5t-110 -22.5q-281 0 -469 80q-45 21 -45 80zM264 145q0 -12 48 -30.5t139.5 -35 t187.5 -16.5q37 0 62.5 11.5t42 38t25.5 51t13 73t5 82t1 95.5v334q0 137 -27.5 203.5t-119.5 66.5q-96 0 -188.5 -24.5t-140.5 -52.5t-48 -44v-752z" />
<glyph unicode="c" horiz-adv-x="837" d="M123 387v307q0 414 369 414q143 0 245 -25q14 -2 21.5 -5t12.5 -10q4 -5 4 -13q0 -28 -10.5 -47t-20.5 -19h-3q-178 29 -249 29q-147 0 -201.5 -98.5t-54.5 -284.5v-189q0 -186 54 -284.5t202 -98.5q72 0 249 29h3q10 0 20.5 -19t10.5 -47q0 -13 -8 -18q-9 -6 -30 -10 q-102 -25 -245 -25q-369 0 -369 414z" />
<glyph unicode="d" horiz-adv-x="1024" d="M125 360v365q0 78 2 120t13.5 100.5t35 88t68.5 52t110 22.5q252 0 406 -98v485q0 53 35 53q31 0 53 -8t22 -18v-1383q0 -70 -67 -94q-158 -72 -447 -72q-66 0 -110.5 22.5t-68 52.5t-36 89.5t-14.5 102t-2 120.5zM236 414q0 -61 1 -95t5 -82.5t13 -73t25.5 -51t42 -38 t62.5 -11.5q96 0 187.5 16.5t139.5 35t48 30.5v752q0 16 -48 44t-140.5 52.5t-188.5 24.5q-92 0 -119.5 -66.5t-27.5 -203.5v-334z" />
<glyph unicode="e" horiz-adv-x="966" d="M123 387v145q0 190 21.5 303t76.5 174.5t129 80t201 18.5q98 0 161.5 -24.5t93.5 -72.5t39 -96.5t9 -119.5v-127q0 -23 -12.5 -40.5t-51 -36t-105.5 -29.5t-181.5 -19t-270.5 -8q0 -90 5.5 -151.5t21.5 -127.5t46 -103.5t83 -63.5t127 -26q72 0 250 29h3q20 0 30 -59 q2 -18 -7.5 -24.5t-29.5 -10.5q-102 -25 -246 -25q-195 0 -294 106.5t-99 307.5zM233 625q510 0 510 92v90q0 211 -196 211q-182 0 -248 -78.5t-66 -314.5z" />
<glyph unicode="f" horiz-adv-x="727" d="M20 1020q0 23 9 43q8 18 14 18h203v23q4 229 61.5 329.5t190.5 100.5q59 0 141 -17q76 -16 76 -43t-10.5 -45t-19.5 -18h-3t-5 1t-5 1q-8 0 -10 2q-80 29 -142 29q-39 0 -61 -8q-59 -20 -78 -95t-19 -235v-25h230q43 0 43 -28q0 -23 -8 -43q-8 -18 -15 -19h-256v-962 q0 -53 -34 -54q-76 0 -76 27v989h-183q-43 0 -43 29z" />
<glyph unicode="g" horiz-adv-x="1024" d="M125 358v365q0 80 1 120t12.5 100.5t34 89t68.5 51t113 22.5q229 0 372.5 -45t143.5 -135v-1035q0 -106 -4 -165.5t-17 -120t-42 -89t-76 -46t-121 -17.5q-193 0 -368 60q-4 2 -15.5 5t-17.5 5t-17.5 6t-18.5 7t-16.5 7t-14.5 8l-10 9q-5 4 -6 9t-1 9q4 20 8 32.5 t16.5 21t28.5 1.5q233 -92 424 -92q41 0 70.5 14.5t47 47t28 64.5t13.5 86t3 91t-2 100.5t-2 96.5q-88 -70 -404 -70q-68 0 -113.5 22.5t-69 52.5t-35 90.5t-12.5 101t-1 120.5zM236 412q0 -100 2 -143.5t15 -99.5t44 -81q29 -27 88 -27q154 0 264.5 28t110.5 63v763 q0 39 -111.5 70t-265.5 31q-63 0 -98 -35q-49 -51 -49 -236v-333z" />
<glyph unicode="h" horiz-adv-x="1052" d="M154 2v1520q0 10 22.5 18t52.5 8q35 0 35 -53v-479q135 92 406 92q39 0 71.5 -8t56 -18.5t42 -34t30 -41t19.5 -52t12 -57.5t6 -66t2 -65.5t-1 -71.5t-1 -71v-594q0 -53 -35 -54q-31 0 -53 8.5t-22 18.5v668q0 74 -1 111.5t-9.5 91t-23.5 80t-46 46t-76 19.5 q-137 0 -254 -40t-123 -73v-876q0 -53 -35 -54q-31 0 -53 8.5t-22 18.5z" />
<glyph unicode="i" horiz-adv-x="514" d="M143 223v858q0 10 22.5 18.5t53.5 8.5q35 0 35 -53v-760q0 -156 43 -200q23 -24 71 -24q40 0 97 17q12 4 20 4h3q9 0 20 -18t11 -45q0 -16 -32 -27q-2 -2 -4 -2q-68 -25 -147 -25q-193 0 -193 248zM143 1358v141q0 10 22.5 18.5t53.5 8.5q35 0 35 -53v-89q0 -53 -35 -53 q-31 0 -53.5 8.5t-22.5 18.5z" />
<glyph unicode="j" horiz-adv-x="399" d="M-146 -278q1 0 3 -1q78 -18 129 -18q55 0 90 32t49 97.5t17 116.5t3 137v995q0 10 22.5 18.5t53.5 8.5q35 0 35 -53v-1026q0 -422 -256 -422q-61 0 -141 22q-14 4 -20.5 7.5t-11.5 9.5q-4 4 -4 11q0 27 11 46t20 19zM145 1358v141q0 10 22.5 18.5t53.5 8.5q35 0 35 -53 v-89q0 -53 -35 -53q-31 0 -53.5 8.5t-22.5 18.5z" />
<glyph unicode="k" horiz-adv-x="956" d="M154 2v1520q0 10 22.5 18t52.5 8q35 0 35 -53v-930l469 514q25 29 82 29q35 0 35 -31q0 -14 -12 -26l-447 -488l488 -530q12 -12 12 -27q0 -31 -35 -31q-57 0 -82 29l-510 557v-532q0 -53 -35 -54q-31 0 -53 8.5t-22 18.5z" />
<glyph unicode="l" horiz-adv-x="524" d="M156 223v1301q0 10 22.5 18t52.5 8q35 0 35 -53v-1202q0 -184 64 -215q33 -12 45 -9l49 12q37 9 74 9h2q9 0 20 -18t11 -45q0 -16 -31 -27q-2 -2 -4 -2q-68 -25 -148 -25q-192 0 -192 248z" />
<glyph unicode="m" horiz-adv-x="1644" d="M145 2v926q0 66 142.5 123t351.5 57q131 0 192 -98q178 98 431 98q66 0 111.5 -20.5t70 -50t37 -84t15.5 -97.5t3 -115v-712q0 -53 -35 -54q-31 0 -53 8.5t-22 18.5v682q0 84 -4.5 133t-18.5 101.5t-47 76t-86 23.5q-147 0 -250.5 -39t-103.5 -80v-870q0 -53 -35 -54 q-31 0 -53.5 8.5t-22.5 18.5v758q0 125 -35 191.5t-123 66.5q-147 0 -250.5 -39t-103.5 -80v-870q0 -53 -35 -54q-31 0 -53.5 8.5t-22.5 18.5z" />
<glyph unicode="n" d="M141 2v926q0 63 154 121.5t364 58.5q66 0 112 -20.5t70.5 -50t38 -83t16.5 -97.5t3 -116v-712q0 -53 -35 -54q-31 0 -54.5 8.5t-23.5 18.5v682q0 84 -4 133t-18 101.5t-47 76t-86 23.5q-150 0 -263.5 -39t-113.5 -80v-870q0 -53 -35 -54q-31 0 -54.5 8.5t-23.5 18.5z" />
<glyph unicode="o" horiz-adv-x="1005" d="M123 365v352q0 391 381 391q379 0 379 -391v-352q0 -391 -379 -392q-381 1 -381 392zM236 424q0 -186 52 -273.5t216 -87.5t215 87.5t51 273.5v233q0 186 -51 273.5t-215 87.5t-216 -87t-52 -274v-233z" />
<glyph unicode="p" horiz-adv-x="1024" d="M154 -522v1450q0 68 153.5 124t362.5 56q51 0 89 -12.5t62.5 -30.5t41 -53t24.5 -63.5t11 -79t3 -82t-1 -92t-1 -91.5v-244v-87q0 -26 -4 -78t-12.5 -74.5t-24.5 -57t-40.5 -50t-62.5 -28t-87 -12.5q-254 0 -404 52v-521q0 -53 -35 -53q-31 0 -53 8.5t-22 18.5zM264 154 q0 -35 110.5 -63t264.5 -28q59 0 88 27q31 25 44 81t15 99t2 144v334q0 186 -49 235q-43 35 -98 35q-145 0 -261 -41t-116 -80v-743z" />
<glyph unicode="q" horiz-adv-x="1026" d="M125 348v436q0 78 7 127.5t28.5 98.5t70 72.5t123.5 23.5q213 0 365.5 -53.5t152.5 -124.5v-1424q0 -53 -34 -53q-31 0 -53.5 8.5t-22.5 18.5v555q-162 -61 -406 -62q-55 0 -96 12.5t-65.5 42t-40 57.5t-21.5 80t-7 85.5t-1 99.5zM236 383q0 -68 1 -105.5t9 -85t23.5 -72 t44 -42t71.5 -17.5q154 0 264.5 28t110.5 63v747q0 41 -114 79t-263 38q-92 0 -119.5 -66.5t-27.5 -204.5v-362z" />
<glyph unicode="r" horiz-adv-x="761" d="M143 2v926q31 92 138.5 136t240.5 44q199 0 199 -41q0 -29 -11.5 -48.5t-21.5 -19.5q-8 0 -20 5q-66 12 -125 12q-94 0 -176 -27.5t-113 -85.5v-874q0 -53 -35 -54q-31 0 -53.5 8.5t-22.5 18.5z" />
<glyph unicode="s" horiz-adv-x="858" d="M94 115h2q164 -43 273 -43q287 0 286 153q0 39 -25.5 82t-75.5 87t-88 73t-97 68q-4 2 -44 28.5t-48.5 32.5t-42 31.5t-44 38t-33 39t-29.5 47t-15.5 49t-8.5 59.5q0 74 35 126t95.5 78t123 37t136.5 11q100 0 223 -31q14 -4 21 -7t12.5 -9t3.5 -16q-4 -27 -14.5 -45.5 t-18.5 -16.5q-106 29 -244 29q-256 0 -256 -154q0 -59 49 -108t162 -125q168 -111 256 -202t88 -185q0 -137 -112.5 -203t-278.5 -66q-113 0 -285 45q-20 6 -29 14q-8 6 -8 16q0 19 6 35.5t13 24t12 7.5z" />
<glyph unicode="t" horiz-adv-x="638" d="M20 1020q0 23 9 43q8 18 14 18h178v310q0 8 23 18q29 8 53 8q35 0 35 -53v-283h215q43 0 43 -28q0 -23 -8 -43q-8 -18 -15 -19h-235v-696q0 -158 41 -199q25 -26 73 -26q40 0 97 18q2 0 9 2t11 2q8 0 19 -16q15 -25 14 -49q0 -10 -6 -15q-8 -6 -29 -12q-78 -25 -147 -25 q-29 0 -54 7q-86 20 -112.5 98t-26.5 270v641h-158q-43 0 -43 29z" />
<glyph unicode="u" d="M141 342v713q0 53 35 53q31 0 54.5 -8t23.5 -19v-682q0 -84 4 -133t18.5 -101t47 -75.5t86.5 -23.5q150 0 263 38.5t113 79.5v871q0 53 35 53q31 0 54.5 -8t23.5 -19v-925q0 -63 -153.5 -122t-364.5 -59q-66 0 -112 20.5t-70.5 50.5t-38 83t-16.5 97t-3 116z" />
<glyph unicode="v" horiz-adv-x="802" d="M72 1081q0 27 26 27q82 0 95 -51l213 -905l204 905q12 51 95 51q27 0 26 -27q0 -14 -4 -30l-278 -1045q-8 -31 -29 -31q-55 0 -64 25l-280 1051q-4 16 -4 30z" />
<glyph unicode="w" horiz-adv-x="1347" d="M72 1081q0 27 26 27q59 0 68 -27l240 -929l219 938q10 18 28 18q63 0 76 -51l217 -905l230 929q8 27 69 27q27 0 27 -27q0 -14 -4 -30l-279 -1045q-8 -31 -28 -31q-55 0 -64 25l-225 866l-223 -860q-8 -31 -29 -31q-55 0 -64 25l-280 1051q-4 16 -4 30z" />
<glyph unicode="x" horiz-adv-x="894" d="M105 -4q-2 7 -1 13q0 13 7 24l274 508l-274 510q-6 9 -7 20q0 7 2 15q6 22 29 22q74 0 101 -51l225 -453l219 453q14 29 34.5 40t63.5 11q25 0 30 -21q2 -7 2 -13q0 -13 -7 -23l-275 -510l275 -508q7 -10 7 -23q0 -6 -2 -13q-5 -22 -30 -22q-43 0 -63.5 11.5t-34.5 40.5 l-219 452l-225 -452q-27 -51 -101 -52q-25 1 -30 21z" />
<glyph unicode="y" d="M143 340v741q0 10 22.5 18.5t53.5 8.5q35 0 35 -47v-688q0 -156 29.5 -233t128.5 -77q143 0 255.5 34t120.5 71v913q0 10 23 18.5t53 8.5q35 0 35 -53v-1164q0 -104 -4 -165.5t-18.5 -121t-42 -88t-75.5 -46t-120 -17.5q-248 0 -453 92q-31 14 -32 25q-2 4 0 8 q10 59 32 60q8 0 21 -5q227 -90 424 -90q57 0 90 19.5t47 82t17 118t3 186.5v114q-137 -90 -407 -90q-66 0 -112 20.5t-70.5 50.5t-36.5 84t-15.5 97t-3.5 115z" />
<glyph unicode="z" horiz-adv-x="946" d="M43 29q0 18 10 43q8 18 99 135l583 782h-600q-23 0 -22 62q0 29 43 28h667q43 0 43 -28q0 -23 -10 -50q-6 -18 -21.5 -40.5t-42 -56.5t-32.5 -44l-576 -770h676q43 0 43 -29q0 -61 -22 -61h-799q-39 0 -39 29z" />
<glyph unicode="{" horiz-adv-x="712" d="M143 623q0 8 4.5 14t8.5 8t14 4t12 4q96 33 128 118t32 212q0 43 -6 127t-6 100q0 10 -1 31t-1 33q0 137 61.5 230t188.5 93h24h8q4 0 7.5 1t7.5 0t7 -3t6 -6t5 -10q8 -20 8 -43q0 -18 -12 -25q-29 -14 -77 -31.5t-65.5 -27.5t-32.5 -44t-15 -93q0 -45 6 -144.5t6 -158.5 q0 -346 -160 -404q160 -57 160 -403q0 -59 -6 -158.5t-6 -144.5q0 -131 88 -176q14 -6 44.5 -9.5t50 -10.5t19.5 -25q0 -23 -8 -43q-4 -10 -9 -14.5t-8 -5.5t-12.5 0t-11.5 1h-24q-127 0 -188.5 94t-61.5 230q0 12 1 32.5t1 30.5q0 16 6 100t6 127q0 272 -156 328 q-16 6 -22 8t-12.5 9.5t-7.5 17t-1 27.5z" />
<glyph unicode="|" horiz-adv-x="499" d="M201 -440v1980q0 8 20.5 16.5t46.5 8.5q31 0 31 -47v-1936q0 -47 -31 -47q-27 0 -47 8.5t-20 16.5z" />
<glyph unicode="}" horiz-adv-x="688" d="M63 -319q0 18 13 24q29 14 76 30.5t65.5 28t33.5 45t15 93.5q0 45 -6 144t-6 159q0 346 160 403q-160 57 -160 404q0 59 6 158.5t6 144.5q0 131 -88 176q-14 6 -45 9t-50.5 10.5t-19.5 25.5q0 23 9 43q8 18 14 18h51q125 0 187.5 -94t62.5 -229q0 -12 -1 -32.5t-1 -31.5 q0 -16 -6 -100t-6 -127q0 -129 31.5 -213t127.5 -117q4 -2 10.5 -3t10.5 -3t9 -5t7 -8t2 -11q0 -33 -7 -42.5t-36 -19.5q-92 -33 -123.5 -118t-31.5 -210q0 -43 6 -126.5t6 -100.5q0 -10 1 -30.5t1 -32.5q0 -135 -62.5 -229.5t-187.5 -94.5h-26h-8h-8h-6q-3 0 -6 2t-6 6 t-5 11q-9 20 -9 43z" />
<glyph unicode="~" horiz-adv-x="1257" d="M182 414q37 113 112 164t150 51q70 0 195 -61.5t197 -61.5q59 0 97 20.5t73 73.5q12 18 18 18q10 0 34.5 -9t24.5 -21q-37 -113 -109.5 -164t-152.5 -51q-70 0 -193.5 61.5t-197.5 61.5q-109 0 -170 -95q-12 -18 -18 -18q-10 0 -35 9.5t-25 21.5z" />
<glyph unicode="&#xa1;" horiz-adv-x="641" d="M264 -326v1008q0 53 35 53q25 0 53 -8q23 -10 23 -18v-1061q0 -12 -23 -19q-18 -8 -53 -8t-35 53zM264 965v88q0 53 35 53q25 0 53 -8q23 -10 23 -19v-141q0 -12 -23 -18q-18 -8 -53 -8t-35 53z" />
<glyph unicode="&#xa2;" horiz-adv-x="829" d="M123 387v307q0 399 344 414v231q0 10 18 17q25 8 50 8q31 0 30 -47v-211q209 -10 209 -57q-6 -31 -14 -43q-10 -16 -19 -17q-129 27 -219 27q-47 0 -96 -8q-111 -20 -150.5 -114.5t-39.5 -258.5v-189q0 -84 9 -144t35.5 -118.5t86 -89.5t147.5 -31q31 0 104.5 14.5 t124.5 14.5q10 0 19 -18q4 -6 12 -47q0 -41 -209 -52v-235q0 -47 -30 -47q-27 0 -47.5 8t-20.5 16v256q-344 15 -344 414z" />
<glyph unicode="&#xa3;" horiz-adv-x="1171" d="M211 31q0 49 25 67q229 152 229 432q0 47 -21 211h-131q-53 0 -53 35q0 33 9.5 55.5t19.5 22.5h143q-18 156 -18 244v30q0 393 417 394q129 0 234 -25q14 -2 21.5 -5t12.5 -10t3 -20q-10 -63 -33 -59q-150 23 -213 22q-309 0 -309 -297v-30q0 -96 18 -244h137 q53 0 54 -37q0 -31 -9.5 -53.5t-19.5 -22.5h-145q18 -152 18 -233q0 -100 -50 -216t-167 -194h690q45 0 45 -30q0 -27 -8 -47.5t-16 -20.5h-838q-45 0 -45 31z" />
<glyph unicode="&#xa4;" horiz-adv-x="1206" d="M35 301q0 76 51 100l68 33q-37 94 -37 189q0 96 39 190l-70 33q-29 14 -40 34.5t-11 63.5q0 25 20.5 30t36.5 -5l117 -64q68 94 170 148.5t221 54.5t222.5 -55.5t168.5 -149.5l119 66q14 10 35.5 5t21.5 -30q0 -43 -11 -63.5t-40 -34.5l-72 -35q37 -86 37 -188 q0 -100 -37 -187l72 -35q51 -25 51 -100q0 -25 -20.5 -30t-36.5 5l-119 64q-66 -94 -169 -148.5t-222 -54.5q-117 0 -220.5 54.5t-170.5 146.5l-117 -62q-14 -10 -35.5 -4t-21.5 29zM199 622.5q0 -163.5 117.5 -280.5t283.5 -117t282.5 117t116.5 280.5t-116.5 280.5 t-282.5 117t-283.5 -117t-117.5 -280.5z" />
<glyph unicode="&#xa5;" horiz-adv-x="1116" d="M63.5 1478.5q6.5 20.5 28.5 20.5q43 0 61.5 -11t34.5 -40l371 -758l367 758q16 29 35.5 40t62.5 11q23 0 29 -20.5t-4 -36.5l-402 -789h316q53 0 53 -37q0 -31 -9.5 -53t-19.5 -22h-369v-142h345q53 0 53 -37q0 -31 -9.5 -53t-19.5 -22h-369v-258q0 -53 -34 -54 q-31 0 -57.5 8.5t-26.5 18.5v285h-342q-53 0 -54 35q0 33 9.5 55t19.5 22h367v142h-342q-53 0 -54 34q0 33 9.5 55.5t19.5 22.5h336l-401 789q-11 16 -4.5 36.5z" />
<glyph unicode="&#xa6;" horiz-adv-x="499" d="M201 -195v736q0 8 20.5 16t46.5 8q31 0 31 -47v-690q0 -47 -31 -47q-27 0 -47 8t-20 16zM201 805v735q0 8 20.5 16.5t46.5 8.5q31 0 31 -47v-691q0 -47 -31 -47q-27 0 -47 8.5t-20 16.5z" />
<glyph unicode="&#xa7;" horiz-adv-x="851" d="M57 -94q12 66 33 61q8 0 21 -4q152 -39 251 -39q55 0 109 6q178 25 178 148q0 39 -25.5 82t-75.5 87t-88 72.5t-98 67.5q-4 2 -43.5 28.5t-48 33t-42 32t-44 37.5t-33 39t-29.5 47.5t-15.5 49t-8.5 59.5q0 180 209 231q-100 66 -154.5 131.5t-54.5 159.5q0 74 35 126 t95.5 77.5t123 37t135.5 11.5q84 0 175.5 -17.5t85.5 -46.5q-8 -33 -15 -45q-10 -18 -18 -16q-14 0 -101.5 14.5t-142.5 14.5q-256 0 -256 -154q0 -59 49 -108.5t162 -124.5q168 -111 256 -202t88 -186q0 -178 -197 -241q197 -152 197 -281q0 -137 -112.5 -202.5 t-278.5 -65.5q-113 0 -285 45q-20 6 -29.5 13.5t-7.5 21.5zM215 715q0 -39 24.5 -79t72.5 -78t78 -56.5t79 -48.5q180 16 180 147q0 109 -225 266q-209 -16 -209 -151z" />
<glyph unicode="&#xa8;" horiz-adv-x="458" d="M-10 1419v142q0 10 22.5 18t53.5 8q35 0 34 -53v-88q0 -53 -34 -53q-31 0 -53.5 8t-22.5 18zM360 1419v142q0 10 23 18t53 8q35 0 35 -53v-88q0 -53 -35 -53q-31 0 -53.5 8t-22.5 18z" />
<glyph unicode="&#xa9;" horiz-adv-x="1730" d="M100 735q0 315 226.5 539.5t539.5 224.5q328 0 546 -230.5t218 -555.5q0 -166 -66.5 -308.5t-175 -235.5t-245.5 -145.5t-279 -52.5q-213 0 -390 108.5t-275.5 283.5t-98.5 372zM162 735q0 -279 203.5 -489.5t498.5 -210.5q178 0 337 81t263.5 239.5t104.5 361.5 q0 301 -201 511t-502 210q-291 0 -497.5 -206t-206.5 -497zM528 567v291q0 197 86 276.5t277 79.5h12q100 0 166 -16q25 -4 25 -16.5t-4.5 -24.5t-9.5 -18t-9 -6q-86 18 -168 18h-12q-94 0 -150.5 -18.5t-84 -67.5t-35 -103.5t-7.5 -152.5v-195q0 -98 7.5 -152t35 -103.5 t84 -68t150.5 -18.5h12q82 0 168 19q6 0 14.5 -14.5t8.5 -32.5q0 -14 -25 -19q-78 -16 -166 -16h-12q-188 0 -275.5 80.5t-87.5 277.5z" />
<glyph unicode="&#xaa;" horiz-adv-x="1009" d="M106 870q0 109 32 167.5t134 58.5q186 0 295 -49q0 215 -40 286.5t-169 71.5q-41 0 -100 -10l-51 -9q-8 -2 -14.5 10.5t-10.5 33.5q0 6 1 11t5.5 7t9.5 4t11 2l31 6q57 10 141 10q131 0 199.5 -74.5t68.5 -209.5v-459q0 -39 -147.5 -58.5t-227.5 -19.5q-96 0 -132 55 t-36 166zM188 885q0 -84 24 -128t85 -44q199 0 270 47v211q-72 61 -272 61q-107 0 -107 -147z" />
<glyph unicode="&#xab;" horiz-adv-x="1007" d="M111 594l327 403q18 20 24.5 20.5t25 -18t18.5 -26.5q0 -12 -10 -25l-267 -354l267 -354q10 -12 10 -25q0 -8 -18.5 -26.5t-24.5 -18.5t-25 20zM496 594l327 403q18 20 24.5 20.5t25 -18t18.5 -26.5q0 -12 -10 -25l-267 -354l267 -354q10 -12 10 -25q0 -8 -18.5 -26.5 t-24.5 -18.5t-25 20z" />
<glyph unicode="&#xac;" horiz-adv-x="1261" d="M139 711v90h983v-512h-88v422h-895z" />
<glyph unicode="&#xad;" horiz-adv-x="700" d="M109 578q0 33 9 55t19 22h414q53 0 53 -37q0 -31 -9 -53t-20 -22h-413q-53 0 -53 35z" />
<glyph unicode="&#xae;" horiz-adv-x="1730" d="M100 735q0 315 226.5 539.5t539.5 224.5q328 0 546 -230.5t218 -555.5q0 -166 -66.5 -308.5t-175 -235.5t-245.5 -145.5t-279 -52.5q-213 0 -390 108.5t-275.5 283.5t-98.5 372zM162 735q0 -279 203.5 -489.5t498.5 -210.5q178 0 337 81t263.5 239.5t104.5 361.5 q0 301 -201 511t-502 210q-291 0 -497.5 -206t-206.5 -497zM582 227v936q0 35 24 35h285q168 0 241.5 -57.5t73.5 -218.5q0 -135 -52 -194.5t-169 -78.5l217 -397q29 -43 -16 -43q-43 0 -64 39l-223 399h-237v-403q0 -35 -25 -35q-20 0 -37.5 6t-17.5 12zM662 711h229 q147 0 188 40t41 171t-42 172t-187 41h-229v-424z" />
<glyph unicode="&#xaf;" horiz-adv-x="479" d="M2 1409q0 41 14 41h430q29 0 29 -20q0 -39 -16 -39h-430q-27 0 -27 18z" />
<glyph unicode="&#xb0;" horiz-adv-x="851" d="M158 1243q0 109 79.5 186.5t188.5 77.5t188.5 -78.5t79.5 -187.5q0 -111 -79.5 -188.5t-188.5 -77.5t-188.5 78.5t-79.5 189.5zM211 1245q0 -94 62.5 -156.5t154.5 -62.5q88 0 150.5 61.5t62.5 149.5t-61.5 153.5t-149.5 65.5q-92 0 -155.5 -60.5t-63.5 -150.5z" />
<glyph unicode="&#xb1;" horiz-adv-x="1269" d="M137 -125q0 29 8.5 50.5t18.5 21.5h926q25 0 32 -4q14 -8 15 -29q0 -29 -8.5 -49.5t-18.5 -20.5h-924q-27 0 -34 4q-15 9 -15 27zM143 500v96h443v446h98v-446h434v-96h-434v-449h-98v449h-443z" />
<glyph unicode="&#xb2;" horiz-adv-x="180" />
<glyph unicode="&#xb3;" horiz-adv-x="0" />
<glyph unicode="&#xb4;" horiz-adv-x="421" d="M106 1444q4 10 13 22l149 248q12 23 90 0q39 -10 27 -45l-10 -14l-199 -205q-29 -35 -61 -27q-13 5 -9 21z" />
<glyph unicode="&#xb5;" horiz-adv-x="1124" d="M186 -594v1675q0 10 22.5 18.5t53.5 8.5q14 0 23.5 -11.5t11.5 -35t3 -43t-1 -49t-2 -41.5v-506q0 -61 1 -92t5 -81t13.5 -77t26.5 -55.5t45 -41t65 -12.5q152 0 264 37t112 78v903q0 10 22.5 18.5t53.5 8.5q35 0 35 -53v-912q0 -55 -154.5 -112.5t-361.5 -57.5 q-35 0 -78 22.5t-49 59.5v-622q0 -53 -35 -54q-31 0 -53.5 8.5t-22.5 18.5z" />
<glyph unicode="&#x3bc;" horiz-adv-x="1124" d="M186 -594v1675q0 10 22.5 18.5t53.5 8.5q14 0 23.5 -11.5t11.5 -35t3 -43t-1 -49t-2 -41.5v-506q0 -61 1 -92t5 -81t13.5 -77t26.5 -55.5t45 -41t65 -12.5q152 0 264 37t112 78v903q0 10 22.5 18.5t53.5 8.5q35 0 35 -53v-912q0 -55 -154.5 -112.5t-361.5 -57.5 q-35 0 -78 22.5t-49 59.5v-622q0 -53 -35 -54q-31 0 -53.5 8.5t-22.5 18.5z" />
<glyph unicode="&#xb6;" horiz-adv-x="1271" d="M139 1118q0 180 117 294t303 114h410q27 0 54.5 -8.5t27.5 -22.5v-1747q0 -43 -31 -43q-68 0 -68 25v1718h-274v-1700q0 -43 -31 -43q-68 0 -67 25v983q-197 0 -319 111.5t-122 293.5z" />
<glyph unicode="&#xb7;" horiz-adv-x="591" d="M213 514v141q0 10 22.5 18.5t53.5 8.5q35 0 35 -53v-88q0 -53 -35 -54q-31 0 -53.5 8.5t-22.5 18.5z" />
<glyph unicode="&#xb8;" horiz-adv-x="374" d="M-51 -328q2 6 22 0q72 -29 125 -28q57 0 96 27.5t39 82.5q0 37 -37.5 69t-109.5 32q-27 0 -33 5t2 25l66 140l57 -5l-47 -112q84 -4 132 -44t48 -95q0 -86 -58 -135.5t-138 -49.5q-98 0 -156 56q-14 14 -8 32z" />
<glyph unicode="&#xb9;" horiz-adv-x="716" />
<glyph unicode="&#xba;" horiz-adv-x="778" d="M78 1214q0 147 84 235.5t229 88.5q143 0 226 -88t83 -236q0 -150 -82.5 -238.5t-226.5 -88.5q-147 0 -230 87.5t-83 239.5zM145 1212q0 -285 244 -284q242 0 242 286q0 285 -242 285q-244 0 -244 -287z" />
<glyph unicode="&#xbb;" horiz-adv-x="1009" d="M111 215q0 12 10 25l266 354l-266 354q-10 12 -10 25q0 8 18 26.5t24.5 18.5t24.5 -21l328 -403l-328 -404q-18 -20 -24.5 -20t-24.5 18.5t-18 26.5zM496 215q0 12 10 25l266 354l-266 354q-10 12 -10 25q0 8 18 26.5t24.5 18.5t24.5 -21l328 -403l-328 -404 q-18 -20 -24.5 -20t-24.5 18.5t-18 26.5z" />
<glyph unicode="&#xbc;" horiz-adv-x="2217" d="M4 1356q0 12 26.5 38.5t78 68.5t63.5 53q6 6 19.5 21t22.5 21.5t39 12.5t75 6q33 0 32 -29v-1081q-4 -39 -34.5 -39t-57 8t-26.5 19v981l-154 -136q-2 -2 -10 -2q-18 0 -46 14.5t-28 43.5zM475 23l866 1581q14 20 72 -11q27 -16 4 -57l-844 -1534q-23 -41 -49 -29 q-59 36 -49 50zM1348 291q0 23 8 43q4 10 55 84l473 665q6 8 37 17q25 6 41 6q33 0 33 -49v-701h96q47 0 47 -30q0 -27 -8 -46.5t-16 -19.5h-119v-260q0 -25 -33 -25q-29 0 -53.5 8.5t-24.5 16.5v260h-491q-45 0 -45 31zM1466 356h418v590z" />
<glyph unicode="&#xbd;" horiz-adv-x="2105" d="M4 1356q0 8 8 20q29 45 154 140q6 6 19.5 17t21.5 17t20.5 13.5t24.5 9.5q33 4 76 4q12 0 20 -6t10 -18.5t3 -22.5t0 -28.5t-1 -24.5v-1010q-4 -39 -34.5 -39t-57 8t-26.5 19v981l-154 -136q-2 -2 -10 -2q-18 0 -46 14.5t-28 43.5zM389 -33l866 1581q14 20 72 -10 q27 -16 4 -57l-844 -1534q-23 -41 -49 -29q-59 35 -49 49zM1352 29q0 43 22 65q342 389 434.5 523.5t92.5 218.5q0 53 -21 98q-45 96 -215 96q-47 0 -199 -24q-23 -4 -32 59q-2 18 7 24.5t29 10.5q115 25 193 24q160 0 260 -67.5t100 -220.5q0 -29 -6 -60 q-18 -92 -106 -206.5t-367 -432.5l-37 -43h475q43 0 43 -31q0 -63 -22 -63h-606q-45 0 -45 29z" />
<glyph unicode="&#xbe;" horiz-adv-x="2422" d="M78 461q10 63 33 59q143 -23 163 -22q45 0 68 2q256 16 256 194v43q0 100 -76 149.5t-188 49.5h-55q-10 0 -17 18q-8 25 -8 47q0 31 45 31h12q119 0 193 49t74 150v18q0 207 -269 207q-51 0 -190 -24q-18 -4 -31 59v6q0 20 37 29q113 23 194 22q379 0 379 -299v-18 q0 -74 -36.5 -145.5t-94.5 -92.5q61 -25 105.5 -100.5t44.5 -155.5v-43q0 -106 -65.5 -173.5t-154.5 -92.5t-202 -25q-68 0 -180 23q-14 2 -21.5 5t-12.5 10.5t-3 19.5zM680 23l866 1581q14 20 72 -11q27 -16 4 -57l-844 -1534q-23 -41 -49 -29q-59 36 -49 50zM1348 291 q0 23 8 43q4 10 55 84l473 665q6 8 37 17q25 6 41 6q33 0 33 -49v-701h96q47 0 47 -30q0 -27 -8 -46.5t-16 -19.5h-119v-260q0 -25 -33 -25q-29 0 -53.5 8.5t-24.5 16.5v260h-491q-45 0 -45 31zM1466 356h418v590z" />
<glyph unicode="&#xbf;" horiz-adv-x="1007" d="M193 -41q0 49 12 88q18 59 61 120.5t91.5 113t94.5 105.5t75.5 121.5t29.5 139.5q0 6 -1 25.5t-1 32t3 26.5t10 21.5t20 7.5q25 0 53 -8q23 -6 23 -17q0 -121 -8.5 -182t-43.5 -123q-25 -43 -103.5 -132t-130.5 -173t-52 -164q0 -154 74.5 -223.5t228.5 -69.5 q63 0 205 23q23 4 32 -60q2 -18 -7 -24t-30 -10q-80 -18 -200 -19q-209 0 -322.5 84t-113.5 297zM553 965v88q0 53 35 53q31 0 53.5 -8t22.5 -19v-141q0 -10 -23 -18.5t-53 -8.5q-35 1 -35 54z" />
<glyph unicode="&#xc0;" horiz-adv-x="1142" d="M59 10q0 4 3.5 15.5t3.5 15.5l444 1432q4 10 31.5 18t58.5 8q25 0 35 -31l446 -1427q0 -4 3 -15.5t3 -15.5q0 -35 -61 -35q-57 0 -76 68l-131 461h-491l-131 -461q-18 -68 -76 -68q-62 0 -62 35zM266 1892q0 25 35 39q23 10 57 11q18 0 25 -7l168 -237q14 -23 14 -33 q0 -14 -28 -14q-16 0 -43 26l-213 187q-15 24 -15 28zM358 602h430l-215 770z" />
<glyph unicode="&#xc1;" horiz-adv-x="1142" d="M59 10q0 4 3.5 15.5t3.5 15.5l444 1432q4 10 31.5 18t58.5 8q25 0 35 -31l446 -1427q0 -4 3 -15.5t3 -15.5q0 -35 -61 -35q-57 0 -76 68l-131 461h-491l-131 -461q-18 -68 -76 -68q-62 0 -62 35zM358 602h430l-215 770zM549 1677q4 10 12 23l150 248q12 23 90 0 q39 -10 26 -45l-10 -15l-199 -205q-29 -35 -61 -26q-12 4 -8 20z" />
<glyph unicode="&#xc2;" horiz-adv-x="1142" d="M59 10q0 4 3.5 15.5t3.5 15.5l444 1432q4 10 31.5 18t58.5 8q25 0 35 -31l446 -1427q0 -4 3 -15.5t3 -15.5q0 -35 -61 -35q-57 0 -76 68l-131 461h-491l-131 -461q-18 -68 -76 -68q-62 0 -62 35zM328 1728.5q2 4.5 20 22.5l213 191q10 10 18.5 10t18.5 -10l213 -191 q18 -18 20.5 -22.5t-6.5 -24.5q-12 -16 -29.5 -23.5t-23.5 -3.5l-192 170l-193 -170q-6 -4 -23.5 3.5t-29.5 23.5q-8 20 -6 24.5zM358 602h430l-215 770z" />
<glyph unicode="&#xc3;" horiz-adv-x="1142" d="M59 10q0 4 3.5 15.5t3.5 15.5l444 1432q4 10 31.5 18t58.5 8q25 0 35 -31l446 -1427q0 -4 3 -15.5t3 -15.5q0 -35 -61 -35q-57 0 -76 68l-131 461h-491l-131 -461q-18 -68 -76 -68q-62 0 -62 35zM289 1683q6 29 18 46q47 84 144 83q41 0 114.5 -35.5t118.5 -35.5 q70 0 104 57q8 12 41 4q12 -2 9 -12q-6 -29 -19 -45q-47 -84 -143 -84q-14 0 -35 4q-25 6 -90.5 37t-108.5 31q-70 0 -104 -58q-8 -12 -41 -4q-12 2 -8 12zM358 602h430l-215 770z" />
<glyph unicode="&#xc4;" horiz-adv-x="1142" d="M59 10q0 4 3.5 15.5t3.5 15.5l444 1432q4 10 31.5 18t58.5 8q25 0 35 -31l446 -1427q0 -4 3 -15.5t3 -15.5q0 -35 -61 -35q-57 0 -76 68l-131 461h-491l-131 -461q-18 -68 -76 -68q-62 0 -62 35zM340 1688v141q0 10 22.5 18t53.5 8q35 0 35 -53v-88q0 -53 -35 -53 q-31 0 -53.5 8.5t-22.5 18.5zM358 602h430l-215 770zM711 1688v141q0 10 22.5 18t52.5 8q35 0 35 -53v-88q0 -53 -35 -53q-31 0 -53 8.5t-22 18.5z" />
<glyph unicode="&#xc5;" horiz-adv-x="1142" d="M59 10q0 4 3.5 15.5t3.5 15.5l444 1432q4 10 31.5 18t58.5 8q25 0 35 -31l446 -1427q0 -4 3 -15.5t3 -15.5q0 -35 -61 -35q-57 0 -76 68l-131 461h-491l-131 -461q-18 -68 -76 -68q-62 0 -62 35zM358 602h430l-215 770zM393 1831q0 70 52.5 120t124 50t123.5 -50t52 -120 t-52 -120t-123.5 -50t-124 50t-52.5 120zM442 1831q0 -51 37 -86t90.5 -35t90 35t36.5 86t-36.5 86t-90 35t-90.5 -35t-37 -86z" />
<glyph unicode="&#xc6;" horiz-adv-x="1896" d="M70 35q0 4 6 14t8 17l807 1345q25 41 42 51.5t52 10.5h762q45 0 45 -31q0 -27 -8 -47.5t-17 -20.5h-698v-575h637q45 0 45 -31q0 -27 -8 -47.5t-17 -20.5h-657v-602h678q45 0 45 -30q0 -27 -8 -47.5t-17 -20.5h-735q-27 0 -54.5 8t-27.5 21v475h-485l-250 -436 q-37 -68 -94 -68q-31 0 -43 9.5t-8 25.5zM524 602h426v748z" />
<glyph unicode="&#xc7;" horiz-adv-x="1093" d="M123 516v440q0 297 132 419t419 122h18q106 0 197.5 -12t91.5 -39q0 -18 -6 -36.5t-14.5 -28t-12.5 -9.5q-123 29 -256 29q-121 0 -201.5 -21.5t-128 -55.5t-72 -104.5t-30.5 -142t-6 -194.5v-293q0 -119 6 -189.5t29.5 -142.5t68.5 -106.5t123 -57t193 -22.5 q154 0 274 28q4 0 12.5 -9t14.5 -27.5t6 -36.5q0 -27 -91 -39.5t-198 -12.5h-37l-39 -92q84 -4 132.5 -44t48.5 -95q0 -86 -58.5 -135t-138.5 -49q-98 0 -156 55q-14 14 -8 33q2 6 23 0q72 -29 125 -29q57 0 96 27.5t39 83.5q0 37 -38 68.5t-110 31.5q-27 0 -33 5t3 26 l55 116q-246 14 -359.5 138.5t-113.5 400.5z" />
<glyph unicode="&#xc8;" horiz-adv-x="1099" d="M154 29v1390q0 53 34 54h762q45 0 45 -31q0 -27 -8 -47.5t-16 -20.5h-699v-575h637q45 0 45 -31q0 -27 -8 -47.5t-16 -20.5h-658v-602h678q45 0 45 -30q0 -27 -8 -47.5t-16 -20.5h-735q-27 0 -54.5 8.5t-27.5 20.5zM328 1892q0 25 34 39q23 10 58 11q18 0 24 -7l168 -237 q14 -23 15 -33q0 -14 -29 -14q-16 0 -43 26l-213 187q-14 24 -14 28z" />
<glyph unicode="&#xc9;" horiz-adv-x="1099" d="M154 29v1390q0 53 34 54h762q45 0 45 -31q0 -27 -8 -47.5t-16 -20.5h-699v-575h637q45 0 45 -31q0 -27 -8 -47.5t-16 -20.5h-658v-602h678q45 0 45 -30q0 -27 -8 -47.5t-16 -20.5h-735q-27 0 -54.5 8.5t-27.5 20.5zM608 1677q4 10 13 23l149 248q12 23 90 0 q39 -10 27 -45l-10 -15l-199 -205q-29 -35 -62 -26q-12 4 -8 20z" />
<glyph unicode="&#xca;" horiz-adv-x="1099" d="M154 29v1390q0 53 34 54h762q45 0 45 -31q0 -27 -8 -47.5t-16 -20.5h-699v-575h637q45 0 45 -31q0 -27 -8 -47.5t-16 -20.5h-658v-602h678q45 0 45 -30q0 -27 -8 -47.5t-16 -20.5h-735q-27 0 -54.5 8.5t-27.5 20.5zM379 1728.5q2 4.5 20 22.5l213 191q10 10 18.5 10 t18.5 -10l213 -191q18 -18 20.5 -22.5t-5.5 -24.5q-12 -16 -30 -23.5t-24 -3.5l-192 170l-193 -170q-6 -4 -23.5 3.5t-29.5 23.5q-8 20 -6 24.5z" />
<glyph unicode="&#xcb;" horiz-adv-x="1099" d="M154 29v1390q0 53 34 54h762q45 0 45 -31q0 -27 -8 -47.5t-16 -20.5h-699v-575h637q45 0 45 -31q0 -27 -8 -47.5t-16 -20.5h-658v-602h678q45 0 45 -30q0 -27 -8 -47.5t-16 -20.5h-735q-27 0 -54.5 8.5t-27.5 20.5zM375 1688v141q0 10 22.5 18t53.5 8q35 0 34 -53v-88 q0 -53 -34 -53q-31 0 -53.5 8.5t-22.5 18.5zM745 1688v141q0 10 23 18t53 8q35 0 35 -53v-88q0 -53 -35 -53q-31 0 -53.5 8.5t-22.5 18.5z" />
<glyph unicode="&#xcc;" horiz-adv-x="507" d="M-43 1892q0 25 35 39q23 10 57 11q18 0 25 -7l168 -237q14 -23 14 -33q0 -14 -29 -14q-16 0 -43 26l-213 187q-14 24 -14 28zM195 2v1471q0 10 26.5 18t57.5 8q35 0 34 -53v-1417q0 -53 -34 -54q-31 0 -57.5 8.5t-26.5 18.5z" />
<glyph unicode="&#xcd;" horiz-adv-x="473" d="M195 2v1471q0 10 26.5 18t57.5 8q35 0 34 -53v-1417q0 -53 -34 -54q-31 0 -57.5 8.5t-26.5 18.5zM240 1677q4 10 12 23l149 248q12 23 91 0q39 -10 26 -45l-10 -15l-199 -205q-29 -35 -61 -26q-12 4 -8 20z" />
<glyph unicode="&#xce;" horiz-adv-x="495" d="M18 1728.5q2 4.5 21 22.5l213 191q10 10 18.5 10t18.5 -10l213 -191q18 -18 20 -22.5t-6 -24.5q-12 -16 -29.5 -23.5t-23.5 -3.5l-193 170l-192 -170q-6 -4 -23.5 3.5t-29.5 23.5q-9 20 -7 24.5zM195 2v1471q0 10 26.5 18t57.5 8q35 0 34 -53v-1417q0 -53 -34 -54 q-31 0 -57.5 8.5t-26.5 18.5z" />
<glyph unicode="&#xcf;" horiz-adv-x="526" d="M12 1688v141q0 10 22.5 18t53.5 8q35 0 35 -53v-88q0 -53 -35 -53q-31 0 -53.5 8.5t-22.5 18.5zM195 2v1471q0 10 26.5 18t57.5 8q35 0 34 -53v-1417q0 -53 -34 -54q-31 0 -57.5 8.5t-26.5 18.5zM383 1688v141q0 10 22.5 18t53.5 8q35 0 35 -53v-88q0 -53 -35 -53 q-31 0 -53.5 8.5t-22.5 18.5z" />
<glyph unicode="&#xd0;" horiz-adv-x="1282" d="M-31 772q0 33 9.5 55.5t19.5 22.5h156v569q0 53 34 54h420q289 0 420 -122t131 -421v-387q0 -299 -131 -421t-420 -122h-372q-27 0 -54.5 8t-27.5 21v708h-131q-54 0 -54 35zM272 98h336q115 0 193 21.5t123 57.5t68.5 106.5t29.5 141.5t6 189v244q0 119 -6 189.5 t-29.5 141.5t-68.5 106.5t-123 57t-193 21.5h-336v-524h140q53 0 53 -37q0 -31 -9.5 -53.5t-19.5 -22.5h-164v-639z" />
<glyph unicode="&#xd1;" horiz-adv-x="1564" d="M197 2v1444q0 53 34 53q63 0 84 -26l940 -1272v1245q0 53 35 53q31 0 57.5 -8t26.5 -18v-1444q0 -53 -35 -54q-63 0 -84 25l-940 1270v-1241q0 -53 -34 -54q-31 0 -57.5 8.5t-26.5 18.5zM512 1683q6 29 18 46q47 84 144 83q41 0 114.5 -35.5t118.5 -35.5q70 0 105 57 q8 12 41 4q12 -2 8 -12q-6 -29 -19 -45q-47 -84 -143 -84q-14 0 -35 4q-25 6 -90 37t-108 31q-70 0 -105 -58q-8 -12 -41 -4q-12 2 -8 12z" />
<glyph unicode="&#xd2;" horiz-adv-x="1363" d="M123 516v440q0 297 132 419t419 122h16q287 0 419 -122t132 -419v-440q0 -297 -132 -419t-419 -122h-16q-287 0 -419 122t-132 419zM254 590q0 -100 4 -161.5t17.5 -127t41 -102.5t74.5 -69t117 -45t166 -13h16q115 0 193 22.5t123 57t68.5 106.5t29.5 142.5t6 189.5v293 q0 119 -6 189.5t-29.5 142t-68.5 106.5t-123 57.5t-193 22.5h-16q-96 0 -166 -13.5t-117 -45t-74.5 -68.5t-41 -102.5t-17.5 -127t-4 -161.5v-293zM365 1892q0 25 34 39q23 10 58 11q18 0 24 -7l168 -237q14 -23 15 -33q0 -14 -29 -14q-16 0 -43 26l-213 187q-14 24 -14 28z " />
<glyph unicode="&#xd3;" horiz-adv-x="1363" d="M123 516v440q0 297 132 419t419 122h16q287 0 419 -122t132 -419v-440q0 -297 -132 -419t-419 -122h-16q-287 0 -419 122t-132 419zM254 590q0 -100 4 -161.5t17.5 -127t41 -102.5t74.5 -69t117 -45t166 -13h16q115 0 193 22.5t123 57t68.5 106.5t29.5 142.5t6 189.5v293 q0 119 -6 189.5t-29.5 142t-68.5 106.5t-123 57.5t-193 22.5h-16q-96 0 -166 -13.5t-117 -45t-74.5 -68.5t-41 -102.5t-17.5 -127t-4 -161.5v-293zM647 1677q4 10 12 23l150 248q12 23 90 0q39 -10 27 -45l-11 -15l-198 -205q-29 -35 -62 -26q-12 4 -8 20z" />
<glyph unicode="&#xd4;" horiz-adv-x="1363" d="M123 516v440q0 297 132 419t419 122h16q287 0 419 -122t132 -419v-440q0 -297 -132 -419t-419 -122h-16q-287 0 -419 122t-132 419zM254 590q0 -100 4 -161.5t17.5 -127t41 -102.5t74.5 -69t117 -45t166 -13h16q115 0 193 22.5t123 57t68.5 106.5t29.5 142.5t6 189.5v293 q0 119 -6 189.5t-29.5 142t-68.5 106.5t-123 57.5t-193 22.5h-16q-96 0 -166 -13.5t-117 -45t-74.5 -68.5t-41 -102.5t-17.5 -127t-4 -161.5v-293zM426 1728.5q2 4.5 20 22.5l213 191q10 10 18.5 10t18.5 -10l213 -191q18 -18 20.5 -22.5t-5.5 -24.5q-12 -16 -29.5 -23.5 t-24.5 -3.5l-192 170l-193 -170q-6 -4 -23.5 3.5t-29.5 23.5q-8 20 -6 24.5z" />
<glyph unicode="&#xd5;" horiz-adv-x="1363" d="M123 516v440q0 297 132 419t419 122h16q287 0 419 -122t132 -419v-440q0 -297 -132 -419t-419 -122h-16q-287 0 -419 122t-132 419zM254 590q0 -100 4 -161.5t17.5 -127t41 -102.5t74.5 -69t117 -45t166 -13h16q115 0 193 22.5t123 57t68.5 106.5t29.5 142.5t6 189.5v293 q0 119 -6 189.5t-29.5 142t-68.5 106.5t-123 57.5t-193 22.5h-16q-96 0 -166 -13.5t-117 -45t-74.5 -68.5t-41 -102.5t-17.5 -127t-4 -161.5v-293zM387 1683q6 29 19 46q47 84 143 83q41 0 114.5 -35.5t118.5 -35.5q70 0 105 57q8 12 41 4q12 -2 8 -12q-6 -29 -18 -45 q-47 -84 -144 -84q-14 0 -35 4q-25 6 -90 37t-108 31q-70 0 -105 -58q-8 -12 -41 -4q-12 2 -8 12z" />
<glyph unicode="&#xd6;" horiz-adv-x="1363" d="M123 516v440q0 297 132 419t419 122h16q287 0 419 -122t132 -419v-440q0 -297 -132 -419t-419 -122h-16q-287 0 -419 122t-132 419zM254 590q0 -100 4 -161.5t17.5 -127t41 -102.5t74.5 -69t117 -45t166 -13h16q115 0 193 22.5t123 57t68.5 106.5t29.5 142.5t6 189.5v293 q0 119 -6 189.5t-29.5 142t-68.5 106.5t-123 57.5t-193 22.5h-16q-96 0 -166 -13.5t-117 -45t-74.5 -68.5t-41 -102.5t-17.5 -127t-4 -161.5v-293zM438 1688v141q0 10 22.5 18t53.5 8q35 0 35 -53v-88q0 -53 -35 -53q-31 0 -53.5 8.5t-22.5 18.5zM809 1688v141q0 10 22.5 18 t53.5 8q35 0 35 -53v-88q0 -53 -35 -53q-31 0 -53.5 8.5t-22.5 18.5z" />
<glyph unicode="&#xd7;" horiz-adv-x="1294" d="M188 150l396 395l-391 397l59 59l395 -395l395 395q14 -14 33 -30.5t31 -28.5l-395 -397l391 -393q-16 -12 -32.5 -32t-29.5 -30l-393 395l-395 -395q-14 16 -34 33t-30 27z" />
<glyph unicode="&#xd8;" horiz-adv-x="1372" d="M127 516v440q0 297 132 419t419 122h16q100 0 193 -16l33 86q16 43 51 24q51 -27 51 -35q2 -2 0 -6l-37 -96q260 -100 260 -498v-440q0 -297 -132 -419t-419 -122h-16q-127 0 -238 27l-41 -108q-16 -47 -45 -35q-27 10 -43 24.5t-12 22.5l47 129q-219 108 -219 481z M258 590q0 -195 23.5 -298.5t101.5 -156.5l469 1254q-68 12 -158 12h-16q-96 0 -166 -13.5t-117 -45t-74.5 -68.5t-41 -102.5t-17.5 -127t-4 -161.5v-293zM475 94q74 -23 203 -22h16q115 0 193 22.5t123 57t68.5 106.5t29.5 142.5t6 189.5v293q0 211 -30.5 318.5 t-133.5 156.5z" />
<glyph unicode="&#xd9;" horiz-adv-x="1404" d="M143 516v957q0 10 27 18t57 8q35 0 35 -53v-856q0 -117 7 -189.5t32 -142.5t72 -106.5t126 -58t195 -21.5h17q143 0 231 29.5t131 101t56.5 155.5t13.5 232v883q0 10 26.5 18t57.5 8q35 0 35 -53v-930q0 -297 -132.5 -419t-418.5 -122h-17q-287 0 -419 122t-132 419z M391 1892q0 25 35 39q23 10 57 11q18 0 25 -7l168 -237q14 -23 14 -33q0 -14 -28 -14q-16 0 -44 26l-212 187q-15 24 -15 28z" />
<glyph unicode="&#xda;" horiz-adv-x="1404" d="M143 516v957q0 10 27 18t57 8q35 0 35 -53v-856q0 -117 7 -189.5t32 -142.5t72 -106.5t126 -58t195 -21.5h17q143 0 231 29.5t131 101t56.5 155.5t13.5 232v883q0 10 26.5 18t57.5 8q35 0 35 -53v-930q0 -297 -132.5 -419t-418.5 -122h-17q-287 0 -419 122t-132 419z M674 1677q4 10 12 23l150 248q12 23 90 0q39 -10 26 -45l-10 -15l-199 -205q-29 -35 -61 -26q-12 4 -8 20z" />
<glyph unicode="&#xdb;" horiz-adv-x="1404" d="M143 516v957q0 10 27 18t57 8q35 0 35 -53v-856q0 -117 7 -189.5t32 -142.5t72 -106.5t126 -58t195 -21.5h17q143 0 231 29.5t131 101t56.5 155.5t13.5 232v883q0 10 26.5 18t57.5 8q35 0 35 -53v-930q0 -297 -132.5 -419t-418.5 -122h-17q-287 0 -419 122t-132 419z M453 1728.5q2 4.5 20 22.5l213 191q10 10 18.5 10t18.5 -10l213 -191q18 -18 20 -22.5t-6 -24.5q-12 -16 -29.5 -23.5t-23.5 -3.5l-192 170l-193 -170q-6 -4 -23.5 3.5t-29.5 23.5q-8 20 -6 24.5z" />
<glyph unicode="&#xdc;" horiz-adv-x="1404" d="M143 516v957q0 10 27 18t57 8q35 0 35 -53v-856q0 -117 7 -189.5t32 -142.5t72 -106.5t126 -58t195 -21.5h17q143 0 231 29.5t131 101t56.5 155.5t13.5 232v883q0 10 26.5 18t57.5 8q35 0 35 -53v-930q0 -297 -132.5 -419t-418.5 -122h-17q-287 0 -419 122t-132 419z M465 1688v141q0 10 22.5 18t53.5 8q35 0 34 -53v-88q0 -53 -34 -53q-31 0 -53.5 8.5t-22.5 18.5zM836 1688v141q0 10 22.5 18t52.5 8q35 0 35 -53v-88q0 -53 -35 -53q-31 0 -53 8.5t-22 18.5z" />
<glyph unicode="&#xdd;" horiz-adv-x="1116" d="M68 1442q-29 57 24 57q43 0 61.5 -11t34.5 -40l371 -758l367 758q16 29 35.5 40t62.5 11q53 0 25 -57l-431 -848v-565q0 -53 -34 -54q-31 0 -57.5 8.5t-26.5 18.5v592zM543 1677q4 10 12 23l150 248q12 23 90 0q39 -10 26 -45l-10 -15l-199 -205q-29 -35 -61 -26 q-12 4 -8 20z" />
<glyph unicode="&#xde;" horiz-adv-x="1181" d="M154 2v1471q0 10 26.5 18t57.5 8q35 0 34 -53v-277h349q256 0 367.5 -86t111.5 -331q0 -123 -28 -205t-88 -128t-140 -64.5t-201 -20.5h-371v-305q0 -53 -34 -54q-31 0 -57.5 8.5t-26.5 18.5zM272 432h349q223 0 285.5 60.5t62.5 259t-62.5 259t-285.5 60.5h-349v-639z " />
<glyph unicode="&#xdf;" horiz-adv-x="1169" d="M154 4v1104q0 190 120.5 288.5t274.5 98.5q172 0 280.5 -102.5t110.5 -290.5q0 -104 -60.5 -195.5t-152.5 -140.5q131 -51 256 -154.5t125 -226.5q-4 -385 -524 -385h-70q-47 0 -47 31q0 68 25 67h98q178 0 286.5 69t108.5 218q0 78 -59.5 140.5t-131 93t-131 67.5 t-59.5 72t33 67.5t73 60t72.5 86t32.5 136.5q0 123 -78 207q-76 80 -184 80q-106 0 -191.5 -73t-85.5 -214v-1075q0 -57 -38 -58q-33 0 -58.5 9.5t-25.5 19.5z" />
<glyph unicode="&#xe0;" horiz-adv-x="974" d="M92 281q0 70 7 117.5t30 96t71 73t124 24.5q252 0 405 -70q0 299 -54 397.5t-233 98.5q-47 0 -139 -14l-72 -13q-23 -4 -32 60q-2 18 7 24t30 10l40 9q86 14 197 14q180 0 274.5 -103.5t94.5 -289.5v-633q0 -53 -205 -81t-311 -28q-133 0 -183.5 77t-50.5 231zM160 1524 q0 25 35 39q23 10 57 10q18 0 24 -6l168 -238q14 -23 15 -33q0 -14 -29 -14q-16 0 -43 27l-213 186q-14 25 -14 29zM207 299q0 -117 31.5 -176.5t117.5 -59.5q137 0 237.5 19.5t135.5 44.5v291q-35 33 -136 58.5t-239 25.5q-147 0 -147 -203z" />
<glyph unicode="&#xe1;" horiz-adv-x="974" d="M92 281q0 70 7 117.5t30 96t71 73t124 24.5q252 0 405 -70q0 299 -54 397.5t-233 98.5q-47 0 -139 -14l-72 -13q-23 -4 -32 60q-2 18 7 24t30 10l40 9q86 14 197 14q180 0 274.5 -103.5t94.5 -289.5v-633q0 -53 -205 -81t-311 -28q-133 0 -183.5 77t-50.5 231zM207 299 q0 -117 31.5 -176.5t117.5 -59.5q137 0 237.5 19.5t135.5 44.5v291q-35 33 -136 58.5t-239 25.5q-147 0 -147 -203zM442 1309q4 10 13 22l149 248q12 23 90 0q39 -10 27 -45l-10 -14l-199 -205q-29 -35 -61 -27q-13 5 -9 21z" />
<glyph unicode="&#xe2;" horiz-adv-x="974" d="M92 281q0 70 7 117.5t30 96t71 73t124 24.5q252 0 405 -70q0 299 -54 397.5t-233 98.5q-47 0 -139 -14l-72 -13q-23 -4 -32 60q-2 18 7 24t30 10l40 9q86 14 197 14q180 0 274.5 -103.5t94.5 -289.5v-633q0 -53 -205 -81t-311 -28q-133 0 -183.5 77t-50.5 231zM207 299 q0 -117 31.5 -176.5t117.5 -59.5q137 0 237.5 19.5t135.5 44.5v291q-35 33 -136 58.5t-239 25.5q-147 0 -147 -203zM221 1360q2 4 21 22l213 191q10 10 18 10t19 -10l213 -191q18 -18 20 -22t-6 -25q-12 -16 -29.5 -23t-23.5 -3l-193 170l-192 -170q-6 -4 -23.5 3t-30.5 23 q-8 21 -6 25z" />
<glyph unicode="&#xe3;" horiz-adv-x="974" d="M92 281q0 70 7 117.5t30 96t71 73t124 24.5q252 0 405 -70q0 299 -54 397.5t-233 98.5q-47 0 -139 -14l-72 -13q-23 -4 -32 60q-2 18 7 24t30 10l40 9q86 14 197 14q180 0 274.5 -103.5t94.5 -289.5v-633q0 -53 -205 -81t-311 -28q-133 0 -183.5 77t-50.5 231zM182 1315 q6 29 19 45q47 84 143 84q41 0 114.5 -36t119.5 -36q70 0 104 58q8 12 41 4q12 -2 8 -13q-6 -29 -18 -45q-47 -84 -144 -84q-14 0 -34 4q-25 6 -90.5 37t-108.5 31q-70 0 -105 -57q-8 -12 -41 -4q-12 2 -8 12zM207 299q0 -117 31.5 -176.5t117.5 -59.5q137 0 237.5 19.5 t135.5 44.5v291q-35 33 -136 58.5t-239 25.5q-147 0 -147 -203z" />
<glyph unicode="&#xe4;" horiz-adv-x="974" d="M92 281q0 70 7 117.5t30 96t71 73t124 24.5q252 0 405 -70q0 299 -54 397.5t-233 98.5q-47 0 -139 -14l-72 -13q-23 -4 -32 60q-2 18 7 24t30 10l40 9q86 14 197 14q180 0 274.5 -103.5t94.5 -289.5v-633q0 -53 -205 -81t-311 -28q-133 0 -183.5 77t-50.5 231zM207 299 q0 -117 31.5 -176.5t117.5 -59.5q137 0 237.5 19.5t135.5 44.5v291q-35 33 -136 58.5t-239 25.5q-147 0 -147 -203zM233 1319v141q0 10 23 18.5t53 8.5q35 0 35 -53v-88q0 -53 -35 -54q-31 0 -53.5 8.5t-22.5 18.5zM604 1319v141q0 10 22.5 18.5t53.5 8.5q35 0 35 -53v-88 q0 -53 -35 -54q-31 0 -53.5 8.5t-22.5 18.5z" />
<glyph unicode="&#xe5;" horiz-adv-x="974" d="M92 281q0 70 7 117.5t30 96t71 73t124 24.5q252 0 405 -70q0 299 -54 397.5t-233 98.5q-47 0 -139 -14l-72 -13q-23 -4 -32 60q-2 18 7 24t30 10l40 9q86 14 197 14q180 0 274.5 -103.5t94.5 -289.5v-633q0 -53 -205 -81t-311 -28q-133 0 -183.5 77t-50.5 231zM207 299 q0 -117 31.5 -176.5t117.5 -59.5q137 0 237.5 19.5t135.5 44.5v291q-35 33 -136 58.5t-239 25.5q-147 0 -147 -203zM287 1462.5q0 69.5 52 119.5t124 50t124 -50t52 -119.5t-52 -120t-124 -50.5t-124 50.5t-52 120zM336 1462q0 -51 37 -86t90 -35t90 35t37 86t-37 86t-90 35 t-90 -35t-37 -86z" />
<glyph unicode="&#xe6;" horiz-adv-x="1576" d="M92 281q0 70 7 117.5t30 96t71 73t124 24.5q37 0 110 -4q184 -14 295 -66q0 217 -25.5 321.5t-99.5 143.5q-61 31 -162 31q-47 0 -139 -14l-72 -13q-23 -4 -32 60q-8 57 274 57q227 0 318 -164q43 96 129 130t241 34q98 0 161.5 -24.5t93.5 -72.5t39 -96.5t9 -119.5v-127 q0 -23 -12 -40.5t-51 -36t-105.5 -29.5t-181.5 -19t-270 -8q0 -199 32.5 -306.5t143.5 -148.5q49 -16 106 -17q72 0 250 29q23 4 33 -59q8 -59 -283 -60q-188 0 -288 101q-39 -39 -149.5 -63.5t-191.5 -31t-132 -6.5q-160 0 -216.5 70t-56.5 238zM207 299 q0 -117 31.5 -176.5t117.5 -59.5q137 0 237.5 19.5t135.5 44.5v291q-37 31 -139.5 57.5t-235.5 26.5q-147 0 -147 -203zM844 625q510 0 510 92v90q0 100 -50.5 155.5t-146.5 55.5q-182 0 -247.5 -78.5t-65.5 -314.5z" />
<glyph unicode="&#xe7;" horiz-adv-x="839" d="M123 387v307q0 414 369 414q143 0 245 -25q14 -2 21.5 -5t12.5 -10t3 -19q-10 -63 -33 -60q-178 29 -249 29q-147 0 -201.5 -98.5t-54.5 -284.5v-189q0 -186 54 -284.5t202 -98.5q72 0 249 29q23 4 33 -59q2 -18 -7 -24.5t-30 -10.5q-102 -25 -245 -25h-19l-14 -34 q84 -4 132 -44t48 -96q0 -86 -58.5 -135t-138.5 -49q-98 0 -155 55q-14 14 -8 33q2 6 22 0q72 -29 125 -29q57 0 96 28t39 83q0 37 -38 68.5t-109 31.5q-27 0 -33 5.5t2 25.5l29 64q-289 38 -289 407z" />
<glyph unicode="&#xe8;" horiz-adv-x="966" d="M123 387v145q0 190 21.5 303t76.5 174.5t129 80t201 18.5q98 0 161.5 -24.5t93.5 -72.5t39 -96.5t9 -119.5v-127q0 -23 -12.5 -40.5t-51 -36t-105.5 -29.5t-181.5 -19t-270.5 -8q0 -90 5.5 -151.5t21.5 -127.5t46 -103.5t83 -63.5t127 -26q72 0 250 29q23 4 33 -59 q2 -18 -7.5 -24.5t-29.5 -10.5q-102 -25 -246 -25q-195 0 -294 106.5t-99 307.5zM209 1524q0 25 35 39q23 10 57 10q18 0 25 -6l168 -238q14 -23 14 -33q0 -14 -29 -14q-16 0 -43 27l-213 186q-14 25 -14 29zM233 625q510 0 510 92v90q0 211 -196 211q-182 0 -248 -78.5 t-66 -314.5z" />
<glyph unicode="&#xe9;" horiz-adv-x="966" d="M123 387v145q0 190 21.5 303t76.5 174.5t129 80t201 18.5q98 0 161.5 -24.5t93.5 -72.5t39 -96.5t9 -119.5v-127q0 -23 -12.5 -40.5t-51 -36t-105.5 -29.5t-181.5 -19t-270.5 -8q0 -90 5.5 -151.5t21.5 -127.5t46 -103.5t83 -63.5t127 -26q72 0 250 29q23 4 33 -59 q2 -18 -7.5 -24.5t-29.5 -10.5q-102 -25 -246 -25q-195 0 -294 106.5t-99 307.5zM233 625q510 0 510 92v90q0 211 -196 211q-182 0 -248 -78.5t-66 -314.5zM492 1309q4 10 12 22l149 248q12 23 90 0q39 -10 27 -45l-10 -14l-199 -205q-29 -35 -61 -27q-12 5 -8 21z" />
<glyph unicode="&#xea;" horiz-adv-x="966" d="M123 387v145q0 190 21.5 303t76.5 174.5t129 80t201 18.5q98 0 161.5 -24.5t93.5 -72.5t39 -96.5t9 -119.5v-127q0 -23 -12.5 -40.5t-51 -36t-105.5 -29.5t-181.5 -19t-270.5 -8q0 -90 5.5 -151.5t21.5 -127.5t46 -103.5t83 -63.5t127 -26q72 0 250 29q23 4 33 -59 q2 -18 -7.5 -24.5t-29.5 -10.5q-102 -25 -246 -25q-195 0 -294 106.5t-99 307.5zM233 625q510 0 510 92v90q0 211 -196 211q-182 0 -248 -78.5t-66 -314.5zM270 1360q2 4 21 22l213 191q10 10 18 10t19 -10l213 -191q18 -18 20 -22t-6 -25q-12 -16 -29.5 -23t-23.5 -3 l-193 170l-192 -170q-6 -4 -23.5 3t-30.5 23q-8 21 -6 25z" />
<glyph unicode="&#xeb;" horiz-adv-x="966" d="M123 387v145q0 190 21.5 303t76.5 174.5t129 80t201 18.5q98 0 161.5 -24.5t93.5 -72.5t39 -96.5t9 -119.5v-127q0 -23 -12.5 -40.5t-51 -36t-105.5 -29.5t-181.5 -19t-270.5 -8q0 -90 5.5 -151.5t21.5 -127.5t46 -103.5t83 -63.5t127 -26q72 0 250 29q23 4 33 -59 q2 -18 -7.5 -24.5t-29.5 -10.5q-102 -25 -246 -25q-195 0 -294 106.5t-99 307.5zM233 625q510 0 510 92v90q0 211 -196 211q-182 0 -248 -78.5t-66 -314.5zM283 1319v141q0 10 22.5 18.5t52.5 8.5q35 0 35 -53v-88q0 -53 -35 -54q-31 0 -53 8.5t-22 18.5zM653 1319v141 q0 10 22.5 18.5t53.5 8.5q35 0 35 -53v-88q0 -53 -35 -54q-31 0 -53.5 8.5t-22.5 18.5z" />
<glyph unicode="&#xec;" horiz-adv-x="542" d="M-74 1524q0 25 35 39q23 10 57 10q18 0 25 -6l168 -238q14 -23 14 -33q0 -14 -28 -14q-16 0 -43 27l-213 186q-15 25 -15 29zM172 223v858q0 10 22.5 18.5t53.5 8.5q35 0 35 -53v-760q0 -156 43 -200t168 -7q12 4 20 4q23 4 33 -59q4 -18 -31 -31q-2 -2 -4 -2 q-68 -25 -147 -25q-193 0 -193 248z" />
<glyph unicode="&#xed;" horiz-adv-x="516" d="M172 223v858q0 10 22.5 18.5t53.5 8.5q35 0 35 -53v-760q0 -156 43 -200t168 -7q12 4 20 4q23 4 33 -59q4 -18 -31 -31q-2 -2 -4 -2q-68 -25 -147 -25q-193 0 -193 248zM209 1309q4 10 12 22l150 248q12 23 90 0q39 -10 26 -45l-10 -14l-198 -205q-29 -35 -62 -27 q-12 5 -8 21z" />
<glyph unicode="&#xee;" horiz-adv-x="538" d="M-12 1360q2 4 20 22l213 191q10 10 18.5 10t18.5 -10l213 -191q18 -18 20.5 -22t-6.5 -25q-12 -16 -29.5 -23t-23.5 -3l-192 170l-193 -170q-6 -4 -23.5 3t-29.5 23q-8 21 -6 25zM172 223v858q0 10 22.5 18.5t53.5 8.5q35 0 35 -53v-760q0 -156 43 -200t168 -7q12 4 20 4 q23 4 33 -59q4 -18 -31 -31q-2 -2 -4 -2q-68 -25 -147 -25q-193 0 -193 248z" />
<glyph unicode="&#xef;" horiz-adv-x="542" d="M0 1319v141q0 10 22.5 18.5t53.5 8.5q35 0 35 -53v-88q0 -53 -35 -54q-31 0 -53.5 8.5t-22.5 18.5zM172 223v858q0 10 22.5 18.5t53.5 8.5q35 0 35 -53v-760q0 -156 43 -200t168 -7q12 4 20 4q23 4 33 -59q4 -18 -31 -31q-2 -2 -4 -2q-68 -25 -147 -25q-193 0 -193 248z M371 1319v141q0 10 22.5 18.5t52.5 8.5q35 0 35 -53v-88q0 -53 -35 -54q-31 0 -53 8.5t-22 18.5z" />
<glyph unicode="&#xf0;" horiz-adv-x="1191" d="M102 453v8q0 262 117 370.5t369 108.5q168 0 303 -80q-119 227 -307 387l-111 -110q-39 -39 -61 -15q-55 55 -35 76l117 117q-61 43 -121 76q-23 8 -23 22q0 16 4 32.5t18.5 32t39.5 -0.5q94 -47 155 -88l101 102q39 37 63 12q23 -23 32 -45t3 -28l-107 -107 q201 -158 316 -379t115 -483v-8q0 -266 -115 -373t-373 -107h-14q-252 0 -369 109t-117 371zM236 442.5q0 -106.5 12 -169t49 -111.5t106.5 -68.5t184.5 -19.5h14q117 0 187.5 19.5t107.5 68.5t48 112.5t11 171.5q0 213 -67.5 304.5t-286.5 91.5h-14q-113 0 -184.5 -24.5 t-107.5 -80t-48 -122t-12 -173z" />
<glyph unicode="&#xf1;" d="M141 2v926q0 63 154 121.5t364 58.5q66 0 112 -20.5t70.5 -50t38 -83t16.5 -97.5t3 -116v-712q0 -53 -35 -54q-31 0 -54.5 8.5t-23.5 18.5v682q0 84 -4 133t-18 101.5t-47 76t-86 23.5q-150 0 -263.5 -39t-113.5 -80v-870q0 -53 -35 -54q-31 0 -54.5 8.5t-23.5 18.5z M248 1415q6 29 18 45q47 84 144 84q41 0 114.5 -35.5t118.5 -35.5q70 0 105 57q8 12 40 4q12 -2 9 -12q-6 -29 -19 -45q-47 -84 -143 -84q-14 0 -35 4q-25 6 -90.5 36.5t-108.5 30.5q-70 0 -104 -57q-8 -12 -41 -4q-12 2 -8 12z" />
<glyph unicode="&#xf2;" horiz-adv-x="1005" d="M123 365v352q0 391 381 391q379 0 379 -391v-352q0 -391 -379 -392q-381 1 -381 392zM186 1524q0 25 35 39q23 10 58 10q18 0 24 -6l168 -238q14 -23 14 -33q0 -14 -28 -14q-16 0 -43 27l-213 186q-15 25 -15 29zM236 424q0 -186 52 -273.5t216 -87.5t215 87.5t51 273.5 v233q0 186 -51 273.5t-215 87.5t-216 -87t-52 -274v-233z" />
<glyph unicode="&#xf3;" horiz-adv-x="1005" d="M123 365v352q0 391 381 391q379 0 379 -391v-352q0 -391 -379 -392q-381 1 -381 392zM236 424q0 -186 52 -273.5t216 -87.5t215 87.5t51 273.5v233q0 186 -51 273.5t-215 87.5t-216 -87t-52 -274v-233zM469 1309q4 10 12 22l150 248q12 23 90 0q39 -10 27 -45l-11 -14 l-198 -205q-29 -35 -62 -27q-12 5 -8 21z" />
<glyph unicode="&#xf4;" horiz-adv-x="1005" d="M123 365v352q0 391 381 391q379 0 379 -391v-352q0 -391 -379 -392q-381 1 -381 392zM236 424q0 -186 52 -273.5t216 -87.5t215 87.5t51 273.5v233q0 186 -51 273.5t-215 87.5t-216 -87t-52 -274v-233zM248 1360q2 4 20 22l213 191q10 10 18.5 10t18.5 -10l213 -191 q18 -18 20.5 -22t-6.5 -25q-12 -16 -29.5 -23t-23.5 -3l-192 170l-193 -170q-6 -4 -23.5 3t-29.5 23q-8 21 -6 25z" />
<glyph unicode="&#xf5;" horiz-adv-x="1005" d="M123 365v352q0 391 381 391q379 0 379 -391v-352q0 -391 -379 -392q-381 1 -381 392zM209 1315q6 29 18 45q47 84 144 84q41 0 114.5 -36t118.5 -36q70 0 105 58q8 12 41 4q12 -2 8 -13q-6 -29 -19 -45q-47 -84 -143 -84q-14 0 -35 4q-25 6 -90 37t-109 31 q-70 0 -104 -57q-8 -12 -41 -4q-12 2 -8 12zM236 424q0 -186 52 -273.5t216 -87.5t215 87.5t51 273.5v233q0 186 -51 273.5t-215 87.5t-216 -87t-52 -274v-233z" />
<glyph unicode="&#xf6;" horiz-adv-x="1005" d="M123 365v352q0 391 381 391q379 0 379 -391v-352q0 -391 -379 -392q-381 1 -381 392zM236 424q0 -186 52 -273.5t216 -87.5t215 87.5t51 273.5v233q0 186 -51 273.5t-215 87.5t-216 -87t-52 -274v-233zM260 1319v141q0 10 22.5 18.5t53.5 8.5q35 0 35 -53v-88 q0 -53 -35 -54q-31 0 -53.5 8.5t-22.5 18.5zM631 1319v141q0 10 22.5 18.5t53.5 8.5q35 0 34 -53v-88q0 -53 -34 -54q-31 0 -53.5 8.5t-22.5 18.5z" />
<glyph unicode="&#xf7;" horiz-adv-x="993" d="M41 539q0 33 9 55t20 22h829q53 0 53 -36q0 -31 -9 -53.5t-19 -22.5h-830q-53 0 -53 35zM436 27v141q0 10 22.5 18.5t53.5 8.5q35 0 35 -54v-88q0 -53 -35 -53q-31 0 -53.5 8.5t-22.5 18.5zM436 940v141q0 10 22.5 18.5t53.5 8.5q35 0 35 -53v-88q0 -53 -35 -54 q-31 0 -53.5 8.5t-22.5 18.5z" />
<glyph unicode="&#xf8;" horiz-adv-x="999" d="M125 -297l129 344q-123 94 -123 318v352q0 391 381 391q66 0 133 -14l100 270q8 18 19 27q18 8 38.5 -1.5t34 -24.5t11.5 -17l-105 -277l-6 -14q154 -90 154 -340v-352q0 -391 -379 -392q-94 0 -170 27q-8 -23 -29.5 -92.5t-34 -106.5t-33 -80t-36.5 -61q-12 -12 -29 -4 q-27 10 -43 24.5t-12 22.5zM244 424q0 -193 51 -268l37 100l280 750q-43 12 -100 12q-164 0 -216 -87t-52 -274v-233zM373 88q55 -25 139 -25q164 0 215 87.5t51 273.5v233q0 227 -76 301l-26 -71z" />
<glyph unicode="&#xf9;" d="M141 342v713q0 53 35 53q31 0 54.5 -8t23.5 -19v-682q0 -84 4 -133t18.5 -101t47 -75.5t86.5 -23.5q150 0 263 38.5t113 79.5v871q0 53 35 53q31 0 54.5 -8t23.5 -19v-925q0 -63 -153.5 -122t-364.5 -59q-66 0 -112 20.5t-70.5 50.5t-38 83t-16.5 97t-3 116zM205 1524 q0 25 35 39q23 10 57 10q18 0 25 -6l167 -238q14 -23 15 -33q0 -14 -29 -14q-16 0 -43 27l-213 186q-14 25 -14 29z" />
<glyph unicode="&#xfa;" d="M141 342v713q0 53 35 53q31 0 54.5 -8t23.5 -19v-682q0 -84 4 -133t18.5 -101t47 -75.5t86.5 -23.5q150 0 263 38.5t113 79.5v871q0 53 35 53q31 0 54.5 -8t23.5 -19v-925q0 -63 -153.5 -122t-364.5 -59q-66 0 -112 20.5t-70.5 50.5t-38 83t-16.5 97t-3 116zM487 1309 q4 10 13 22l149 248q12 23 90 0q39 -10 27 -45l-10 -14l-199 -205q-29 -35 -61 -27q-13 5 -9 21z" />
<glyph unicode="&#xfb;" d="M141 342v713q0 53 35 53q31 0 54.5 -8t23.5 -19v-682q0 -84 4 -133t18.5 -101t47 -75.5t86.5 -23.5q150 0 263 38.5t113 79.5v871q0 53 35 53q31 0 54.5 -8t23.5 -19v-925q0 -63 -153.5 -122t-364.5 -59q-66 0 -112 20.5t-70.5 50.5t-38 83t-16.5 97t-3 116zM266 1360 q2 4 21 22l213 191q10 10 18 10t19 -10l213 -191q18 -18 20 -22t-6 -25q-12 -16 -29.5 -23t-23.5 -3l-193 170l-192 -170q-6 -4 -23.5 3t-30.5 23q-8 21 -6 25z" />
<glyph unicode="&#xfc;" d="M141 342v713q0 53 35 53q31 0 54.5 -8t23.5 -19v-682q0 -84 4 -133t18.5 -101t47 -75.5t86.5 -23.5q150 0 263 38.5t113 79.5v871q0 53 35 53q31 0 54.5 -8t23.5 -19v-925q0 -63 -153.5 -122t-364.5 -59q-66 0 -112 20.5t-70.5 50.5t-38 83t-16.5 97t-3 116zM279 1319 v141q0 10 22.5 18.5t52.5 8.5q35 0 35 -53v-88q0 -53 -35 -54q-31 0 -53 8.5t-22 18.5zM649 1319v141q0 10 22.5 18.5t53.5 8.5q35 0 35 -53v-88q0 -53 -35 -54q-31 0 -53.5 8.5t-22.5 18.5z" />
<glyph unicode="&#xfd;" horiz-adv-x="1122" d="M182 340v741q0 10 22.5 18.5t53.5 8.5q35 0 35 -47v-688q0 -156 29.5 -233t128.5 -77q143 0 255.5 34t120.5 71v913q0 10 22.5 18.5t53.5 8.5q35 0 35 -53v-1164q0 -104 -4 -165.5t-18.5 -121t-42 -88t-75.5 -46t-120 -17.5q-248 0 -453 92q-31 14 -32 25q-2 4 0 8 q10 59 32 60q8 0 21 -5q227 -90 424 -90q57 0 90 19.5t47 82t17 118t3 186.5v114q-137 -90 -407 -90q-66 0 -112 20.5t-70.5 50.5t-37 84t-15.5 97t-3 115zM532 1309q4 10 13 22l149 248q12 23 90 0q39 -10 27 -45l-10 -14l-199 -205q-29 -35 -61 -27q-13 5 -9 21z" />
<glyph unicode="&#xfe;" horiz-adv-x="1021" d="M154 -549v2103q0 10 23.5 17.5t54 7.5t30.5 -49v-520q180 98 406 98q68 0 113.5 -22.5t68 -51t34 -89t12.5 -100.5t1 -120v-365q0 -80 -1 -120.5t-12.5 -101t-35 -90.5t-69.5 -52.5t-113 -22.5q-201 0 -404 52v-549q0 -49 -30.5 -49t-54 7t-23.5 17zM262 154 q0 -35 110.5 -63t262.5 -28q45 0 76 19q37 20 54 76.5t19 102.5t2 153v334q0 203 -69 249q-37 20 -78 21q-145 0 -261 -39t-116 -78v-747z" />
<glyph unicode="&#xff;" horiz-adv-x="1122" d="M182 340v741q0 10 22.5 18.5t53.5 8.5q35 0 35 -47v-688q0 -156 29.5 -233t128.5 -77q143 0 255.5 34t120.5 71v913q0 10 22.5 18.5t53.5 8.5q35 0 35 -53v-1164q0 -104 -4 -165.5t-18.5 -121t-42 -88t-75.5 -46t-120 -17.5q-248 0 -453 92q-31 14 -32 25q-2 4 0 8 q10 59 32 60q8 0 21 -5q227 -90 424 -90q57 0 90 19.5t47 82t17 118t3 186.5v114q-137 -90 -407 -90q-66 0 -112 20.5t-70.5 50.5t-37 84t-15.5 97t-3 115zM324 1319v141q0 10 22.5 18.5t52.5 8.5q35 0 35 -53v-88q0 -53 -35 -54q-31 0 -53 8.5t-22 18.5zM694 1319v141 q0 10 22.5 18.5t53.5 8.5q35 0 35 -53v-88q0 -53 -35 -54q-31 0 -53.5 8.5t-22.5 18.5z" />
<glyph unicode="&#x152;" horiz-adv-x="2068" d="M123 516v440q0 297 132 419t419 122h16q303 0 432 -135q0 6 -1 26.5t0 31t3 24.5t10.5 21.5t22.5 7.5h762q45 0 45 -31q0 -27 -8 -47.5t-17 -20.5h-698v-575h637q45 0 45 -31q0 -27 -8 -47.5t-17 -20.5h-657v-602h678q45 0 45 -30q0 -27 -8 -47.5t-17 -20.5h-735 q-31 0 -50 6t-25.5 19.5t-8.5 23.5t0 31.5t2 28.5q-127 -133 -432 -134h-16q-287 0 -419 122t-132 419zM254 590q0 -100 4 -161.5t17.5 -127t41 -102.5t74.5 -69t117 -45t166 -13h16q115 0 193 22.5t123 57t68.5 106.5t29.5 142.5t6 189.5v293q0 119 -6 189.5t-29.5 142 t-68.5 106.5t-123 57.5t-193 22.5h-16q-96 0 -166 -13.5t-117 -45t-74.5 -68.5t-41 -102.5t-17.5 -127t-4 -161.5v-293z" />
<glyph unicode="&#x153;" horiz-adv-x="1615" d="M123 365v352q0 391 381 391q240 0 327 -158q43 92 129.5 125t239.5 33q66 0 115 -12.5t80.5 -27.5t54.5 -51t33 -57.5t15 -73.5t5 -74v-81v-63q0 -23 -12 -40.5t-51 -36t-105.5 -29.5t-181.5 -19t-270 -8q0 -90 5 -151.5t21.5 -127.5t46 -103.5t83 -63.5t126.5 -26 q72 0 250 29q23 4 33 -59q2 -18 -7 -24.5t-30 -10.5q-102 -25 -246 -25q-53 0 -110 11q-152 31 -224 147q-86 -158 -327 -158q-381 1 -381 392zM236 424q0 -182 53 -271.5t215 -89.5q164 0 215 87.5t51 273.5v233q0 184 -51 272.5t-215 88.5t-216 -87t-52 -274v-233z M883 625q510 0 510 92v90q0 211 -197 211q-182 0 -247.5 -77.5t-65.5 -315.5z" />
<glyph unicode="&#x178;" horiz-adv-x="1116" d="M68 1442q-29 57 24 57q43 0 61.5 -11t34.5 -40l371 -758l367 758q16 29 35.5 40t62.5 11q53 0 25 -57l-431 -848v-565q0 -53 -34 -54q-31 0 -57.5 8.5t-26.5 18.5v592zM334 1688v141q0 10 22.5 18t53.5 8q35 0 34 -53v-88q0 -53 -34 -53q-31 0 -53.5 8.5t-22.5 18.5z M705 1688v141q0 10 22.5 18t52.5 8q35 0 35 -53v-88q0 -53 -35 -53q-31 0 -53 8.5t-22 18.5z" />
<glyph unicode="&#x2c6;" horiz-adv-x="442" d="M-12 1460q2 4 20 23l213 190q10 10 18.5 10t18.5 -10l213 -190q18 -18 20.5 -22.5t-6.5 -24.5q-12 -16 -29.5 -23.5t-23.5 -3.5l-192 170l-193 -170q-6 -4 -23.5 3t-29.5 24q-8 20 -6 24z" />
<glyph unicode="&#x2dc;" horiz-adv-x="483" d="M-20 1415q6 29 18 45q47 84 143 84q41 0 115 -35.5t119 -35.5q70 0 104 57q8 12 41 4q12 -2 8 -12q-6 -29 -18 -45q-47 -84 -143 -84q-14 0 -35 4q-25 6 -90.5 36.5t-108.5 30.5q-70 0 -104 -57q-8 -12 -41 -4q-12 2 -8 12z" />
<glyph unicode="&#x2000;" horiz-adv-x="999" />
<glyph unicode="&#x2001;" horiz-adv-x="2000" />
<glyph unicode="&#x2002;" horiz-adv-x="999" />
<glyph unicode="&#x2003;" horiz-adv-x="2000" />
<glyph unicode="&#x2004;" horiz-adv-x="665" />
<glyph unicode="&#x2005;" horiz-adv-x="499" />
<glyph unicode="&#x2006;" horiz-adv-x="331" />
<glyph unicode="&#x2007;" horiz-adv-x="331" />
<glyph unicode="&#x2008;" horiz-adv-x="249" />
<glyph unicode="&#x2009;" horiz-adv-x="399" />
<glyph unicode="&#x200a;" horiz-adv-x="110" />
<glyph unicode="&#x2010;" horiz-adv-x="700" d="M109 578q0 33 9 55t19 22h414q53 0 53 -37q0 -31 -9 -53t-20 -22h-413q-53 0 -53 35z" />
<glyph unicode="&#x2011;" horiz-adv-x="700" d="M109 578q0 33 9 55t19 22h414q53 0 53 -37q0 -31 -9 -53t-20 -22h-413q-53 0 -53 35z" />
<glyph unicode="&#x2012;" horiz-adv-x="700" d="M109 578q0 33 9 55t19 22h414q53 0 53 -37q0 -31 -9 -53t-20 -22h-413q-53 0 -53 35z" />
<glyph unicode="&#x2013;" horiz-adv-x="976" d="M33 578q0 33 9 55t19 22h830q53 0 53 -37q0 -31 -9 -53t-20 -22h-829q-53 0 -53 35z" />
<glyph unicode="&#x2014;" horiz-adv-x="1560" d="M33 578q0 33 9 55t19 22h1420q53 0 53 -37q0 -31 -9 -53t-20 -22h-1419q-53 0 -53 35z" />
<glyph unicode="&#x2018;" horiz-adv-x="342" d="M72 1270q0 8 4 20l147 295q23 51 60 51q18 0 18 -20q0 -2 -1 -7t-3 -11.5t-2 -10.5l-78 -327q-2 -10 -32.5 -20.5t-67.5 -10.5q-45 0 -45 41z" />
<glyph unicode="&#x2019;" horiz-adv-x="352" d="M72 1251q0 14 6 29l78 328q2 10 32.5 20t67.5 10q45 0 45 -41q0 -8 -4 -20l-147 -295q-23 -51 -62 -51q-16 0 -16 20z" />
<glyph unicode="&#x201a;" horiz-adv-x="319" d="M41 -168q0 8 4 25l68 282q2 10 28.5 18.5t57.5 8.5q39 0 39 -35q0 -6 -5 -18l-127 -254q-18 -43 -51 -43q-14 0 -14 16z" />
<glyph unicode="&#x201c;" horiz-adv-x="626" d="M72 1270q0 8 4 20l147 295q23 51 60 51q18 0 18 -20q0 -2 -1 -7t-3 -11.5t-2 -10.5l-78 -327q-2 -10 -32.5 -20.5t-67.5 -10.5q-45 0 -45 41zM346 1270q0 8 4 20l148 295q23 51 59 51q18 0 18 -20q0 -2 -1 -7t-3 -11.5t-2 -10.5l-77 -327q-2 -10 -33 -20.5t-68 -10.5 q-45 0 -45 41z" />
<glyph unicode="&#x201d;" horiz-adv-x="626" d="M72 1616q0 20 16 20q39 0 62 -51l147 -295q4 -12 4 -20q0 -41 -45 -41q-37 0 -67.5 10t-32.5 21l-78 327q-6 15 -6 29zM346 1616q0 20 16 20q39 0 62 -51l147 -295q4 -12 4 -20q0 -41 -45 -41q-37 0 -67.5 10t-32.5 21l-78 327q-6 15 -6 29z" />
<glyph unicode="&#x201e;" horiz-adv-x="634" d="M41 -168q0 8 4 25l68 282q2 10 28.5 18.5t57.5 8.5q39 0 39 -35q0 -6 -5 -18l-127 -254q-18 -43 -51 -43q-14 0 -14 16zM356 -168q0 8 4 25l68 282q2 10 28.5 18.5t57.5 8.5q39 0 39 -35q0 -6 -4 -18l-127 -254q-18 -43 -51 -43q-15 0 -15 16z" />
<glyph unicode="&#x2022;" horiz-adv-x="720" d="M186 362v394q0 27 62.5 51t148.5 24q61 0 80 -37.5t19 -111.5v-246q0 -35 -3.5 -57.5t-11.5 -45t-29.5 -33.5t-54.5 -11q-86 0 -148.5 23t-62.5 50z" />
<glyph unicode="&#x2026;" horiz-adv-x="946" d="M102 2v141q0 10 22.5 18.5t53.5 8.5q35 0 35 -53v-88q0 -53 -35 -54q-31 0 -53.5 8.5t-22.5 18.5zM418 2v141q0 10 22.5 18.5t53.5 8.5q35 0 34 -53v-88q0 -53 -34 -54q-31 0 -53.5 8.5t-22.5 18.5zM733 2v141q0 10 22.5 18.5t53.5 8.5q35 0 35 -53v-88q0 -53 -35 -54 q-31 0 -53.5 8.5t-22.5 18.5z" />
<glyph unicode="&#x202f;" horiz-adv-x="399" />
<glyph unicode="&#x2039;" horiz-adv-x="624" d="M111 594l327 403q18 20 24.5 20.5t25 -18t18.5 -26.5q0 -12 -10 -25l-267 -354l267 -354q10 -12 10 -25q0 -8 -18.5 -26.5t-24.5 -18.5t-25 20z" />
<glyph unicode="&#x203a;" horiz-adv-x="626" d="M111 215q0 12 10 25l266 354l-266 354q-10 12 -10 25q0 8 18 26.5t24.5 18.5t24.5 -21l328 -403l-328 -404q-18 -20 -24.5 -20t-24.5 18.5t-18 26.5z" />
<glyph unicode="&#x205f;" horiz-adv-x="499" />
<glyph unicode="&#x20ac;" horiz-adv-x="1370" d="M61 549q4 29 9 45q2 14 10 47h319v176h-282l8 45q4 33 8 47h266v21q0 297 132.5 418.5t418.5 121.5h19q106 0 197 -12t91 -39q0 -25 -14 -53q-12 -20 -18 -20q-123 29 -256 28h-19q-137 0 -220 -26.5t-126 -90t-57.5 -140.5t-16.5 -208h525l-11 -47q-8 -35 -10 -45h-504 v-176h471q-8 -33 -10 -47q-4 -16 -8 -45h-453q0 -94 4.5 -155.5t18.5 -125t43 -100.5t75 -67.5t114.5 -43t164.5 -12.5h8q137 0 267 29q4 0 18 -23q14 -33 14 -51q0 -27 -91 -39t-197 -12h-19q-287 0 -419 122t-132 418v60h-338z" />
<glyph unicode="&#x2122;" horiz-adv-x="1746" d="M2 1425q0 51 21 52h524q35 0 35 -25q0 -51 -19 -51h-227v-727q0 -37 -25 -37q-59 0 -59 18v746h-213q-37 -1 -37 24zM672 664l172 813h88l229 -684l230 684h88l172 -813h-88l-131 667l-230 -667h-82l-229 667l-131 -667h-88z" />
<glyph unicode="&#xe000;" horiz-adv-x="1110" d="M0 1110h1110v-1110h-1110v1110z" />
<glyph unicode="&#xfb01;" horiz-adv-x="1175" d="M20 1020q0 23 9 43q8 18 14 18h203v23q4 197 46 297t136 125q27 8 70 8q59 0 141 -17.5t76 -46.5q-10 -63 -33 -59q-8 0 -20 4q-80 29 -142 29q-45 0 -71 -12q-53 -27 -70 -99.5t-17 -226.5v-25h510q43 0 43 -28v-758q0 -184 64 -215q33 -12 45 -9l49 12q37 9 74 9 q23 4 33 -59q4 -18 -31 -31q-2 -2 -4 -2q-68 -25 -148 -25q-106 0 -149 75t-43 259v682h-449v-962q0 -53 -34.5 -53.5t-53.5 8.5q-23 6 -22 18v989h-183q-43 0 -43 29zM805 1358v141q0 10 22.5 18.5t53.5 8.5q35 0 34 -53v-89q0 -53 -34 -53q-31 0 -53.5 8.5t-22.5 18.5z " />
<glyph unicode="&#xfb02;" horiz-adv-x="1169" d="M20 1020q0 23 9 43q8 18 14 18h203v23q4 193 43 293t127 127q31 10 82 10q59 0 141 -17.5t76 -46.5q-10 -63 -33 -59q-8 0 -20 4q-80 29 -142 29q-45 0 -71 -12q-53 -27 -70 -99.5t-17 -226.5v-25h439v443q0 8 22 18q29 8 54 8q35 0 34 -53v-1202q0 -184 64 -215 q33 -12 45 -9l49 12q37 9 74 9q23 4 33 -59q4 -18 -31 -31q-2 -2 -4 -2q-68 -25 -148 -25q-193 0 -192 248v768h-445v-962q0 -53 -34.5 -53.5t-53.5 8.5q-23 6 -22 18v989h-183q-43 0 -43 29z" />
<glyph unicode="&#xfb03;" horiz-adv-x="1968" d="M1597 223v858q0 10 22.5 18.5t53.5 8.5q35 0 35 -53v-760q0 -156 43 -200q23 -24 71 -24q40 0 97 17q12 4 20 4h3q9 0 20 -18t11 -45q0 -16 -32 -27q-2 -2 -4 -2q-68 -25 -147 -25q-193 0 -193 248zM1597 1358v141q0 10 22.5 18.5t53.5 8.5q35 0 35 -53v-89 q0 -53 -35 -53q-31 0 -53.5 8.5t-22.5 18.5zM747 1020q0 23 9 43q8 18 14 18h203v23q4 229 61.5 329.5t190.5 100.5q59 0 141 -17q76 -16 76 -43t-10.5 -45t-19.5 -18h-3t-5 1t-5 1q-8 0 -10 2q-80 29 -142 29q-39 0 -61 -8q-59 -20 -78 -95t-19 -235v-25h230q43 0 43 -28 q0 -23 -8 -43q-8 -18 -15 -19h-256v-962q0 -53 -34 -54q-76 0 -76 27v989h-183q-43 0 -43 29zM20 1020q0 23 9 43q8 18 14 18h203v23q4 229 61.5 329.5t190.5 100.5q59 0 141 -17q76 -16 76 -43t-10.5 -45t-19.5 -18h-3t-5 1t-5 1q-8 0 -10 2q-80 29 -142 29q-39 0 -61 -8 q-59 -20 -78 -95t-19 -235v-25h230q43 0 43 -28q0 -23 -8 -43q-8 -18 -15 -19h-256v-962q0 -53 -34 -54q-76 0 -76 27v989h-183q-43 0 -43 29z" />
<glyph unicode="&#xfb04;" horiz-adv-x="1751" d="M20 1020q0 23 9 43q8 18 14 18h203v23q4 193 43 293t127 127q31 10 82 10q59 0 141 -17.5t76 -46.5q-10 -63 -33 -59q-8 0 -20 4q-80 29 -142 29q-45 0 -71 -12q-53 -27 -70 -99.5t-17 -226.5v-25h465v23q4 229 61.5 329.5t190.5 100.5q59 0 141.5 -17.5t75.5 -46.5 q-10 -63 -32 -59q-8 0 -21 4q-80 29 -141 29q-45 0 -72 -12q-53 -27 -69.5 -99.5t-16.5 -226.5v-25h438v443q0 8 23 18q29 8 53 8q35 0 35 -53v-1202q0 -158 41 -199q45 -47 170 -8q12 4 20 4q23 4 33 -59q4 -18 -31 -31q-2 -2 -4 -2q-68 -25 -147 -25q-193 0 -193 248v768 h-444v-962q0 -53 -35 -53.5t-53 8.5q-23 6 -23 18v989h-471v-962q0 -53 -34.5 -53.5t-53.5 8.5q-23 6 -22 18v989h-183q-43 0 -43 29z" />
</font>
</defs>
</svg>
