<?xml version="1.0" standalone="no"?>
<!DOCTYPE svg PUBLIC "-//W3C//DTD SVG 1.1//EN" "http://www.w3.org/Graphics/SVG/1.1/DTD/svg11.dtd" >
<svg xmlns="http://www.w3.org/2000/svg">
<metadata>
This is a custom SVG webfont generated by Font Squirrel.
Copyright   : Copyright c 2008 by Jeremy Dooley All rights reserved
Designer    : httpwwwinsignedesigncom
Foundry     : Jeremy Dooley
Foundry URL : httpwwwinsignedesigncom
</metadata>
<defs>
<font id="SommetRoundedBold" horiz-adv-x="1462" >
<font-face units-per-em="2048" ascent="1290" descent="-758" />
<missing-glyph horiz-adv-x="436" />
<glyph unicode=" "  horiz-adv-x="436" />
<glyph unicode="&#x09;" horiz-adv-x="436" />
<glyph unicode="&#xa0;" horiz-adv-x="436" />
<glyph unicode="!" horiz-adv-x="518" d="M143 27v237q0 41 168 41q27 0 44.5 -15.5t17.5 -37.5v-213q0 -23 -17.5 -38t-44.5 -15q-168 0 -168 41zM143 481v1041q0 41 170 41q27 0 44.5 -15.5t17.5 -38.5v-1015q0 -23 -17.5 -38.5t-44.5 -15.5q-170 0 -170 41z" />
<glyph unicode="&#x22;" horiz-adv-x="782" d="M102 993v477q0 23 59.5 34.5t108.5 11.5q25 0 42.5 -16.5t17.5 -41.5v-452q0 -23 -17.5 -40.5t-42.5 -17.5q-49 0 -108.5 11t-59.5 34zM453 993v477q0 23 59 34.5t109 11.5q27 0 43 -16.5t16 -41.5v-452q0 -23 -17.5 -40.5t-41.5 -17.5q-49 0 -108.5 11t-59.5 34z" />
<glyph unicode="#" horiz-adv-x="1304" d="M117 451q0 154 37 153h227l47 252h-188q-45 0 -45 55q0 154 34 154h240l66 344q16 43 63 39q23 -2 52.5 -7t57 -16.5t25.5 -23.5l-63 -336h188l68 344q4 16 22.5 28.5t41 10.5t51 -7t56 -16.5t25.5 -23.5l-63 -336h151q45 0 45 -55q0 -154 -34 -154h-203l-47 -252h162 q20 0 33.5 -15.5t13.5 -39.5q0 -154 -37 -154h-213l-72 -379q-4 -16 -22.5 -29.5t-38.5 -11.5q-43 2 -92.5 15.5t-45.5 32.5l72 372h-190l-72 -379q-4 -16 -23.5 -29.5t-39.5 -11.5q-41 2 -90.5 15.5t-45.5 32.5l70 372h-178q-20 0 -32.5 16.5t-12.5 39.5zM582 604h190 l45 252h-190z" />
<glyph unicode="$" horiz-adv-x="1157" d="M96 82q-2 20 6 49q2 6 16.5 44t29 61.5t28.5 19.5q33 -6 105.5 -22.5t138 -27.5t119.5 -11q109 0 177 35.5t68 99t-51 139.5q-53 70 -160.5 155t-191.5 146t-150.5 161.5t-66.5 217.5q0 141 92 223t244 109v239q0 27 143 35q25 2 49 -6q25 -6 25 -39v-217q59 0 173 -21.5 t120 -62.5q0 -33 -9 -51q-37 -102 -61 -119q-16 -4 -117.5 18.5t-154.5 22.5q-106 0 -181 -30.5t-75 -100.5q0 -66 75 -148q47 -49 152.5 -129.5t181.5 -142t141.5 -164t71.5 -215.5v-41q-25 -252 -315 -309v-203q0 -20 -16.5 -34.5t-40.5 -14.5q-162 0 -162 39v193 q-43 0 -66 2q-100 6 -216 35.5t-122 64.5z" />
<glyph unicode="%" horiz-adv-x="1824" d="M111 952v217q0 297 309 297q311 0 311 -297v-217q0 -295 -311 -295q-309 0 -309 295zM326 1020q0 -78 17 -115t76.5 -37t77 37t17.5 115v82q0 82 -17.5 117.5t-76.5 35.5q-55 0 -74.5 -31.5t-19.5 -103.5v-100zM410 10q4 8 11 21.5t9 17.5l813 1473q6 10 25 10 q53 0 105 -33t52 -63q0 -2 -4 -19l-815 -1470q-10 -18 -26 -25q-8 -2 -25 -2l-14 6q-131 45 -131 84zM1092 272v217q0 297 309 297q313 0 313 -297v-217q0 -295 -313 -295q-309 0 -309 295zM1307 340q0 -80 17 -117t76.5 -37t77 37t17.5 117v80q0 82 -17.5 118.5t-76.5 36.5 q-57 0 -75.5 -32.5t-18.5 -102.5v-100z" />
<glyph unicode="&#x26;" horiz-adv-x="1581" d="M133 422q0 244 365 471q-135 150 -148 281q-6 59 4 104q23 129 125.5 202.5t249.5 73.5q162 0 274.5 -91t112.5 -242q0 -76 -46 -148t-96 -115t-134 -100l293 -332l131 131q35 35 51 48q16 14 60 -21t75 -72q16 -23 25 -45q4 -23 -11 -32l-176 -181l158 -184 q35 -39 49 -59q23 -33 -94 -134q-27 -20 -47 -20q-23 -4 -35 8l-207 230q-221 -217 -463 -218q-254 0 -385 115t-131 330zM373 426q0 -102 63.5 -170t206.5 -68q133 0 318 172l-322 367q-61 -41 -96 -67.5t-81 -67.5t-67.5 -82t-21.5 -84zM584 1227q0 -70 112 -205 q106 76 143.5 117t37.5 84q0 61 -43 96t-109 35q-59 0 -100 -36t-41 -91z" />
<glyph unicode="'" horiz-adv-x="423" d="M102 993v477q0 23 59.5 34.5t108.5 11.5q25 0 42.5 -16.5t17.5 -41.5v-452q0 -23 -17.5 -40.5t-42.5 -17.5q-49 0 -108.5 11t-59.5 34z" />
<glyph unicode="(" horiz-adv-x="677" d="M137 633q0 270 92.5 518t266.5 399q25 12 75 -40t37 -70q-109 -160 -166 -375t-57 -436q0 -494 223 -813q12 -18 -38 -70.5t-74 -40.5q-174 154 -266.5 405t-92.5 523z" />
<glyph unicode=")" horiz-adv-x="677" d="M70 -184q109 160 166 375t57 438q0 221 -57.5 436t-165.5 375q-12 18 38 70.5t74 39.5q174 -154 266.5 -401.5t92.5 -515.5q0 -272 -92.5 -523t-266.5 -405q-25 -14 -74.5 39.5t-37.5 71.5z" />
<glyph unicode="*" horiz-adv-x="1099" d="M174 1204q0 20 24.5 69.5t59.5 49.5q23 0 51 -16q12 -6 144 -58l-11 131q0 59 9 86q6 20 22 24.5t59 4.5h11q45 0 60 -4t22 -25q8 -27 8 -86l-12 -131l145 58q25 16 51 16q35 0 59.5 -49t24.5 -70q0 -25 -16.5 -41t-28.5 -20l-45 -15l-137 -41l114 -137q23 -23 23 -49 q0 -20 -29.5 -43.5t-58.5 -37t-33 -13.5q-43 0 -72 51l-81 129q-8 -12 -25.5 -43t-31 -50.5t-30 -42t-34 -33.5t-33.5 -11q-4 0 -31.5 13.5t-57.5 37t-30 43.5q0 25 21 49l114 137l-135 41q-31 8 -46 14.5t-29.5 21.5t-14.5 40z" />
<glyph unicode="+" horiz-adv-x="1339" d="M143 442v209h418v396h219v-396h410v-209h-410v-397h-219v397h-418z" />
<glyph unicode="," horiz-adv-x="649" d="M98 -211q0 6 2 8l97 369q10 39 192 39q29 0 48.5 -15.5t19.5 -33.5q0 -12 -6 -25l-228 -332q-25 -35 -47 -46t-59 -9q-25 0 -19 45z" />
<glyph unicode="-" horiz-adv-x="800" d="M123 541q0 162 41 161h487q23 0 38.5 -16t15.5 -43q0 -162 -41 -162h-488q-23 0 -38 16.5t-15 43.5z" />
<glyph unicode="." horiz-adv-x="436" d="M102 16v238q0 41 168 41q27 0 45.5 -15.5t18.5 -37.5v-213q0 -23 -18.5 -38.5t-45.5 -15.5q-168 0 -168 41z" />
<glyph unicode="/" horiz-adv-x="1038" d="M115 -37l647 1573q8 16 29.5 24.5t44.5 0.5l37.5 -12.5t43 -16.5t36 -22.5t8.5 -24.5l-646 -1569q-8 -18 -29.5 -27.5t-43.5 -3.5q-47 12 -92 35t-35 43z" />
<glyph unicode="0" horiz-adv-x="1368" d="M123 563v318q0 279 141.5 432t420 153t419.5 -153.5t141 -431.5v-318q0 -279 -141 -432.5t-419.5 -153.5t-420 153.5t-141.5 432.5zM375 629q0 -442 309 -442.5t309 442.5v188q0 446 -309 446.5t-309 -446.5v-188z" />
<glyph unicode="1" horiz-adv-x="964" d="M154 1200q0 25 18 37l238 199q37 33 182 32q25 0 43 -15t18 -38v-1386q0 -20 -17.5 -37t-41.5 -17q-51 0 -114.5 11.5t-63.5 33.5v1151l-117 -102q-14 -10 -59 27q-72 55 -82 82q-4 10 -4 22z" />
<glyph unicode="2" horiz-adv-x="1142" d="M100 57q0 117 31 158q293 317 437.5 491.5t182 242t37.5 122.5q0 188 -260 189q-76 0 -266 -29q-31 -4 -65 141q-8 51 39 62q147 35 288 34q225 0 370.5 -94t145.5 -305q0 -104 -110.5 -267t-495.5 -591h606q20 0 33.5 -16.5t13.5 -40.5q0 -154 -34 -154h-903 q-50 0 -50 57z" />
<glyph unicode="3" horiz-adv-x="1128" d="M82 57q0 20 22.5 86t49.5 66q90 -23 229 -23q371 0 371 195v51q0 96 -83 146.5t-210 50.5h-70q-20 0 -35.5 56t-15.5 99q0 55 45 56h47q131 0 213 48t82 146v27q0 203 -317 203q-70 0 -228 -23q-20 2 -42.5 60.5t-22.5 93.5q0 43 93 59t191 16q281 0 429.5 -92 t148.5 -317v-27q0 -94 -41 -173t-104 -116q74 -39 123 -126t49 -187v-51q0 -113 -51.5 -195t-139.5 -126t-189.5 -64.5t-215.5 -20.5q-106 0 -217 18.5t-111 63.5z" />
<glyph unicode="4" horiz-adv-x="1161" d="M6 373q0 111 31 147l702 930q35 41 142 41q51 0 51 -45v-918h151q47 0 47 -57q0 -154 -36 -154h-162v-288q0 -23 -17.5 -38.5t-44.5 -15.5q-176 0 -176 41v301h-643q-45 1 -45 56zM303 528h391v535z" />
<glyph unicode="5" horiz-adv-x="1228" d="M135 111q41 123 66 118q238 -41 329 -41q326 0 326 265q0 154 -56.5 223t-219.5 69q-84 0 -138 -40q-41 -31 -77 -31h-123q-45 0 -39 55q2 12 4 32.5t4 33.5l63 530q4 53 11 80q2 16 15 25.5t37.5 12.5t45 3t55.5 -1t51 -1h521q33 0 41 -23q8 -27 6 -43q-8 -143 -35 -143 h-516l-45 -317q63 39 172 38q242 0 357.5 -114.5t115.5 -370.5v-8q0 -258 -153.5 -372t-405.5 -114q-213 0 -383 58q-23 8 -25 16q-18 23 -4 60z" />
<glyph unicode="6" horiz-adv-x="1259" d="M102 463v8q2 344 205 597t539 384q27 10 47 -7.5t30.5 -40t26.5 -69.5q16 -53 -10 -65q-176 -84 -272.5 -164t-157.5 -176q119 25 203 20q233 -16 338.5 -125.5t105.5 -353.5v-8q0 -266 -124 -376t-394 -110h-14q-272 0 -397.5 110t-125.5 376zM354 457 q0 -154 50.5 -211.5t220.5 -57.5h14q166 0 217 57.5t51 207.5q0 156 -52 224t-216 68h-14q-166 0 -218.5 -66t-52.5 -222z" />
<glyph unicode="7" horiz-adv-x="1112" d="M66 1389q0 25 13 40t34 15h927q20 0 33.5 -15.5t13.5 -39.5q0 -98 -22 -140l-684 -1257q-20 -41 -158 35q-27 16 -41 38.5t-4 38.5l613 1131h-689q-36 0 -36 154z" />
<glyph unicode="8" horiz-adv-x="1327" d="M123 422v8q0 246 147 350q-45 39 -72.5 115t-27.5 164v8q0 238 108.5 318.5t364.5 80.5h41q254 0 362.5 -80.5t108.5 -318.5v-8q0 -205 -98 -279q147 -106 147 -350v-8q0 -262 -119.5 -353.5t-400.5 -91.5h-41q-281 0 -400.5 91.5t-119.5 353.5zM375 414 q0 -141 47 -183.5t221 -42.5h41q174 0 221 42t47 184q0 147 -50 200.5t-218 53.5h-41q-168 0 -218 -53.5t-50 -200.5zM414 1065q0 -117 43 -151.5t184 -34.5h45q141 0 184 34.5t43 151.5q0 125 -41 157.5t-188 32.5h-41q-147 0 -188 -32.5t-41 -157.5z" />
<glyph unicode="9" horiz-adv-x="1259" d="M102 971v8q0 266 124 375.5t397 109.5h14q272 0 396 -108.5t124 -376.5v-8q-2 -344 -204.5 -597t-538.5 -384q-37 -16 -59.5 15.5t-43.5 100.5q-18 51 8 64q178 86 274.5 166t156.5 176q-123 -27 -203 -23q-233 16 -339 127t-106 355zM352 987q0 -156 52.5 -223.5 t218.5 -67.5h14q166 0 217 65.5t51 221.5t-49 213t-219 57h-14q-168 0 -219.5 -57t-51.5 -209z" />
<glyph unicode=":" horiz-adv-x="681" d="M225 25v237q0 41 170 41q27 0 44.5 -15.5t17.5 -37.5v-213q0 -23 -17.5 -38t-44.5 -15q-170 0 -170 41zM225 827v240q0 39 170 39q61 0 62 -53v-211q0 -53 -62 -54q-170 0 -170 39z" />
<glyph unicode=";" horiz-adv-x="692" d="M131 -113l96 369q12 37 185 37q31 0 49 -14.5t18 -34.5q0 -14 -6 -23l-217 -334q-43 -57 -106 -55q-29 0 -19 47v8zM227 827v240q0 39 168 39q31 0 45.5 -14.5t16.5 -28.5t2 -47v-137q0 -33 -2 -48.5t-16.5 -29t-45.5 -13.5q-168 0 -168 39z" />
<glyph unicode="&#x3c;" horiz-adv-x="1165" d="M94 453v180l938 391v-219l-629 -262l629 -264v-218z" />
<glyph unicode="=" horiz-adv-x="1331" d="M139 274v205h1053v-205h-1053zM141 627v202h1051v-202h-1051z" />
<glyph unicode="&#x3e;" horiz-adv-x="1167" d="M135 61v218l627 264l-627 262v219l936 -391v-180z" />
<glyph unicode="?" horiz-adv-x="1103" d="M154 1372q-12 53 32 62q139 33 258 32q100 0 176 -15t140.5 -51t102.5 -102.5t48 -162.5q4 -61 2 -97q-8 -84 -62 -164.5t-114.5 -136t-109.5 -132.5t-49 -152q0 -57 -27 -64q-25 -10 -53 -6q-150 0 -150 37q0 170 80 293q25 39 90.5 107.5t106.5 129t41 117.5 q0 104 -54.5 150.5t-167.5 46.5q-53 0 -225 -25q-20 -4 -37.5 40t-27.5 93zM348 20v238q0 41 168 41q31 0 44 -14.5t15.5 -28.5t2.5 -47v-139q0 -33 -2.5 -47.5t-15.5 -28.5t-44 -14q-168 -1 -168 40z" />
<glyph unicode="@" horiz-adv-x="1771" d="M123 684q0 213 114.5 389t296 272.5t381.5 96.5q313 0 523.5 -183.5t210.5 -451.5q0 -195 -107.5 -355.5t-259.5 -189.5q-70 -18 -140.5 5.5t-121.5 88.5q-104 -102 -238 -102q-131 0 -219 87t-88 214q0 197 120 342t339 145q147 0 224 -79.5t77 -188.5q0 -45 -20.5 -133 t-22.5 -102q-16 -100 29 -101q82 0 148.5 97.5t66.5 263.5q0 195 -150.5 324.5t-370.5 129.5q-246 0 -413.5 -176t-167.5 -393q0 -276 162.5 -416.5t425.5 -140.5q160 0 272 68q23 12 45 -35q45 -86 33 -109q-47 -57 -145.5 -85.5t-211.5 -28.5q-352 0 -572 192.5 t-220 554.5zM674 586q0 -63 35.5 -103.5t103.5 -40.5q92 0 156.5 95.5t64.5 189.5q0 131 -125 131q-98 0 -166.5 -87t-68.5 -185z" />
<glyph unicode="A" horiz-adv-x="1288" d="M49 25q0 16 4 26l471 1413q10 35 80 35q150 0 162 -35l469 -1413q0 -4 3 -13t3 -13q0 -49 -84 -50q-164 0 -182 58l-96 334h-467l-99 -334q-16 -57 -182 -58q-82 1 -82 50zM475 584h336l-166 577z" />
<glyph unicode="B" horiz-adv-x="1386" d="M154 41v1378q0 53 75 54h543q246 0 355.5 -101.5t109.5 -312.5q0 -92 -50 -182.5t-114 -116.5q76 -27 133.5 -125t57.5 -203v-16q0 -215 -108.5 -315.5t-383.5 -100.5h-524q-31 0 -62.5 13.5t-31.5 27.5zM399 217h379q129 0 182.5 43t53.5 150v30q0 106 -51.5 153.5 t-169.5 47.5h-394v-424zM399 858h373q119 0 167 47t48 156q0 106 -47 150t-168 44h-373v-397z" />
<glyph unicode="C" horiz-adv-x="1169" d="M123 535v403q0 305 143.5 431t456.5 126h16q115 0 242 -23.5t127 -70.5q0 -33 -28.5 -95.5t-51.5 -66.5q-158 41 -289 41q-100 0 -165.5 -16.5t-104.5 -44t-58.5 -84t-24.5 -112.5t-5 -153v-270q0 -119 9 -183.5t43 -121.5t103.5 -79.5t186.5 -22.5q150 0 305 38 q23 -2 51.5 -63.5t28.5 -97.5q0 -47 -127 -71t-242 -24h-16q-313 0 -456.5 126.5t-143.5 433.5z" />
<glyph unicode="D" horiz-adv-x="1382" d="M154 41v1378q0 53 90 54h415q313 0 457 -126t144 -434v-354q0 -307 -143.5 -433t-457.5 -126h-411q-31 0 -62.5 13.5t-31.5 27.5zM399 217h260q117 0 186.5 22.5t103.5 80t43 122t9 183.5v223q0 119 -9 183.5t-43 121.5t-103.5 79.5t-186.5 22.5h-260v-1038z" />
<glyph unicode="E" horiz-adv-x="1208" d="M154 41v1378q0 23 17 38.5t44 15.5h827q20 0 35 -16.5t15 -41.5q0 -160 -37 -160h-656v-397h566q20 0 34.5 -16.5t14.5 -42.5q0 -158 -39 -158h-576v-424h643q20 0 35 -16.5t15 -40.5q0 -160 -37 -160h-805q-31 0 -63.5 13.5t-32.5 27.5z" />
<glyph unicode="F" horiz-adv-x="1114" d="M154 23v1400q0 49 73 50h815q20 0 35 -16.5t15 -41.5q0 -160 -37 -160h-656v-397h539q20 0 34.5 -16.5t14.5 -42.5q0 -158 -39 -158h-549v-606q0 -25 -17 -42.5t-44 -17.5q-55 0 -119.5 12.5t-64.5 35.5z" />
<glyph unicode="G" horiz-adv-x="1325" d="M123 535v403q0 305 143.5 431t456.5 126h16q190 0 334 -53q33 -13 34 -44q0 -9 -3 -20q-10 -45 -34 -94q-22 -45 -39 -45h-3q-168 41 -289 41h-16q-117 0 -186.5 -22.5t-103.5 -81t-43 -123t-9 -183.5v-268q0 -119 9 -183.5t43 -122.5t103.5 -80.5t186.5 -22.5h16 q100 0 217 32v422q0 27 59.5 41t108.5 14q29 0 53.5 -15t24.5 -36v-506q0 -53 -31 -71q-172 -92 -432 -97h-16q-313 0 -456.5 126.5t-143.5 431.5z" />
<glyph unicode="H" horiz-adv-x="1445" d="M154 23v1429q0 23 64.5 35t119.5 12q27 0 44 -17.5t17 -41.5v-566h648v578q0 23 65.5 35t118.5 12q27 0 44 -17.5t17 -41.5v-1405q0 -25 -17.5 -42.5t-43.5 -17.5q-53 0 -118.5 12.5t-65.5 35.5v632h-648v-620q0 -25 -17 -42.5t-44 -17.5q-55 0 -119.5 12.5t-64.5 35.5z " />
<glyph unicode="I" horiz-adv-x="552" d="M154 16v1442q0 41 184 41q27 0 44 -15.5t17 -37.5v-1417q0 -23 -17 -38.5t-44 -15.5q-184 0 -184 41z" />
<glyph unicode="J" horiz-adv-x="563" d="M-158 -379q40 134 73 134q2 0 5 -1q45 -12 96 -20q22 -3 42 -3t38 3q41 10 54.5 73.5t13.5 210.5v1440q0 31 164 39q31 0 55 -8q27 -8 27 -43v-1481q0 -242 -75 -350.5t-239 -108.5q-82 0 -223 48q-35 9 -35 41q0 12 4 26z" />
<glyph unicode="K" horiz-adv-x="1382" d="M154 16v1442q0 41 184 41q27 0 44 -15.5t17 -37.5v-612l562 616q47 49 188 49q111 0 111 -49q0 -25 -43 -68l-545 -594l583 -692q43 -53 43 -71q0 -49 -110 -50q-150 0 -191 52l-497 591l-101 -110v-479q0 -23 -17 -38.5t-44 -15.5q-184 0 -184 41z" />
<glyph unicode="L" horiz-adv-x="1118" d="M154 41v1417q0 41 184 41q27 0 44 -15.5t17 -37.5v-1229h639q20 0 34.5 -16.5t14.5 -40.5q0 -160 -38 -160h-711q-184 0 -184 41z" />
<glyph unicode="M" horiz-adv-x="2146" d="M131 41l29 125l295 1290q12 45 159 45q55 0 70 -45l393 -1083l387 1081q14 45 164 45q51 0 66 -45l288 -1288q18 -74 29 -125q1 -7 1 -13q0 -25 -20 -37q-26 -15 -63 -16q-150 0 -162 43l-217 1022l-362 -1017q-16 -47 -68 -48q-152 0 -164 48l-360 1019l-221 -1024 q-12 -43 -162 -43q-37 0 -62 16q-21 12 -21 37q0 6 1 13z" />
<glyph unicode="N" horiz-adv-x="1572" d="M152 23v1427q0 27 53 38t104 11q55 0 88 -45l781 -1026v1022q0 25 57 37t111 12q31 0 54 -12t23 -33v-1425q0 -23 -17 -38.5t-44 -15.5q-47 0 -108.5 10.5t-75.5 28.5l-781 1033v-1012q0 -25 -17.5 -42.5t-43.5 -17.5q-53 0 -118.5 12.5t-65.5 35.5z" />
<glyph unicode="O" d="M123 535v403q0 305 143.5 431t456.5 126h16q313 0 456.5 -126t143.5 -431v-403q0 -305 -143 -431.5t-457 -126.5h-16q-313 0 -456.5 126.5t-143.5 431.5zM381 602q0 -94 5 -149.5t23.5 -112.5t55.5 -85t100.5 -45t157.5 -17h16q94 0 158 17t100.5 46t56 84t24.5 111.5 t5 150.5v268q0 94 -5 150.5t-24.5 112t-56 84t-100 46t-158.5 17.5h-16q-94 0 -157.5 -17.5t-100.5 -45t-55.5 -85t-23.5 -112.5t-5 -150v-268z" />
<glyph unicode="P" horiz-adv-x="1286" d="M154 18v1401q0 23 17 38.5t44 15.5h459q283 0 406.5 -92.5t123.5 -352.5q0 -262 -124 -354t-406 -92h-275v-553q0 -23 -17 -38.5t-44 -15.5q-59 0 -121.5 10t-62.5 33zM399 799h275q174 0 223 43t49 186q0 141 -49 184t-223 43h-275v-456z" />
<glyph unicode="Q" d="M123 535v403q0 305 143.5 431t456.5 126h16q313 0 456.5 -126t143.5 -431v-403q0 -274 -118.5 -403.5t-374.5 -147.5q4 -106 20.5 -147.5t65.5 -41.5q33 0 162 29q14 4 26.5 -8.5t24.5 -41t17 -42t14 -39.5q4 -13 4 -23q0 -30 -35 -43q-127 -41 -227 -41 q-150 0 -223.5 96.5t-84.5 299.5q-256 20 -371.5 147t-115.5 406zM381 602q0 -94 5 -149.5t23.5 -112.5t55.5 -85t100.5 -45t157.5 -17h16q94 0 158 17t100.5 46t56 84t24.5 111.5t5 150.5v268q0 94 -5 150.5t-24.5 112t-56 84t-100 46t-158.5 17.5h-16q-94 0 -157.5 -17.5 t-100.5 -45t-55.5 -85t-23.5 -112.5t-5 -150v-268z" />
<glyph unicode="R" horiz-adv-x="1353" d="M154 18v1401q0 23 17 38.5t44 15.5h459q283 0 406.5 -92.5t123.5 -352.5q0 -197 -68.5 -294t-217.5 -132l307 -530q18 -27 18 -46q0 -7 -3 -13q-9 -22 -27.5 -30t-45.5 -8q-49 0 -111.5 14.5t-76.5 41.5l-328 551h-252v-553q0 -23 -17 -38.5t-44 -15.5q-59 0 -121.5 10 t-62.5 33zM399 799h275q174 0 223 43t49 186q0 141 -49 184t-223 43h-275v-456z" />
<glyph unicode="S" horiz-adv-x="1142" d="M96 115q6 27 17.5 57.5t30 59t34.5 24.5q215 -61 359 -61q96 0 161.5 27.5t75.5 74.5q6 22 7 42q0 12 -3 23q-6 57 -57 117q-53 70 -158.5 155t-187.5 146.5t-147.5 159.5t-65.5 209q0 178 144.5 262t352.5 84q35 0 52 -2q92 -4 191 -25.5t106 -58.5q2 -16 -7 -47 q-35 -102 -61 -121q-6 -6 -43 2q-147 37 -231 37q-106 0 -181 -30.5t-75 -100.5t75 -148q45 -45 154 -130t186.5 -150.5t142 -170t64.5 -212.5q0 -100 -43 -172t-118.5 -112t-166 -57t-198.5 -17q-207 0 -381 71q-32 12 -32 42q-1 10 3 22z" />
<glyph unicode="T" horiz-adv-x="1193" d="M14 1313q0 160 37 160h1071q20 0 34.5 -16.5t14.5 -41.5q0 -160 -38 -160h-414v-1226q0 -23 -17.5 -38.5t-44.5 -15.5q-184 0 -184 41v1239h-410q-20 0 -34.5 16.5t-14.5 41.5z" />
<glyph unicode="U" horiz-adv-x="1505" d="M143 535v917q0 23 64.5 35t120.5 12q27 0 44 -17.5t17 -41.5v-838q0 -117 10.5 -183.5t46 -122.5t107.5 -79.5t190 -23.5h17q119 0 190.5 23.5t107.5 79.5t46 122.5t10 183.5v850q0 23 64.5 35t119.5 12q27 0 44.5 -17.5t17.5 -41.5v-905q0 -305 -143.5 -431.5 t-456.5 -126.5h-17q-313 0 -456.5 126.5t-143.5 431.5z" />
<glyph unicode="V" horiz-adv-x="1306" d="M63 1438q-3 9 -3 17q0 18 17 29q24 15 54 15q164 0 182 -39q31 -72 47 -125l302 -1001l319 1112q16 53 195 53q31 0 54 -15q16 -11 16 -29q0 -8 -3 -17q-12 -43 -41 -129l-428 -1291q-14 -43 -61 -43q-166 0 -178 39l-431 1295q-29 86 -41 129z" />
<glyph unicode="W" horiz-adv-x="1875" d="M61 1438q-3 9 -3 16q0 18 18 30q25 15 55 15q164 0 180 -39q27 -55 41 -108l307 -1018l320 1112q16 53 195 53q31 0 55 -15.5t14 -45.5l-33 -99l-143 -432l172 -573l322 1112q16 53 194 53q31 0 54 -15q16 -11 17 -29q0 -8 -3 -17q-33 -106 -37 -115l-432 -1305 q-14 -43 -62 -43q-166 0 -178 39l-172 523l-170 -519q-14 -43 -61 -43q-166 0 -179 39l-434 1309z" />
<glyph unicode="X" horiz-adv-x="1296" d="M80 -2q-6 9 -6 21q0 20 16 49l397 673l-393 666q-16 30 -16 50q0 12 6 21q16 22 66 21q156 0 184 -49l315 -524l314 524q31 49 184 49q76 0 75 -41q0 -20 -18 -51l-395 -666l397 -673q16 -29 17 -49q0 -12 -6 -21q-16 -23 -66 -23q-156 0 -184 50l-318 536l-317 -536 q-31 -49 -185 -50q-51 0 -67 23z" />
<glyph unicode="Y" horiz-adv-x="1304" d="M90 1407q-17 30 -17 50q0 42 72 42q160 0 187 -49l319 -616l320 616q27 49 186 49q72 0 72 -44q0 -20 -15 -48l-438 -815v-563q0 -23 -18.5 -38.5t-44.5 -15.5q-182 0 -183 41v574z" />
<glyph unicode="Z" horiz-adv-x="1273" d="M76 59q0 131 28 160l789 1036h-692q-39 0 -39 160q0 25 14 41.5t35 16.5h938q23 0 37 -16.5t14 -43.5q0 -121 -29 -160l-778 -1036h762q23 0 37 -15.5t14 -41.5q0 -160 -39 -160h-1050q-18 0 -29.5 17t-11.5 42z" />
<glyph unicode="[" horiz-adv-x="638" d="M164 -283v1766q0 31 9 40t38 9h311q45 0 45 -53q0 -147 -35 -148h-137v-1456h131q41 0 41 -135q0 -66 -39 -66h-303q-61 0 -61 43z" />
<glyph unicode="\" horiz-adv-x="931" d="M41 1503q-10 25 41 48.5t92 31.5q49 8 66 -24l647 -1575q4 -10 -8.5 -22.5t-38 -24t-44 -18.5t-38.5 -13q-23 -6 -43.5 3t-28.5 28z" />
<glyph unicode="]" horiz-adv-x="763" d="M197 -260q0 135 41 135h133v1456h-140q-35 0 -34 148q0 23 12 38t33 15h311q29 0 38 -9.5t9 -39.5v-1766q0 -43 -61 -43h-303q-16 0 -27.5 19.5t-11.5 46.5z" />
<glyph unicode="^" horiz-adv-x="1331" d="M162 791l504 604l503 -604l-165 -99l-340 416l-334 -416z" />
<glyph unicode="_" horiz-adv-x="1146" d="M43 -68q0 66 8 144h1043q4 -45 4 -70q0 -66 -8 -143h-1043q-4 44 -4 69z" />
<glyph unicode="`" horiz-adv-x="645" d="M-98 1655q0 14 37 24q168 25 180 25q20 0 35 -16l200 -267l27 -39q8 -10 -19.5 -24.5t-58.5 -22.5t-41 -8q-18 0 -39 21l-303 278q-18 23 -18 29z" />
<glyph unicode="a" horiz-adv-x="1056" d="M92 311q0 76 9.5 128.5t36 103.5t86 77.5t151.5 26.5q176 0 317 -41q-4 158 -43 226.5t-147 68.5q-47 0 -123 -10l-105 -17q-10 -2 -21 11.5t-19.5 39t-13.5 44t-11 41.5q-2 10 -2 18q0 38 39 43l78 16q59 12 188 17q203 0 307.5 -107.5t104.5 -302.5v-561q0 -49 -70 -83 t-173 -48t-176 -19.5t-128 -5.5q-162 0 -223.5 83t-61.5 251zM326 326q0 -7 -1 -14q0 -132 78 -132q154 0 289 21v207q-57 37 -250 36q-63 0 -88.5 -23t-27.5 -95z" />
<glyph unicode="b" horiz-adv-x="1107" d="M156 152v1372q0 41 168 41q27 0 44 -15.5t17 -38.5v-460q125 53 320 53q82 0 137 -23.5t82.5 -54.5t42 -92.5t15.5 -104.5t1 -124v-324q0 -82 -2 -126t-15.5 -105.5t-42 -93t-84 -55.5t-137.5 -24q-330 0 -493 86q-53 30 -53 89zM385 207q180 -27 289 -27q29 0 45 16.5 t23.5 57.5t8.5 73.5t1 100.5v293q0 61 -4.5 95t-21.5 59.5t-50 25.5q-74 0 -144.5 -9t-108.5 -19.5t-38 -16.5v-649z" />
<glyph unicode="c" horiz-adv-x="931" d="M123 401v277q0 213 99.5 319.5t312.5 106.5q131 0 276 -35q37 -11 37 -45q0 -9 -2 -18q-6 -29 -10.5 -43.5t-13.5 -42t-19 -41t-23 -11.5q-193 33 -245 33q-104 0 -141.5 -70.5t-37.5 -205.5v-170q0 -137 37 -208t142 -71q55 0 245 35h2q30 0 64 -139q3 -10 2 -18 q0 -32 -37 -44q-129 -35 -276 -35q-213 0 -312.5 106.5t-99.5 319.5z" />
<glyph unicode="d" horiz-adv-x="1107" d="M125 381v324q0 82 2 124.5t15.5 104t42 92.5t84 54.5t137.5 23.5q172 0 317 -62v474q0 27 52 38t104 11q31 0 53 -13.5t22 -31.5v-1366q0 -63 -59 -91q-162 -86 -487 -86q-82 0 -138.5 24t-85 55.5t-42 93t-15.5 105.5t-2 126zM356 428q0 -68 1 -100.5t8.5 -73.5 t25 -57.5t45.5 -16.5q106 0 287 27v649q0 6 -38 16.5t-108.5 19.5t-144.5 9q-47 0 -61.5 -44t-14.5 -136v-293z" />
<glyph unicode="e" horiz-adv-x="1058" d="M123 403v132q0 152 16.5 252t48 164.5t92 97t130 44t180.5 11.5q113 0 186.5 -25.5t106 -78t44 -105.5t11.5 -131v-119q0 -37 -21.5 -63.5t-80 -52t-179 -40t-303.5 -16.5q0 -141 44 -217t159 -76q111 0 293 39q10 2 20.5 -11t19.5 -40t13 -42t10 -42q1 -8 2 -15 q0 -36 -36 -46q-156 -45 -322 -46q-215 0 -324.5 108.5t-109.5 317.5zM354 651q266 10 353 51v74q0 125 -121 125q-125 0 -174.5 -49t-57.5 -201z" />
<glyph unicode="f" horiz-adv-x="790" d="M23 946q8 135 34 135h146v78q0 197 74.5 287t226.5 90h41q207 -16 217 -72q-2 -6 -3 -10t-3 -6t-4 -2q2 -12 -4 -31l-15 -39q-14 -41 -25.5 -59.5t-23.5 -16.5q-117 31 -149 31q-20 2 -33 0q-68 -14 -68 -168v-82h213q31 0 39 -22q8 -25 4 -47q0 -133 -31 -133h-227v-850 q0 -25 -18.5 -39.5t-42.5 -14.5q-168 0 -168 41v863h-135q-31 0 -37 22q-8 18 -8 45z" />
<glyph unicode="g" horiz-adv-x="1107" d="M125 379v323q0 63 1 90t5 80.5t14.5 78t31 60.5t49 52t74.5 28.5t106 12.5q221 0 384.5 -61.5t163.5 -135.5v-954q0 -109 -4 -170.5t-21.5 -123.5t-50 -92t-90 -48.5t-143.5 -18.5q-197 0 -385 64q-6 2 -25.5 8t-32 11t-26.5 11.5t-21.5 14.5t-9.5 18q-4 20 9.5 62.5 t36 75t38.5 26.5q225 -76 340 -84q16 -1 30 -1q20 0 36 2q27 3 44 18.5t26.5 29t13.5 48t5 54.5q1 10 0.5 27.5t-0.5 43.5q-1 52 -1 81q-102 -35 -315 -35q-59 0 -105.5 12.5t-76 29t-50 52t-31 60.5t-14.5 78t-5 81t-1 91zM356 426q0 -66 1 -90.5t5.5 -65.5t14.5 -59 t29 -25q33 -8 83 -8q160 0 234 29v657q0 14 -59.5 24.5t-147.5 10.5q-55 0 -117 -10q-43 -18 -43 -170v-293z" />
<glyph unicode="h" horiz-adv-x="1136" d="M156 16v1508q2 39 168 39q61 0 61 -54v-462q133 57 320 57q59 0 106 -13.5t77 -31t50 -53t30.5 -63.5t15.5 -81t6 -82.5t1 -91.5v-26v-633q0 -23 -17.5 -38.5t-43.5 -15.5q-168 0 -168 41v627q0 133 -14.5 195.5t-71.5 62.5q-102 0 -190.5 -15.5t-100.5 -29.5v-827 q0 -23 -17.5 -38.5t-43.5 -15.5q-168 0 -168 41z" />
<glyph unicode="i" horiz-adv-x="628" d="M143 256v811q0 39 168 39q29 0 46.5 -14.5t17.5 -38.5v-727q0 -80 18 -110q13 -21 44 -21q13 0 28 4q29 0 74 16q10 4 22 -9t22.5 -38t16.5 -43.5t12 -40.5q4 -13 5 -23q0 -29 -33 -41q-121 -45 -213 -45q-228 0 -228 281zM143 1272v237q0 41 168 41q27 0 45.5 -15 t18.5 -38v-213q0 -23 -18.5 -38t-45.5 -15q-168 0 -168 41z" />
<glyph unicode="j" horiz-adv-x="516" d="M-156 -279q6 23 12.5 41.5t17.5 44t22.5 39t23.5 9.5q113 -31 131 -31q55 0 72.5 68.5t17.5 209.5v965q0 39 168 39q29 0 46.5 -14.5t17.5 -38.5v-1002q0 -434 -303 -434q-78 0 -195 41q-35 12 -35 41q0 10 4 22zM141 1272v237q0 41 168 41q27 0 45.5 -15t18.5 -38v-213 q0 -23 -18.5 -38t-45.5 -15q-168 0 -168 41z" />
<glyph unicode="k" horiz-adv-x="1118" d="M156 16v1508q2 39 168 39q61 0 61 -54v-784l326 342q39 39 176 39q100 0 100 -43q0 -27 -47 -74l-399 -414l471 -483q45 -45 45 -72q0 -45 -101 -45q-135 0 -182 48l-389 405v-399q0 -23 -17.5 -38.5t-43.5 -15.5q-168 0 -168 41z" />
<glyph unicode="l" horiz-adv-x="632" d="M147 256v1262q0 41 168 41q23 0 38.5 -8.5t20.5 -29t6 -32.5t0 -43t-1 -37v-1083q0 -119 41 -129q8 -2 14 -3t17.5 0t20.5 4t30.5 8t40.5 9q10 4 22.5 -9t22.5 -38t16 -43.5t12 -40.5q4 -13 5 -23q0 -29 -33 -41q-113 -45 -213 -45q-228 0 -228 281z" />
<glyph unicode="m" horiz-adv-x="1689" d="M143 16v893q0 66 155 130.5t376 64.5q121 0 196 -72q166 72 390 72q80 0 134 -22.5t83.5 -54.5t46 -88t19.5 -103.5t3 -120.5v-686q0 -23 -18.5 -38.5t-44.5 -15.5q-168 0 -168 41v652q0 59 -2 93t-10.5 70.5t-25.5 53t-46 16.5q-76 0 -140.5 -7t-97 -16.5t-32.5 -19.5 v-829q0 -23 -17.5 -38.5t-44.5 -15.5q-170 0 -170 41v719q0 166 -84 166q-76 0 -140.5 -7t-97 -16.5t-32.5 -19.5v-829q0 -23 -17.5 -38.5t-44.5 -15.5q-170 0 -170 41z" />
<glyph unicode="n" horiz-adv-x="1122" d="M143 16v893q0 66 164 130.5t385 64.5q80 0 135.5 -22.5t85 -53.5t45 -88t18.5 -103t3 -122v-686q0 -23 -17.5 -38.5t-43.5 -15.5q-170 0 -170 41v652q0 61 -2.5 94t-9.5 69.5t-24.5 53t-45.5 16.5q-78 0 -146.5 -7t-106.5 -16.5t-38 -19.5v-829q0 -23 -18.5 -38.5 t-45.5 -15.5q-168 0 -168 41z" />
<glyph unicode="o" horiz-adv-x="1085" d="M123 385v311q0 408 420 408t420 -408v-311q0 -408 -420 -408t-420 408zM354 438q0 -133 37 -195.5t151.5 -62.5t151.5 62.5t37 195.5v205q0 133 -37 195.5t-151.5 62.5t-151.5 -62.5t-37 -195.5v-205z" />
<glyph unicode="p" horiz-adv-x="1107" d="M156 -479v1388q0 66 165.5 130.5t383.5 64.5q51 0 92 -8.5t69.5 -24.5t50 -38.5t34 -50.5t19.5 -59.5t9 -67.5t4 -74q1 -19 1 -38t-1 -38v-41v-283q0 -63 -1 -91t-5 -81t-14.5 -78t-31 -60.5t-49 -52t-74.5 -29t-106 -12.5q-199 0 -317 29v-471q0 -53 -61 -53 q-168 0 -168 39zM385 209q94 -29 262 -29q35 0 58 8q16 6 26 23.5t14.5 54.5t5.5 63.5t1 84.5v14v248v79q0 22 -4.5 59.5t-13.5 54t-25 22.5q-29 10 -68 10q-68 0 -128 -7t-94 -17.5t-34 -20.5v-647z" />
<glyph unicode="q" horiz-adv-x="1110" d="M125 371v385q0 66 4 109.5t20.5 93t45 78t82 48t129.5 19.5q217 0 382.5 -63.5t167.5 -131.5v-1376q-4 -51 -63 -51q-168 0 -168 39v487q-131 -33 -317 -33q-82 0 -137.5 24t-84 53.5t-43 91t-16.5 103.5t-2 124zM356 408q0 -61 2 -93t9.5 -69t24 -52.5t44.5 -15.5 q176 0 287 29v651q0 10 -38 19.5t-106.5 15.5t-146.5 6q-47 0 -61.5 -44t-14.5 -136v-311z" />
<glyph unicode="r" horiz-adv-x="806" d="M143 16v893q10 88 144.5 141.5t298.5 53.5q115 0 153 -21q20 -16 20 -40q0 -15 -7 -33q-2 -4 -7.5 -23.5t-10.5 -33t-12 -30t-15.5 -25.5t-18.5 -7q-41 8 -94 8q-147 0 -219 -57v-813q0 -23 -18.5 -38.5t-45.5 -15.5q-168 0 -168 41z" />
<glyph unicode="s" horiz-adv-x="956" d="M68 113q8 20 15 39.5t19.5 43t24.5 37t23 11.5q174 -59 292 -60q203 0 203 80q0 12 -5 25.5t-17.5 28t-22.5 26.5t-31.5 27.5t-33 25t-36 25.5t-33.5 21.5t-32.5 20.5t-25.5 15q-68 41 -102 65.5t-84 68.5t-72.5 95.5t-22.5 110.5q0 289 432 289q86 0 244 -35 q37 -11 37 -43q0 -8 -2 -18q-8 -31 -11.5 -43.5t-12.5 -42t-19.5 -43t-22.5 -11.5q-150 27 -229 27q-172 0 -172 -76q0 -55 151 -149q10 -6 15 -10q174 -109 263 -196t89 -192q0 -154 -125 -226.5t-307 -72.5q-174 0 -361 70q-33 14 -33 43q1 10 5 23z" />
<glyph unicode="t" horiz-adv-x="751" d="M70 1081h137v258q0 29 151 37q5 0 10 1q20 0 42 -7q25 -4 28 -41v-248h213q29 0 37 -22q6 -14 6 -47q-8 -133 -32 -133h-224v-557q0 -113 31 -125q12 -7 31 -7q40 0 112 27q12 4 23 4q8 0 18 -12q23 -29 36 -82t11 -72q0 -23 -30 -32q-78 -35 -158 -41q-23 -4 -47 -4 l-31 2q-227 12 -227 319v580h-125q-31 0 -39 22q-7 23 -7 38q0 42 6 75.5t13.5 50t14.5 16.5z" />
<glyph unicode="u" horiz-adv-x="1126" d="M143 365v690q0 25 52.5 37t101.5 12q31 0 54.5 -12.5t23.5 -32.5v-647q0 -61 2 -94t9 -70t24.5 -53.5t46.5 -16.5q78 0 146.5 7.5t106.5 16.5t38 19v834q0 27 52 38t103 11q31 0 53.5 -12.5t22.5 -32.5v-889q0 -66 -164 -130.5t-385 -64.5q-80 0 -135 22.5t-85 53.5 t-45 88.5t-18.5 103.5t-3.5 122z" />
<glyph unicode="v" horiz-adv-x="915" d="M57 1018v10q-5 17 -5 30q0 48 65 48q164 0 176 -47l166 -766l164 766q10 47 174 47q66 0 65 -50q0 -12 -4 -28q0 -8 -2 -10l-287 -998q-14 -45 -59 -45q-152 0 -164 39z" />
<glyph unicode="w" horiz-adv-x="1480" d="M55 1028q-3 10 -2 20q0 20 12 35q17 23 52 23q158 0 166 -39l174 -745l178 747q12 37 127 37q70 0 80 -41l182 -743l172 745q8 39 166 39q35 0 52 -23q12 -15 12 -35q0 -9 -3 -20q0 -8 -2 -10l-286 -998q-14 -45 -60 -45q-152 0 -164 39l-172 625l-172 -619 q-14 -45 -59 -45q-152 0 -162 39l-289 1004q-2 2 -2 10z" />
<glyph unicode="x" horiz-adv-x="1038" d="M84 5q-8 14 -8 28q0 16 10 33l289 483l-260 469q-18 31 -2 59.5t53 28.5q150 0 178 -47l180 -332l178 332q25 47 177 47q37 0 53 -28.5t-2 -59.5l-260 -469l288 -483q10 -15 10 -31q0 -14 -7 -29q-16 -31 -56 -31q-150 0 -178 50l-203 352l-205 -352q-31 -49 -180 -50 q-39 0 -55 30z" />
<glyph unicode="y" horiz-adv-x="1126" d="M145 381v682q0 18 22.5 30.5t53.5 12.5q154 0 154 -47v-668q0 -106 16.5 -158.5t69.5 -52.5q113 0 198.5 13.5t90.5 29.5v840q0 18 22.5 30.5t52.5 12.5q156 0 156 -49v-1092q0 -109 -5 -171t-22.5 -126.5t-52.5 -96.5t-95.5 -51.5t-152.5 -19.5q-244 0 -458 94 q-33 14 -34 45q0 9 3 19q41 133 74 133q8 0 28 -8q242 -82 400 -82q53 0 68.5 54.5t15.5 191.5v82q-131 -53 -318 -54q-59 0 -105 12.5t-76 30t-51.5 52t-31.5 62.5t-15.5 78t-6.5 81t-1 90z" />
<glyph unicode="z" horiz-adv-x="1028" d="M66 70q4 35 21 90t36 82l504 635h-480q-35 0 -34 149q0 55 45 55h727q31 0 37 -24q10 -23 6 -47q-6 -37 -24.5 -95.5t-35.5 -80.5l-493 -631h547q20 0 32.5 -15.5t12.5 -37.5q0 -150 -35 -150h-684q-94 0 -154 10q-29 7 -29 49q1 5 1 11z" />
<glyph unicode="{" horiz-adv-x="813" d="M133 641q0 43 39 47q94 25 127 88.5t33 155.5q0 39 -6.5 120t-6.5 117q0 43 3 66q16 297 262 305h86q43 0 49 -47q0 -78 -10 -115q-8 -33 -23 -32q-6 -2 -25.5 -6.5t-24.5 -6.5t-19.5 -6t-18.5 -7t-13.5 -9t-11.5 -13.5t-7 -17.5t-6 -23.5t-1 -29.5q0 -39 5 -127t5 -142 q0 -262 -135 -356q135 -94 135 -358q0 -53 -5 -141.5t-5 -127.5q0 -92 64 -110q8 -2 28.5 -3t27.5 -3t16.5 -10.5t13.5 -24.5q10 -45 10 -115q-6 -47 -49 -47h-47q-287 0 -301 307q-2 23 -3 64q0 37 6.5 118.5t6.5 118.5q0 203 -160 244q-39 4 -39 127z" />
<glyph unicode="|" horiz-adv-x="620" d="M201 -369v1852q0 39 159 39q27 0 43.5 -13.5t16.5 -35.5v-1831q0 -47 -60 -48q-159 0 -159 37z" />
<glyph unicode="}" horiz-adv-x="788" d="M92 -291q-6 59 10 115q6 33 21 35q6 2 28.5 6t27.5 6t20.5 6t19.5 9t13.5 13.5t11.5 18.5t5 24.5t3 32.5q0 39 -6 127t-6 142q0 262 135 358q-135 96 -135 356q0 53 6 141.5t6 127.5q0 92 -64 110q-10 2 -25.5 3t-22.5 2t-16 4.5t-14.5 11.5t-7.5 20q-16 55 -10 115 q2 18 13.5 32.5t25.5 14.5h55q285 0 303 -305v-66q0 -43 -5 -122.5t-5 -114.5q0 -92 33 -155.5t127 -88.5q39 -4 39 -47q0 -123 -41 -127q-92 -25 -125 -88.5t-33 -155.5q0 -33 5 -113.5t5 -123.5v-64q-18 -307 -303 -307h-47q-16 0 -30.5 13.5t-16.5 33.5z" />
<glyph unicode="~" horiz-adv-x="1366" d="M182 416q53 133 141.5 200.5t182.5 67.5q74 0 191.5 -57.5t181.5 -57.5q39 0 68.5 22.5t64.5 80.5q33 -6 55 -17q80 -31 119 -55q-45 -135 -134 -202.5t-188 -67.5q-78 0 -196.5 58t-173.5 58q-39 0 -69 -23.5t-65 -80.5q-37 8 -55 16q-86 33 -123 58z" />
<glyph unicode="&#xa1;" horiz-adv-x="759" d="M261 840q-1 6 0 23.5t1 21.5v125q0 45 12 65q6 29 162 29q57 -4 58 -43v-230q0 -18 -16.5 -29t-41.5 -11q-76 -4 -133 6q-14 2 -24.5 8t-13.5 17.5t-4 17.5zM263 -377.5q1 19.5 1 25.5v954q0 43 103 47q35 2 69 -2q59 -4 60 -41v-1032q0 -18 -17.5 -29.5t-42.5 -11.5 q-82 -6 -131 6q-16 2 -25.5 10.5t-12.5 21.5t-4 22.5t0 29z" />
<glyph unicode="&#xa2;" horiz-adv-x="929" d="M123 401v277q0 375 313 418v196q0 27 144 35q25 4 49 -6q25 -6 24 -39v-186q176 -12 193 -58q2 -20 -4 -47q0 -2 -7.5 -25.5t-11.5 -35.5t-11 -29.5t-15.5 -26t-16.5 -6.5q-190 31 -194 31q-43 2 -74 0q-90 -6 -123 -75.5t-33 -198.5v-170q0 -63 7.5 -108.5t26 -87.5 t56 -62.5t95.5 -20.5q18 0 241 35q8 2 16.5 -6t14.5 -25.5t11 -31t10.5 -36t7.5 -26.5q8 -20 4 -47q-18 -41 -193 -57v-172q0 -49 -57 -50q-160 0 -160 39v185q-313 40 -313 417z" />
<glyph unicode="&#xa3;" horiz-adv-x="1234" d="M180 57q0 102 27 121q121 78 178 157t57 197q0 29 -16 148h-158q-59 0 -59 55q0 154 45 154h147q-8 98 -8 145v27q0 410 457 409q127 0 272 -47q35 -10 35 -45q-2 -33 -26.5 -88t-47.5 -57q-20 4 -62 12t-78 13.5t-71 5.5q-229 0 -229 -203v-27q0 -63 10 -145h162 q25 0 41 -15.5t16 -42.5q0 -152 -45 -151h-145q18 -129 18 -168q0 -72 -39.5 -161t-115.5 -140h583q20 0 35 -16.5t15 -40.5q0 -156 -37 -156h-918q-43 0 -43 59z" />
<glyph unicode="&#xa4;" horiz-adv-x="1333" d="M90 233q0 147 49 179l41 24q-35 82 -35 180q0 94 37 181l-43 22q-49 31 -49 180q0 39 31 55.5t59 -1.5l133 -82q147 137 350 137t351 -137l135 82q29 18 59.5 1.5t30.5 -55.5q0 -150 -49 -180l-43 -22q37 -94 37 -181q0 -88 -37 -182l43 -22q49 -31 49 -179 q0 -41 -30.5 -57t-59.5 4l-131 82q-147 -137 -354 -137q-205 0 -353 137l-131 -82q-29 -18 -59.5 -2t-30.5 55zM352 614.5q0 -120.5 91.5 -205.5t220.5 -85t221 85t92 205.5t-92 206.5t-221 86t-220.5 -86t-91.5 -206.5z" />
<glyph unicode="&#xa5;" horiz-adv-x="1304" d="M83 1474.5q15 24.5 62 24.5q160 0 187 -49l319 -616l320 616q27 49 186 49q49 0 64.5 -24.5t-7.5 -67.5l-356 -662h234q23 0 37 -16t14 -43q0 -162 -39 -162h-328v-100h316q23 0 37 -16.5t14 -42.5q0 -162 -39 -162h-328v-174q0 -23 -18.5 -38.5t-44.5 -15.5 q-182 0 -183 41v187h-317q-23 0 -37 16.5t-14 42.5q0 162 39 162h329v100h-317q-23 0 -37 16.5t-14 43.5q0 162 39 161h241l-352 662q-22 43 -7 67.5z" />
<glyph unicode="&#xa6;" horiz-adv-x="620" d="M201 -190v733q0 37 159 37q59 0 60 -48v-712q0 -23 -16.5 -36t-43.5 -13q-159 0 -159 39zM201 782v734q0 39 159 38q27 0 43.5 -13t16.5 -36v-712q0 -47 -60 -48q-159 0 -159 37z" />
<glyph unicode="&#xa7;" horiz-adv-x="974" d="M2 -55q-2 29 12 51q4 6 11.5 23.5t14.5 30.5t16.5 28.5t18.5 21.5t17 4q139 -47 232 -53q61 -4 92 -2q170 8 170 76q0 70 -242 219q-66 39 -101.5 64.5t-84.5 68.5t-72 94.5t-23 110.5q0 182 177 250q-115 102 -115 217q0 289 432 289q78 0 173 -16.5t106 -47.5 q2 -23 -5 -47q-2 -4 -7 -24.5t-10 -35t-12 -31.5t-15.5 -26.5t-16.5 -7.5q-190 27 -229 27q-176 0 -176 -74q0 -35 40.5 -70.5t129.5 -91.5q174 -109 263 -195.5t89 -191.5q0 -176 -178 -254q117 -111 116 -213q0 -154 -125 -226.5t-307 -72.5q-174 0 -360 70q-31 15 -31 35 zM303 688q0 -59 81 -117.5t155 -72.5q109 4 108 92q0 59 -71.5 114.5t-151.5 75.5q-121 -4 -121 -92z" />
<glyph unicode="&#xa8;" horiz-adv-x="555" d="M-31 1384v238q0 41 168 41q27 0 45.5 -15.5t18.5 -37.5v-213q0 -23 -18.5 -38.5t-45.5 -15.5q-168 0 -168 41zM356 1384v238q0 41 168 41q27 0 45.5 -15.5t18.5 -37.5v-213q0 -23 -18.5 -38.5t-45.5 -15.5q-168 0 -168 41z" />
<glyph unicode="&#xa9;" horiz-adv-x="1732" d="M100 725q0 311 226.5 531.5t539.5 220.5q328 0 547 -226.5t219 -548.5q0 -217 -113.5 -387t-287.5 -256t-367 -86q-213 0 -390 107.5t-275.5 279.5t-98.5 365zM242 725q0 -252 180 -443.5t442 -191.5q246 0 435.5 172t189.5 444.5t-178 464t-445 191.5 q-258 0 -441 -186.5t-183 -450.5zM522 582v266q0 203 94.5 286t301.5 83h10q68 0 145.5 -14.5t87.5 -43.5q8 -8 6 -20q-31 -90 -51 -90q-119 25 -188 24h-10q-147 0 -187.5 -58.5t-40.5 -211.5v-178q0 -154 40 -212.5t188 -58.5h10q78 0 188 27q23 0 51 -92q2 -8 -6 -21 q-10 -27 -89 -42t-144 -15h-10q-207 0 -301.5 84t-94.5 287z" />
<glyph unicode="&#xaa;" horiz-adv-x="1069" d="M106 893q0 117 39 180.5t164 63.5q129 0 232 -31q-4 117 -33 166t-107 49q-29 0 -88 -8l-75 -13q-10 -2 -20.5 17.5t-16.5 40t-11 41.5q-6 43 27 45l55 12q45 8 138 12q147 0 222 -77.5t75 -219.5v-407q0 -35 -50.5 -60.5t-125 -35t-127 -13.5t-93.5 -4q-117 0 -161 60.5 t-44 181.5zM274 903q-4 -104 58 -104q123 0 209 14v150q-43 27 -183 26q-47 0 -64.5 -17.5t-19.5 -68.5z" />
<glyph unicode="&#xab;" horiz-adv-x="993" d="M41 590l321 397q31 37 60 37q14 0 50 -36t36 -54q0 -29 -19 -49l-221 -295l221 -295q18 -23 19 -51q0 -18 -36 -53t-50 -35q-31 0 -60 34zM444 590l322 397q31 37 59 37q14 0 50 -37t36 -53q0 -25 -18 -49l-221 -295l221 -295q18 -27 18 -51q0 -16 -35.5 -52t-50.5 -36 q-31 0 -59 34z" />
<glyph unicode="&#xac;" horiz-adv-x="1329" d="M139 629v202h1051v-575h-211v373h-840z" />
<glyph unicode="&#xad;" horiz-adv-x="800" d="M123 541q0 162 41 161h487q23 0 38.5 -16t15.5 -43q0 -162 -41 -162h-488q-23 0 -38 16.5t-15 43.5z" />
<glyph unicode="&#xae;" horiz-adv-x="1732" d="M100 725q0 311 226.5 531.5t539.5 220.5q328 0 547 -226.5t219 -548.5q0 -217 -113.5 -387t-287.5 -256t-367 -86q-213 0 -390 107.5t-275.5 279.5t-98.5 365zM242 725q0 -252 180 -443.5t442 -191.5q219 0 391 135h-6q-100 0 -123 37l-217 365h-164v-367q0 -35 -40 -35 q-123 0 -123 29v926q0 35 43 34h301q186 0 268 -60t82 -234q0 -129 -46 -192.5t-145 -88.5l203 -350q10 -16 10 -27q190 176 191 445q0 272 -178 463.5t-445 191.5q-258 0 -441 -186.5t-183 -450.5zM745 770h181q115 0 147.5 28.5t32.5 121.5q0 94 -33 122.5t-147 28.5h-181 v-301z" />
<glyph unicode="&#xaf;" horiz-adv-x="579" d="M-12 1386q0 121 30 121h535q35 0 35 -45q0 -119 -29 -119h-534q-37 0 -37 43z" />
<glyph unicode="&#xb0;" horiz-adv-x="944" d="M158 1163q0 123 94 210t221 87q129 0 221 -89t92 -210q0 -123 -93 -211t-220 -88q-131 0 -223 89t-92 212zM334 1165q0 -57 41 -95t100 -38q55 0 95 37t40 88q0 53 -39 93t-94 40q-61 0 -102 -36t-41 -89z" />
<glyph unicode="&#xb1;" horiz-adv-x="1345" d="M143 559v209h418v395h219v-395h410v-209h-410v-397h-219v397h-418zM152 -68q0 66 8 144h1042q4 -45 4 -70q0 -66 -8 -143h-1042q-4 44 -4 69z" />
<glyph unicode="&#xb2;" horiz-adv-x="180" />
<glyph unicode="&#xb3;" horiz-adv-x="0" />
<glyph unicode="&#xb4;" horiz-adv-x="653" d="M100 1434l168 223q47 70 78 96q6 4 191 -20q18 -4 27 -11.5t7 -17.5q-4 -8 -18 -23l-297 -284q-23 -25 -45 -21q-10 0 -39 8.5t-54.5 23t-17.5 26.5z" />
<glyph unicode="&#xb5;" horiz-adv-x="1206" d="M184 -539v1618q164 10 222 11q12 -18 12 -146v-508q-2 -129 12 -192.5t70 -63.5q78 0 146.5 6.5t106.5 14.5t38 18v860q164 10 219 11q12 -16 12 -70v-852q0 -61 -165 -126t-386 -65q-43 0 -53 25v-532q-82 -18 -142 -19q-35 0 -92 10z" />
<glyph unicode="&#x3bc;" horiz-adv-x="1206" d="M184 -539v1618q164 10 222 11q12 -18 12 -146v-508q-2 -129 12 -192.5t70 -63.5q78 0 146.5 6.5t106.5 14.5t38 18v860q164 10 219 11q12 -16 12 -70v-852q0 -61 -165 -126t-386 -65q-43 0 -53 25v-532q-82 -18 -142 -19q-35 0 -92 10z" />
<glyph unicode="&#xb6;" horiz-adv-x="1343" d="M139 1053q0 188 127 306t332 118h438q55 0 90 -11v-1609q0 -61 -10 -95q-84 0 -211 9v1513h-135v-1350q0 -121 -10 -172q-84 0 -207 9v864q-188 12 -301 126t-113 292z" />
<glyph unicode="&#xb7;" horiz-adv-x="870" d="M268 510v238q0 41 168 40q27 0 45.5 -15t18.5 -38v-213q0 -23 -18.5 -38t-45.5 -15q-168 0 -168 41z" />
<glyph unicode="&#xb8;" horiz-adv-x="538" d="M-13 -431.5q3 23.5 21 69.5q12 27 53 4q49 -16 86 -17q68 0 103 33t35 78q0 29 -32 50t-85 21q-47 0 -64.5 9.5t-1.5 42.5l93 196l176 -12l-64 -129q80 -8 121 -48t41 -99q0 -125 -78 -198t-227 -73q-94 0 -154 33q-14 6 -20 11t-3 28.5z" />
<glyph unicode="&#xb9;" horiz-adv-x="716" />
<glyph unicode="&#xba;" horiz-adv-x="866" d="M78 1139q0 158 95 253t263 95q164 0 258 -95.5t94 -252.5q0 -162 -94 -257.5t-258 -95.5q-170 0 -264 94.5t-94 258.5zM266 1136.5q0 -192.5 168 -192.5q164 0 164 195q0 190 -164 190q-168 0 -168 -192.5z" />
<glyph unicode="&#xbb;" horiz-adv-x="1142" d="M141 244q0 29 19 51l221 295l-221 295q-18 20 -19 49q0 18 36 54t48 36q31 0 62 -37l321 -397l-321 -400q-29 -35 -62 -34q-12 0 -48 35t-36 53zM543 244q0 25 18 51l221 295l-221 295q-18 25 -18 49q0 18 36.5 54t51.5 36q27 0 57 -37l324 -397l-324 -400 q-29 -35 -57 -34q-14 0 -51 35t-37 53z" />
<glyph unicode="&#xbc;" horiz-adv-x="2314" d="M57 1276q0 18 35 53t102.5 89.5t77.5 62.5q53 45 197 45q25 0 43 -15.5t18 -37.5v-1031q0 -23 -16 -38t-43 -15q-51 0 -114.5 11.5t-63.5 33.5v795l-86 -78q-14 -14 -62 20q-88 66 -88 105zM530 43l832 1505q4 14 36 8t60.5 -16t50.5 -22q45 -29 31 -72l-815 -1471 q-10 -16 -31.5 -22t-44.5 2q-41 16 -85 43t-34 45zM1335 291q12 102 37 133l494 653q16 20 135 27q27 4 45 -6q25 -8 25 -39v-653h120q41 0 41 -48q0 -129 -30 -129h-131v-211q0 -18 -18.5 -30.5t-43.5 -12.5q-172 0 -172 39v215h-463q-29 0 -35 23q-8 16 -4 39zM1532 403 h305v414z" />
<glyph unicode="&#xbd;" horiz-adv-x="2203" d="M57 1257q0 23 15 31q29 29 225 193q45 37 174 43q29 0 61 -13q27 -8 27 -61v-1008q-2 -23 -19.5 -38t-41.5 -15q-51 0 -113.5 11.5t-62.5 33.5v795l-119 -103q-16 -10 -58 27q-33 25 -46 35t-27.5 30.5t-14.5 38.5zM469 25l834 1505q4 14 34.5 8t59 -16.5t51.5 -22.5 q47 -27 33 -72l-815 -1470q-10 -16 -32 -22.5t-44 2.5q-43 16 -87 43t-34 45zM1366 10q0 33 4 88.5t4 63.5q301 322 397.5 442.5t106.5 179.5q0 35 -4 50q-14 80 -154 79q-57 0 -217 -20q-31 -2 -63 133q-10 49 35 59q119 33 243 33q346 0 393 -241q10 -51 9 -95 q-8 -104 -88 -212.5t-322 -362.5h338q53 0 74 -10q0 -18 -6 -197h-658q-65 0 -92 10z" />
<glyph unicode="&#xbe;" horiz-adv-x="2433" d="M82 467q29 145 63 141q121 -20 160 -22h70q195 4 194 110v39q0 57 -52 86t-132 29h-104q-33 0 -33 137q-4 25 6 47q8 25 39 25h82q78 0 127 28.5t49 86.5v16q0 117 -166 119q-98 2 -227 -19q-16 -2 -29.5 24.5t-22.5 67.5l-10 45q-10 49 39 62q109 27 217 27 q438 0 439 -326v-16q0 -141 -86 -211q104 -82 104 -228v-39q0 -117 -70.5 -190.5t-168 -100t-220.5 -26.5q-102 0 -231 27q-45 10 -37 61zM694 43l832 1505q4 14 35.5 8t60.5 -16t51 -22q45 -29 31 -72l-815 -1471q-10 -16 -31.5 -22t-44.5 2q-41 16 -85 43t-34 45z M1386 291q12 102 37 133l494 653q16 20 135 27q29 4 45 -6q25 -8 25 -39v-653h121q41 0 41 -48q0 -129 -31 -129h-131v-211q0 -18 -18.5 -30.5t-43.5 -12.5q-170 0 -170 39v215h-463q-31 0 -36 23q-5 12 -5 39zM1583 403h307v414z" />
<glyph unicode="&#xbf;" horiz-adv-x="1103" d="M201 57q8 84 62 165t114.5 136.5t110 132t49.5 152.5q0 57 26 64q25 10 53 6q150 0 150 -37q0 -170 -80 -293q-25 -39 -90.5 -107.5t-106 -129t-40.5 -117.5q0 -104 54 -150.5t167 -46.5q53 0 225 25q20 4 37.5 -40t28.5 -93q12 -53 -33 -62q-139 -33 -258 -33 q-100 0 -176 15.5t-140.5 51.5t-102.5 102.5t-48 162.5q-4 61 -2 96zM537 887v139q0 33 2 47t15 28.5t44 14.5q168 0 168 -41v-237q0 -41 -168 -41q-31 0 -44 14t-15 28.5t-2 47.5z" />
<glyph unicode="&#xc0;" horiz-adv-x="1292" d="M51 25q0 16 4 26l471 1413q10 35 80 35q150 0 162 -35l469 -1413q0 -4 3 -13t3 -13q0 -49 -84 -50q-164 0 -182 58l-96 334h-467l-99 -334q-16 -57 -182 -58q-82 1 -82 50zM254 1923q0 14 37 25q168 25 180 24q20 0 35 -16l201 -266l26 -39q8 -10 -19.5 -24.5t-58 -23 t-41.5 -8.5q-18 0 -39 21l-303 278q-18 23 -18 29zM477 584h336l-166 577z" />
<glyph unicode="&#xc1;" horiz-adv-x="1292" d="M51 25q0 16 4 26l471 1413q10 35 80 35q150 0 162 -35l469 -1413q0 -4 3 -13t3 -13q0 -49 -84 -50q-164 0 -182 58l-96 334h-467l-99 -334q-16 -57 -182 -58q-82 1 -82 50zM477 584h336l-166 577zM573 1667l168 223q47 70 78 97q6 4 191 -21q18 -4 27.5 -11t6.5 -18 q-4 -8 -18 -22l-297 -285q-25 -25 -45 -20q-10 0 -39 8t-54.5 22.5t-17.5 26.5z" />
<glyph unicode="&#xc2;" horiz-adv-x="1292" d="M51 25q0 16 4 26l471 1413q10 35 80 35q150 0 162 -35l469 -1413q0 -4 3 -13t3 -13q0 -49 -84 -50q-164 0 -182 58l-96 334h-467l-99 -334q-16 -57 -182 -58q-82 1 -82 50zM342 1769l289 248q14 14 28.5 14.5t28.5 -14.5l289 -248q29 -27 -2 -67q-96 -111 -123 -88 l-193 168l-194 -168q-27 -20 -121 88q-35 40 -2 67zM477 584h336l-166 577z" />
<glyph unicode="&#xc3;" horiz-adv-x="1292" d="M51 25q0 16 4 26l471 1413q10 35 80 35q150 0 162 -35l469 -1413q0 -4 3 -13t3 -13q0 -49 -84 -50q-164 0 -182 58l-96 334h-467l-99 -334q-16 -57 -182 -58q-82 1 -82 50zM342 1677q2 12 18 45q78 137 207 138q37 0 104.5 -30t108.5 -30q51 0 76 47q2 12 20.5 11.5 t84.5 -23.5q41 -16 34 -43q-8 -27 -18 -43q-66 -117 -180 -135h-39q-33 2 -97.5 29.5t-103.5 27.5q-53 0 -78 -47q-4 -10 -9 -12t-26.5 3t-66.5 21q-41 12 -35 41zM477 584h336l-166 577z" />
<glyph unicode="&#xc4;" horiz-adv-x="1292" d="M51 25q0 16 4 26l471 1413q10 35 80 35q150 0 162 -35l469 -1413q0 -4 3 -13t3 -13q0 -49 -84 -50q-164 0 -182 58l-96 334h-467l-99 -334q-16 -57 -182 -58q-82 1 -82 50zM342 1653v237q0 41 168 41q27 0 45 -15t18 -38v-213q0 -23 -18 -38t-45 -15q-168 0 -168 41z M477 584h336l-166 577zM729 1653v237q0 41 168 41q27 0 45.5 -15t18.5 -38v-213q0 -23 -18.5 -38t-45.5 -15q-168 0 -168 41z" />
<glyph unicode="&#xc5;" horiz-adv-x="1292" d="M51 25q0 16 4 26l471 1413q10 35 80 35q150 0 162 -35l469 -1413q0 -4 3 -13t3 -13q0 -49 -84 -50q-164 0 -182 58l-96 334h-467l-99 -334q-16 -57 -182 -58q-82 1 -82 50zM414 1825q0 86 61.5 148.5t165.5 62.5t166.5 -62.5t62.5 -150.5q0 -86 -62.5 -148.5 t-164.5 -62.5q-106 0 -167.5 62.5t-61.5 150.5zM477 584h336l-166 577zM539 1825q0 -39 26.5 -65.5t71.5 -26.5t72.5 27.5t27.5 64.5q0 39 -27.5 66.5t-72.5 27.5t-71.5 -27.5t-26.5 -66.5z" />
<glyph unicode="&#xc6;" horiz-adv-x="2011" d="M63 49l48 78l784 1259q53 86 125 87h827q20 0 34.5 -16.5t14.5 -41.5q0 -160 -38 -160h-656v-397h565q23 0 36.5 -16.5t13.5 -42.5q0 -158 -39 -158h-576v-424h645q20 0 34.5 -16.5t14.5 -40.5q0 -160 -38 -160h-803q-31 0 -65 13.5t-34 27.5v326h-446l-188 -326 q-33 -57 -199 -57q-37 0 -58.5 15t-1.5 50zM639 584h317v542z" />
<glyph unicode="&#xc7;" horiz-adv-x="1208" d="M123 535v403q0 305 143.5 431t456.5 126h16q115 0 242 -23.5t127 -70.5q0 -33 -28.5 -95.5t-51.5 -66.5q-158 41 -289 41q-100 0 -165.5 -16.5t-104.5 -44t-58.5 -84t-24.5 -112.5t-5 -153v-270q0 -119 9 -183.5t43 -121.5t103.5 -79.5t186.5 -22.5q150 0 305 38 q23 -2 51.5 -63.5t28.5 -97.5q0 -43 -102.5 -65.5t-221.5 -27.5l-45 -94q80 -8 121 -48t41 -99q0 -125 -78 -198t-227 -73q-94 0 -154 33q-14 6 -20 11.5t-3 29t21 68.5q12 27 54 4q49 -16 86 -17q68 0 102.5 33t34.5 78q0 29 -32 50.5t-85 21.5q-47 0 -64.5 9t-0.5 42 l69 152q-250 20 -365.5 149.5t-115.5 405.5z" />
<glyph unicode="&#xc8;" horiz-adv-x="1208" d="M154 41v1378q0 23 17 38.5t44 15.5h827q20 0 35 -16.5t15 -41.5q0 -160 -37 -160h-656v-397h566q20 0 34.5 -16.5t14.5 -42.5q0 -158 -39 -158h-576v-424h643q20 0 35 -16.5t15 -40.5q0 -160 -37 -160h-805q-31 0 -63.5 13.5t-32.5 27.5zM301 1923q0 14 37 25 q168 25 180 24q20 0 35 -16l201 -266l26 -39q8 -10 -19.5 -24.5t-58 -23t-40.5 -8.5q-18 0 -39 21l-304 278q-18 23 -18 29z" />
<glyph unicode="&#xc9;" horiz-adv-x="1300" d="M154 41v1378q0 23 17 38.5t44 15.5h827q20 0 35 -16.5t15 -41.5q0 -160 -37 -160h-656v-397h566q20 0 34.5 -16.5t14.5 -42.5q0 -158 -39 -158h-576v-424h643q20 0 35 -16.5t15 -40.5q0 -160 -37 -160h-805q-31 0 -63.5 13.5t-32.5 27.5zM618 1667l168 223q47 70 78 97 q6 4 191 -21q18 -4 27.5 -11t7.5 -18q-4 -8 -19 -22l-297 -285q-25 -25 -45 -20q-10 0 -38.5 8t-54.5 22.5t-18 26.5z" />
<glyph unicode="&#xca;" horiz-adv-x="1247" d="M154 41v1378q0 23 17 38.5t44 15.5h827q20 0 35 -16.5t15 -41.5q0 -160 -37 -160h-656v-397h566q20 0 34.5 -16.5t14.5 -42.5q0 -158 -39 -158h-576v-424h643q20 0 35 -16.5t15 -40.5q0 -160 -37 -160h-805q-31 0 -63.5 13.5t-32.5 27.5zM342 1769l289 248 q14 14 28.5 14.5t28.5 -14.5l289 -248q29 -27 -2 -67q-96 -111 -123 -88l-193 168l-194 -168q-27 -20 -121 88q-35 40 -2 67z" />
<glyph unicode="&#xcb;" horiz-adv-x="1208" d="M154 41v1378q0 23 17 38.5t44 15.5h827q20 0 35 -16.5t15 -41.5q0 -160 -37 -160h-656v-397h566q20 0 34.5 -16.5t14.5 -42.5q0 -158 -39 -158h-576v-424h643q20 0 35 -16.5t15 -40.5q0 -160 -37 -160h-805q-31 0 -63.5 13.5t-32.5 27.5zM381 1653v237q0 41 168 41 q27 0 45 -15t18 -38v-213q0 -23 -18.5 -38t-44.5 -15q-168 0 -168 41zM768 1653v237q0 41 168 41q27 0 45 -15t18 -38v-213q0 -23 -18 -38t-45 -15q-168 0 -168 41z" />
<glyph unicode="&#xcc;" horiz-adv-x="653" d="M-78 1923q0 14 37 25q168 25 180 24q20 0 35 -16l201 -266l26 -39q8 -10 -19.5 -24.5t-58 -23t-40.5 -8.5q-18 0 -39 21l-303 278q-19 23 -19 29zM197 16v1442q0 41 184 41q27 0 44 -15.5t17 -37.5v-1417q0 -23 -17 -38.5t-44 -15.5q-184 0 -184 41z" />
<glyph unicode="&#xcd;" horiz-adv-x="651" d="M195 16v1442q0 41 184 41q27 0 44 -15.5t17 -37.5v-1417q0 -23 -17 -38.5t-44 -15.5q-184 0 -184 41zM240 1667l168 223q47 70 77 97q6 4 191 -21q18 -4 27.5 -11t7.5 -18q-4 -8 -19 -22l-297 -285q-23 -25 -45 -20q-10 0 -38.5 8t-54 22.5t-17.5 26.5z" />
<glyph unicode="&#xce;" horiz-adv-x="681" d="M12 1769l289 248q14 14 28.5 14.5t28.5 -14.5l289 -248q29 -27 -2 -67q-96 -111 -123 -88l-192 168l-195 -168q-27 -20 -121 88q-35 40 -2 67zM197 16v1442q0 41 184 41q27 0 44 -15.5t17 -37.5v-1417q0 -23 -17 -38.5t-44 -15.5q-184 0 -184 41z" />
<glyph unicode="&#xcf;" horiz-adv-x="622" d="M4 1653v237q0 41 168 41q27 0 45.5 -15t18.5 -38v-213q0 -23 -18.5 -38t-45.5 -15q-168 0 -168 41zM195 16v1442q0 41 184 41q27 0 44 -15.5t17 -37.5v-1417q0 -23 -17 -38.5t-44 -15.5q-184 0 -184 41zM391 1653v237q0 41 168 41q27 0 45.5 -15t18.5 -38v-213 q0 -23 -18.5 -38t-45.5 -15q-168 0 -168 41z" />
<glyph unicode="&#xd0;" horiz-adv-x="1382" d="M-14 700q0 164 39 164h129v555q0 23 17 38.5t44 15.5h444q313 0 457 -126t144 -434v-354q0 -307 -143.5 -433t-457.5 -126h-411q-31 0 -62.5 13.5t-31.5 27.5v600h-117q-23 0 -37 16t-14 43zM399 217h260q117 0 186.5 22.5t103.5 80t43 122t9 183.5v223q0 119 -9 183.5 t-43 121.5t-103.5 79.5t-186.5 22.5h-260v-391h115q23 0 37 -17.5t14 -43.5q0 -162 -39 -162h-127v-424z" />
<glyph unicode="&#xd1;" horiz-adv-x="1660" d="M199 23v1427q0 27 53 38t104 11q55 0 88 -45l781 -1026v1022q0 25 57 37t111 12q31 0 54 -12t23 -33v-1425q0 -23 -17 -38.5t-44 -15.5q-47 0 -108.5 10.5t-75.5 28.5l-781 1033v-1012q0 -25 -17 -42.5t-44 -17.5q-53 0 -118.5 12.5t-65.5 35.5zM512 1677q2 12 18 45 q78 137 207 138q37 0 104.5 -30t108.5 -30q53 0 76 47q2 12 20.5 11.5t83.5 -23.5q41 -16 35 -43q-8 -27 -18 -43q-66 -117 -180 -135h-39q-33 2 -97.5 29.5t-103.5 27.5q-53 0 -78 -47q-4 -10 -9 -12t-26.5 3t-66.5 21q-41 12 -35 41z" />
<glyph unicode="&#xd2;" d="M123 535v403q0 305 143.5 431t456.5 126h16q313 0 456.5 -126t143.5 -431v-403q0 -305 -143 -431.5t-457 -126.5h-16q-313 0 -456.5 126.5t-143.5 431.5zM358 1923q0 14 37 25q168 25 180 24q20 0 35 -16l201 -266l27 -39q8 -10 -19.5 -24.5t-58.5 -23t-41 -8.5 q-18 0 -39 21l-303 278q-19 23 -19 29zM381 602q0 -94 5 -149.5t23.5 -112.5t55.5 -85t100.5 -45t157.5 -17h16q94 0 158 17t100.5 46t56 84t24.5 111.5t5 150.5v268q0 94 -5 150.5t-24.5 112t-56 84t-100 46t-158.5 17.5h-16q-94 0 -157.5 -17.5t-100.5 -45t-55.5 -85 t-23.5 -112.5t-5 -150v-268z" />
<glyph unicode="&#xd3;" d="M123 535v403q0 305 143.5 431t456.5 126h16q313 0 456.5 -126t143.5 -431v-403q0 -305 -143 -431.5t-457 -126.5h-16q-313 0 -456.5 126.5t-143.5 431.5zM381 602q0 -94 5 -149.5t23.5 -112.5t55.5 -85t100.5 -45t157.5 -17h16q94 0 158 17t100.5 46t56 84t24.5 111.5 t5 150.5v268q0 94 -5 150.5t-24.5 112t-56 84t-100 46t-158.5 17.5h-16q-94 0 -157.5 -17.5t-100.5 -45t-55.5 -85t-23.5 -112.5t-5 -150v-268zM672 1667l168 223q47 70 78 97q6 4 190 -21q18 -4 27.5 -11t7.5 -18q-4 -8 -19 -22l-297 -285q-25 -25 -45 -20q-10 0 -38.5 8 t-54 22.5t-17.5 26.5z" />
<glyph unicode="&#xd4;" d="M123 535v403q0 305 143.5 431t456.5 126h16q313 0 456.5 -126t143.5 -431v-403q0 -305 -143 -431.5t-457 -126.5h-16q-313 0 -456.5 126.5t-143.5 431.5zM381 602q0 -94 5 -149.5t23.5 -112.5t55.5 -85t100.5 -45t157.5 -17h16q94 0 158 17t100.5 46t56 84t24.5 111.5 t5 150.5v268q0 94 -5 150.5t-24.5 112t-56 84t-100 46t-158.5 17.5h-16q-94 0 -157.5 -17.5t-100.5 -45t-55.5 -85t-23.5 -112.5t-5 -150v-268zM414 1769l288 248q14 14 28.5 14.5t29.5 -14.5l289 -248q29 -27 -2 -67q-96 -111 -123 -88l-193 168l-194 -168q-27 -20 -121 88 q-35 40 -2 67z" />
<glyph unicode="&#xd5;" d="M123 535v403q0 305 143.5 431t456.5 126h16q313 0 456.5 -126t143.5 -431v-403q0 -305 -143 -431.5t-457 -126.5h-16q-313 0 -456.5 126.5t-143.5 431.5zM381 602q0 -94 5 -149.5t23.5 -112.5t55.5 -85t100.5 -45t157.5 -17h16q94 0 158 17t100.5 46t56 84t24.5 111.5 t5 150.5v268q0 94 -5 150.5t-24.5 112t-56 84t-100 46t-158.5 17.5h-16q-94 0 -157.5 -17.5t-100.5 -45t-55.5 -85t-23.5 -112.5t-5 -150v-268zM446 1677q2 12 19 45q78 137 207 138q37 0 104.5 -30t108.5 -30q53 0 76 47q2 12 20 11.5t84 -23.5q41 -16 35 -43 q-8 -27 -19 -43q-66 -117 -180 -135h-39q-33 2 -97.5 29.5t-102.5 27.5q-53 0 -78 -47q-4 -10 -9.5 -12t-27 3t-66.5 21q-41 12 -35 41z" />
<glyph unicode="&#xd6;" d="M123 535v403q0 305 143.5 431t456.5 126h16q313 0 456.5 -126t143.5 -431v-403q0 -305 -143 -431.5t-457 -126.5h-16q-313 0 -456.5 126.5t-143.5 431.5zM381 602q0 -94 5 -149.5t23.5 -112.5t55.5 -85t100.5 -45t157.5 -17h16q94 0 158 17t100.5 46t56 84t24.5 111.5 t5 150.5v268q0 94 -5 150.5t-24.5 112t-56 84t-100 46t-158.5 17.5h-16q-94 0 -157.5 -17.5t-100.5 -45t-55.5 -85t-23.5 -112.5t-5 -150v-268zM426 1653v237q0 41 168 41q27 0 45 -15t18 -38v-213q0 -23 -18 -38t-45 -15q-168 0 -168 41zM813 1653v237q0 41 168 41 q27 0 45 -15t18 -38v-213q0 -23 -18 -38t-45 -15q-168 0 -168 41z" />
<glyph unicode="&#xd7;" horiz-adv-x="1421" d="M188 197l371 346l-369 352l148 139l373 -352l374 350q109 -100 148 -137l-371 -350l369 -350q-31 -27 -83 -74t-69 -62l-368 349l-375 -351z" />
<glyph unicode="&#xd8;" horiz-adv-x="1470" d="M127 535v403q0 305 143.5 431t456.5 126h16q115 0 201 -14l29 69q8 16 29.5 24.5t44.5 0.5l37.5 -12.5t43 -16.5t36 -22.5t7.5 -24.5l-34 -84q207 -121 206 -477v-403q0 -305 -143 -431.5t-457 -126.5h-16q-96 0 -178 13l-23 -60q-8 -18 -29.5 -27t-43.5 -3 q-47 12 -92.5 34.5t-34.5 42.5l28 70q-227 115 -227 488zM385 602q0 -129 12.5 -203.5t51.5 -122.5l409 996q-70 8 -115 8h-16q-94 0 -157.5 -17.5t-100.5 -45t-55.5 -85t-23.5 -112.5t-5 -150v-268zM635 197q29 -4 92 -4h16q94 0 158 17t100.5 46t56 84t24.5 111.5t5 150.5 v268q0 223 -51 304z" />
<glyph unicode="&#xd9;" horiz-adv-x="1505" d="M143 535v917q0 23 64.5 35t120.5 12q27 0 44 -17.5t17 -41.5v-838q0 -117 10.5 -183.5t46 -122.5t107.5 -79.5t190 -23.5h17q119 0 190.5 23.5t107.5 79.5t46 122.5t10 183.5v850q0 23 64.5 35t119.5 12q27 0 44.5 -17.5t17.5 -41.5v-905q0 -305 -143.5 -431.5 t-456.5 -126.5h-17q-313 0 -456.5 126.5t-143.5 431.5zM387 1923q0 14 37 25q168 25 180 24q20 0 35 -16l201 -266l26 -39q8 -10 -19.5 -24.5t-58 -23t-40.5 -8.5q-18 0 -39 21l-303 278q-19 23 -19 29z" />
<glyph unicode="&#xda;" horiz-adv-x="1505" d="M143 535v917q0 23 64.5 35t120.5 12q27 0 44 -17.5t17 -41.5v-838q0 -117 10.5 -183.5t46 -122.5t107.5 -79.5t190 -23.5h17q119 0 190.5 23.5t107.5 79.5t46 122.5t10 183.5v850q0 23 64.5 35t119.5 12q27 0 44.5 -17.5t17.5 -41.5v-905q0 -305 -143.5 -431.5 t-456.5 -126.5h-17q-313 0 -456.5 126.5t-143.5 431.5zM678 1667l168 223q47 70 78 97q6 4 190 -21q18 -4 27.5 -11t7.5 -18q-4 -8 -19 -22l-296 -285q-23 -25 -46 -20q-10 0 -38.5 8t-54 22.5t-17.5 26.5z" />
<glyph unicode="&#xdb;" horiz-adv-x="1505" d="M143 535v917q0 23 64.5 35t120.5 12q27 0 44 -17.5t17 -41.5v-838q0 -117 10.5 -183.5t46 -122.5t107.5 -79.5t190 -23.5h17q119 0 190.5 23.5t107.5 79.5t46 122.5t10 183.5v850q0 23 64.5 35t119.5 12q27 0 44.5 -17.5t17.5 -41.5v-905q0 -305 -143.5 -431.5 t-456.5 -126.5h-17q-313 0 -456.5 126.5t-143.5 431.5zM436 1769l289 248q14 14 28.5 14.5t28.5 -14.5l289 -248q29 -27 -2 -67q-96 -111 -123 -88l-192 168l-195 -168q-27 -20 -121 88q-35 40 -2 67z" />
<glyph unicode="&#xdc;" horiz-adv-x="1505" d="M143 535v917q0 23 64.5 35t120.5 12q27 0 44 -17.5t17 -41.5v-838q0 -117 10.5 -183.5t46 -122.5t107.5 -79.5t190 -23.5h17q119 0 190.5 23.5t107.5 79.5t46 122.5t10 183.5v850q0 23 64.5 35t119.5 12q27 0 44.5 -17.5t17.5 -41.5v-905q0 -305 -143.5 -431.5 t-456.5 -126.5h-17q-313 0 -456.5 126.5t-143.5 431.5zM446 1653v237q0 41 168 41q27 0 45.5 -15t18.5 -38v-213q0 -23 -18.5 -38t-45.5 -15q-168 0 -168 41zM834 1653v237q0 41 167 41q27 0 45.5 -15t18.5 -38v-213q0 -23 -18.5 -38t-45.5 -15q-167 0 -167 41z" />
<glyph unicode="&#xdd;" horiz-adv-x="1304" d="M90 1407q-51 92 55 92q160 0 187 -49l319 -616l320 616q27 49 186 49q104 0 57 -92l-438 -815v-563q0 -23 -18.5 -38.5t-44.5 -15.5q-182 0 -183 41v574zM604 1667l168 223q47 70 78 97q6 4 190 -21q18 -4 27.5 -11t7.5 -18q-4 -8 -18 -22l-297 -285q-23 -25 -45 -20 q-10 0 -39 8t-54.5 22.5t-17.5 26.5z" />
<glyph unicode="&#xde;" horiz-adv-x="1286" d="M154 16v1442q0 41 184 41q27 0 44 -15.5t17 -37.5v-258h275q283 0 406.5 -91t123.5 -354q0 -135 -30.5 -223t-100 -136t-161 -66.5t-230.5 -18.5h-283v-270q0 -23 -17 -38.5t-44 -15.5q-184 0 -184 41zM399 516h275q174 0 223 43t49 184.5t-49 184.5t-223 43h-275v-455z " />
<glyph unicode="&#xdf;" horiz-adv-x="1282" d="M154 16v1026q0 135 69.5 231.5t164.5 135.5t202 39q186 0 307 -107.5t123 -302.5q0 -170 -135 -286q115 -57 205 -147.5t90 -201.5q-4 -403 -559 -403h-39q-49 0 -50 57q0 154 37 154h72q295 0 295 192q0 53 -56.5 99.5t-123 74t-122.5 70.5t-56 92q0 47 30.5 84 t68.5 57.5t68.5 62.5t30.5 99q0 63 -34.5 108.5t-88.5 57.5q-51 14 -100 -3t-66 -66q-92 -66 -92 -178v-930q0 -55 -65 -56q-176 0 -176 41z" />
<glyph unicode="&#xe0;" horiz-adv-x="1056" d="M92 311q0 76 9.5 128.5t36 103.5t86 77.5t151.5 26.5q176 0 317 -41q-4 158 -43 226.5t-147 68.5q-47 0 -123 -10l-105 -17q-10 -2 -21 11.5t-19.5 39t-13.5 44t-11 41.5q-10 55 37 61l78 16q59 12 188 17q203 0 307.5 -107.5t104.5 -302.5v-561q0 -49 -70 -83t-173 -48 t-176 -19.5t-128 -5.5q-162 0 -223.5 83t-61.5 251zM139 1554q0 14 37 25q168 25 180 25q20 0 35 -17l201 -266l26 -39q8 -10 -19.5 -24.5t-58 -22.5t-40.5 -8q-18 0 -39 20l-303 279q-19 22 -19 28zM326 326q-4 -145 77 -146q154 0 289 21v207q-57 37 -250 36 q-63 0 -88.5 -23t-27.5 -95z" />
<glyph unicode="&#xe1;" horiz-adv-x="1056" d="M92 311q0 76 9.5 128.5t36 103.5t86 77.5t151.5 26.5q176 0 317 -41q-4 158 -43 226.5t-147 68.5q-47 0 -123 -10l-105 -17q-10 -2 -21 11.5t-19.5 39t-13.5 44t-11 41.5q-10 55 37 61l78 16q59 12 188 17q203 0 307.5 -107.5t104.5 -302.5v-561q0 -49 -70 -83t-173 -48 t-176 -19.5t-128 -5.5q-162 0 -223.5 83t-61.5 251zM326 326q-4 -145 77 -146q154 0 289 21v207q-57 37 -250 36q-63 0 -88.5 -23t-27.5 -95zM459 1298l168 224q47 70 78 96q6 4 190 -21q18 -4 27.5 -11t7.5 -17q-4 -8 -19 -23l-297 -284q-25 -25 -45 -21q-10 0 -38.5 8 t-54 22.5t-17.5 26.5z" />
<glyph unicode="&#xe2;" horiz-adv-x="1056" d="M92 311q0 76 9.5 128.5t36 103.5t86 77.5t151.5 26.5q176 0 317 -41q-4 158 -43 226.5t-147 68.5q-47 0 -123 -10l-105 -17q-10 -2 -21 11.5t-19.5 39t-13.5 44t-11 41.5q-10 55 37 61l78 16q59 12 188 17q203 0 307.5 -107.5t104.5 -302.5v-561q0 -49 -70 -83t-173 -48 t-176 -19.5t-128 -5.5q-162 0 -223.5 83t-61.5 251zM223 1401l289 248q14 14 28.5 14t28.5 -14l289 -248q29 -27 -2 -68q-96 -111 -123 -88l-192 168l-195 -168q-27 -20 -121 88q-35 41 -2 68zM326 326q-4 -145 77 -146q154 0 289 21v207q-57 37 -250 36q-63 0 -88.5 -23 t-27.5 -95z" />
<glyph unicode="&#xe3;" horiz-adv-x="1056" d="M92 311q0 76 9.5 128.5t36 103.5t86 77.5t151.5 26.5q176 0 317 -41q-4 158 -43 226.5t-147 68.5q-47 0 -123 -10l-105 -17q-10 -2 -21 11.5t-19.5 39t-13.5 44t-11 41.5q-10 55 37 61l78 16q59 12 188 17q203 0 307.5 -107.5t104.5 -302.5v-561q0 -49 -70 -83t-173 -48 t-176 -19.5t-128 -5.5q-162 0 -223.5 83t-61.5 251zM229 1309q2 12 19 45q78 137 207 137q37 0 104.5 -29.5t108.5 -29.5q53 0 75 47q2 12 20.5 11t84.5 -24q41 -16 35 -43q-8 -27 -19 -43q-66 -117 -180 -135h-39q-33 2 -97.5 30t-103.5 28q-53 0 -77 -48q-4 -10 -9.5 -12 t-27 3t-66.5 22q-41 12 -35 41zM326 326q-4 -145 77 -146q154 0 289 21v207q-57 37 -250 36q-63 0 -88.5 -23t-27.5 -95z" />
<glyph unicode="&#xe4;" horiz-adv-x="1056" d="M92 311q0 76 9.5 128.5t36 103.5t86 77.5t151.5 26.5q176 0 317 -41q-4 158 -43 226.5t-147 68.5q-47 0 -123 -10l-105 -17q-10 -2 -21 11.5t-19.5 39t-13.5 44t-11 41.5q-10 55 37 61l78 16q59 12 188 17q203 0 307.5 -107.5t104.5 -302.5v-561q0 -49 -70 -83t-173 -48 t-176 -19.5t-128 -5.5q-162 0 -223.5 83t-61.5 251zM229 1284v238q0 41 168 41q27 0 45.5 -15.5t18.5 -38.5v-213q0 -23 -18.5 -38t-45.5 -15q-168 0 -168 41zM326 326q-4 -145 77 -146q154 0 289 21v207q-57 37 -250 36q-63 0 -88.5 -23t-27.5 -95zM616 1284v238 q0 41 168 41q27 0 45.5 -15.5t18.5 -38.5v-213q0 -23 -18.5 -38t-45.5 -15q-168 0 -168 41z" />
<glyph unicode="&#xe5;" horiz-adv-x="1056" d="M92 311q0 76 9.5 128.5t36 103.5t86 77.5t151.5 26.5q176 0 317 -41q-4 158 -43 226.5t-147 68.5q-47 0 -123 -10l-105 -17q-10 -2 -21 11.5t-19.5 39t-13.5 44t-11 41.5q-10 55 37 61l78 16q59 12 188 17q203 0 307.5 -107.5t104.5 -302.5v-561q0 -49 -70 -83t-173 -48 t-176 -19.5t-128 -5.5q-162 0 -223.5 83t-61.5 251zM301 1456q0 86 61.5 148.5t166 62.5t167 -62.5t62.5 -150.5q0 -86 -62.5 -148.5t-165.5 -62.5q-106 0 -167.5 62.5t-61.5 150.5zM326 326q-4 -145 77 -146q154 0 289 21v207q-57 37 -250 36q-63 0 -88.5 -23t-27.5 -95z M426 1456q0 -39 26.5 -65.5t71.5 -26.5t73 27.5t28 64.5q0 39 -28 66.5t-73 27.5t-71.5 -27.5t-26.5 -66.5z" />
<glyph unicode="&#xe6;" horiz-adv-x="1619" d="M86 311q0 139 40 223t163 105q70 8 117 8q166 -6 280 -41q-4 133 -32.5 203t-100.5 82q-63 8 -162 2q-14 0 -45 -6l-104 -13q-31 94 -49 179q86 51 315 51q193 0 295 -109q53 63 136 86t216 23q113 0 186.5 -25.5t106.5 -78t44 -105.5t11 -131v-119q0 -37 -21.5 -63.5 t-80 -52t-178 -40t-301.5 -16.5q0 -127 35.5 -200.5t129.5 -88.5q53 -4 84 -2q88 4 259 39q37 -143 45 -186q-33 -23 -138.5 -40.5t-212.5 -17.5q-178 0 -280 76q-150 -76 -461 -76q-170 0 -233.5 81t-63.5 253zM322 326q0 -72 16 -109t61 -37q242 0 287 23v203 q-18 14 -95 26t-177 12q-92 1 -92 -118zM924 676q350 0 350 22v78q0 125 -123 125t-172 -46t-55 -179z" />
<glyph unicode="&#xe7;" horiz-adv-x="956" d="M123 401v277q0 213 99.5 319.5t312.5 106.5q131 0 276 -35q47 -14 35 -63q-6 -29 -10.5 -43.5t-13.5 -42t-19 -41t-23 -11.5q-193 33 -245 33q-104 0 -141.5 -70.5t-37.5 -205.5v-170q0 -137 37 -208t142 -71q55 0 245 35q31 4 66 -139q12 -47 -35 -62q-96 -27 -193 -33 l-16 -32q80 -8 121 -48t41 -100q0 -125 -78 -197.5t-227 -72.5q-94 0 -154 33q-14 6 -20 11t-3 28.5t21 68.5q12 27 53 4q49 -16 86 -16q68 0 103 32.5t35 78.5q0 29 -32 50t-85 21q-47 0 -64.5 9.5t-1.5 41.5l43 93q-317 42 -317 419z" />
<glyph unicode="&#xe8;" horiz-adv-x="1058" d="M123 403v132q0 152 16.5 252t48 164.5t92 97t130 44t180.5 11.5q113 0 186.5 -25.5t106 -78t44 -105.5t11.5 -131v-119q0 -37 -21.5 -63.5t-80 -52t-179 -40t-303.5 -16.5q0 -141 44 -217t159 -76q111 0 293 39q10 2 20.5 -11t19.5 -40t13 -42t10 -42q8 -49 -34 -61 q-156 -45 -322 -46q-215 0 -324.5 108.5t-109.5 317.5zM193 1554q0 14 36 25q168 25 181 25q20 0 34 -17l201 -266l27 -39q8 -10 -19.5 -24.5t-58.5 -22.5t-41 -8q-18 0 -39 20l-303 279q-18 22 -18 28zM354 651q266 10 353 51v74q0 125 -121 125q-125 0 -174.5 -49 t-57.5 -201z" />
<glyph unicode="&#xe9;" horiz-adv-x="1058" d="M123 403v132q0 152 16.5 252t48 164.5t92 97t130 44t180.5 11.5q113 0 186.5 -25.5t106 -78t44 -105.5t11.5 -131v-119q0 -37 -21.5 -63.5t-80 -52t-179 -40t-303.5 -16.5q0 -141 44 -217t159 -76q111 0 293 39q10 2 20.5 -11t19.5 -40t13 -42t10 -42q8 -49 -34 -61 q-156 -45 -322 -46q-215 0 -324.5 108.5t-109.5 317.5zM354 651q266 10 353 51v74q0 125 -121 125q-125 0 -174.5 -49t-57.5 -201zM512 1298l168 224q47 70 78 96q6 4 190 -21q18 -4 27.5 -11t7.5 -17q-4 -8 -18 -23l-297 -284q-25 -25 -45 -21q-10 0 -39 8t-54.5 22.5 t-17.5 26.5z" />
<glyph unicode="&#xea;" horiz-adv-x="1058" d="M123 403v132q0 152 16.5 252t48 164.5t92 97t130 44t180.5 11.5q113 0 186.5 -25.5t106 -78t44 -105.5t11.5 -131v-119q0 -37 -21.5 -63.5t-80 -52t-179 -40t-303.5 -16.5q0 -141 44 -217t159 -76q111 0 293 39q10 2 20.5 -11t19.5 -40t13 -42t10 -42q8 -49 -34 -61 q-156 -45 -322 -46q-215 0 -324.5 108.5t-109.5 317.5zM238 1401l288 248q14 14 28.5 14t29.5 -14l288 -248q29 -27 -2 -68q-96 -111 -122 -88l-193 168l-195 -168q-27 -20 -120 88q-35 41 -2 68zM354 651q266 10 353 51v74q0 125 -121 125q-125 0 -174.5 -49t-57.5 -201z " />
<glyph unicode="&#xeb;" horiz-adv-x="1058" d="M123 403v132q0 152 16.5 252t48 164.5t92 97t130 44t180.5 11.5q113 0 186.5 -25.5t106 -78t44 -105.5t11.5 -131v-119q0 -37 -21.5 -63.5t-80 -52t-179 -40t-303.5 -16.5q0 -141 44 -217t159 -76q111 0 293 39q10 2 20.5 -11t19.5 -40t13 -42t10 -42q8 -49 -34 -61 q-156 -45 -322 -46q-215 0 -324.5 108.5t-109.5 317.5zM281 1284v238q0 41 168 41q27 0 45 -15.5t18 -38.5v-213q0 -23 -18.5 -38t-44.5 -15q-168 0 -168 41zM354 651q266 10 353 51v74q0 125 -121 125q-125 0 -174.5 -49t-57.5 -201zM668 1284v238q0 41 168 41 q27 0 45 -15.5t18 -38.5v-213q0 -23 -18.5 -38t-44.5 -15q-168 0 -168 41z" />
<glyph unicode="&#xec;" horiz-adv-x="638" d="M-129 1554q0 14 37 25q168 25 180 25q20 0 35 -17l201 -266l26 -39q8 -10 -19.5 -24.5t-58 -22.5t-41.5 -8q-18 0 -38 20l-304 279q-18 22 -18 28zM154 256v811q0 39 168 39q61 0 61 -53v-727q0 -80 19.5 -110t72.5 -17q29 0 74 16q10 4 20.5 -7t22.5 -41t16 -41t15 -42 q12 -49 -31 -64q-121 -45 -213 -45q-225 0 -225 281z" />
<glyph unicode="&#xed;" horiz-adv-x="630" d="M154 256v811q0 39 168 39q61 0 61 -53v-727q0 -80 19.5 -110t72.5 -17q29 0 74 16q10 4 20.5 -7t22.5 -41t16 -41t15 -42q12 -49 -31 -64q-121 -45 -213 -45q-225 0 -225 281zM190 1298l168 224q47 70 78 96q6 4 191 -21q18 -4 27.5 -11t7.5 -17q-4 -8 -19 -23l-297 -284 q-23 -25 -45 -21q-10 0 -39 8t-54.5 22.5t-17.5 26.5z" />
<glyph unicode="&#xee;" horiz-adv-x="638" d="M-37 1401l289 248q14 14 28.5 14t28.5 -14l289 -248q29 -27 -2 -68q-96 -111 -123 -88l-192 168l-195 -168q-27 -20 -121 88q-35 41 -2 68zM154 256v811q0 39 168 39q61 0 61 -53v-727q0 -80 19.5 -110t72.5 -17q29 0 74 16q10 4 20.5 -7t22.5 -41t16 -41t15 -42 q12 -49 -31 -64q-121 -45 -213 -45q-225 0 -225 281z" />
<glyph unicode="&#xef;" horiz-adv-x="638" d="M-39 1284v238q0 41 168 41q27 0 45.5 -15.5t18.5 -38.5v-213q0 -23 -18.5 -38t-45.5 -15q-168 0 -168 41zM154 256v811q0 39 168 39q61 0 61 -53v-727q0 -80 19.5 -110t72.5 -17q29 0 74 16q10 4 20.5 -7t22.5 -41t16 -41t15 -42q12 -49 -31 -64q-121 -45 -213 -45 q-225 0 -225 281zM348 1284v238q0 41 168 41q27 0 45.5 -15.5t18.5 -38.5v-213q0 -23 -18.5 -38t-45.5 -15q-168 0 -168 41z" />
<glyph unicode="&#xf0;" horiz-adv-x="1296" d="M102 463v8q0 248 110 358.5t353 124.5q82 0 185 -24q-76 117 -183 196l-67 -86q-31 -45 -78 -12q-133 92 -115 121l68 90l-56 31q-23 12 -16 41q10 63 42 109t69 32l73 -37l68 88q29 43 80 10q131 -90 113 -118l-62 -84q219 -145 344 -359.5t127 -480.5v-8 q0 -268 -124 -377t-396 -109h-14q-272 0 -396.5 110t-124.5 376zM352 453q0 -150 51.5 -207.5t219.5 -57.5h14q170 0 219 56.5t49 212t-51 222t-217 66.5h-14q-166 0 -218.5 -68t-52.5 -224z" />
<glyph unicode="&#xf1;" horiz-adv-x="1120" d="M139 16v893q0 66 164 130.5t385 64.5q80 0 135.5 -22.5t85 -53.5t45 -88t18.5 -103t3 -122v-686q0 -23 -17.5 -38.5t-44.5 -15.5q-170 0 -170 41v652q0 61 -2 94t-9 69.5t-24.5 53t-45.5 16.5q-78 0 -147 -7t-106.5 -16.5t-37.5 -19.5v-829q0 -23 -18.5 -38.5 t-45.5 -15.5q-168 0 -168 41zM266 1409q2 12 19 45q78 137 207 137q37 0 104.5 -29.5t108.5 -29.5q53 0 75 47q2 12 20.5 11t84.5 -23q41 -16 35 -43q-8 -27 -19 -43q-66 -117 -180 -135h-39q-33 2 -97.5 29.5t-103.5 27.5q-53 0 -78 -47q-4 -10 -9 -12.5t-26.5 3 t-66.5 21.5q-41 12 -35 41z" />
<glyph unicode="&#xf2;" horiz-adv-x="1085" d="M123 385v311q0 408 420 408t420 -408v-311q0 -408 -420 -408t-420 408zM170 1554q0 14 37 25q168 25 180 25q20 0 35 -17l201 -266l26 -39q8 -10 -19.5 -24.5t-58 -22.5t-41.5 -8q-18 0 -38 20l-304 279q-18 22 -18 28zM354 438q0 -133 37 -195.5t151.5 -62.5t151.5 62.5 t37 195.5v205q0 133 -37 195.5t-151.5 62.5t-151.5 -62.5t-37 -195.5v-205z" />
<glyph unicode="&#xf3;" horiz-adv-x="1085" d="M123 385v311q0 408 420 408t420 -408v-311q0 -408 -420 -408t-420 408zM354 438q0 -133 37 -195.5t151.5 -62.5t151.5 62.5t37 195.5v205q0 133 -37 195.5t-151.5 62.5t-151.5 -62.5t-37 -195.5v-205zM487 1298l168 224q47 70 78 96q6 4 191 -21q18 -4 27.5 -11t6.5 -17 q-4 -8 -18 -23l-297 -284q-25 -25 -45 -21q-10 0 -39 8t-54.5 22.5t-17.5 26.5z" />
<glyph unicode="&#xf4;" horiz-adv-x="1085" d="M123 385v311q0 408 420 408t420 -408v-311q0 -408 -420 -408t-420 408zM233 1401l289 248q14 14 28.5 14t29.5 -14l288 -248q29 -27 -2 -68q-96 -111 -123 -88l-192 168l-195 -168q-27 -20 -120 88q-36 41 -3 68zM354 438q0 -133 37 -195.5t151.5 -62.5t151.5 62.5 t37 195.5v205q0 133 -37 195.5t-151.5 62.5t-151.5 -62.5t-37 -195.5v-205z" />
<glyph unicode="&#xf5;" horiz-adv-x="1085" d="M123 385v311q0 408 420 408t420 -408v-311q0 -408 -420 -408t-420 408zM240 1309q2 12 18 45q78 137 207 137q37 0 104.5 -29.5t108.5 -29.5q51 0 76 47q2 12 20.5 11t83.5 -24q41 -16 35 -43q-8 -27 -19 -43q-66 -117 -180 -135h-39q-33 2 -97 30t-103 28q-53 0 -78 -48 q-4 -10 -9.5 -12t-27 3t-66.5 22q-40 12 -34 41zM354 438q0 -133 37 -195.5t151.5 -62.5t151.5 62.5t37 195.5v205q0 133 -37 195.5t-151.5 62.5t-151.5 -62.5t-37 -195.5v-205z" />
<glyph unicode="&#xf6;" horiz-adv-x="1085" d="M123 385v311q0 408 420 408t420 -408v-311q0 -408 -420 -408t-420 408zM233 1282v238q0 41 168 41q27 0 45.5 -15.5t18.5 -38.5v-213q0 -23 -18.5 -38t-45.5 -15q-168 0 -168 41zM354 438q0 -133 37 -195.5t151.5 -62.5t151.5 62.5t37 195.5v205q0 133 -37 195.5 t-151.5 62.5t-151.5 -62.5t-37 -195.5v-205zM621 1282v238q0 41 167 41q27 0 45.5 -15.5t18.5 -38.5v-213q0 -23 -18.5 -38t-45.5 -15q-167 0 -167 41z" />
<glyph unicode="&#xf7;" horiz-adv-x="1062" d="M41 494q0 162 39 161h889q23 0 38 -16t15 -43q0 -162 -41 -162h-889q-23 0 -37 16.5t-14 43.5zM414 25v237q0 41 170 41q27 0 44 -15.5t17 -37.5v-213q0 -23 -17.5 -38t-43.5 -15q-170 0 -170 41zM414 827v240q0 39 170 39q61 0 61 -53v-211q0 -53 -61 -54 q-170 0 -170 39z" />
<glyph unicode="&#xf8;" horiz-adv-x="1142" d="M37 14l121 176q-31 84 -31 195v311q0 408 420 408q127 0 221 -39l57 82l52 55q25 23 69.5 -9t74.5 -76t17 -56l-80 -139l-24 -33q33 -80 33 -193v-311q0 -408 -420 -408q-141 0 -238 46q-70 -111 -110 -152q-23 -23 -66 10q-43 27 -75.5 73t-20.5 60zM358 477l283 408 q-39 16 -94 16q-115 0 -152 -62.5t-37 -195.5v-164v-2zM434 205q41 -25 113 -25q115 0 151.5 62.5t36.5 195.5v164v19z" />
<glyph unicode="&#xf9;" horiz-adv-x="1126" d="M143 365v690q0 25 52.5 37t101.5 12q31 0 54.5 -12.5t23.5 -32.5v-647q0 -61 2 -94t9 -70t24.5 -53.5t46.5 -16.5q78 0 146.5 7.5t106.5 16.5t38 19v834q0 27 52 38t103 11q31 0 53.5 -12.5t22.5 -32.5v-889q0 -66 -164 -130.5t-385 -64.5q-80 0 -135 22.5t-85 53.5 t-45 88.5t-18.5 103.5t-3.5 122zM188 1554q0 14 37 25q168 25 181 25q20 0 34 -17l201 -266l27 -39q8 -10 -19.5 -24.5t-58.5 -22.5t-41 -8q-18 0 -39 20l-303 279q-19 22 -19 28z" />
<glyph unicode="&#xfa;" horiz-adv-x="1126" d="M143 365v690q0 25 52.5 37t101.5 12q31 0 54.5 -12.5t23.5 -32.5v-647q0 -61 2 -94t9 -70t24.5 -53.5t46.5 -16.5q78 0 146.5 7.5t106.5 16.5t38 19v834q0 27 52 38t103 11q31 0 53.5 -12.5t22.5 -32.5v-889q0 -66 -164 -130.5t-385 -64.5q-80 0 -135 22.5t-85 53.5 t-45 88.5t-18.5 103.5t-3.5 122zM508 1298l168 224q47 70 78 96q6 4 190 -21q18 -4 27.5 -11t7.5 -17q-4 -8 -18 -23l-297 -284q-25 -25 -46 -21q-10 0 -38.5 8t-54 22.5t-17.5 26.5z" />
<glyph unicode="&#xfb;" horiz-adv-x="1126" d="M143 365v690q0 25 52.5 37t101.5 12q31 0 54.5 -12.5t23.5 -32.5v-647q0 -61 2 -94t9 -70t24.5 -53.5t46.5 -16.5q78 0 146.5 7.5t106.5 16.5t38 19v834q0 27 52 38t103 11q31 0 53.5 -12.5t22.5 -32.5v-889q0 -66 -164 -130.5t-385 -64.5q-80 0 -135 22.5t-85 53.5 t-45 88.5t-18.5 103.5t-3.5 122zM250 1401l289 248q14 14 28.5 14t28.5 -14l289 -248q29 -27 -2 -68q-96 -111 -123 -88l-193 168l-194 -168q-27 -20 -121 88q-35 41 -2 68z" />
<glyph unicode="&#xfc;" horiz-adv-x="1126" d="M143 365v690q0 25 52.5 37t101.5 12q31 0 54.5 -12.5t23.5 -32.5v-647q0 -61 2 -94t9 -70t24.5 -53.5t46.5 -16.5q78 0 146.5 7.5t106.5 16.5t38 19v834q0 27 52 38t103 11q31 0 53.5 -12.5t22.5 -32.5v-889q0 -66 -164 -130.5t-385 -64.5q-80 0 -135 22.5t-85 53.5 t-45 88.5t-18.5 103.5t-3.5 122zM248 1284v238q0 41 168 41q27 0 45 -15.5t18 -38.5v-213q0 -23 -18.5 -38t-44.5 -15q-168 0 -168 41zM635 1284v238q0 41 168 41q27 0 45 -15.5t18 -38.5v-213q0 -23 -18.5 -38t-44.5 -15q-168 0 -168 41z" />
<glyph unicode="&#xfd;" horiz-adv-x="1153" d="M158 381v682q0 18 22.5 30.5t52.5 12.5q154 0 154 -47v-668q0 -106 16.5 -158.5t69.5 -52.5q113 0 199 13.5t90 29.5v840q0 18 22.5 30.5t53.5 12.5q156 0 155 -49v-1092q0 -109 -5 -171t-22.5 -126.5t-52 -96.5t-95 -51.5t-152.5 -19.5q-244 0 -459 94q-43 18 -31 64 q41 133 74 133q8 0 29 -8q242 -82 399 -82q53 0 68.5 54.5t15.5 191.5v82q-131 -53 -318 -54q-59 0 -105 12.5t-76 30t-51.5 52t-31.5 62.5t-15 78t-6 81t-1 90zM526 1298l168 224q47 70 78 96q6 4 191 -21q18 -4 27 -11t7 -17q-4 -8 -18 -23l-297 -284q-23 -25 -45 -21 q-10 0 -39 8t-54.5 22.5t-17.5 26.5z" />
<glyph unicode="&#xfe;" horiz-adv-x="1107" d="M156 -487v2019q0 39 168 39q61 0 61 -51v-471q141 55 317 55q82 0 137.5 -22.5t83 -51.5t42 -90t16.5 -101t2 -122v-12v-324q0 -63 -1 -91t-5 -81t-14.5 -78t-31 -60.5t-49 -52t-74.5 -29t-106 -12.5q-174 0 -317 29v-481q0 -51 -61 -51q-168 0 -168 39zM385 209 q94 -29 260 -29q29 0 53 6q20 6 31.5 23.5t16 59.5t5.5 67.5t1 91.5v248q0 55 -1 81.5t-5.5 62.5t-15.5 52.5t-30 22.5q-31 6 -59 6q-68 0 -129 -7t-94 -17.5t-33 -18.5v-649z" />
<glyph unicode="&#xff;" horiz-adv-x="1153" d="M158 381v682q0 18 22.5 30.5t52.5 12.5q154 0 154 -47v-668q0 -106 16.5 -158.5t69.5 -52.5q113 0 199 13.5t90 29.5v840q0 18 22.5 30.5t53.5 12.5q156 0 155 -49v-1092q0 -109 -5 -171t-22.5 -126.5t-52 -96.5t-95 -51.5t-152.5 -19.5q-244 0 -459 94q-43 18 -31 64 q41 133 74 133q8 0 29 -8q242 -82 399 -82q53 0 68.5 54.5t15.5 191.5v82q-131 -53 -318 -54q-59 0 -105 12.5t-76 30t-51.5 52t-31.5 62.5t-15 78t-6 81t-1 90zM272 1284v238q0 41 168 41q27 0 45.5 -15.5t18.5 -38.5v-213q0 -23 -18.5 -38t-45.5 -15q-168 0 -168 41z M659 1284v238q0 41 168 41q27 0 45.5 -15.5t18.5 -38.5v-213q0 -23 -18.5 -38t-45.5 -15q-168 0 -168 41z" />
<glyph unicode="&#x152;" horiz-adv-x="2148" d="M123 535v403q0 305 143.5 431t456.5 126h16q231 0 365 -74q20 51 53 52h828q20 0 34.5 -16.5t14.5 -41.5q0 -160 -39 -160h-654v-397h564q23 0 36 -16.5t13 -42.5q0 -158 -37 -158h-576v-424h644q20 0 34.5 -16.5t14.5 -40.5q0 -160 -39 -160h-723q-113 0 -164 53 q-131 -76 -369 -76h-16q-313 0 -456.5 126.5t-143.5 431.5zM381 602q0 -94 5 -149.5t23.5 -112.5t55.5 -85t100.5 -45t157.5 -17h16q94 0 158 17t100.5 46t56 84t24.5 111.5t5 150.5v268q0 94 -5 150.5t-24.5 112t-56 84t-100 46t-158.5 17.5h-16q-94 0 -157.5 -17.5 t-100.5 -45t-55.5 -85t-23.5 -112.5t-5 -150v-268z" />
<glyph unicode="&#x153;" horiz-adv-x="1669" d="M123 385v311q0 408 420 408q203 0 303 -100q51 57 134 78.5t220 21.5q94 0 162 -21.5t103.5 -51.5t55 -82t24.5 -96t5 -110v-98q0 -37 -21.5 -63.5t-80.5 -52t-180 -40t-301 -16.5q0 -139 44 -216t156 -77q111 0 293 39q10 2 20.5 -11t19.5 -40t13.5 -42t10.5 -42 q12 -47 -35 -61q-125 -35 -260 -43q-66 0 -99 2q-174 8 -276 102q-98 -106 -311 -107q-420 0 -420 408zM354 479q0 -66 2 -102.5t12.5 -79.5t30 -64.5t55 -37t89.5 -15.5q115 0 151.5 62.5t36.5 195.5v164q0 66 -2 101.5t-12 79.5t-29.5 65.5t-55.5 37t-89 15.5 q-115 0 -152 -62.5t-37 -195.5v-164zM967 651q264 10 350 51v74q0 125 -121 125q-125 0 -173 -49t-56 -201z" />
<glyph unicode="&#x178;" horiz-adv-x="1304" d="M90 1407q-51 92 55 92q160 0 187 -49l319 -616l320 616q27 49 186 49q104 0 57 -92l-438 -815v-563q0 -23 -18.5 -38.5t-44.5 -15.5q-182 0 -183 41v574zM352 1653v237q0 41 168 41q27 0 45.5 -15t18.5 -38v-213q0 -23 -18.5 -38t-45.5 -15q-168 0 -168 41zM739 1653v237 q0 41 168 41q27 0 45.5 -15t18.5 -38v-213q0 -23 -18.5 -38t-45.5 -15q-168 0 -168 41z" />
<glyph unicode="&#x2c6;" horiz-adv-x="628" d="M-63 1501l288 248q14 14 28.5 14t29.5 -14l288 -248q29 -27 -2 -67q-96 -111 -123 -88l-192 167l-195 -167q-27 -20 -120 88q-35 40 -2 67z" />
<glyph unicode="&#x2dc;" horiz-adv-x="610" d="M12 1409q2 12 19 45q78 137 207 137q37 0 104.5 -29.5t108.5 -29.5q53 0 75 47q2 12 20.5 11t84.5 -23q41 -16 35 -43q-8 -27 -19 -43q-66 -117 -180 -135h-39q-33 2 -97.5 29.5t-103.5 27.5q-53 0 -77 -47q-4 -10 -9.5 -12.5t-27 3t-66.5 21.5q-41 12 -35 41z" />
<glyph unicode="&#x2000;" horiz-adv-x="1017" />
<glyph unicode="&#x2001;" horiz-adv-x="2035" />
<glyph unicode="&#x2002;" horiz-adv-x="1017" />
<glyph unicode="&#x2003;" horiz-adv-x="2035" />
<glyph unicode="&#x2004;" horiz-adv-x="677" />
<glyph unicode="&#x2005;" horiz-adv-x="507" />
<glyph unicode="&#x2006;" horiz-adv-x="337" />
<glyph unicode="&#x2007;" horiz-adv-x="337" />
<glyph unicode="&#x2008;" horiz-adv-x="253" />
<glyph unicode="&#x2009;" horiz-adv-x="405" />
<glyph unicode="&#x200a;" horiz-adv-x="112" />
<glyph unicode="&#x2010;" horiz-adv-x="800" d="M123 541q0 162 41 161h487q23 0 38.5 -16t15.5 -43q0 -162 -41 -162h-488q-23 0 -38 16.5t-15 43.5z" />
<glyph unicode="&#x2011;" horiz-adv-x="800" d="M123 541q0 162 41 161h487q23 0 38.5 -16t15.5 -43q0 -162 -41 -162h-488q-23 0 -38 16.5t-15 43.5z" />
<glyph unicode="&#x2012;" horiz-adv-x="800" d="M123 541q0 162 41 161h487q23 0 38.5 -16t15.5 -43q0 -162 -41 -162h-488q-23 0 -38 16.5t-15 43.5z" />
<glyph unicode="&#x2013;" horiz-adv-x="1048" d="M39 541q0 162 39 161h889q23 0 38 -16t15 -43q0 -162 -41 -162h-889q-23 0 -37 16.5t-14 43.5z" />
<glyph unicode="&#x2014;" horiz-adv-x="1599" d="M39 541q0 162 39 161h1433q23 0 38.5 -16t15.5 -43q0 -162 -41 -162h-1434q-23 0 -37 16.5t-14 43.5z" />
<glyph unicode="&#x2018;" horiz-adv-x="456" d="M72 1194q0 14 6 25l207 348q35 57 102 57q31 0 19 -47q0 -6 -3 -10l-90 -383q-4 -18 -63.5 -27.5t-116.5 -9.5q-61 0 -61 47z" />
<glyph unicode="&#x2019;" horiz-adv-x="473" d="M88 1196q0 6 2 8l92 385q2 16 62.5 25.5t115.5 9.5q61 0 62 -47q0 -12 -6 -25l-207 -346q-20 -35 -42 -47t-61 -12q-24 0 -18 49z" />
<glyph unicode="&#x201a;" horiz-adv-x="448" d="M43 -141l2 2v6l88 369q2 16 61.5 25t112.5 9q59 0 60 -47q0 -14 -7 -22l-198 -334q-33 -55 -101 -55q-24 0 -18 47z" />
<glyph unicode="&#x201c;" horiz-adv-x="800" d="M72 1194q0 14 6 25l207 348q35 57 102 57q31 0 19 -47q0 -6 -3 -10l-90 -383q-4 -18 -63.5 -27.5t-116.5 -9.5q-61 0 -61 47zM414 1194q0 14 6 25l207 348q35 57 100 57q27 0 21 -47l-3 -4v-6l-92 -383q-4 -18 -63.5 -27.5t-114.5 -9.5q-61 0 -61 47z" />
<glyph unicode="&#x201d;" horiz-adv-x="800" d="M74 1573v4q-6 47 20 47q66 0 103 -57l204 -348q8 -8 9 -25q0 -47 -62 -47q-57 0 -117.5 9t-62.5 28l-92 383q0 2 -2 6zM416 1577q-6 47 18 47q39 0 60.5 -11t42.5 -46l206 -348q6 -10 7 -25q0 -47 -62 -47q-55 0 -115.5 9t-62.5 28l-92 383q-2 4 -2 10z" />
<glyph unicode="&#x201e;" horiz-adv-x="802" d="M43 -150q0 2 1 4.5t1 4.5l88 368q2 16 61.5 25.5t112.5 9.5q59 0 60 -45q0 -12 -7 -24l-198 -332q-33 -55 -101 -56q-24 0 -18 45zM397 -150q0 6 2 9l88 368q2 16 60.5 25.5t114.5 9.5q59 0 59 -45q0 -12 -6 -24l-201 -332q-33 -55 -98 -56q-25 0 -19 45z" />
<glyph unicode="&#x2022;" horiz-adv-x="829" d="M188 332v463q0 41 105.5 60t214.5 19q55 0 88 -30.5t33 -79.5v-402q0 -49 -33 -79.5t-88 -30.5q-109 0 -214.5 19.5t-105.5 60.5z" />
<glyph unicode="&#x2026;" horiz-adv-x="1310" d="M102 16v238q0 41 168 41q27 0 45.5 -15.5t18.5 -37.5v-213q0 -23 -18.5 -38.5t-45.5 -15.5q-168 0 -168 41zM539 16v238q0 41 170 41q27 0 44 -15.5t17 -37.5v-213q0 -23 -17.5 -38.5t-43.5 -15.5q-170 0 -170 41zM977 16v238q0 41 168 41q27 0 44 -15.5t17 -37.5v-213 q0 -23 -17.5 -38.5t-43.5 -15.5q-168 0 -168 41z" />
<glyph unicode="&#x202f;" horiz-adv-x="405" />
<glyph unicode="&#x2039;" horiz-adv-x="774" d="M141 590l322 397q31 37 59 37q14 0 50 -37t36 -53q0 -25 -18 -49l-221 -295l221 -295q18 -27 18 -51q0 -16 -35.5 -52t-50.5 -36q-31 0 -59 34z" />
<glyph unicode="&#x203a;" horiz-adv-x="774" d="M158 244q0 25 18 51l221 295l-221 295q-18 25 -18 49q0 18 36.5 54t51.5 36q27 0 57 -37l324 -397l-324 -400q-29 -35 -57 -34q-14 0 -51 35t-37 53z" />
<glyph unicode="&#x205f;" horiz-adv-x="507" />
<glyph unicode="&#x20ac;" horiz-adv-x="1468" d="M59 551q0 117 27 121h297v94h-236q-29 6 -24 53q0 117 24 123h236q2 299 146.5 422t453.5 123h16q109 0 239 -24.5t130 -69.5q0 -16 -8 -41q-2 -6 -10.5 -26.5t-14.5 -33.5l-14 -28q-8 -16 -16.5 -24.5t-16.5 -8.5q-160 39 -289 39h-16q-203 0 -269.5 -74t-72.5 -254h399 q27 -10 23 -53q0 -119 -27 -123h-395v-94h326q27 -8 22 -51q0 -117 -26 -123h-320q6 -172 74.5 -244t271.5 -72h8q119 0 291 41q8 0 16.5 -8t16.5 -24.5t14 -30t14.5 -34t10.5 -26.5q8 -25 8 -39q0 -45 -128 -69.5t-241 -24.5h-16q-307 0 -450.5 120t-149.5 411h-301 q-27 10 -23 53z" />
<glyph unicode="&#x2122;" horiz-adv-x="1794" d="M2 1249q0 16 6 183h617q39 0 53 -9q0 -16 -6 -182h-230v-567q0 -68 -8 -94q-111 0 -196 6v655h-148q-63 0 -88 8zM616 588l191 844h176l174 -490l178 490h174l189 -844h-213l-88 432l-156 -432h-164l-157 430l-89 -430h-215z" />
<glyph unicode="&#xe000;" horiz-adv-x="1105" d="M0 1105h1105v-1105h-1105v1105z" />
<glyph unicode="&#xfb01;" horiz-adv-x="1357" d="M23 946q8 135 34 135h146v78q0 358 276 375q41 2 80 0q193 -16 203 -70q2 -27 -10 -51q-2 -4 -9.5 -22.5t-12.5 -31.5t-13 -28.5t-16.5 -24t-16.5 -6.5q-84 23 -139 31q-25 2 -45 -2q-41 -8 -53.5 -54t-12.5 -149v-45h623q45 0 45 -55v-700q0 -119 43 -129q8 -2 14 -3 t17.5 0t20.5 4t30.5 8t40.5 9q10 4 20 -7t22.5 -41t16.5 -41t14 -42q12 -49 -30 -64q-121 -45 -213 -45q-111 0 -168.5 71t-57.5 239v594h-440v-850q0 -37 -26 -43q-23 -12 -54 -9q-150 8 -149 39v863h-135q-31 0 -37 22q-8 18 -8 45zM872 1272v237q0 41 168 41 q31 0 44.5 -14t15.5 -28.5t2 -47.5v-139q0 -33 -2 -47t-15.5 -28.5t-44.5 -14.5q-168 0 -168 41z" />
<glyph unicode="&#xfb02;" horiz-adv-x="1339" d="M23 946q8 135 34 135h146v78q0 356 272 375q41 2 84 0q193 -16 203 -70q2 -27 -10 -51q-2 -4 -9.5 -22.5t-12.5 -31.5t-13 -28.5t-16.5 -24t-16.5 -6.5q-84 23 -139 31q-25 2 -45 -2q-41 -8 -53.5 -54t-12.5 -149v-45h418v437q0 31 152 38q31 0 53 -8q27 -8 26 -43v-1179 q0 -119 41 -129q8 -2 15.5 -3t18.5 0t19.5 3t30 8t39.5 10q10 4 22.5 -9t23 -38t16.5 -43.5t12 -40.5q16 -47 -29 -64q-113 -45 -213 -45q-227 0 -227 281v623h-420v-850q0 -37 -26 -43q-23 -12 -54 -9q-150 8 -149 39v863h-135q-31 0 -37 22q-8 18 -8 45z" />
<glyph unicode="&#xfb03;" horiz-adv-x="2209" d="M1724 256v811q0 39 168 39q29 0 46.5 -14.5t17.5 -38.5v-727q0 -80 18 -110q13 -21 44 -21q13 0 28 4q29 0 74 16q10 4 22 -9t22.5 -38t16.5 -43.5t12 -40.5q4 -13 5 -23q0 -29 -33 -41q-121 -45 -213 -45q-228 0 -228 281zM1724 1272v237q0 41 168 41q27 0 45.5 -15 t18.5 -38v-213q0 -23 -18.5 -38t-45.5 -15q-168 0 -168 41zM814 946q8 135 34 135h146v78q0 197 74.5 287t226.5 90h41q207 -16 217 -72q-2 -6 -3 -10t-3 -6t-4 -2q2 -12 -4 -31l-15 -39q-14 -41 -25.5 -59.5t-23.5 -16.5q-117 31 -149 31q-20 2 -33 0q-68 -14 -68 -168v-82 h213q31 0 39 -22q8 -25 4 -47q0 -133 -31 -133h-227v-850q0 -25 -18.5 -39.5t-42.5 -14.5q-168 0 -168 41v863h-135q-31 0 -37 22q-8 18 -8 45zM23 946q8 135 34 135h146v78q0 197 74.5 287t226.5 90h41q207 -16 217 -72q-2 -6 -3 -10t-3 -6t-4 -2q2 -12 -4 -31l-15 -39 q-14 -41 -25.5 -59.5t-23.5 -16.5q-117 31 -149 31q-20 2 -33 0q-68 -14 -68 -168v-82h213q31 0 39 -22q8 -25 4 -47q0 -133 -31 -133h-227v-850q0 -25 -18.5 -39.5t-42.5 -14.5q-168 0 -168 41v863h-135q-31 0 -37 22q-8 18 -8 45z" />
<glyph unicode="&#xfb04;" horiz-adv-x="2021" d="M23 946q8 135 34 135h146v78q0 356 272 375q41 2 84 0q193 -16 203 -70q2 -27 -10 -51q-2 -4 -9.5 -22.5t-12.5 -31.5t-13 -28.5t-16.5 -24t-16.5 -6.5q-84 23 -139 31q-25 2 -45 -2q-41 -8 -53.5 -54t-12.5 -149v-45h443v78q2 197 76.5 287t224.5 90q33 0 75.5 -2 t109.5 -20.5t75 -49.5q0 -33 -13 -51q-2 -6 -8 -23.5t-12 -30.5t-14.5 -28.5t-16.5 -24t-16 -6.5q-84 23 -139 31q-25 2 -45 -2q-41 -8 -52.5 -53t-11.5 -150v-45h426v437q0 31 150 38q31 0 53 -8q27 -8 26 -43v-1179q0 -111 35 -125q20 -14 76 0q29 4 55 14q10 4 20.5 -7 t23 -41t16.5 -41t14 -42q12 -49 -31 -64q-113 -45 -213 -45q-225 0 -225 281v623h-428v-850q0 -37 -27 -43q-27 -12 -53 -9q-152 8 -151 39v863h-445v-850q0 -37 -26 -43q-23 -12 -54 -9q-150 8 -149 39v863h-135q-31 0 -37 22q-8 18 -8 45z" />
</font>
</defs>
</svg>
